solid OpenSCAD_Model
  facet normal 0 0 -1
    outer loop
      vertex -4.40166 -30.9356 0
      vertex -4.40166 -29.0644 0
      vertex -3.64058 -32.645 0
    endloop
  endfacet
  facet normal 0 0 -1
    outer loop
      vertex -3.64058 -32.645 0
      vertex -4.40166 -29.0644 0
      vertex -3.64058 -27.355 0
    endloop
  endfacet
  facet normal 0 0 -1
    outer loop
      vertex -3.64058 -32.645 0
      vertex -3.64058 -27.355 0
      vertex -2.25 -26.1029 0
    endloop
  endfacet
  facet normal 0 0 -1
    outer loop
      vertex -3.64058 -32.645 0
      vertex -2.25 -26.1029 0
      vertex -0.470378 -25.5247 0
    endloop
  endfacet
  facet normal 0 0 -1
    outer loop
      vertex -3.64058 -32.645 0
      vertex -0.470378 -25.5247 0
      vertex 1.39058 -25.7202 0
    endloop
  endfacet
  facet normal 0 0 -1
    outer loop
      vertex -0.9 -29 0
      vertex 1.39058 -25.7202 0
      vertex 3.01109 -26.6558 0
    endloop
  endfacet
  facet normal 0 0 -1
    outer loop
      vertex 1 -29 0
      vertex 3.01109 -26.6558 0
      vertex 4.11095 -28.1697 0
    endloop
  endfacet
  facet normal 0 0 -1
    outer loop
      vertex 1 -30.9 0
      vertex 4.11095 -28.1697 0
      vertex 4.5 -30 0
    endloop
  endfacet
  facet normal 0 0 -1
    outer loop
      vertex -3.64058 -32.645 0
      vertex 4.5 -30 0
      vertex 4.11095 -31.8303 0
    endloop
  endfacet
  facet normal 0 0 -1
    outer loop
      vertex -3.64058 -32.645 0
      vertex 4.11095 -31.8303 0
      vertex 3.01109 -33.3442 0
    endloop
  endfacet
  facet normal 0 0 -1
    outer loop
      vertex -3.64058 -32.645 0
      vertex 3.01109 -33.3442 0
      vertex 1.39058 -34.2798 0
    endloop
  endfacet
  facet normal 0 0 -1
    outer loop
      vertex -3.64058 -32.645 0
      vertex 1.39058 -34.2798 0
      vertex -0.470378 -34.4753 0
    endloop
  endfacet
  facet normal 0 0 -1
    outer loop
      vertex -3.64058 -32.645 0
      vertex -0.470378 -34.4753 0
      vertex -2.25 -33.8971 0
    endloop
  endfacet
  facet normal 0 0 -1
    outer loop
      vertex -3.64058 -32.645 0
      vertex 1.39058 -25.7202 0
      vertex -0.9 -29 0
    endloop
  endfacet
  facet normal 0 0 -1
    outer loop
      vertex -0.9 -30.9 0
      vertex -3.64058 -32.645 0
      vertex -0.9 -29 0
    endloop
  endfacet
  facet normal 0 0 -1
    outer loop
      vertex 1 -29 0
      vertex 4.11095 -28.1697 0
      vertex 1 -30.9 0
    endloop
  endfacet
  facet normal 0 0 -1
    outer loop
      vertex -3.64058 -32.645 0
      vertex 1 -30.9 0
      vertex 4.5 -30 0
    endloop
  endfacet
  facet normal 0 0 -1
    outer loop
      vertex -0.9 -29 0
      vertex 3.01109 -26.6558 0
      vertex 1 -29 0
    endloop
  endfacet
  facet normal 0 0 -1
    outer loop
      vertex 1 -30.9 0
      vertex -3.64058 -32.645 0
      vertex -0.9 -30.9 0
    endloop
  endfacet
  facet normal -1 0 0
    outer loop
      vertex -4.40166 -30.9356 0
      vertex -4.40166 -30.9356 1
      vertex -4.40166 -29.0644 0
    endloop
  endfacet
  facet normal -1 0 0
    outer loop
      vertex -4.40166 -29.0644 0
      vertex -4.40166 -30.9356 1
      vertex -4.40166 -29.0644 1
    endloop
  endfacet
  facet normal -0.913545 -0.406737 0
    outer loop
      vertex -4.40166 -30.9356 0
      vertex -3.64058 -32.645 0
      vertex -4.40166 -30.9356 1
    endloop
  endfacet
  facet normal -0.913545 -0.406737 0
    outer loop
      vertex -4.40166 -30.9356 1
      vertex -3.64058 -32.645 0
      vertex -3.64058 -32.645 1
    endloop
  endfacet
  facet normal -0.669131 -0.743145 0
    outer loop
      vertex -3.64058 -32.645 1
      vertex -3.64058 -32.645 0
      vertex -2.25 -33.8971 0
    endloop
  endfacet
  facet normal -0.669131 -0.743145 0
    outer loop
      vertex -2.25 -33.8971 1
      vertex -3.64058 -32.645 1
      vertex -2.25 -33.8971 0
    endloop
  endfacet
  facet normal -0.309017 -0.951056 0
    outer loop
      vertex -2.25 -33.8971 1
      vertex -2.25 -33.8971 0
      vertex -0.470378 -34.4753 0
    endloop
  endfacet
  facet normal -0.309017 -0.951056 0
    outer loop
      vertex -0.470378 -34.4753 1
      vertex -2.25 -33.8971 1
      vertex -0.470378 -34.4753 0
    endloop
  endfacet
  facet normal 0.104529 -0.994522 0
    outer loop
      vertex -0.470378 -34.4753 1
      vertex -0.470378 -34.4753 0
      vertex 1.39058 -34.2798 0
    endloop
  endfacet
  facet normal 0.104529 -0.994522 0
    outer loop
      vertex 1.39058 -34.2798 1
      vertex -0.470378 -34.4753 1
      vertex 1.39058 -34.2798 0
    endloop
  endfacet
  facet normal 0.5 -0.866026 0
    outer loop
      vertex 1.39058 -34.2798 1
      vertex 1.39058 -34.2798 0
      vertex 3.01109 -33.3442 0
    endloop
  endfacet
  facet normal 0.5 -0.866026 0
    outer loop
      vertex 3.01109 -33.3442 1
      vertex 1.39058 -34.2798 1
      vertex 3.01109 -33.3442 0
    endloop
  endfacet
  facet normal 0.809017 -0.587785 0
    outer loop
      vertex 3.01109 -33.3442 1
      vertex 3.01109 -33.3442 0
      vertex 4.11095 -31.8303 0
    endloop
  endfacet
  facet normal 0.809017 -0.587785 0
    outer loop
      vertex 4.11095 -31.8303 1
      vertex 3.01109 -33.3442 1
      vertex 4.11095 -31.8303 0
    endloop
  endfacet
  facet normal 0.978148 -0.207911 0
    outer loop
      vertex 4.11095 -31.8303 1
      vertex 4.11095 -31.8303 0
      vertex 4.5 -30 0
    endloop
  endfacet
  facet normal 0.978148 -0.207911 0
    outer loop
      vertex 4.5 -30 1
      vertex 4.11095 -31.8303 1
      vertex 4.5 -30 0
    endloop
  endfacet
  facet normal 0.978148 0.207911 0
    outer loop
      vertex 4.5 -30 0
      vertex 4.11095 -28.1697 0
      vertex 4.11095 -28.1697 1
    endloop
  endfacet
  facet normal 0.978148 0.207911 0
    outer loop
      vertex 4.5 -30 1
      vertex 4.5 -30 0
      vertex 4.11095 -28.1697 1
    endloop
  endfacet
  facet normal 0.809017 0.587785 0
    outer loop
      vertex 4.11095 -28.1697 0
      vertex 3.01109 -26.6558 0
      vertex 3.01109 -26.6558 1
    endloop
  endfacet
  facet normal 0.809017 0.587785 0
    outer loop
      vertex 4.11095 -28.1697 1
      vertex 4.11095 -28.1697 0
      vertex 3.01109 -26.6558 1
    endloop
  endfacet
  facet normal 0.5 0.866026 0
    outer loop
      vertex 1.39058 -25.7202 0
      vertex 1.39058 -25.7202 1
      vertex 3.01109 -26.6558 0
    endloop
  endfacet
  facet normal 0.5 0.866026 0
    outer loop
      vertex 3.01109 -26.6558 0
      vertex 1.39058 -25.7202 1
      vertex 3.01109 -26.6558 1
    endloop
  endfacet
  facet normal 0.104529 0.994522 0
    outer loop
      vertex -0.470378 -25.5247 0
      vertex -0.470378 -25.5247 1
      vertex 1.39058 -25.7202 0
    endloop
  endfacet
  facet normal 0.104529 0.994522 0
    outer loop
      vertex 1.39058 -25.7202 0
      vertex -0.470378 -25.5247 1
      vertex 1.39058 -25.7202 1
    endloop
  endfacet
  facet normal -0.309017 0.951056 0
    outer loop
      vertex -2.25 -26.1029 0
      vertex -2.25 -26.1029 1
      vertex -0.470378 -25.5247 0
    endloop
  endfacet
  facet normal -0.309017 0.951056 0
    outer loop
      vertex -0.470378 -25.5247 0
      vertex -2.25 -26.1029 1
      vertex -0.470378 -25.5247 1
    endloop
  endfacet
  facet normal -0.669131 0.743145 0
    outer loop
      vertex -3.64058 -27.355 0
      vertex -3.64058 -27.355 1
      vertex -2.25 -26.1029 0
    endloop
  endfacet
  facet normal -0.669131 0.743145 0
    outer loop
      vertex -2.25 -26.1029 0
      vertex -3.64058 -27.355 1
      vertex -2.25 -26.1029 1
    endloop
  endfacet
  facet normal -0.913545 0.406737 0
    outer loop
      vertex -4.40166 -29.0644 0
      vertex -4.40166 -29.0644 1
      vertex -3.64058 -27.355 0
    endloop
  endfacet
  facet normal -0.913545 0.406737 0
    outer loop
      vertex -3.64058 -27.355 0
      vertex -4.40166 -29.0644 1
      vertex -3.64058 -27.355 1
    endloop
  endfacet
  facet normal 1 0 0
    outer loop
      vertex -0.9 -29 0
      vertex -0.9 -29 1
      vertex -0.9 -30.9 1
    endloop
  endfacet
  facet normal 1 0 0
    outer loop
      vertex -0.9 -30.9 0
      vertex -0.9 -29 0
      vertex -0.9 -30.9 1
    endloop
  endfacet
  facet normal 0 -1 0
    outer loop
      vertex 1 -29 0
      vertex 1 -29 1
      vertex -0.9 -29 1
    endloop
  endfacet
  facet normal 0 -1 0
    outer loop
      vertex -0.9 -29 0
      vertex 1 -29 0
      vertex -0.9 -29 1
    endloop
  endfacet
  facet normal -1 0 0
    outer loop
      vertex 1 -29 1
      vertex 1 -29 0
      vertex 1 -30.9 1
    endloop
  endfacet
  facet normal -1 0 0
    outer loop
      vertex 1 -30.9 1
      vertex 1 -29 0
      vertex 1 -30.9 0
    endloop
  endfacet
  facet normal 0 1 0
    outer loop
      vertex 1 -30.9 1
      vertex 1 -30.9 0
      vertex -0.9 -30.9 1
    endloop
  endfacet
  facet normal 0 1 0
    outer loop
      vertex -0.9 -30.9 1
      vertex 1 -30.9 0
      vertex -0.9 -30.9 0
    endloop
  endfacet
  facet normal 0 0 1
    outer loop
      vertex -4.40166 -29.0644 1
      vertex -4.40166 -30.9356 1
      vertex -3.64058 -32.645 1
    endloop
  endfacet
  facet normal 0 0 1
    outer loop
      vertex -0.470378 -34.4753 1
      vertex -4.40166 -29.0644 1
      vertex -2.25 -33.8971 1
    endloop
  endfacet
  facet normal 0 0 1
    outer loop
      vertex -2.25 -33.8971 1
      vertex -4.40166 -29.0644 1
      vertex -3.64058 -32.645 1
    endloop
  endfacet
  facet normal 0 0 1
    outer loop
      vertex 1.39058 -34.2798 1
      vertex -4.40166 -29.0644 1
      vertex -0.470378 -34.4753 1
    endloop
  endfacet
  facet normal 0 0 1
    outer loop
      vertex 3.01109 -33.3442 1
      vertex -4.40166 -29.0644 1
      vertex 1.39058 -34.2798 1
    endloop
  endfacet
  facet normal 0 0 1
    outer loop
      vertex -0.9 -30.9 1
      vertex -4.40166 -29.0644 1
      vertex 3.01109 -33.3442 1
    endloop
  endfacet
  facet normal 0 0 1
    outer loop
      vertex 1 -29 1
      vertex 4.11095 -31.8303 1
      vertex 4.5 -30 1
    endloop
  endfacet
  facet normal 0 0 1
    outer loop
      vertex 3.01109 -26.6558 1
      vertex -4.40166 -29.0644 1
      vertex 4.11095 -28.1697 1
    endloop
  endfacet
  facet normal 0 0 1
    outer loop
      vertex 1.39058 -25.7202 1
      vertex -4.40166 -29.0644 1
      vertex 3.01109 -26.6558 1
    endloop
  endfacet
  facet normal 0 0 1
    outer loop
      vertex -0.470378 -25.5247 1
      vertex -4.40166 -29.0644 1
      vertex 1.39058 -25.7202 1
    endloop
  endfacet
  facet normal 0 0 1
    outer loop
      vertex -2.25 -26.1029 1
      vertex -4.40166 -29.0644 1
      vertex -0.470378 -25.5247 1
    endloop
  endfacet
  facet normal 0 0 1
    outer loop
      vertex -3.64058 -27.355 1
      vertex -4.40166 -29.0644 1
      vertex -2.25 -26.1029 1
    endloop
  endfacet
  facet normal 0 0 1
    outer loop
      vertex 4.11095 -31.8303 1
      vertex -0.9 -30.9 1
      vertex 3.01109 -33.3442 1
    endloop
  endfacet
  facet normal 0 0 1
    outer loop
      vertex 4.11095 -28.1697 1
      vertex -4.40166 -29.0644 1
      vertex -0.9 -29 1
    endloop
  endfacet
  facet normal 0 0 1
    outer loop
      vertex 4.11095 -28.1697 1
      vertex 1 -29 1
      vertex 4.5 -30 1
    endloop
  endfacet
  facet normal 0 0 1
    outer loop
      vertex 4.11095 -28.1697 1
      vertex -0.9 -29 1
      vertex 1 -29 1
    endloop
  endfacet
  facet normal 0 0 1
    outer loop
      vertex 4.11095 -31.8303 1
      vertex 1 -30.9 1
      vertex -0.9 -30.9 1
    endloop
  endfacet
  facet normal 0 0 1
    outer loop
      vertex 1 -29 1
      vertex 1 -30.9 1
      vertex 4.11095 -31.8303 1
    endloop
  endfacet
  facet normal 0 0 1
    outer loop
      vertex -0.9 -30.9 1
      vertex -0.9 -29 1
      vertex -4.40166 -29.0644 1
    endloop
  endfacet
  facet normal 0 0 -1
    outer loop
      vertex -15 0 0
      vertex -14.6722 3.11867 0
      vertex -14.6722 -3.11867 0
    endloop
  endfacet
  facet normal 0 0 -1
    outer loop
      vertex -14.6722 -3.11867 0
      vertex -14.6722 3.11867 0
      vertex -13.7032 6.10105 0
    endloop
  endfacet
  facet normal 0 0 -1
    outer loop
      vertex -14.6722 -3.11867 0
      vertex -13.7032 6.10105 0
      vertex -12.1353 8.81678 0
    endloop
  endfacet
  facet normal 0 0 -1
    outer loop
      vertex -14.6722 -3.11867 0
      vertex -12.1353 8.81678 0
      vertex -10.037 11.1472 0
    endloop
  endfacet
  facet normal 0 0 -1
    outer loop
      vertex -14.6722 -3.11867 0
      vertex -10.037 11.1472 0
      vertex -7.5 12.9904 0
    endloop
  endfacet
  facet normal 0 0 -1
    outer loop
      vertex -14.6722 -3.11867 0
      vertex -7.5 12.9904 0
      vertex -4.63525 14.2658 0
    endloop
  endfacet
  facet normal 0 0 -1
    outer loop
      vertex -14.6722 -3.11867 0
      vertex -4.63525 14.2658 0
      vertex -1.56793 14.9178 0
    endloop
  endfacet
  facet normal 0 0 -1
    outer loop
      vertex -14.6722 -3.11867 0
      vertex -1.56793 14.9178 0
      vertex 1.56793 14.9178 0
    endloop
  endfacet
  facet normal 0 0 -1
    outer loop
      vertex -14.6722 -3.11867 0
      vertex 1.56793 14.9178 0
      vertex 4.63525 14.2658 0
    endloop
  endfacet
  facet normal 0 0 -1
    outer loop
      vertex -14.6722 -3.11867 0
      vertex 4.63525 14.2658 0
      vertex 7.5 12.9904 0
    endloop
  endfacet
  facet normal 0 0 -1
    outer loop
      vertex -14.6722 -3.11867 0
      vertex 7.5 12.9904 0
      vertex 10.037 11.1472 0
    endloop
  endfacet
  facet normal 0 0 -1
    outer loop
      vertex -14.6722 -3.11867 0
      vertex 10.037 11.1472 0
      vertex 12.1353 8.81678 0
    endloop
  endfacet
  facet normal 0 0 -1
    outer loop
      vertex -14.6722 -3.11867 0
      vertex 12.1353 8.81678 0
      vertex 13.7032 6.10105 0
    endloop
  endfacet
  facet normal 0 0 -1
    outer loop
      vertex -0.9 1 0
      vertex 13.7032 6.10105 0
      vertex 14.6722 3.11867 0
    endloop
  endfacet
  facet normal 0 0 -1
    outer loop
      vertex -14.6722 -3.11867 0
      vertex 15 0 0
      vertex 14.6722 -3.11867 0
    endloop
  endfacet
  facet normal 0 0 -1
    outer loop
      vertex -14.6722 -3.11867 0
      vertex 14.6722 -3.11867 0
      vertex 13.7032 -6.10105 0
    endloop
  endfacet
  facet normal 0 0 -1
    outer loop
      vertex -14.6722 -3.11867 0
      vertex 13.7032 -6.10105 0
      vertex 12.1353 -8.81678 0
    endloop
  endfacet
  facet normal 0 0 -1
    outer loop
      vertex -14.6722 -3.11867 0
      vertex 12.1353 -8.81678 0
      vertex 10.037 -11.1472 0
    endloop
  endfacet
  facet normal 0 0 -1
    outer loop
      vertex -14.6722 -3.11867 0
      vertex 10.037 -11.1472 0
      vertex 7.5 -12.9904 0
    endloop
  endfacet
  facet normal 0 0 -1
    outer loop
      vertex -14.6722 -3.11867 0
      vertex 7.5 -12.9904 0
      vertex 4.63525 -14.2658 0
    endloop
  endfacet
  facet normal 0 0 -1
    outer loop
      vertex -14.6722 -3.11867 0
      vertex 4.63525 -14.2658 0
      vertex 1.56793 -14.9178 0
    endloop
  endfacet
  facet normal 0 0 -1
    outer loop
      vertex -14.6722 -3.11867 0
      vertex 1.56793 -14.9178 0
      vertex -1.56793 -14.9178 0
    endloop
  endfacet
  facet normal 0 0 -1
    outer loop
      vertex -14.6722 -3.11867 0
      vertex -1.56793 -14.9178 0
      vertex -4.63525 -14.2658 0
    endloop
  endfacet
  facet normal 0 0 -1
    outer loop
      vertex -14.6722 -3.11867 0
      vertex -4.63525 -14.2658 0
      vertex -7.5 -12.9904 0
    endloop
  endfacet
  facet normal 0 0 -1
    outer loop
      vertex -14.6722 -3.11867 0
      vertex -7.5 -12.9904 0
      vertex -10.037 -11.1472 0
    endloop
  endfacet
  facet normal 0 0 -1
    outer loop
      vertex -14.6722 -3.11867 0
      vertex -10.037 -11.1472 0
      vertex -12.1353 -8.81678 0
    endloop
  endfacet
  facet normal 0 0 -1
    outer loop
      vertex -14.6722 -3.11867 0
      vertex -12.1353 -8.81678 0
      vertex -13.7032 -6.10105 0
    endloop
  endfacet
  facet normal 0 0 -1
    outer loop
      vertex -14.6722 -3.11867 0
      vertex 13.7032 6.10105 0
      vertex -0.9 1 0
    endloop
  endfacet
  facet normal 0 0 -1
    outer loop
      vertex 1 1 0
      vertex -0.9 1 0
      vertex 14.6722 3.11867 0
    endloop
  endfacet
  facet normal 0 0 -1
    outer loop
      vertex 1 1 0
      vertex 14.6722 3.11867 0
      vertex 15 0 0
    endloop
  endfacet
  facet normal 0 0 -1
    outer loop
      vertex -14.6722 -3.11867 0
      vertex -0.9 -0.9 0
      vertex 1 -0.9 0
    endloop
  endfacet
  facet normal 0 0 -1
    outer loop
      vertex -14.6722 -3.11867 0
      vertex 1 -0.9 0
      vertex 15 0 0
    endloop
  endfacet
  facet normal 0 0 -1
    outer loop
      vertex 1 1 0
      vertex 15 0 0
      vertex 1 -0.9 0
    endloop
  endfacet
  facet normal 0 0 -1
    outer loop
      vertex -0.9 -0.9 0
      vertex -14.6722 -3.11867 0
      vertex -0.9 1 0
    endloop
  endfacet
  facet normal -0.994522 0.104528 0
    outer loop
      vertex -15 0 0
      vertex -15 0 3
      vertex -14.6722 3.11867 0
    endloop
  endfacet
  facet normal -0.994522 0.104528 0
    outer loop
      vertex -14.6722 3.11867 0
      vertex -15 0 3
      vertex -14.6722 3.11867 3
    endloop
  endfacet
  facet normal -0.994522 -0.104528 0
    outer loop
      vertex -15 0 0
      vertex -14.6722 -3.11867 0
      vertex -15 0 3
    endloop
  endfacet
  facet normal -0.994522 -0.104528 0
    outer loop
      vertex -15 0 3
      vertex -14.6722 -3.11867 0
      vertex -14.6722 -3.11867 3
    endloop
  endfacet
  facet normal -0.951057 -0.309017 0
    outer loop
      vertex -14.6722 -3.11867 0
      vertex -13.7032 -6.10105 0
      vertex -14.6722 -3.11867 3
    endloop
  endfacet
  facet normal -0.951057 -0.309017 0
    outer loop
      vertex -14.6722 -3.11867 3
      vertex -13.7032 -6.10105 0
      vertex -13.7032 -6.10105 3
    endloop
  endfacet
  facet normal -0.866025 -0.5 0
    outer loop
      vertex -13.7032 -6.10105 0
      vertex -12.1353 -8.81678 0
      vertex -13.7032 -6.10105 3
    endloop
  endfacet
  facet normal -0.866025 -0.5 0
    outer loop
      vertex -13.7032 -6.10105 3
      vertex -12.1353 -8.81678 0
      vertex -12.1353 -8.81678 3
    endloop
  endfacet
  facet normal -0.743145 -0.669131 0
    outer loop
      vertex -12.1353 -8.81678 0
      vertex -10.037 -11.1472 0
      vertex -12.1353 -8.81678 3
    endloop
  endfacet
  facet normal -0.743145 -0.669131 0
    outer loop
      vertex -12.1353 -8.81678 3
      vertex -10.037 -11.1472 0
      vertex -10.037 -11.1472 3
    endloop
  endfacet
  facet normal -0.587785 -0.809017 0
    outer loop
      vertex -10.037 -11.1472 3
      vertex -10.037 -11.1472 0
      vertex -7.5 -12.9904 0
    endloop
  endfacet
  facet normal -0.587785 -0.809017 0
    outer loop
      vertex -7.5 -12.9904 3
      vertex -10.037 -11.1472 3
      vertex -7.5 -12.9904 0
    endloop
  endfacet
  facet normal -0.406737 -0.913545 0
    outer loop
      vertex -7.5 -12.9904 3
      vertex -7.5 -12.9904 0
      vertex -4.63525 -14.2658 0
    endloop
  endfacet
  facet normal -0.406737 -0.913545 0
    outer loop
      vertex -4.63525 -14.2658 3
      vertex -7.5 -12.9904 3
      vertex -4.63525 -14.2658 0
    endloop
  endfacet
  facet normal -0.207911 -0.978148 0
    outer loop
      vertex -4.63525 -14.2658 3
      vertex -4.63525 -14.2658 0
      vertex -1.56793 -14.9178 0
    endloop
  endfacet
  facet normal -0.207911 -0.978148 0
    outer loop
      vertex -1.56793 -14.9178 3
      vertex -4.63525 -14.2658 3
      vertex -1.56793 -14.9178 0
    endloop
  endfacet
  facet normal 0 -1 0
    outer loop
      vertex -1.56793 -14.9178 3
      vertex -1.56793 -14.9178 0
      vertex 1.56793 -14.9178 0
    endloop
  endfacet
  facet normal 0 -1 0
    outer loop
      vertex 1.56793 -14.9178 3
      vertex -1.56793 -14.9178 3
      vertex 1.56793 -14.9178 0
    endloop
  endfacet
  facet normal 0.207911 -0.978148 0
    outer loop
      vertex 1.56793 -14.9178 3
      vertex 1.56793 -14.9178 0
      vertex 4.63525 -14.2658 0
    endloop
  endfacet
  facet normal 0.207911 -0.978148 0
    outer loop
      vertex 4.63525 -14.2658 3
      vertex 1.56793 -14.9178 3
      vertex 4.63525 -14.2658 0
    endloop
  endfacet
  facet normal 0.406737 -0.913545 0
    outer loop
      vertex 4.63525 -14.2658 3
      vertex 4.63525 -14.2658 0
      vertex 7.5 -12.9904 0
    endloop
  endfacet
  facet normal 0.406737 -0.913545 0
    outer loop
      vertex 7.5 -12.9904 3
      vertex 4.63525 -14.2658 3
      vertex 7.5 -12.9904 0
    endloop
  endfacet
  facet normal 0.587785 -0.809017 0
    outer loop
      vertex 7.5 -12.9904 3
      vertex 7.5 -12.9904 0
      vertex 10.037 -11.1472 0
    endloop
  endfacet
  facet normal 0.587785 -0.809017 0
    outer loop
      vertex 10.037 -11.1472 3
      vertex 7.5 -12.9904 3
      vertex 10.037 -11.1472 0
    endloop
  endfacet
  facet normal 0.743145 -0.669131 0
    outer loop
      vertex 10.037 -11.1472 3
      vertex 10.037 -11.1472 0
      vertex 12.1353 -8.81678 0
    endloop
  endfacet
  facet normal 0.743145 -0.669131 0
    outer loop
      vertex 12.1353 -8.81678 3
      vertex 10.037 -11.1472 3
      vertex 12.1353 -8.81678 0
    endloop
  endfacet
  facet normal 0.866025 -0.5 0
    outer loop
      vertex 12.1353 -8.81678 3
      vertex 12.1353 -8.81678 0
      vertex 13.7032 -6.10105 0
    endloop
  endfacet
  facet normal 0.866025 -0.5 0
    outer loop
      vertex 13.7032 -6.10105 3
      vertex 12.1353 -8.81678 3
      vertex 13.7032 -6.10105 0
    endloop
  endfacet
  facet normal 0.951057 -0.309017 0
    outer loop
      vertex 13.7032 -6.10105 3
      vertex 13.7032 -6.10105 0
      vertex 14.6722 -3.11867 0
    endloop
  endfacet
  facet normal 0.951057 -0.309017 0
    outer loop
      vertex 14.6722 -3.11867 3
      vertex 13.7032 -6.10105 3
      vertex 14.6722 -3.11867 0
    endloop
  endfacet
  facet normal 0.994522 -0.104528 0
    outer loop
      vertex 14.6722 -3.11867 3
      vertex 14.6722 -3.11867 0
      vertex 15 0 0
    endloop
  endfacet
  facet normal 0.994522 -0.104528 0
    outer loop
      vertex 15 0 3
      vertex 14.6722 -3.11867 3
      vertex 15 0 0
    endloop
  endfacet
  facet normal 0.994522 0.104528 0
    outer loop
      vertex 15 0 0
      vertex 14.6722 3.11867 0
      vertex 14.6722 3.11867 3
    endloop
  endfacet
  facet normal 0.994522 0.104528 0
    outer loop
      vertex 15 0 3
      vertex 15 0 0
      vertex 14.6722 3.11867 3
    endloop
  endfacet
  facet normal 0.951057 0.309017 0
    outer loop
      vertex 14.6722 3.11867 0
      vertex 13.7032 6.10105 0
      vertex 13.7032 6.10105 3
    endloop
  endfacet
  facet normal 0.951057 0.309017 0
    outer loop
      vertex 14.6722 3.11867 3
      vertex 14.6722 3.11867 0
      vertex 13.7032 6.10105 3
    endloop
  endfacet
  facet normal 0.866025 0.5 0
    outer loop
      vertex 13.7032 6.10105 0
      vertex 12.1353 8.81678 0
      vertex 12.1353 8.81678 3
    endloop
  endfacet
  facet normal 0.866025 0.5 0
    outer loop
      vertex 13.7032 6.10105 3
      vertex 13.7032 6.10105 0
      vertex 12.1353 8.81678 3
    endloop
  endfacet
  facet normal 0.743145 0.669131 0
    outer loop
      vertex 12.1353 8.81678 0
      vertex 10.037 11.1472 0
      vertex 10.037 11.1472 3
    endloop
  endfacet
  facet normal 0.743145 0.669131 0
    outer loop
      vertex 12.1353 8.81678 3
      vertex 12.1353 8.81678 0
      vertex 10.037 11.1472 3
    endloop
  endfacet
  facet normal 0.587785 0.809017 0
    outer loop
      vertex 7.5 12.9904 0
      vertex 7.5 12.9904 3
      vertex 10.037 11.1472 0
    endloop
  endfacet
  facet normal 0.587785 0.809017 0
    outer loop
      vertex 10.037 11.1472 0
      vertex 7.5 12.9904 3
      vertex 10.037 11.1472 3
    endloop
  endfacet
  facet normal 0.406737 0.913545 0
    outer loop
      vertex 4.63525 14.2658 0
      vertex 4.63525 14.2658 3
      vertex 7.5 12.9904 0
    endloop
  endfacet
  facet normal 0.406737 0.913545 0
    outer loop
      vertex 7.5 12.9904 0
      vertex 4.63525 14.2658 3
      vertex 7.5 12.9904 3
    endloop
  endfacet
  facet normal 0.207911 0.978148 0
    outer loop
      vertex 1.56793 14.9178 0
      vertex 1.56793 14.9178 3
      vertex 4.63525 14.2658 0
    endloop
  endfacet
  facet normal 0.207911 0.978148 0
    outer loop
      vertex 4.63525 14.2658 0
      vertex 1.56793 14.9178 3
      vertex 4.63525 14.2658 3
    endloop
  endfacet
  facet normal 0 1 0
    outer loop
      vertex -1.56793 14.9178 0
      vertex -1.56793 14.9178 3
      vertex 1.56793 14.9178 0
    endloop
  endfacet
  facet normal 0 1 0
    outer loop
      vertex 1.56793 14.9178 0
      vertex -1.56793 14.9178 3
      vertex 1.56793 14.9178 3
    endloop
  endfacet
  facet normal -0.207911 0.978148 0
    outer loop
      vertex -4.63525 14.2658 0
      vertex -4.63525 14.2658 3
      vertex -1.56793 14.9178 0
    endloop
  endfacet
  facet normal -0.207911 0.978148 0
    outer loop
      vertex -1.56793 14.9178 0
      vertex -4.63525 14.2658 3
      vertex -1.56793 14.9178 3
    endloop
  endfacet
  facet normal -0.406737 0.913545 0
    outer loop
      vertex -7.5 12.9904 0
      vertex -7.5 12.9904 3
      vertex -4.63525 14.2658 0
    endloop
  endfacet
  facet normal -0.406737 0.913545 0
    outer loop
      vertex -4.63525 14.2658 0
      vertex -7.5 12.9904 3
      vertex -4.63525 14.2658 3
    endloop
  endfacet
  facet normal -0.587785 0.809017 0
    outer loop
      vertex -10.037 11.1472 0
      vertex -10.037 11.1472 3
      vertex -7.5 12.9904 0
    endloop
  endfacet
  facet normal -0.587785 0.809017 0
    outer loop
      vertex -7.5 12.9904 0
      vertex -10.037 11.1472 3
      vertex -7.5 12.9904 3
    endloop
  endfacet
  facet normal -0.743145 0.669131 0
    outer loop
      vertex -12.1353 8.81678 0
      vertex -12.1353 8.81678 3
      vertex -10.037 11.1472 0
    endloop
  endfacet
  facet normal -0.743145 0.669131 0
    outer loop
      vertex -10.037 11.1472 0
      vertex -12.1353 8.81678 3
      vertex -10.037 11.1472 3
    endloop
  endfacet
  facet normal -0.866025 0.5 0
    outer loop
      vertex -13.7032 6.10105 0
      vertex -13.7032 6.10105 3
      vertex -12.1353 8.81678 0
    endloop
  endfacet
  facet normal -0.866025 0.5 0
    outer loop
      vertex -12.1353 8.81678 0
      vertex -13.7032 6.10105 3
      vertex -12.1353 8.81678 3
    endloop
  endfacet
  facet normal -0.951057 0.309017 0
    outer loop
      vertex -14.6722 3.11867 0
      vertex -14.6722 3.11867 3
      vertex -13.7032 6.10105 0
    endloop
  endfacet
  facet normal -0.951057 0.309017 0
    outer loop
      vertex -13.7032 6.10105 0
      vertex -14.6722 3.11867 3
      vertex -13.7032 6.10105 3
    endloop
  endfacet
  facet normal 1 0 0
    outer loop
      vertex -0.9 1 0
      vertex -0.9 1 3
      vertex -0.9 -0.9 3
    endloop
  endfacet
  facet normal 1 0 0
    outer loop
      vertex -0.9 -0.9 0
      vertex -0.9 1 0
      vertex -0.9 -0.9 3
    endloop
  endfacet
  facet normal 0 -1 0
    outer loop
      vertex 1 1 0
      vertex 1 1 3
      vertex -0.9 1 3
    endloop
  endfacet
  facet normal 0 -1 0
    outer loop
      vertex -0.9 1 0
      vertex 1 1 0
      vertex -0.9 1 3
    endloop
  endfacet
  facet normal -1 0 0
    outer loop
      vertex 1 1 3
      vertex 1 1 0
      vertex 1 -0.9 3
    endloop
  endfacet
  facet normal -1 0 0
    outer loop
      vertex 1 -0.9 3
      vertex 1 1 0
      vertex 1 -0.9 0
    endloop
  endfacet
  facet normal 0 1 0
    outer loop
      vertex 1 -0.9 3
      vertex 1 -0.9 0
      vertex -0.9 -0.9 3
    endloop
  endfacet
  facet normal 0 1 0
    outer loop
      vertex -0.9 -0.9 3
      vertex 1 -0.9 0
      vertex -0.9 -0.9 0
    endloop
  endfacet
  facet normal 0 0 1
    outer loop
      vertex -14.6722 3.11867 3
      vertex -15 0 3
      vertex -14.6722 -3.11867 3
    endloop
  endfacet
  facet normal 0 0 1
    outer loop
      vertex -12.1353 -8.81678 3
      vertex -14.6722 3.11867 3
      vertex -13.7032 -6.10105 3
    endloop
  endfacet
  facet normal 0 0 1
    outer loop
      vertex -13.7032 -6.10105 3
      vertex -14.6722 3.11867 3
      vertex -14.6722 -3.11867 3
    endloop
  endfacet
  facet normal 0 0 1
    outer loop
      vertex -10.037 -11.1472 3
      vertex -14.6722 3.11867 3
      vertex -12.1353 -8.81678 3
    endloop
  endfacet
  facet normal 0 0 1
    outer loop
      vertex -7.5 -12.9904 3
      vertex -14.6722 3.11867 3
      vertex -10.037 -11.1472 3
    endloop
  endfacet
  facet normal 0 0 1
    outer loop
      vertex -4.63525 -14.2658 3
      vertex -14.6722 3.11867 3
      vertex -7.5 -12.9904 3
    endloop
  endfacet
  facet normal 0 0 1
    outer loop
      vertex -1.56793 -14.9178 3
      vertex -14.6722 3.11867 3
      vertex -4.63525 -14.2658 3
    endloop
  endfacet
  facet normal 0 0 1
    outer loop
      vertex 1.56793 -14.9178 3
      vertex -14.6722 3.11867 3
      vertex -1.56793 -14.9178 3
    endloop
  endfacet
  facet normal 0 0 1
    outer loop
      vertex 4.63525 -14.2658 3
      vertex -14.6722 3.11867 3
      vertex 1.56793 -14.9178 3
    endloop
  endfacet
  facet normal 0 0 1
    outer loop
      vertex 7.5 -12.9904 3
      vertex -14.6722 3.11867 3
      vertex 4.63525 -14.2658 3
    endloop
  endfacet
  facet normal 0 0 1
    outer loop
      vertex 10.037 -11.1472 3
      vertex -14.6722 3.11867 3
      vertex 7.5 -12.9904 3
    endloop
  endfacet
  facet normal 0 0 1
    outer loop
      vertex 12.1353 -8.81678 3
      vertex -14.6722 3.11867 3
      vertex 10.037 -11.1472 3
    endloop
  endfacet
  facet normal 0 0 1
    outer loop
      vertex 13.7032 -6.10105 3
      vertex -14.6722 3.11867 3
      vertex 12.1353 -8.81678 3
    endloop
  endfacet
  facet normal 0 0 1
    outer loop
      vertex -0.9 -0.9 3
      vertex -14.6722 3.11867 3
      vertex 13.7032 -6.10105 3
    endloop
  endfacet
  facet normal 0 0 1
    outer loop
      vertex 14.6722 3.11867 3
      vertex -14.6722 3.11867 3
      vertex 15 0 3
    endloop
  endfacet
  facet normal 0 0 1
    outer loop
      vertex 13.7032 6.10105 3
      vertex -14.6722 3.11867 3
      vertex 14.6722 3.11867 3
    endloop
  endfacet
  facet normal 0 0 1
    outer loop
      vertex 12.1353 8.81678 3
      vertex -14.6722 3.11867 3
      vertex 13.7032 6.10105 3
    endloop
  endfacet
  facet normal 0 0 1
    outer loop
      vertex 10.037 11.1472 3
      vertex -14.6722 3.11867 3
      vertex 12.1353 8.81678 3
    endloop
  endfacet
  facet normal 0 0 1
    outer loop
      vertex 7.5 12.9904 3
      vertex -14.6722 3.11867 3
      vertex 10.037 11.1472 3
    endloop
  endfacet
  facet normal 0 0 1
    outer loop
      vertex 4.63525 14.2658 3
      vertex -14.6722 3.11867 3
      vertex 7.5 12.9904 3
    endloop
  endfacet
  facet normal 0 0 1
    outer loop
      vertex 1.56793 14.9178 3
      vertex -14.6722 3.11867 3
      vertex 4.63525 14.2658 3
    endloop
  endfacet
  facet normal 0 0 1
    outer loop
      vertex -1.56793 14.9178 3
      vertex -14.6722 3.11867 3
      vertex 1.56793 14.9178 3
    endloop
  endfacet
  facet normal 0 0 1
    outer loop
      vertex -4.63525 14.2658 3
      vertex -14.6722 3.11867 3
      vertex -1.56793 14.9178 3
    endloop
  endfacet
  facet normal 0 0 1
    outer loop
      vertex -7.5 12.9904 3
      vertex -14.6722 3.11867 3
      vertex -4.63525 14.2658 3
    endloop
  endfacet
  facet normal 0 0 1
    outer loop
      vertex -10.037 11.1472 3
      vertex -14.6722 3.11867 3
      vertex -7.5 12.9904 3
    endloop
  endfacet
  facet normal 0 0 1
    outer loop
      vertex -12.1353 8.81678 3
      vertex -14.6722 3.11867 3
      vertex -10.037 11.1472 3
    endloop
  endfacet
  facet normal 0 0 1
    outer loop
      vertex -13.7032 6.10105 3
      vertex -14.6722 3.11867 3
      vertex -12.1353 8.81678 3
    endloop
  endfacet
  facet normal 0 0 1
    outer loop
      vertex 14.6722 -3.11867 3
      vertex -0.9 -0.9 3
      vertex 13.7032 -6.10105 3
    endloop
  endfacet
  facet normal 0 0 1
    outer loop
      vertex 1 1 3
      vertex 1 -0.9 3
      vertex 14.6722 -3.11867 3
    endloop
  endfacet
  facet normal 0 0 1
    outer loop
      vertex 1 1 3
      vertex -14.6722 3.11867 3
      vertex -0.9 1 3
    endloop
  endfacet
  facet normal 0 0 1
    outer loop
      vertex 15 0 3
      vertex -14.6722 3.11867 3
      vertex 1 1 3
    endloop
  endfacet
  facet normal 0 0 1
    outer loop
      vertex 14.6722 -3.11867 3
      vertex 1 -0.9 3
      vertex -0.9 -0.9 3
    endloop
  endfacet
  facet normal 0 0 1
    outer loop
      vertex 1 1 3
      vertex 14.6722 -3.11867 3
      vertex 15 0 3
    endloop
  endfacet
  facet normal 0 0 1
    outer loop
      vertex -0.9 -0.9 3
      vertex -0.9 1 3
      vertex -14.6722 3.11867 3
    endloop
  endfacet
  facet normal 0 0 -1
    outer loop
      vertex -4.40166 29.0644 0
      vertex -4.40166 30.9356 0
      vertex -3.64058 27.355 0
    endloop
  endfacet
  facet normal 0 0 -1
    outer loop
      vertex -3.64058 27.355 0
      vertex -4.40166 30.9356 0
      vertex -3.64058 32.645 0
    endloop
  endfacet
  facet normal 0 0 -1
    outer loop
      vertex -3.64058 27.355 0
      vertex -3.64058 32.645 0
      vertex -2.25 33.8971 0
    endloop
  endfacet
  facet normal 0 0 -1
    outer loop
      vertex -3.64058 27.355 0
      vertex -2.25 33.8971 0
      vertex -0.470378 34.4753 0
    endloop
  endfacet
  facet normal 0 0 -1
    outer loop
      vertex -3.64058 27.355 0
      vertex -0.470378 34.4753 0
      vertex 1.39058 34.2798 0
    endloop
  endfacet
  facet normal 0 0 -1
    outer loop
      vertex -0.9 31 0
      vertex 1.39058 34.2798 0
      vertex 3.01109 33.3442 0
    endloop
  endfacet
  facet normal 0 0 -1
    outer loop
      vertex 1 31 0
      vertex 3.01109 33.3442 0
      vertex 4.11095 31.8303 0
    endloop
  endfacet
  facet normal 0 0 -1
    outer loop
      vertex 1 29.1 0
      vertex 4.11095 31.8303 0
      vertex 4.5 30 0
    endloop
  endfacet
  facet normal 0 0 -1
    outer loop
      vertex -3.64058 27.355 0
      vertex 4.5 30 0
      vertex 4.11095 28.1697 0
    endloop
  endfacet
  facet normal 0 0 -1
    outer loop
      vertex -3.64058 27.355 0
      vertex 4.11095 28.1697 0
      vertex 3.01109 26.6558 0
    endloop
  endfacet
  facet normal 0 0 -1
    outer loop
      vertex -3.64058 27.355 0
      vertex 3.01109 26.6558 0
      vertex 1.39058 25.7202 0
    endloop
  endfacet
  facet normal 0 0 -1
    outer loop
      vertex -3.64058 27.355 0
      vertex 1.39058 25.7202 0
      vertex -0.470378 25.5247 0
    endloop
  endfacet
  facet normal 0 0 -1
    outer loop
      vertex -3.64058 27.355 0
      vertex -0.470378 25.5247 0
      vertex -2.25 26.1029 0
    endloop
  endfacet
  facet normal 0 0 -1
    outer loop
      vertex -3.64058 27.355 0
      vertex 1.39058 34.2798 0
      vertex -0.9 31 0
    endloop
  endfacet
  facet normal 0 0 -1
    outer loop
      vertex -0.9 29.1 0
      vertex -3.64058 27.355 0
      vertex -0.9 31 0
    endloop
  endfacet
  facet normal 0 0 -1
    outer loop
      vertex 1 31 0
      vertex 4.11095 31.8303 0
      vertex 1 29.1 0
    endloop
  endfacet
  facet normal 0 0 -1
    outer loop
      vertex -3.64058 27.355 0
      vertex 1 29.1 0
      vertex 4.5 30 0
    endloop
  endfacet
  facet normal 0 0 -1
    outer loop
      vertex -0.9 31 0
      vertex 3.01109 33.3442 0
      vertex 1 31 0
    endloop
  endfacet
  facet normal 0 0 -1
    outer loop
      vertex 1 29.1 0
      vertex -3.64058 27.355 0
      vertex -0.9 29.1 0
    endloop
  endfacet
  facet normal -1 0 0
    outer loop
      vertex -4.40166 29.0644 0
      vertex -4.40166 29.0644 1
      vertex -4.40166 30.9356 0
    endloop
  endfacet
  facet normal -1 0 0
    outer loop
      vertex -4.40166 30.9356 0
      vertex -4.40166 29.0644 1
      vertex -4.40166 30.9356 1
    endloop
  endfacet
  facet normal -0.913545 -0.406737 0
    outer loop
      vertex -4.40166 29.0644 0
      vertex -3.64058 27.355 0
      vertex -4.40166 29.0644 1
    endloop
  endfacet
  facet normal -0.913545 -0.406737 0
    outer loop
      vertex -4.40166 29.0644 1
      vertex -3.64058 27.355 0
      vertex -3.64058 27.355 1
    endloop
  endfacet
  facet normal -0.669131 -0.743145 0
    outer loop
      vertex -3.64058 27.355 1
      vertex -3.64058 27.355 0
      vertex -2.25 26.1029 0
    endloop
  endfacet
  facet normal -0.669131 -0.743145 0
    outer loop
      vertex -2.25 26.1029 1
      vertex -3.64058 27.355 1
      vertex -2.25 26.1029 0
    endloop
  endfacet
  facet normal -0.309017 -0.951056 0
    outer loop
      vertex -2.25 26.1029 1
      vertex -2.25 26.1029 0
      vertex -0.470378 25.5247 0
    endloop
  endfacet
  facet normal -0.309017 -0.951056 0
    outer loop
      vertex -0.470378 25.5247 1
      vertex -2.25 26.1029 1
      vertex -0.470378 25.5247 0
    endloop
  endfacet
  facet normal 0.104529 -0.994522 0
    outer loop
      vertex -0.470378 25.5247 1
      vertex -0.470378 25.5247 0
      vertex 1.39058 25.7202 0
    endloop
  endfacet
  facet normal 0.104529 -0.994522 0
    outer loop
      vertex 1.39058 25.7202 1
      vertex -0.470378 25.5247 1
      vertex 1.39058 25.7202 0
    endloop
  endfacet
  facet normal 0.5 -0.866026 0
    outer loop
      vertex 1.39058 25.7202 1
      vertex 1.39058 25.7202 0
      vertex 3.01109 26.6558 0
    endloop
  endfacet
  facet normal 0.5 -0.866026 0
    outer loop
      vertex 3.01109 26.6558 1
      vertex 1.39058 25.7202 1
      vertex 3.01109 26.6558 0
    endloop
  endfacet
  facet normal 0.809017 -0.587785 0
    outer loop
      vertex 3.01109 26.6558 1
      vertex 3.01109 26.6558 0
      vertex 4.11095 28.1697 0
    endloop
  endfacet
  facet normal 0.809017 -0.587785 0
    outer loop
      vertex 4.11095 28.1697 1
      vertex 3.01109 26.6558 1
      vertex 4.11095 28.1697 0
    endloop
  endfacet
  facet normal 0.978148 -0.207911 0
    outer loop
      vertex 4.11095 28.1697 1
      vertex 4.11095 28.1697 0
      vertex 4.5 30 0
    endloop
  endfacet
  facet normal 0.978148 -0.207911 0
    outer loop
      vertex 4.5 30 1
      vertex 4.11095 28.1697 1
      vertex 4.5 30 0
    endloop
  endfacet
  facet normal 0.978148 0.207911 0
    outer loop
      vertex 4.5 30 0
      vertex 4.11095 31.8303 0
      vertex 4.11095 31.8303 1
    endloop
  endfacet
  facet normal 0.978148 0.207911 0
    outer loop
      vertex 4.5 30 1
      vertex 4.5 30 0
      vertex 4.11095 31.8303 1
    endloop
  endfacet
  facet normal 0.809017 0.587785 0
    outer loop
      vertex 4.11095 31.8303 0
      vertex 3.01109 33.3442 0
      vertex 3.01109 33.3442 1
    endloop
  endfacet
  facet normal 0.809017 0.587785 0
    outer loop
      vertex 4.11095 31.8303 1
      vertex 4.11095 31.8303 0
      vertex 3.01109 33.3442 1
    endloop
  endfacet
  facet normal 0.5 0.866026 0
    outer loop
      vertex 1.39058 34.2798 0
      vertex 1.39058 34.2798 1
      vertex 3.01109 33.3442 0
    endloop
  endfacet
  facet normal 0.5 0.866026 0
    outer loop
      vertex 3.01109 33.3442 0
      vertex 1.39058 34.2798 1
      vertex 3.01109 33.3442 1
    endloop
  endfacet
  facet normal 0.104529 0.994522 0
    outer loop
      vertex -0.470378 34.4753 0
      vertex -0.470378 34.4753 1
      vertex 1.39058 34.2798 0
    endloop
  endfacet
  facet normal 0.104529 0.994522 0
    outer loop
      vertex 1.39058 34.2798 0
      vertex -0.470378 34.4753 1
      vertex 1.39058 34.2798 1
    endloop
  endfacet
  facet normal -0.309017 0.951056 0
    outer loop
      vertex -2.25 33.8971 0
      vertex -2.25 33.8971 1
      vertex -0.470378 34.4753 0
    endloop
  endfacet
  facet normal -0.309017 0.951056 0
    outer loop
      vertex -0.470378 34.4753 0
      vertex -2.25 33.8971 1
      vertex -0.470378 34.4753 1
    endloop
  endfacet
  facet normal -0.669131 0.743145 0
    outer loop
      vertex -3.64058 32.645 0
      vertex -3.64058 32.645 1
      vertex -2.25 33.8971 0
    endloop
  endfacet
  facet normal -0.669131 0.743145 0
    outer loop
      vertex -2.25 33.8971 0
      vertex -3.64058 32.645 1
      vertex -2.25 33.8971 1
    endloop
  endfacet
  facet normal -0.913545 0.406737 0
    outer loop
      vertex -4.40166 30.9356 0
      vertex -4.40166 30.9356 1
      vertex -3.64058 32.645 0
    endloop
  endfacet
  facet normal -0.913545 0.406737 0
    outer loop
      vertex -3.64058 32.645 0
      vertex -4.40166 30.9356 1
      vertex -3.64058 32.645 1
    endloop
  endfacet
  facet normal 1 0 0
    outer loop
      vertex -0.9 31 0
      vertex -0.9 31 1
      vertex -0.9 29.1 1
    endloop
  endfacet
  facet normal 1 0 0
    outer loop
      vertex -0.9 29.1 0
      vertex -0.9 31 0
      vertex -0.9 29.1 1
    endloop
  endfacet
  facet normal 0 -1 0
    outer loop
      vertex 1 31 0
      vertex 1 31 1
      vertex -0.9 31 1
    endloop
  endfacet
  facet normal 0 -1 0
    outer loop
      vertex -0.9 31 0
      vertex 1 31 0
      vertex -0.9 31 1
    endloop
  endfacet
  facet normal -1 0 0
    outer loop
      vertex 1 31 1
      vertex 1 31 0
      vertex 1 29.1 1
    endloop
  endfacet
  facet normal -1 0 0
    outer loop
      vertex 1 29.1 1
      vertex 1 31 0
      vertex 1 29.1 0
    endloop
  endfacet
  facet normal 0 1 0
    outer loop
      vertex 1 29.1 1
      vertex 1 29.1 0
      vertex -0.9 29.1 1
    endloop
  endfacet
  facet normal 0 1 0
    outer loop
      vertex -0.9 29.1 1
      vertex 1 29.1 0
      vertex -0.9 29.1 0
    endloop
  endfacet
  facet normal 0 0 1
    outer loop
      vertex -4.40166 30.9356 1
      vertex -4.40166 29.0644 1
      vertex -3.64058 27.355 1
    endloop
  endfacet
  facet normal 0 0 1
    outer loop
      vertex -0.470378 25.5247 1
      vertex -4.40166 30.9356 1
      vertex -2.25 26.1029 1
    endloop
  endfacet
  facet normal 0 0 1
    outer loop
      vertex -2.25 26.1029 1
      vertex -4.40166 30.9356 1
      vertex -3.64058 27.355 1
    endloop
  endfacet
  facet normal 0 0 1
    outer loop
      vertex 1.39058 25.7202 1
      vertex -4.40166 30.9356 1
      vertex -0.470378 25.5247 1
    endloop
  endfacet
  facet normal 0 0 1
    outer loop
      vertex 3.01109 26.6558 1
      vertex -4.40166 30.9356 1
      vertex 1.39058 25.7202 1
    endloop
  endfacet
  facet normal 0 0 1
    outer loop
      vertex -0.9 29.1 1
      vertex -4.40166 30.9356 1
      vertex 3.01109 26.6558 1
    endloop
  endfacet
  facet normal 0 0 1
    outer loop
      vertex 1 31 1
      vertex 4.11095 28.1697 1
      vertex 4.5 30 1
    endloop
  endfacet
  facet normal 0 0 1
    outer loop
      vertex 3.01109 33.3442 1
      vertex -4.40166 30.9356 1
      vertex 4.11095 31.8303 1
    endloop
  endfacet
  facet normal 0 0 1
    outer loop
      vertex 1.39058 34.2798 1
      vertex -4.40166 30.9356 1
      vertex 3.01109 33.3442 1
    endloop
  endfacet
  facet normal 0 0 1
    outer loop
      vertex -0.470378 34.4753 1
      vertex -4.40166 30.9356 1
      vertex 1.39058 34.2798 1
    endloop
  endfacet
  facet normal 0 0 1
    outer loop
      vertex -2.25 33.8971 1
      vertex -4.40166 30.9356 1
      vertex -0.470378 34.4753 1
    endloop
  endfacet
  facet normal 0 0 1
    outer loop
      vertex -3.64058 32.645 1
      vertex -4.40166 30.9356 1
      vertex -2.25 33.8971 1
    endloop
  endfacet
  facet normal 0 0 1
    outer loop
      vertex 4.11095 28.1697 1
      vertex -0.9 29.1 1
      vertex 3.01109 26.6558 1
    endloop
  endfacet
  facet normal 0 0 1
    outer loop
      vertex 4.11095 31.8303 1
      vertex -4.40166 30.9356 1
      vertex -0.9 31 1
    endloop
  endfacet
  facet normal 0 0 1
    outer loop
      vertex 4.11095 31.8303 1
      vertex 1 31 1
      vertex 4.5 30 1
    endloop
  endfacet
  facet normal 0 0 1
    outer loop
      vertex 4.11095 31.8303 1
      vertex -0.9 31 1
      vertex 1 31 1
    endloop
  endfacet
  facet normal 0 0 1
    outer loop
      vertex 4.11095 28.1697 1
      vertex 1 29.1 1
      vertex -0.9 29.1 1
    endloop
  endfacet
  facet normal 0 0 1
    outer loop
      vertex 1 31 1
      vertex 1 29.1 1
      vertex 4.11095 28.1697 1
    endloop
  endfacet
  facet normal 0 0 1
    outer loop
      vertex -0.9 29.1 1
      vertex -0.9 31 1
      vertex -4.40166 30.9356 1
    endloop
  endfacet
  facet normal 0 0 -1
    outer loop
      vertex 22 0 0
      vertex 22.3278 3.11867 0
      vertex 22.3278 -3.11867 0
    endloop
  endfacet
  facet normal 0 0 -1
    outer loop
      vertex 22.3278 -3.11867 0
      vertex 22.3278 3.11867 0
      vertex 23.2968 6.10105 0
    endloop
  endfacet
  facet normal 0 0 -1
    outer loop
      vertex 22.3278 -3.11867 0
      vertex 23.2968 6.10105 0
      vertex 24.8647 8.81678 0
    endloop
  endfacet
  facet normal 0 0 -1
    outer loop
      vertex 22.3278 -3.11867 0
      vertex 24.8647 8.81678 0
      vertex 26.963 11.1472 0
    endloop
  endfacet
  facet normal 0 0 -1
    outer loop
      vertex 22.3278 -3.11867 0
      vertex 26.963 11.1472 0
      vertex 29.5 12.9904 0
    endloop
  endfacet
  facet normal 0 0 -1
    outer loop
      vertex 22.3278 -3.11867 0
      vertex 29.5 12.9904 0
      vertex 32.3647 14.2658 0
    endloop
  endfacet
  facet normal 0 0 -1
    outer loop
      vertex 22.3278 -3.11867 0
      vertex 32.3647 14.2658 0
      vertex 35.4321 14.9178 0
    endloop
  endfacet
  facet normal 0 0 -1
    outer loop
      vertex 22.3278 -3.11867 0
      vertex 35.4321 14.9178 0
      vertex 38.5679 14.9178 0
    endloop
  endfacet
  facet normal 0 0 -1
    outer loop
      vertex 22.3278 -3.11867 0
      vertex 38.5679 14.9178 0
      vertex 41.6353 14.2658 0
    endloop
  endfacet
  facet normal 0 0 -1
    outer loop
      vertex 22.3278 -3.11867 0
      vertex 41.6353 14.2658 0
      vertex 44.5 12.9904 0
    endloop
  endfacet
  facet normal 0 0 -1
    outer loop
      vertex 22.3278 -3.11867 0
      vertex 44.5 12.9904 0
      vertex 47.037 11.1472 0
    endloop
  endfacet
  facet normal 0 0 -1
    outer loop
      vertex 22.3278 -3.11867 0
      vertex 47.037 11.1472 0
      vertex 49.1353 8.81678 0
    endloop
  endfacet
  facet normal 0 0 -1
    outer loop
      vertex 22.3278 -3.11867 0
      vertex 49.1353 8.81678 0
      vertex 50.7032 6.10105 0
    endloop
  endfacet
  facet normal 0 0 -1
    outer loop
      vertex 36.1 1 0
      vertex 50.7032 6.10105 0
      vertex 51.6722 3.11867 0
    endloop
  endfacet
  facet normal 0 0 -1
    outer loop
      vertex 22.3278 -3.11867 0
      vertex 52 0 0
      vertex 51.6722 -3.11867 0
    endloop
  endfacet
  facet normal 0 0 -1
    outer loop
      vertex 22.3278 -3.11867 0
      vertex 51.6722 -3.11867 0
      vertex 50.7032 -6.10105 0
    endloop
  endfacet
  facet normal 0 0 -1
    outer loop
      vertex 22.3278 -3.11867 0
      vertex 50.7032 -6.10105 0
      vertex 49.1353 -8.81678 0
    endloop
  endfacet
  facet normal 0 0 -1
    outer loop
      vertex 22.3278 -3.11867 0
      vertex 49.1353 -8.81678 0
      vertex 47.037 -11.1472 0
    endloop
  endfacet
  facet normal 0 0 -1
    outer loop
      vertex 22.3278 -3.11867 0
      vertex 47.037 -11.1472 0
      vertex 44.5 -12.9904 0
    endloop
  endfacet
  facet normal 0 0 -1
    outer loop
      vertex 22.3278 -3.11867 0
      vertex 44.5 -12.9904 0
      vertex 41.6353 -14.2658 0
    endloop
  endfacet
  facet normal 0 0 -1
    outer loop
      vertex 22.3278 -3.11867 0
      vertex 41.6353 -14.2658 0
      vertex 38.5679 -14.9178 0
    endloop
  endfacet
  facet normal 0 0 -1
    outer loop
      vertex 22.3278 -3.11867 0
      vertex 38.5679 -14.9178 0
      vertex 35.4321 -14.9178 0
    endloop
  endfacet
  facet normal 0 0 -1
    outer loop
      vertex 22.3278 -3.11867 0
      vertex 35.4321 -14.9178 0
      vertex 32.3647 -14.2658 0
    endloop
  endfacet
  facet normal 0 0 -1
    outer loop
      vertex 22.3278 -3.11867 0
      vertex 32.3647 -14.2658 0
      vertex 29.5 -12.9904 0
    endloop
  endfacet
  facet normal 0 0 -1
    outer loop
      vertex 22.3278 -3.11867 0
      vertex 29.5 -12.9904 0
      vertex 26.963 -11.1472 0
    endloop
  endfacet
  facet normal 0 0 -1
    outer loop
      vertex 22.3278 -3.11867 0
      vertex 26.963 -11.1472 0
      vertex 24.8647 -8.81678 0
    endloop
  endfacet
  facet normal 0 0 -1
    outer loop
      vertex 22.3278 -3.11867 0
      vertex 24.8647 -8.81678 0
      vertex 23.2968 -6.10105 0
    endloop
  endfacet
  facet normal 0 0 -1
    outer loop
      vertex 22.3278 -3.11867 0
      vertex 50.7032 6.10105 0
      vertex 36.1 1 0
    endloop
  endfacet
  facet normal 0 0 -1
    outer loop
      vertex 38 1 0
      vertex 36.1 1 0
      vertex 51.6722 3.11867 0
    endloop
  endfacet
  facet normal 0 0 -1
    outer loop
      vertex 38 1 0
      vertex 51.6722 3.11867 0
      vertex 52 0 0
    endloop
  endfacet
  facet normal 0 0 -1
    outer loop
      vertex 22.3278 -3.11867 0
      vertex 36.1 -0.9 0
      vertex 38 -0.9 0
    endloop
  endfacet
  facet normal 0 0 -1
    outer loop
      vertex 22.3278 -3.11867 0
      vertex 38 -0.9 0
      vertex 52 0 0
    endloop
  endfacet
  facet normal 0 0 -1
    outer loop
      vertex 38 1 0
      vertex 52 0 0
      vertex 38 -0.9 0
    endloop
  endfacet
  facet normal 0 0 -1
    outer loop
      vertex 36.1 -0.9 0
      vertex 22.3278 -3.11867 0
      vertex 36.1 1 0
    endloop
  endfacet
  facet normal -0.994522 0.104528 0
    outer loop
      vertex 22 0 0
      vertex 22 0 3
      vertex 22.3278 3.11867 0
    endloop
  endfacet
  facet normal -0.994522 0.104528 0
    outer loop
      vertex 22.3278 3.11867 0
      vertex 22 0 3
      vertex 22.3278 3.11867 3
    endloop
  endfacet
  facet normal -0.994522 -0.104528 0
    outer loop
      vertex 22 0 0
      vertex 22.3278 -3.11867 0
      vertex 22 0 3
    endloop
  endfacet
  facet normal -0.994522 -0.104528 0
    outer loop
      vertex 22 0 3
      vertex 22.3278 -3.11867 0
      vertex 22.3278 -3.11867 3
    endloop
  endfacet
  facet normal -0.951057 -0.309017 0
    outer loop
      vertex 22.3278 -3.11867 0
      vertex 23.2968 -6.10105 0
      vertex 22.3278 -3.11867 3
    endloop
  endfacet
  facet normal -0.951057 -0.309017 0
    outer loop
      vertex 22.3278 -3.11867 3
      vertex 23.2968 -6.10105 0
      vertex 23.2968 -6.10105 3
    endloop
  endfacet
  facet normal -0.866025 -0.5 0
    outer loop
      vertex 23.2968 -6.10105 0
      vertex 24.8647 -8.81678 0
      vertex 23.2968 -6.10105 3
    endloop
  endfacet
  facet normal -0.866025 -0.5 0
    outer loop
      vertex 23.2968 -6.10105 3
      vertex 24.8647 -8.81678 0
      vertex 24.8647 -8.81678 3
    endloop
  endfacet
  facet normal -0.743145 -0.669131 0
    outer loop
      vertex 24.8647 -8.81678 0
      vertex 26.963 -11.1472 0
      vertex 24.8647 -8.81678 3
    endloop
  endfacet
  facet normal -0.743145 -0.669131 0
    outer loop
      vertex 24.8647 -8.81678 3
      vertex 26.963 -11.1472 0
      vertex 26.963 -11.1472 3
    endloop
  endfacet
  facet normal -0.587785 -0.809017 0
    outer loop
      vertex 26.963 -11.1472 3
      vertex 26.963 -11.1472 0
      vertex 29.5 -12.9904 0
    endloop
  endfacet
  facet normal -0.587785 -0.809017 0
    outer loop
      vertex 29.5 -12.9904 3
      vertex 26.963 -11.1472 3
      vertex 29.5 -12.9904 0
    endloop
  endfacet
  facet normal -0.406737 -0.913545 0
    outer loop
      vertex 29.5 -12.9904 3
      vertex 29.5 -12.9904 0
      vertex 32.3647 -14.2658 0
    endloop
  endfacet
  facet normal -0.406737 -0.913545 0
    outer loop
      vertex 32.3647 -14.2658 3
      vertex 29.5 -12.9904 3
      vertex 32.3647 -14.2658 0
    endloop
  endfacet
  facet normal -0.207911 -0.978148 0
    outer loop
      vertex 32.3647 -14.2658 3
      vertex 32.3647 -14.2658 0
      vertex 35.4321 -14.9178 0
    endloop
  endfacet
  facet normal -0.207911 -0.978148 0
    outer loop
      vertex 35.4321 -14.9178 3
      vertex 32.3647 -14.2658 3
      vertex 35.4321 -14.9178 0
    endloop
  endfacet
  facet normal 0 -1 0
    outer loop
      vertex 35.4321 -14.9178 3
      vertex 35.4321 -14.9178 0
      vertex 38.5679 -14.9178 0
    endloop
  endfacet
  facet normal 0 -1 0
    outer loop
      vertex 38.5679 -14.9178 3
      vertex 35.4321 -14.9178 3
      vertex 38.5679 -14.9178 0
    endloop
  endfacet
  facet normal 0.207911 -0.978148 0
    outer loop
      vertex 38.5679 -14.9178 3
      vertex 38.5679 -14.9178 0
      vertex 41.6353 -14.2658 0
    endloop
  endfacet
  facet normal 0.207911 -0.978148 0
    outer loop
      vertex 41.6353 -14.2658 3
      vertex 38.5679 -14.9178 3
      vertex 41.6353 -14.2658 0
    endloop
  endfacet
  facet normal 0.406737 -0.913545 0
    outer loop
      vertex 41.6353 -14.2658 3
      vertex 41.6353 -14.2658 0
      vertex 44.5 -12.9904 0
    endloop
  endfacet
  facet normal 0.406737 -0.913545 0
    outer loop
      vertex 44.5 -12.9904 3
      vertex 41.6353 -14.2658 3
      vertex 44.5 -12.9904 0
    endloop
  endfacet
  facet normal 0.587785 -0.809017 0
    outer loop
      vertex 44.5 -12.9904 3
      vertex 44.5 -12.9904 0
      vertex 47.037 -11.1472 0
    endloop
  endfacet
  facet normal 0.587785 -0.809017 0
    outer loop
      vertex 47.037 -11.1472 3
      vertex 44.5 -12.9904 3
      vertex 47.037 -11.1472 0
    endloop
  endfacet
  facet normal 0.743145 -0.669131 0
    outer loop
      vertex 47.037 -11.1472 3
      vertex 47.037 -11.1472 0
      vertex 49.1353 -8.81678 0
    endloop
  endfacet
  facet normal 0.743145 -0.669131 0
    outer loop
      vertex 49.1353 -8.81678 3
      vertex 47.037 -11.1472 3
      vertex 49.1353 -8.81678 0
    endloop
  endfacet
  facet normal 0.866025 -0.5 0
    outer loop
      vertex 49.1353 -8.81678 3
      vertex 49.1353 -8.81678 0
      vertex 50.7032 -6.10105 0
    endloop
  endfacet
  facet normal 0.866025 -0.5 0
    outer loop
      vertex 50.7032 -6.10105 3
      vertex 49.1353 -8.81678 3
      vertex 50.7032 -6.10105 0
    endloop
  endfacet
  facet normal 0.951057 -0.309017 0
    outer loop
      vertex 50.7032 -6.10105 3
      vertex 50.7032 -6.10105 0
      vertex 51.6722 -3.11867 0
    endloop
  endfacet
  facet normal 0.951057 -0.309017 0
    outer loop
      vertex 51.6722 -3.11867 3
      vertex 50.7032 -6.10105 3
      vertex 51.6722 -3.11867 0
    endloop
  endfacet
  facet normal 0.994522 -0.104528 0
    outer loop
      vertex 51.6722 -3.11867 3
      vertex 51.6722 -3.11867 0
      vertex 52 0 0
    endloop
  endfacet
  facet normal 0.994522 -0.104528 0
    outer loop
      vertex 52 0 3
      vertex 51.6722 -3.11867 3
      vertex 52 0 0
    endloop
  endfacet
  facet normal 0.994522 0.104528 0
    outer loop
      vertex 52 0 0
      vertex 51.6722 3.11867 0
      vertex 51.6722 3.11867 3
    endloop
  endfacet
  facet normal 0.994522 0.104528 0
    outer loop
      vertex 52 0 3
      vertex 52 0 0
      vertex 51.6722 3.11867 3
    endloop
  endfacet
  facet normal 0.951057 0.309017 0
    outer loop
      vertex 51.6722 3.11867 0
      vertex 50.7032 6.10105 0
      vertex 50.7032 6.10105 3
    endloop
  endfacet
  facet normal 0.951057 0.309017 0
    outer loop
      vertex 51.6722 3.11867 3
      vertex 51.6722 3.11867 0
      vertex 50.7032 6.10105 3
    endloop
  endfacet
  facet normal 0.866025 0.5 0
    outer loop
      vertex 50.7032 6.10105 0
      vertex 49.1353 8.81678 0
      vertex 49.1353 8.81678 3
    endloop
  endfacet
  facet normal 0.866025 0.5 0
    outer loop
      vertex 50.7032 6.10105 3
      vertex 50.7032 6.10105 0
      vertex 49.1353 8.81678 3
    endloop
  endfacet
  facet normal 0.743145 0.669131 0
    outer loop
      vertex 49.1353 8.81678 0
      vertex 47.037 11.1472 0
      vertex 47.037 11.1472 3
    endloop
  endfacet
  facet normal 0.743145 0.669131 0
    outer loop
      vertex 49.1353 8.81678 3
      vertex 49.1353 8.81678 0
      vertex 47.037 11.1472 3
    endloop
  endfacet
  facet normal 0.587785 0.809017 0
    outer loop
      vertex 44.5 12.9904 0
      vertex 44.5 12.9904 3
      vertex 47.037 11.1472 0
    endloop
  endfacet
  facet normal 0.587785 0.809017 0
    outer loop
      vertex 47.037 11.1472 0
      vertex 44.5 12.9904 3
      vertex 47.037 11.1472 3
    endloop
  endfacet
  facet normal 0.406737 0.913545 0
    outer loop
      vertex 41.6353 14.2658 0
      vertex 41.6353 14.2658 3
      vertex 44.5 12.9904 0
    endloop
  endfacet
  facet normal 0.406737 0.913545 0
    outer loop
      vertex 44.5 12.9904 0
      vertex 41.6353 14.2658 3
      vertex 44.5 12.9904 3
    endloop
  endfacet
  facet normal 0.207911 0.978148 0
    outer loop
      vertex 38.5679 14.9178 0
      vertex 38.5679 14.9178 3
      vertex 41.6353 14.2658 0
    endloop
  endfacet
  facet normal 0.207911 0.978148 0
    outer loop
      vertex 41.6353 14.2658 0
      vertex 38.5679 14.9178 3
      vertex 41.6353 14.2658 3
    endloop
  endfacet
  facet normal 0 1 0
    outer loop
      vertex 35.4321 14.9178 0
      vertex 35.4321 14.9178 3
      vertex 38.5679 14.9178 0
    endloop
  endfacet
  facet normal 0 1 0
    outer loop
      vertex 38.5679 14.9178 0
      vertex 35.4321 14.9178 3
      vertex 38.5679 14.9178 3
    endloop
  endfacet
  facet normal -0.207911 0.978148 0
    outer loop
      vertex 32.3647 14.2658 0
      vertex 32.3647 14.2658 3
      vertex 35.4321 14.9178 0
    endloop
  endfacet
  facet normal -0.207911 0.978148 0
    outer loop
      vertex 35.4321 14.9178 0
      vertex 32.3647 14.2658 3
      vertex 35.4321 14.9178 3
    endloop
  endfacet
  facet normal -0.406737 0.913545 0
    outer loop
      vertex 29.5 12.9904 0
      vertex 29.5 12.9904 3
      vertex 32.3647 14.2658 0
    endloop
  endfacet
  facet normal -0.406737 0.913545 0
    outer loop
      vertex 32.3647 14.2658 0
      vertex 29.5 12.9904 3
      vertex 32.3647 14.2658 3
    endloop
  endfacet
  facet normal -0.587785 0.809017 0
    outer loop
      vertex 26.963 11.1472 0
      vertex 26.963 11.1472 3
      vertex 29.5 12.9904 0
    endloop
  endfacet
  facet normal -0.587785 0.809017 0
    outer loop
      vertex 29.5 12.9904 0
      vertex 26.963 11.1472 3
      vertex 29.5 12.9904 3
    endloop
  endfacet
  facet normal -0.743145 0.669131 0
    outer loop
      vertex 24.8647 8.81678 0
      vertex 24.8647 8.81678 3
      vertex 26.963 11.1472 0
    endloop
  endfacet
  facet normal -0.743145 0.669131 0
    outer loop
      vertex 26.963 11.1472 0
      vertex 24.8647 8.81678 3
      vertex 26.963 11.1472 3
    endloop
  endfacet
  facet normal -0.866025 0.5 0
    outer loop
      vertex 23.2968 6.10105 0
      vertex 23.2968 6.10105 3
      vertex 24.8647 8.81678 0
    endloop
  endfacet
  facet normal -0.866025 0.5 0
    outer loop
      vertex 24.8647 8.81678 0
      vertex 23.2968 6.10105 3
      vertex 24.8647 8.81678 3
    endloop
  endfacet
  facet normal -0.951057 0.309017 0
    outer loop
      vertex 22.3278 3.11867 0
      vertex 22.3278 3.11867 3
      vertex 23.2968 6.10105 0
    endloop
  endfacet
  facet normal -0.951057 0.309017 0
    outer loop
      vertex 23.2968 6.10105 0
      vertex 22.3278 3.11867 3
      vertex 23.2968 6.10105 3
    endloop
  endfacet
  facet normal 1 0 0
    outer loop
      vertex 36.1 1 0
      vertex 36.1 1 3
      vertex 36.1 -0.9 3
    endloop
  endfacet
  facet normal 1 0 0
    outer loop
      vertex 36.1 -0.9 0
      vertex 36.1 1 0
      vertex 36.1 -0.9 3
    endloop
  endfacet
  facet normal 0 -1 0
    outer loop
      vertex 38 1 0
      vertex 38 1 3
      vertex 36.1 1 3
    endloop
  endfacet
  facet normal 0 -1 0
    outer loop
      vertex 36.1 1 0
      vertex 38 1 0
      vertex 36.1 1 3
    endloop
  endfacet
  facet normal -1 0 0
    outer loop
      vertex 38 1 3
      vertex 38 1 0
      vertex 38 -0.9 3
    endloop
  endfacet
  facet normal -1 0 0
    outer loop
      vertex 38 -0.9 3
      vertex 38 1 0
      vertex 38 -0.9 0
    endloop
  endfacet
  facet normal 0 1 0
    outer loop
      vertex 38 -0.9 3
      vertex 38 -0.9 0
      vertex 36.1 -0.9 3
    endloop
  endfacet
  facet normal 0 1 0
    outer loop
      vertex 36.1 -0.9 3
      vertex 38 -0.9 0
      vertex 36.1 -0.9 0
    endloop
  endfacet
  facet normal 0 0 1
    outer loop
      vertex 22.3278 3.11867 3
      vertex 22 0 3
      vertex 22.3278 -3.11867 3
    endloop
  endfacet
  facet normal 0 0 1
    outer loop
      vertex 24.8647 -8.81678 3
      vertex 22.3278 3.11867 3
      vertex 23.2968 -6.10105 3
    endloop
  endfacet
  facet normal 0 0 1
    outer loop
      vertex 23.2968 -6.10105 3
      vertex 22.3278 3.11867 3
      vertex 22.3278 -3.11867 3
    endloop
  endfacet
  facet normal 0 0 1
    outer loop
      vertex 26.963 -11.1472 3
      vertex 22.3278 3.11867 3
      vertex 24.8647 -8.81678 3
    endloop
  endfacet
  facet normal 0 0 1
    outer loop
      vertex 29.5 -12.9904 3
      vertex 22.3278 3.11867 3
      vertex 26.963 -11.1472 3
    endloop
  endfacet
  facet normal 0 0 1
    outer loop
      vertex 32.3647 -14.2658 3
      vertex 22.3278 3.11867 3
      vertex 29.5 -12.9904 3
    endloop
  endfacet
  facet normal 0 0 1
    outer loop
      vertex 35.4321 -14.9178 3
      vertex 22.3278 3.11867 3
      vertex 32.3647 -14.2658 3
    endloop
  endfacet
  facet normal 0 0 1
    outer loop
      vertex 38.5679 -14.9178 3
      vertex 22.3278 3.11867 3
      vertex 35.4321 -14.9178 3
    endloop
  endfacet
  facet normal 0 0 1
    outer loop
      vertex 41.6353 -14.2658 3
      vertex 22.3278 3.11867 3
      vertex 38.5679 -14.9178 3
    endloop
  endfacet
  facet normal 0 0 1
    outer loop
      vertex 44.5 -12.9904 3
      vertex 22.3278 3.11867 3
      vertex 41.6353 -14.2658 3
    endloop
  endfacet
  facet normal 0 0 1
    outer loop
      vertex 47.037 -11.1472 3
      vertex 22.3278 3.11867 3
      vertex 44.5 -12.9904 3
    endloop
  endfacet
  facet normal 0 0 1
    outer loop
      vertex 49.1353 -8.81678 3
      vertex 22.3278 3.11867 3
      vertex 47.037 -11.1472 3
    endloop
  endfacet
  facet normal 0 0 1
    outer loop
      vertex 50.7032 -6.10105 3
      vertex 22.3278 3.11867 3
      vertex 49.1353 -8.81678 3
    endloop
  endfacet
  facet normal 0 0 1
    outer loop
      vertex 36.1 -0.9 3
      vertex 22.3278 3.11867 3
      vertex 50.7032 -6.10105 3
    endloop
  endfacet
  facet normal 0 0 1
    outer loop
      vertex 51.6722 3.11867 3
      vertex 22.3278 3.11867 3
      vertex 52 0 3
    endloop
  endfacet
  facet normal 0 0 1
    outer loop
      vertex 50.7032 6.10105 3
      vertex 22.3278 3.11867 3
      vertex 51.6722 3.11867 3
    endloop
  endfacet
  facet normal 0 0 1
    outer loop
      vertex 49.1353 8.81678 3
      vertex 22.3278 3.11867 3
      vertex 50.7032 6.10105 3
    endloop
  endfacet
  facet normal 0 0 1
    outer loop
      vertex 47.037 11.1472 3
      vertex 22.3278 3.11867 3
      vertex 49.1353 8.81678 3
    endloop
  endfacet
  facet normal 0 0 1
    outer loop
      vertex 44.5 12.9904 3
      vertex 22.3278 3.11867 3
      vertex 47.037 11.1472 3
    endloop
  endfacet
  facet normal 0 0 1
    outer loop
      vertex 41.6353 14.2658 3
      vertex 22.3278 3.11867 3
      vertex 44.5 12.9904 3
    endloop
  endfacet
  facet normal 0 0 1
    outer loop
      vertex 38.5679 14.9178 3
      vertex 22.3278 3.11867 3
      vertex 41.6353 14.2658 3
    endloop
  endfacet
  facet normal 0 0 1
    outer loop
      vertex 35.4321 14.9178 3
      vertex 22.3278 3.11867 3
      vertex 38.5679 14.9178 3
    endloop
  endfacet
  facet normal 0 0 1
    outer loop
      vertex 32.3647 14.2658 3
      vertex 22.3278 3.11867 3
      vertex 35.4321 14.9178 3
    endloop
  endfacet
  facet normal 0 0 1
    outer loop
      vertex 29.5 12.9904 3
      vertex 22.3278 3.11867 3
      vertex 32.3647 14.2658 3
    endloop
  endfacet
  facet normal 0 0 1
    outer loop
      vertex 26.963 11.1472 3
      vertex 22.3278 3.11867 3
      vertex 29.5 12.9904 3
    endloop
  endfacet
  facet normal 0 0 1
    outer loop
      vertex 24.8647 8.81678 3
      vertex 22.3278 3.11867 3
      vertex 26.963 11.1472 3
    endloop
  endfacet
  facet normal 0 0 1
    outer loop
      vertex 23.2968 6.10105 3
      vertex 22.3278 3.11867 3
      vertex 24.8647 8.81678 3
    endloop
  endfacet
  facet normal 0 0 1
    outer loop
      vertex 51.6722 -3.11867 3
      vertex 36.1 -0.9 3
      vertex 50.7032 -6.10105 3
    endloop
  endfacet
  facet normal 0 0 1
    outer loop
      vertex 38 1 3
      vertex 38 -0.9 3
      vertex 51.6722 -3.11867 3
    endloop
  endfacet
  facet normal 0 0 1
    outer loop
      vertex 38 1 3
      vertex 22.3278 3.11867 3
      vertex 36.1 1 3
    endloop
  endfacet
  facet normal 0 0 1
    outer loop
      vertex 52 0 3
      vertex 22.3278 3.11867 3
      vertex 38 1 3
    endloop
  endfacet
  facet normal 0 0 1
    outer loop
      vertex 51.6722 -3.11867 3
      vertex 38 -0.9 3
      vertex 36.1 -0.9 3
    endloop
  endfacet
  facet normal 0 0 1
    outer loop
      vertex 38 1 3
      vertex 51.6722 -3.11867 3
      vertex 52 0 3
    endloop
  endfacet
  facet normal 0 0 1
    outer loop
      vertex 36.1 -0.9 3
      vertex 36.1 1 3
      vertex 22.3278 3.11867 3
    endloop
  endfacet
  facet normal 0 0 -1
    outer loop
      vertex -34.4017 -0.935603 0
      vertex -34.4017 0.935603 0
      vertex -33.6406 -2.64503 0
    endloop
  endfacet
  facet normal 0 0 -1
    outer loop
      vertex -33.6406 -2.64503 0
      vertex -34.4017 0.935603 0
      vertex -33.6406 2.64503 0
    endloop
  endfacet
  facet normal 0 0 -1
    outer loop
      vertex -33.6406 -2.64503 0
      vertex -33.6406 2.64503 0
      vertex -32.25 3.89711 0
    endloop
  endfacet
  facet normal 0 0 -1
    outer loop
      vertex -33.6406 -2.64503 0
      vertex -32.25 3.89711 0
      vertex -30.4704 4.47535 0
    endloop
  endfacet
  facet normal 0 0 -1
    outer loop
      vertex -33.6406 -2.64503 0
      vertex -30.4704 4.47535 0
      vertex -28.6094 4.27975 0
    endloop
  endfacet
  facet normal 0 0 -1
    outer loop
      vertex -30.9 1 0
      vertex -28.6094 4.27975 0
      vertex -26.9889 3.34415 0
    endloop
  endfacet
  facet normal 0 0 -1
    outer loop
      vertex -29 1 0
      vertex -26.9889 3.34415 0
      vertex -25.889 1.83031 0
    endloop
  endfacet
  facet normal 0 0 -1
    outer loop
      vertex -29 -0.9 0
      vertex -25.889 1.83031 0
      vertex -25.5 0 0
    endloop
  endfacet
  facet normal 0 0 -1
    outer loop
      vertex -33.6406 -2.64503 0
      vertex -25.5 0 0
      vertex -25.889 -1.83031 0
    endloop
  endfacet
  facet normal 0 0 -1
    outer loop
      vertex -33.6406 -2.64503 0
      vertex -25.889 -1.83031 0
      vertex -26.9889 -3.34415 0
    endloop
  endfacet
  facet normal 0 0 -1
    outer loop
      vertex -33.6406 -2.64503 0
      vertex -26.9889 -3.34415 0
      vertex -28.6094 -4.27975 0
    endloop
  endfacet
  facet normal 0 0 -1
    outer loop
      vertex -33.6406 -2.64503 0
      vertex -28.6094 -4.27975 0
      vertex -30.4704 -4.47535 0
    endloop
  endfacet
  facet normal 0 0 -1
    outer loop
      vertex -33.6406 -2.64503 0
      vertex -30.4704 -4.47535 0
      vertex -32.25 -3.89711 0
    endloop
  endfacet
  facet normal 0 0 -1
    outer loop
      vertex -33.6406 -2.64503 0
      vertex -28.6094 4.27975 0
      vertex -30.9 1 0
    endloop
  endfacet
  facet normal 0 0 -1
    outer loop
      vertex -30.9 -0.9 0
      vertex -33.6406 -2.64503 0
      vertex -30.9 1 0
    endloop
  endfacet
  facet normal 0 0 -1
    outer loop
      vertex -29 1 0
      vertex -25.889 1.83031 0
      vertex -29 -0.9 0
    endloop
  endfacet
  facet normal 0 0 -1
    outer loop
      vertex -33.6406 -2.64503 0
      vertex -29 -0.9 0
      vertex -25.5 0 0
    endloop
  endfacet
  facet normal 0 0 -1
    outer loop
      vertex -30.9 1 0
      vertex -26.9889 3.34415 0
      vertex -29 1 0
    endloop
  endfacet
  facet normal 0 0 -1
    outer loop
      vertex -29 -0.9 0
      vertex -33.6406 -2.64503 0
      vertex -30.9 -0.9 0
    endloop
  endfacet
  facet normal -1 0 0
    outer loop
      vertex -34.4017 -0.935603 0
      vertex -34.4017 -0.935603 1
      vertex -34.4017 0.935603 0
    endloop
  endfacet
  facet normal -1 0 0
    outer loop
      vertex -34.4017 0.935603 0
      vertex -34.4017 -0.935603 1
      vertex -34.4017 0.935603 1
    endloop
  endfacet
  facet normal -0.913545 -0.406737 0
    outer loop
      vertex -34.4017 -0.935603 0
      vertex -33.6406 -2.64503 0
      vertex -34.4017 -0.935603 1
    endloop
  endfacet
  facet normal -0.913545 -0.406737 0
    outer loop
      vertex -34.4017 -0.935603 1
      vertex -33.6406 -2.64503 0
      vertex -33.6406 -2.64503 1
    endloop
  endfacet
  facet normal -0.669131 -0.743145 0
    outer loop
      vertex -33.6406 -2.64503 1
      vertex -33.6406 -2.64503 0
      vertex -32.25 -3.89711 0
    endloop
  endfacet
  facet normal -0.669131 -0.743145 0
    outer loop
      vertex -32.25 -3.89711 1
      vertex -33.6406 -2.64503 1
      vertex -32.25 -3.89711 0
    endloop
  endfacet
  facet normal -0.309017 -0.951056 0
    outer loop
      vertex -32.25 -3.89711 1
      vertex -32.25 -3.89711 0
      vertex -30.4704 -4.47535 0
    endloop
  endfacet
  facet normal -0.309017 -0.951056 0
    outer loop
      vertex -30.4704 -4.47535 1
      vertex -32.25 -3.89711 1
      vertex -30.4704 -4.47535 0
    endloop
  endfacet
  facet normal 0.104529 -0.994522 0
    outer loop
      vertex -30.4704 -4.47535 1
      vertex -30.4704 -4.47535 0
      vertex -28.6094 -4.27975 0
    endloop
  endfacet
  facet normal 0.104529 -0.994522 0
    outer loop
      vertex -28.6094 -4.27975 1
      vertex -30.4704 -4.47535 1
      vertex -28.6094 -4.27975 0
    endloop
  endfacet
  facet normal 0.5 -0.866026 0
    outer loop
      vertex -28.6094 -4.27975 1
      vertex -28.6094 -4.27975 0
      vertex -26.9889 -3.34415 0
    endloop
  endfacet
  facet normal 0.5 -0.866026 0
    outer loop
      vertex -26.9889 -3.34415 1
      vertex -28.6094 -4.27975 1
      vertex -26.9889 -3.34415 0
    endloop
  endfacet
  facet normal 0.809017 -0.587785 0
    outer loop
      vertex -26.9889 -3.34415 1
      vertex -26.9889 -3.34415 0
      vertex -25.889 -1.83031 0
    endloop
  endfacet
  facet normal 0.809017 -0.587785 0
    outer loop
      vertex -25.889 -1.83031 1
      vertex -26.9889 -3.34415 1
      vertex -25.889 -1.83031 0
    endloop
  endfacet
  facet normal 0.978148 -0.207911 0
    outer loop
      vertex -25.889 -1.83031 1
      vertex -25.889 -1.83031 0
      vertex -25.5 0 0
    endloop
  endfacet
  facet normal 0.978148 -0.207911 0
    outer loop
      vertex -25.5 0 1
      vertex -25.889 -1.83031 1
      vertex -25.5 0 0
    endloop
  endfacet
  facet normal 0.978148 0.207911 0
    outer loop
      vertex -25.5 0 0
      vertex -25.889 1.83031 0
      vertex -25.889 1.83031 1
    endloop
  endfacet
  facet normal 0.978148 0.207911 0
    outer loop
      vertex -25.5 0 1
      vertex -25.5 0 0
      vertex -25.889 1.83031 1
    endloop
  endfacet
  facet normal 0.809017 0.587785 0
    outer loop
      vertex -25.889 1.83031 0
      vertex -26.9889 3.34415 0
      vertex -26.9889 3.34415 1
    endloop
  endfacet
  facet normal 0.809017 0.587785 0
    outer loop
      vertex -25.889 1.83031 1
      vertex -25.889 1.83031 0
      vertex -26.9889 3.34415 1
    endloop
  endfacet
  facet normal 0.5 0.866026 0
    outer loop
      vertex -28.6094 4.27975 0
      vertex -28.6094 4.27975 1
      vertex -26.9889 3.34415 0
    endloop
  endfacet
  facet normal 0.5 0.866026 0
    outer loop
      vertex -26.9889 3.34415 0
      vertex -28.6094 4.27975 1
      vertex -26.9889 3.34415 1
    endloop
  endfacet
  facet normal 0.104529 0.994522 0
    outer loop
      vertex -30.4704 4.47535 0
      vertex -30.4704 4.47535 1
      vertex -28.6094 4.27975 0
    endloop
  endfacet
  facet normal 0.104529 0.994522 0
    outer loop
      vertex -28.6094 4.27975 0
      vertex -30.4704 4.47535 1
      vertex -28.6094 4.27975 1
    endloop
  endfacet
  facet normal -0.309017 0.951056 0
    outer loop
      vertex -32.25 3.89711 0
      vertex -32.25 3.89711 1
      vertex -30.4704 4.47535 0
    endloop
  endfacet
  facet normal -0.309017 0.951056 0
    outer loop
      vertex -30.4704 4.47535 0
      vertex -32.25 3.89711 1
      vertex -30.4704 4.47535 1
    endloop
  endfacet
  facet normal -0.669131 0.743145 0
    outer loop
      vertex -33.6406 2.64503 0
      vertex -33.6406 2.64503 1
      vertex -32.25 3.89711 0
    endloop
  endfacet
  facet normal -0.669131 0.743145 0
    outer loop
      vertex -32.25 3.89711 0
      vertex -33.6406 2.64503 1
      vertex -32.25 3.89711 1
    endloop
  endfacet
  facet normal -0.913545 0.406737 0
    outer loop
      vertex -34.4017 0.935603 0
      vertex -34.4017 0.935603 1
      vertex -33.6406 2.64503 0
    endloop
  endfacet
  facet normal -0.913545 0.406737 0
    outer loop
      vertex -33.6406 2.64503 0
      vertex -34.4017 0.935603 1
      vertex -33.6406 2.64503 1
    endloop
  endfacet
  facet normal 1 0 0
    outer loop
      vertex -30.9 1 0
      vertex -30.9 1 1
      vertex -30.9 -0.9 1
    endloop
  endfacet
  facet normal 1 0 0
    outer loop
      vertex -30.9 -0.9 0
      vertex -30.9 1 0
      vertex -30.9 -0.9 1
    endloop
  endfacet
  facet normal 0 -1 0
    outer loop
      vertex -29 1 0
      vertex -29 1 1
      vertex -30.9 1 1
    endloop
  endfacet
  facet normal 0 -1 0
    outer loop
      vertex -30.9 1 0
      vertex -29 1 0
      vertex -30.9 1 1
    endloop
  endfacet
  facet normal -1 0 0
    outer loop
      vertex -29 1 1
      vertex -29 1 0
      vertex -29 -0.9 1
    endloop
  endfacet
  facet normal -1 0 0
    outer loop
      vertex -29 -0.9 1
      vertex -29 1 0
      vertex -29 -0.9 0
    endloop
  endfacet
  facet normal 0 1 0
    outer loop
      vertex -29 -0.9 1
      vertex -29 -0.9 0
      vertex -30.9 -0.9 1
    endloop
  endfacet
  facet normal 0 1 0
    outer loop
      vertex -30.9 -0.9 1
      vertex -29 -0.9 0
      vertex -30.9 -0.9 0
    endloop
  endfacet
  facet normal 0 0 1
    outer loop
      vertex -34.4017 0.935603 1
      vertex -34.4017 -0.935603 1
      vertex -33.6406 -2.64503 1
    endloop
  endfacet
  facet normal 0 0 1
    outer loop
      vertex -30.4704 -4.47535 1
      vertex -34.4017 0.935603 1
      vertex -32.25 -3.89711 1
    endloop
  endfacet
  facet normal 0 0 1
    outer loop
      vertex -32.25 -3.89711 1
      vertex -34.4017 0.935603 1
      vertex -33.6406 -2.64503 1
    endloop
  endfacet
  facet normal 0 0 1
    outer loop
      vertex -28.6094 -4.27975 1
      vertex -34.4017 0.935603 1
      vertex -30.4704 -4.47535 1
    endloop
  endfacet
  facet normal 0 0 1
    outer loop
      vertex -26.9889 -3.34415 1
      vertex -34.4017 0.935603 1
      vertex -28.6094 -4.27975 1
    endloop
  endfacet
  facet normal 0 0 1
    outer loop
      vertex -30.9 -0.9 1
      vertex -34.4017 0.935603 1
      vertex -26.9889 -3.34415 1
    endloop
  endfacet
  facet normal 0 0 1
    outer loop
      vertex -29 1 1
      vertex -25.889 -1.83031 1
      vertex -25.5 0 1
    endloop
  endfacet
  facet normal 0 0 1
    outer loop
      vertex -26.9889 3.34415 1
      vertex -34.4017 0.935603 1
      vertex -25.889 1.83031 1
    endloop
  endfacet
  facet normal 0 0 1
    outer loop
      vertex -28.6094 4.27975 1
      vertex -34.4017 0.935603 1
      vertex -26.9889 3.34415 1
    endloop
  endfacet
  facet normal 0 0 1
    outer loop
      vertex -30.4704 4.47535 1
      vertex -34.4017 0.935603 1
      vertex -28.6094 4.27975 1
    endloop
  endfacet
  facet normal 0 0 1
    outer loop
      vertex -32.25 3.89711 1
      vertex -34.4017 0.935603 1
      vertex -30.4704 4.47535 1
    endloop
  endfacet
  facet normal 0 0 1
    outer loop
      vertex -33.6406 2.64503 1
      vertex -34.4017 0.935603 1
      vertex -32.25 3.89711 1
    endloop
  endfacet
  facet normal 0 0 1
    outer loop
      vertex -25.889 -1.83031 1
      vertex -30.9 -0.9 1
      vertex -26.9889 -3.34415 1
    endloop
  endfacet
  facet normal 0 0 1
    outer loop
      vertex -25.889 1.83031 1
      vertex -34.4017 0.935603 1
      vertex -30.9 1 1
    endloop
  endfacet
  facet normal 0 0 1
    outer loop
      vertex -25.889 1.83031 1
      vertex -29 1 1
      vertex -25.5 0 1
    endloop
  endfacet
  facet normal 0 0 1
    outer loop
      vertex -25.889 1.83031 1
      vertex -30.9 1 1
      vertex -29 1 1
    endloop
  endfacet
  facet normal 0 0 1
    outer loop
      vertex -25.889 -1.83031 1
      vertex -29 -0.9 1
      vertex -30.9 -0.9 1
    endloop
  endfacet
  facet normal 0 0 1
    outer loop
      vertex -29 1 1
      vertex -29 -0.9 1
      vertex -25.889 -1.83031 1
    endloop
  endfacet
  facet normal 0 0 1
    outer loop
      vertex -30.9 -0.9 1
      vertex -30.9 1 1
      vertex -34.4017 0.935603 1
    endloop
  endfacet
endsolid OpenSCAD_Model
