solid OpenSCAD_Model
  facet normal -1 0 0
    outer loop
      vertex 0 16.7678 5.76777
      vertex 0 0 28
      vertex 0 58 0
    endloop
  endfacet
  facet normal -1 0 0
    outer loop
      vertex 0 58 0
      vertex 0 0 28
      vertex 0 58 28
    endloop
  endfacet
  facet normal -1 0 0
    outer loop
      vertex 0 0 0
      vertex 0 0 28
      vertex 0 12.5 4
    endloop
  endfacet
  facet normal -1 0 0
    outer loop
      vertex 0 0 0
      vertex 0 12.5 4
      vertex 0 13.2322 2.23223
    endloop
  endfacet
  facet normal -1 0 0
    outer loop
      vertex 0 0 0
      vertex 0 13.2322 2.23223
      vertex 0 15 1.5
    endloop
  endfacet
  facet normal -1 0 0
    outer loop
      vertex 0 0 0
      vertex 0 15 1.5
      vertex 0 58 0
    endloop
  endfacet
  facet normal -1 0 0
    outer loop
      vertex 0 17.5 4
      vertex 0 58 0
      vertex 0 16.7678 2.23223
    endloop
  endfacet
  facet normal -1 0 0
    outer loop
      vertex 0 15 6.5
      vertex 0 0 28
      vertex 0 16.7678 5.76777
    endloop
  endfacet
  facet normal -1 0 0
    outer loop
      vertex 0 17.5 4
      vertex 0 16.7678 5.76777
      vertex 0 58 0
    endloop
  endfacet
  facet normal -1 0 0
    outer loop
      vertex 0 13.2322 5.76777
      vertex 0 0 28
      vertex 0 15 6.5
    endloop
  endfacet
  facet normal -1 0 0
    outer loop
      vertex 0 12.5 4
      vertex 0 0 28
      vertex 0 13.2322 5.76777
    endloop
  endfacet
  facet normal -1 0 0
    outer loop
      vertex 0 16.7678 2.23223
      vertex 0 58 0
      vertex 0 15 1.5
    endloop
  endfacet
  facet normal 0 -1 0
    outer loop
      vertex 0 0 28
      vertex 0 0 0
      vertex 33 0 0
    endloop
  endfacet
  facet normal 0 -1 0
    outer loop
      vertex 33 0 28
      vertex 0 0 28
      vertex 33 0 0
    endloop
  endfacet
  facet normal 0 0 -1
    outer loop
      vertex 0 0 0
      vertex 0 58 0
      vertex 2.49289 40 0
    endloop
  endfacet
  facet normal 0 0 -1
    outer loop
      vertex 0 0 0
      vertex 2.49289 40 0
      vertex 33 0 0
    endloop
  endfacet
  facet normal 0 0 -1
    outer loop
      vertex 4.90711 58 0
      vertex 33 0 0
      vertex 4.90711 40 0
    endloop
  endfacet
  facet normal 0 0 -1
    outer loop
      vertex 2.49289 40 0
      vertex 4.90711 40 0
      vertex 33 0 0
    endloop
  endfacet
  facet normal 0 0 -1
    outer loop
      vertex 30.2071 40 0
      vertex 33 0 0
      vertex 27.7929 40 0
    endloop
  endfacet
  facet normal 0 0 -1
    outer loop
      vertex 27.7929 40 0
      vertex 4.90711 58 0
      vertex 27.7929 58 0
    endloop
  endfacet
  facet normal 0 0 -1
    outer loop
      vertex 33 0 0
      vertex 4.90711 58 0
      vertex 27.7929 40 0
    endloop
  endfacet
  facet normal 0 0 -1
    outer loop
      vertex 33 0 0
      vertex 30.2071 40 0
      vertex 30.2071 58 0
    endloop
  endfacet
  facet normal 0 0 -1
    outer loop
      vertex 33 0 0
      vertex 30.2071 58 0
      vertex 33 58 0
    endloop
  endfacet
  facet normal 0 0 -1
    outer loop
      vertex 2.49289 40 0
      vertex 0 58 0
      vertex 2.49289 58 0
    endloop
  endfacet
  facet normal 0 1 0
    outer loop
      vertex 5.46777 58 3.76777
      vertex 0 58 28
      vertex 33 58 28
    endloop
  endfacet
  facet normal 0 1 0
    outer loop
      vertex 31.5 58 2
      vertex 33 58 28
      vertex 33 58 0
    endloop
  endfacet
  facet normal 0 1 0
    outer loop
      vertex 5.46777 58 0.232233
      vertex 27.2322 58 0.232233
      vertex 4.90711 58 0
    endloop
  endfacet
  facet normal 0 1 0
    outer loop
      vertex 29 58 4.5
      vertex 33 58 28
      vertex 30.7678 58 3.76777
    endloop
  endfacet
  facet normal 0 1 0
    outer loop
      vertex 30.2071 58 0
      vertex 30.7678 58 0.232233
      vertex 33 58 0
    endloop
  endfacet
  facet normal 0 1 0
    outer loop
      vertex 30.7678 58 0.232233
      vertex 31.5 58 2
      vertex 33 58 0
    endloop
  endfacet
  facet normal 0 1 0
    outer loop
      vertex 6.2 58 2
      vertex 33 58 28
      vertex 29 58 4.5
    endloop
  endfacet
  facet normal 0 1 0
    outer loop
      vertex 5.46777 58 0.232233
      vertex 26.5 58 2
      vertex 27.2322 58 0.232233
    endloop
  endfacet
  facet normal 0 1 0
    outer loop
      vertex 4.90711 58 0
      vertex 27.2322 58 0.232233
      vertex 27.7929 58 0
    endloop
  endfacet
  facet normal 0 1 0
    outer loop
      vertex 6.2 58 2
      vertex 27.2322 58 3.76777
      vertex 26.5 58 2
    endloop
  endfacet
  facet normal 0 1 0
    outer loop
      vertex 6.2 58 2
      vertex 29 58 4.5
      vertex 27.2322 58 3.76777
    endloop
  endfacet
  facet normal 0 1 0
    outer loop
      vertex 5.46777 58 3.76777
      vertex 33 58 28
      vertex 6.2 58 2
    endloop
  endfacet
  facet normal 0 1 0
    outer loop
      vertex 3.7 58 4.5
      vertex 0 58 28
      vertex 5.46777 58 3.76777
    endloop
  endfacet
  facet normal 0 1 0
    outer loop
      vertex 1.93223 58 3.76777
      vertex 0 58 28
      vertex 3.7 58 4.5
    endloop
  endfacet
  facet normal 0 1 0
    outer loop
      vertex 0 58 0
      vertex 0 58 28
      vertex 1.93223 58 3.76777
    endloop
  endfacet
  facet normal 0 1 0
    outer loop
      vertex 0 58 0
      vertex 1.93223 58 3.76777
      vertex 1.2 58 2
    endloop
  endfacet
  facet normal 0 1 0
    outer loop
      vertex 0 58 0
      vertex 1.2 58 2
      vertex 1.93223 58 0.232233
    endloop
  endfacet
  facet normal 0 1 0
    outer loop
      vertex 0 58 0
      vertex 1.93223 58 0.232233
      vertex 2.49289 58 0
    endloop
  endfacet
  facet normal 0 1 0
    outer loop
      vertex 30.7678 58 3.76777
      vertex 33 58 28
      vertex 31.5 58 2
    endloop
  endfacet
  facet normal 0 1 0
    outer loop
      vertex 6.2 58 2
      vertex 26.5 58 2
      vertex 5.46777 58 0.232233
    endloop
  endfacet
  facet normal 0 0 1
    outer loop
      vertex 2 2 28
      vertex 0 0 28
      vertex 33 0 28
    endloop
  endfacet
  facet normal 0 0 1
    outer loop
      vertex 31 2 28
      vertex 2 2 28
      vertex 33 0 28
    endloop
  endfacet
  facet normal 0 0 1
    outer loop
      vertex 0 58 28
      vertex 0 0 28
      vertex 2 2 28
    endloop
  endfacet
  facet normal 0 0 1
    outer loop
      vertex 33 58 28
      vertex 0 58 28
      vertex 2 56 28
    endloop
  endfacet
  facet normal 0 0 1
    outer loop
      vertex 33 58 28
      vertex 31 56 28
      vertex 33 0 28
    endloop
  endfacet
  facet normal 0 0 1
    outer loop
      vertex 33 58 28
      vertex 2 56 28
      vertex 31 56 28
    endloop
  endfacet
  facet normal 0 0 1
    outer loop
      vertex 31 56 28
      vertex 31 2 28
      vertex 33 0 28
    endloop
  endfacet
  facet normal 0 0 1
    outer loop
      vertex 2 2 28
      vertex 2 56 28
      vertex 0 58 28
    endloop
  endfacet
  facet normal 8.49728e-17 0.92388 -0.382683
    outer loop
      vertex 33 13.2322 5.76777
      vertex 33 12.5 4
      vertex 0 13.2322 5.76777
    endloop
  endfacet
  facet normal 8.49728e-17 0.92388 -0.382683
    outer loop
      vertex 0 13.2322 5.76777
      vertex 33 12.5 4
      vertex 0 12.5 4
    endloop
  endfacet
  facet normal -8.49728e-17 0.92388 0.382683
    outer loop
      vertex 33 13.2322 2.23223
      vertex 0 13.2322 2.23223
      vertex 33 12.5 4
    endloop
  endfacet
  facet normal -8.49728e-17 0.92388 0.382683
    outer loop
      vertex 33 12.5 4
      vertex 0 13.2322 2.23223
      vertex 0 12.5 4
    endloop
  endfacet
  facet normal 2.05142e-16 0.382683 -0.92388
    outer loop
      vertex 4 15 6.5
      vertex 4 13.7929 6
      vertex 0 15 6.5
    endloop
  endfacet
  facet normal 2.05142e-16 0.382683 -0.92388
    outer loop
      vertex 0 13.2322 5.76777
      vertex 4 13.7929 6
      vertex 33 13.2322 5.76777
    endloop
  endfacet
  facet normal 2.05142e-16 0.382683 -0.92388
    outer loop
      vertex 33 15 6.5
      vertex 29 13.7929 6
      vertex 29 15 6.5
    endloop
  endfacet
  facet normal 2.05142e-16 0.382683 -0.92388
    outer loop
      vertex 33 13.2322 5.76777
      vertex 29 13.7929 6
      vertex 33 15 6.5
    endloop
  endfacet
  facet normal 2.05142e-16 0.382683 -0.92388
    outer loop
      vertex 4 13.7929 6
      vertex 29 13.7929 6
      vertex 33 13.2322 5.76777
    endloop
  endfacet
  facet normal 2.05142e-16 0.382683 -0.92388
    outer loop
      vertex 0 15 6.5
      vertex 4 13.7929 6
      vertex 0 13.2322 5.76777
    endloop
  endfacet
  facet normal 2.05142e-16 -0.382683 -0.92388
    outer loop
      vertex 4 16.2071 6
      vertex 0 16.7678 5.76777
      vertex 29 16.2071 6
    endloop
  endfacet
  facet normal 2.05142e-16 -0.382683 -0.92388
    outer loop
      vertex 33 16.7678 5.76777
      vertex 33 15 6.5
      vertex 29 16.2071 6
    endloop
  endfacet
  facet normal 2.05142e-16 -0.382683 -0.92388
    outer loop
      vertex 33 16.7678 5.76777
      vertex 29 16.2071 6
      vertex 0 16.7678 5.76777
    endloop
  endfacet
  facet normal 2.05142e-16 -0.382683 -0.92388
    outer loop
      vertex 0 16.7678 5.76777
      vertex 4 16.2071 6
      vertex 4 15 6.5
    endloop
  endfacet
  facet normal 2.05142e-16 -0.382683 -0.92388
    outer loop
      vertex 0 16.7678 5.76777
      vertex 4 15 6.5
      vertex 0 15 6.5
    endloop
  endfacet
  facet normal 2.05142e-16 -0.382683 -0.92388
    outer loop
      vertex 29 16.2071 6
      vertex 33 15 6.5
      vertex 29 15 6.5
    endloop
  endfacet
  facet normal 8.49728e-17 -0.92388 -0.382683
    outer loop
      vertex 0 17.5 4
      vertex 33 17.5 4
      vertex 33 16.7678 5.76777
    endloop
  endfacet
  facet normal 8.49728e-17 -0.92388 -0.382683
    outer loop
      vertex 0 16.7678 5.76777
      vertex 0 17.5 4
      vertex 33 16.7678 5.76777
    endloop
  endfacet
  facet normal -8.49728e-17 -0.92388 0.382683
    outer loop
      vertex 33 16.7678 2.23223
      vertex 33 17.5 4
      vertex 0 17.5 4
    endloop
  endfacet
  facet normal -8.49728e-17 -0.92388 0.382683
    outer loop
      vertex 0 16.7678 2.23223
      vertex 33 16.7678 2.23223
      vertex 0 17.5 4
    endloop
  endfacet
  facet normal -2.05142e-16 -0.382683 0.92388
    outer loop
      vertex 33 15 1.5
      vertex 33 16.7678 2.23223
      vertex 0 16.7678 2.23223
    endloop
  endfacet
  facet normal -2.05142e-16 -0.382683 0.92388
    outer loop
      vertex 0 15 1.5
      vertex 33 15 1.5
      vertex 0 16.7678 2.23223
    endloop
  endfacet
  facet normal -2.05142e-16 0.382683 0.92388
    outer loop
      vertex 33 13.2322 2.23223
      vertex 33 15 1.5
      vertex 0 15 1.5
    endloop
  endfacet
  facet normal -2.05142e-16 0.382683 0.92388
    outer loop
      vertex 0 13.2322 2.23223
      vertex 33 13.2322 2.23223
      vertex 0 15 1.5
    endloop
  endfacet
  facet normal 1 0 0
    outer loop
      vertex 33 15 1.5
      vertex 33 0 0
      vertex 33 58 0
    endloop
  endfacet
  facet normal 1 0 0
    outer loop
      vertex 33 58 28
      vertex 33 0 28
      vertex 33 58 0
    endloop
  endfacet
  facet normal 1 0 0
    outer loop
      vertex 33 0 28
      vertex 33 0 0
      vertex 33 13.2322 2.23223
    endloop
  endfacet
  facet normal 1 0 0
    outer loop
      vertex 33 16.7678 2.23223
      vertex 33 15 1.5
      vertex 33 58 0
    endloop
  endfacet
  facet normal 1 0 0
    outer loop
      vertex 33 0 28
      vertex 33 13.2322 2.23223
      vertex 33 12.5 4
    endloop
  endfacet
  facet normal 1 0 0
    outer loop
      vertex 33 17.5 4
      vertex 33 16.7678 2.23223
      vertex 33 58 0
    endloop
  endfacet
  facet normal 1 0 0
    outer loop
      vertex 33 0 28
      vertex 33 12.5 4
      vertex 33 13.2322 5.76777
    endloop
  endfacet
  facet normal 1 0 0
    outer loop
      vertex 33 0 28
      vertex 33 15 6.5
      vertex 33 58 0
    endloop
  endfacet
  facet normal 1 0 0
    outer loop
      vertex 33 0 28
      vertex 33 13.2322 5.76777
      vertex 33 15 6.5
    endloop
  endfacet
  facet normal 1 0 0
    outer loop
      vertex 33 15 6.5
      vertex 33 16.7678 5.76777
      vertex 33 58 0
    endloop
  endfacet
  facet normal 1 0 0
    outer loop
      vertex 33 13.2322 2.23223
      vertex 33 0 0
      vertex 33 15 1.5
    endloop
  endfacet
  facet normal 1 0 0
    outer loop
      vertex 33 16.7678 5.76777
      vertex 33 17.5 4
      vertex 33 58 0
    endloop
  endfacet
  facet normal -0.382683 -8.49728e-17 0.92388
    outer loop
      vertex 30.2071 40 0
      vertex 30.7678 40 0.232233
      vertex 30.7678 58 0.232233
    endloop
  endfacet
  facet normal -0.382683 -8.49728e-17 0.92388
    outer loop
      vertex 30.2071 58 0
      vertex 30.2071 40 0
      vertex 30.7678 58 0.232233
    endloop
  endfacet
  facet normal -2.22045e-16 1 -4.93038e-32
    outer loop
      vertex 29 40 4.5
      vertex 30.7678 40 3.76777
      vertex 27.2322 40 3.76777
    endloop
  endfacet
  facet normal -2.22045e-16 1 -4.93038e-32
    outer loop
      vertex 27.2322 40 3.76777
      vertex 30.7678 40 3.76777
      vertex 31.5 40 2
    endloop
  endfacet
  facet normal -2.22045e-16 1 -4.93038e-32
    outer loop
      vertex 27.2322 40 3.76777
      vertex 31.5 40 2
      vertex 30.7678 40 0.232233
    endloop
  endfacet
  facet normal -2.22045e-16 1 -4.93038e-32
    outer loop
      vertex 27.2322 40 3.76777
      vertex 30.7678 40 0.232233
      vertex 30.2071 40 0
    endloop
  endfacet
  facet normal -2.22045e-16 1 -4.93038e-32
    outer loop
      vertex 27.2322 40 3.76777
      vertex 30.2071 40 0
      vertex 27.7929 40 0
    endloop
  endfacet
  facet normal -2.22045e-16 1 -4.93038e-32
    outer loop
      vertex 27.2322 40 3.76777
      vertex 27.7929 40 0
      vertex 27.2322 40 0.232233
    endloop
  endfacet
  facet normal -2.22045e-16 1 -4.93038e-32
    outer loop
      vertex 27.2322 40 3.76777
      vertex 27.2322 40 0.232233
      vertex 26.5 40 2
    endloop
  endfacet
  facet normal 0.382683 8.49728e-17 0.92388
    outer loop
      vertex 27.2322 40 0.232233
      vertex 27.7929 40 0
      vertex 27.7929 58 0
    endloop
  endfacet
  facet normal 0.382683 8.49728e-17 0.92388
    outer loop
      vertex 27.2322 58 0.232233
      vertex 27.2322 40 0.232233
      vertex 27.7929 58 0
    endloop
  endfacet
  facet normal -0.382683 -8.49728e-17 0.92388
    outer loop
      vertex 4.90711 40 0
      vertex 5.46777 40 0.232233
      vertex 5.46777 58 0.232233
    endloop
  endfacet
  facet normal -0.382683 -8.49728e-17 0.92388
    outer loop
      vertex 4.90711 58 0
      vertex 4.90711 40 0
      vertex 5.46777 58 0.232233
    endloop
  endfacet
  facet normal -2.22045e-16 1 -4.93038e-32
    outer loop
      vertex 3.7 40 4.5
      vertex 5.46777 40 3.76777
      vertex 1.93223 40 3.76777
    endloop
  endfacet
  facet normal -2.22045e-16 1 -4.93038e-32
    outer loop
      vertex 1.93223 40 3.76777
      vertex 5.46777 40 3.76777
      vertex 6.2 40 2
    endloop
  endfacet
  facet normal -2.22045e-16 1 -4.93038e-32
    outer loop
      vertex 1.93223 40 3.76777
      vertex 6.2 40 2
      vertex 5.46777 40 0.232233
    endloop
  endfacet
  facet normal -2.22045e-16 1 -4.93038e-32
    outer loop
      vertex 1.93223 40 3.76777
      vertex 5.46777 40 0.232233
      vertex 4.90711 40 0
    endloop
  endfacet
  facet normal -2.22045e-16 1 -4.93038e-32
    outer loop
      vertex 1.93223 40 3.76777
      vertex 4.90711 40 0
      vertex 2.49289 40 0
    endloop
  endfacet
  facet normal -2.22045e-16 1 -4.93038e-32
    outer loop
      vertex 1.93223 40 3.76777
      vertex 2.49289 40 0
      vertex 1.93223 40 0.232233
    endloop
  endfacet
  facet normal -2.22045e-16 1 -4.93038e-32
    outer loop
      vertex 1.93223 40 3.76777
      vertex 1.93223 40 0.232233
      vertex 1.2 40 2
    endloop
  endfacet
  facet normal 0.382683 8.49728e-17 0.92388
    outer loop
      vertex 1.93223 40 0.232233
      vertex 2.49289 40 0
      vertex 2.49289 58 0
    endloop
  endfacet
  facet normal 0.382683 8.49728e-17 0.92388
    outer loop
      vertex 1.93223 58 0.232233
      vertex 1.93223 40 0.232233
      vertex 2.49289 58 0
    endloop
  endfacet
  facet normal 0.92388 2.05142e-16 0.382683
    outer loop
      vertex 1.2 40 2
      vertex 1.93223 40 0.232233
      vertex 1.93223 58 0.232233
    endloop
  endfacet
  facet normal 0.92388 2.05142e-16 0.382683
    outer loop
      vertex 1.2 58 2
      vertex 1.2 40 2
      vertex 1.93223 58 0.232233
    endloop
  endfacet
  facet normal 0.92388 2.05142e-16 -0.382683
    outer loop
      vertex 1.93223 58 3.76777
      vertex 1.93223 40 3.76777
      vertex 1.2 40 2
    endloop
  endfacet
  facet normal 0.92388 2.05142e-16 -0.382683
    outer loop
      vertex 1.2 58 2
      vertex 1.93223 58 3.76777
      vertex 1.2 40 2
    endloop
  endfacet
  facet normal 0.382683 8.49728e-17 -0.92388
    outer loop
      vertex 3.7 40 4.5
      vertex 1.93223 40 3.76777
      vertex 3.7 58 4.5
    endloop
  endfacet
  facet normal 0.382683 8.49728e-17 -0.92388
    outer loop
      vertex 3.7 58 4.5
      vertex 1.93223 40 3.76777
      vertex 1.93223 58 3.76777
    endloop
  endfacet
  facet normal -0.382683 -8.49728e-17 -0.92388
    outer loop
      vertex 5.46777 40 3.76777
      vertex 3.7 40 4.5
      vertex 5.46777 58 3.76777
    endloop
  endfacet
  facet normal -0.382683 -8.49728e-17 -0.92388
    outer loop
      vertex 5.46777 58 3.76777
      vertex 3.7 40 4.5
      vertex 3.7 58 4.5
    endloop
  endfacet
  facet normal -0.92388 -2.05142e-16 -0.382683
    outer loop
      vertex 6.2 40 2
      vertex 5.46777 40 3.76777
      vertex 6.2 58 2
    endloop
  endfacet
  facet normal -0.92388 -2.05142e-16 -0.382683
    outer loop
      vertex 6.2 58 2
      vertex 5.46777 40 3.76777
      vertex 5.46777 58 3.76777
    endloop
  endfacet
  facet normal -0.92388 -2.05142e-16 0.382683
    outer loop
      vertex 6.2 40 2
      vertex 6.2 58 2
      vertex 5.46777 40 0.232233
    endloop
  endfacet
  facet normal -0.92388 -2.05142e-16 0.382683
    outer loop
      vertex 5.46777 40 0.232233
      vertex 6.2 58 2
      vertex 5.46777 58 0.232233
    endloop
  endfacet
  facet normal 0.92388 2.05142e-16 0.382683
    outer loop
      vertex 26.5 40 2
      vertex 27.2322 40 0.232233
      vertex 27.2322 58 0.232233
    endloop
  endfacet
  facet normal 0.92388 2.05142e-16 0.382683
    outer loop
      vertex 26.5 58 2
      vertex 26.5 40 2
      vertex 27.2322 58 0.232233
    endloop
  endfacet
  facet normal 0.92388 2.05142e-16 -0.382683
    outer loop
      vertex 27.2322 58 3.76777
      vertex 27.2322 40 3.76777
      vertex 26.5 40 2
    endloop
  endfacet
  facet normal 0.92388 2.05142e-16 -0.382683
    outer loop
      vertex 26.5 58 2
      vertex 27.2322 58 3.76777
      vertex 26.5 40 2
    endloop
  endfacet
  facet normal 0.382683 8.49728e-17 -0.92388
    outer loop
      vertex 29 40 4.5
      vertex 27.2322 40 3.76777
      vertex 29 58 4.5
    endloop
  endfacet
  facet normal 0.382683 8.49728e-17 -0.92388
    outer loop
      vertex 29 58 4.5
      vertex 27.2322 40 3.76777
      vertex 27.2322 58 3.76777
    endloop
  endfacet
  facet normal -0.382683 -8.49728e-17 -0.92388
    outer loop
      vertex 30.7678 40 3.76777
      vertex 29 40 4.5
      vertex 30.7678 58 3.76777
    endloop
  endfacet
  facet normal -0.382683 -8.49728e-17 -0.92388
    outer loop
      vertex 30.7678 58 3.76777
      vertex 29 40 4.5
      vertex 29 58 4.5
    endloop
  endfacet
  facet normal -0.92388 -2.05142e-16 -0.382683
    outer loop
      vertex 31.5 40 2
      vertex 30.7678 40 3.76777
      vertex 31.5 58 2
    endloop
  endfacet
  facet normal -0.92388 -2.05142e-16 -0.382683
    outer loop
      vertex 31.5 58 2
      vertex 30.7678 40 3.76777
      vertex 30.7678 58 3.76777
    endloop
  endfacet
  facet normal -0.92388 -2.05142e-16 0.382683
    outer loop
      vertex 31.5 40 2
      vertex 31.5 58 2
      vertex 30.7678 40 0.232233
    endloop
  endfacet
  facet normal -0.92388 -2.05142e-16 0.382683
    outer loop
      vertex 30.7678 40 0.232233
      vertex 31.5 58 2
      vertex 30.7678 58 0.232233
    endloop
  endfacet
  facet normal 1 0 0
    outer loop
      vertex 2 56 26
      vertex 2 56 28
      vertex 2 2 28
    endloop
  endfacet
  facet normal 1 0 0
    outer loop
      vertex 2 2 26
      vertex 2 56 26
      vertex 2 2 28
    endloop
  endfacet
  facet normal 0 1 0
    outer loop
      vertex 31 2 28
      vertex 31 2 26
      vertex 2 2 28
    endloop
  endfacet
  facet normal 0 1 0
    outer loop
      vertex 2 2 28
      vertex 31 2 26
      vertex 2 2 26
    endloop
  endfacet
  facet normal -1 0 0
    outer loop
      vertex 31 56 28
      vertex 31 56 26
      vertex 31 2 28
    endloop
  endfacet
  facet normal -1 0 0
    outer loop
      vertex 31 2 28
      vertex 31 56 26
      vertex 31 2 26
    endloop
  endfacet
  facet normal 0 -1 0
    outer loop
      vertex 31 56 26
      vertex 31 56 28
      vertex 2 56 28
    endloop
  endfacet
  facet normal 0 -1 0
    outer loop
      vertex 2 56 26
      vertex 31 56 26
      vertex 2 56 28
    endloop
  endfacet
  facet normal -1 0 0
    outer loop
      vertex 29 54 26
      vertex 29 54 6
      vertex 29 4 26
    endloop
  endfacet
  facet normal -1 0 0
    outer loop
      vertex 29 4 26
      vertex 29 54 6
      vertex 29 16.2071 6
    endloop
  endfacet
  facet normal -1 0 0
    outer loop
      vertex 29 4 26
      vertex 29 16.2071 6
      vertex 29 15 6.5
    endloop
  endfacet
  facet normal -1 0 0
    outer loop
      vertex 29 4 26
      vertex 29 15 6.5
      vertex 29 13.7929 6
    endloop
  endfacet
  facet normal -1 0 0
    outer loop
      vertex 29 4 26
      vertex 29 13.7929 6
      vertex 29 4 6
    endloop
  endfacet
  facet normal 0 0 1
    outer loop
      vertex 29 4 6
      vertex 29 13.7929 6
      vertex 4 13.7929 6
    endloop
  endfacet
  facet normal 0 0 1
    outer loop
      vertex 4 4 6
      vertex 29 4 6
      vertex 4 13.7929 6
    endloop
  endfacet
  facet normal 1 0 0
    outer loop
      vertex 4 54 6
      vertex 4 15 6.5
      vertex 4 16.2071 6
    endloop
  endfacet
  facet normal 1 0 0
    outer loop
      vertex 4 54 26
      vertex 4 15 6.5
      vertex 4 54 6
    endloop
  endfacet
  facet normal 1 0 0
    outer loop
      vertex 4 13.7929 6
      vertex 4 15 6.5
      vertex 4 54 26
    endloop
  endfacet
  facet normal 1 0 0
    outer loop
      vertex 4 4 26
      vertex 4 13.7929 6
      vertex 4 54 26
    endloop
  endfacet
  facet normal 1 0 0
    outer loop
      vertex 4 4 6
      vertex 4 13.7929 6
      vertex 4 4 26
    endloop
  endfacet
  facet normal 0 0 1
    outer loop
      vertex 29 16.2071 6
      vertex 29 54 6
      vertex 4 54 6
    endloop
  endfacet
  facet normal 0 0 1
    outer loop
      vertex 4 16.2071 6
      vertex 29 16.2071 6
      vertex 4 54 6
    endloop
  endfacet
  facet normal 0 0 1
    outer loop
      vertex 4 54 26
      vertex 31 56 26
      vertex 2 56 26
    endloop
  endfacet
  facet normal 0 0 1
    outer loop
      vertex 29 54 26
      vertex 29 4 26
      vertex 31 2 26
    endloop
  endfacet
  facet normal 0 0 1
    outer loop
      vertex 29 54 26
      vertex 31 56 26
      vertex 4 54 26
    endloop
  endfacet
  facet normal 0 0 1
    outer loop
      vertex 31 2 26
      vertex 31 56 26
      vertex 29 54 26
    endloop
  endfacet
  facet normal 0 0 1
    outer loop
      vertex 2 2 26
      vertex 31 2 26
      vertex 29 4 26
    endloop
  endfacet
  facet normal 0 0 1
    outer loop
      vertex 2 2 26
      vertex 4 4 26
      vertex 2 56 26
    endloop
  endfacet
  facet normal 0 0 1
    outer loop
      vertex 2 2 26
      vertex 29 4 26
      vertex 4 4 26
    endloop
  endfacet
  facet normal 0 0 1
    outer loop
      vertex 4 4 26
      vertex 4 54 26
      vertex 2 56 26
    endloop
  endfacet
  facet normal 0 1 0
    outer loop
      vertex 29 4 26
      vertex 29 4 6
      vertex 4 4 26
    endloop
  endfacet
  facet normal 0 1 0
    outer loop
      vertex 4 4 26
      vertex 29 4 6
      vertex 4 4 6
    endloop
  endfacet
  facet normal 0 -1 0
    outer loop
      vertex 29 54 6
      vertex 29 54 26
      vertex 4 54 26
    endloop
  endfacet
  facet normal 0 -1 0
    outer loop
      vertex 4 54 6
      vertex 29 54 6
      vertex 4 54 26
    endloop
  endfacet
endsolid OpenSCAD_Model
