solid OpenSCAD_Model
  facet normal -1 0 0
    outer loop
      vertex 0 0 0
      vertex 0 0 100
      vertex 0 100 0
    endloop
  endfacet
  facet normal -1 0 0
    outer loop
      vertex 0 100 0
      vertex 0 0 100
      vertex 0 100 100
    endloop
  endfacet
  facet normal 0 -1 0
    outer loop
      vertex 0 0 100
      vertex 0 0 0
      vertex 100 0 0
    endloop
  endfacet
  facet normal 0 -1 0
    outer loop
      vertex 100 0 100
      vertex 0 0 100
      vertex 100 0 0
    endloop
  endfacet
  facet normal 0 0 -1
    outer loop
      vertex 0 0 0
      vertex 0 100 0
      vertex 100 0 0
    endloop
  endfacet
  facet normal 0 0 -1
    outer loop
      vertex 100 0 0
      vertex 0 100 0
      vertex 100 100 0
    endloop
  endfacet
  facet normal 0 1 0
    outer loop
      vertex 0 100 0
      vertex 0 100 100
      vertex 100 100 0
    endloop
  endfacet
  facet normal 0 1 0
    outer loop
      vertex 100 100 0
      vertex 0 100 100
      vertex 100 100 100
    endloop
  endfacet
  facet normal 0 0 1
    outer loop
      vertex 2 2 100
      vertex 0 0 100
      vertex 100 0 100
    endloop
  endfacet
  facet normal 0 0 1
    outer loop
      vertex 2 98 100
      vertex 0 100 100
      vertex 2 2 100
    endloop
  endfacet
  facet normal 0 0 1
    outer loop
      vertex 98 2 100
      vertex 2 2 100
      vertex 100 0 100
    endloop
  endfacet
  facet normal 0 0 1
    outer loop
      vertex 0 100 100
      vertex 0 0 100
      vertex 2 2 100
    endloop
  endfacet
  facet normal 0 0 1
    outer loop
      vertex 100 100 100
      vertex 0 100 100
      vertex 2 98 100
    endloop
  endfacet
  facet normal 0 0 1
    outer loop
      vertex 100 100 100
      vertex 98 98 100
      vertex 100 0 100
    endloop
  endfacet
  facet normal 0 0 1
    outer loop
      vertex 100 100 100
      vertex 2 98 100
      vertex 98 98 100
    endloop
  endfacet
  facet normal 0 0 1
    outer loop
      vertex 98 98 100
      vertex 98 2 100
      vertex 100 0 100
    endloop
  endfacet
  facet normal 1 0 0
    outer loop
      vertex 100 0 100
      vertex 100 0 0
      vertex 100 100 0
    endloop
  endfacet
  facet normal 1 0 0
    outer loop
      vertex 100 100 100
      vertex 100 0 100
      vertex 100 100 0
    endloop
  endfacet
  facet normal -1 0 0
    outer loop
      vertex 2 2 100
      vertex 2 2 105
      vertex 2 98 100
    endloop
  endfacet
  facet normal -1 0 0
    outer loop
      vertex 2 98 100
      vertex 2 2 105
      vertex 2 98 105
    endloop
  endfacet
  facet normal 0 -1 0
    outer loop
      vertex 2 2 105
      vertex 2 2 100
      vertex 98 2 100
    endloop
  endfacet
  facet normal 0 -1 0
    outer loop
      vertex 98 2 105
      vertex 2 2 105
      vertex 98 2 100
    endloop
  endfacet
  facet normal 1 0 0
    outer loop
      vertex 98 2 105
      vertex 98 2 100
      vertex 98 98 100
    endloop
  endfacet
  facet normal 1 0 0
    outer loop
      vertex 98 98 105
      vertex 98 2 105
      vertex 98 98 100
    endloop
  endfacet
  facet normal 0 1 0
    outer loop
      vertex 2 98 100
      vertex 2 98 105
      vertex 98 98 100
    endloop
  endfacet
  facet normal 0 1 0
    outer loop
      vertex 98 98 100
      vertex 2 98 105
      vertex 98 98 105
    endloop
  endfacet
  facet normal 0 0 1
    outer loop
      vertex 3 3 105
      vertex 2 2 105
      vertex 98 2 105
    endloop
  endfacet
  facet normal 0 0 1
    outer loop
      vertex 3 97 105
      vertex 2 98 105
      vertex 3 3 105
    endloop
  endfacet
  facet normal 0 0 1
    outer loop
      vertex 97 3 105
      vertex 3 3 105
      vertex 98 2 105
    endloop
  endfacet
  facet normal 0 0 1
    outer loop
      vertex 2 98 105
      vertex 2 2 105
      vertex 3 3 105
    endloop
  endfacet
  facet normal 0 0 1
    outer loop
      vertex 98 98 105
      vertex 2 98 105
      vertex 3 97 105
    endloop
  endfacet
  facet normal 0 0 1
    outer loop
      vertex 98 98 105
      vertex 97 97 105
      vertex 98 2 105
    endloop
  endfacet
  facet normal 0 0 1
    outer loop
      vertex 98 98 105
      vertex 3 97 105
      vertex 97 97 105
    endloop
  endfacet
  facet normal 0 0 1
    outer loop
      vertex 97 97 105
      vertex 97 3 105
      vertex 98 2 105
    endloop
  endfacet
  facet normal 1 0 0
    outer loop
      vertex 3 97 13
      vertex 3 97 105
      vertex 3 3 105
    endloop
  endfacet
  facet normal 1 0 0
    outer loop
      vertex 3 3 13
      vertex 3 97 13
      vertex 3 3 105
    endloop
  endfacet
  facet normal 0 1 0
    outer loop
      vertex 97 3 105
      vertex 97 3 13
      vertex 3 3 105
    endloop
  endfacet
  facet normal 0 1 0
    outer loop
      vertex 3 3 105
      vertex 97 3 13
      vertex 3 3 13
    endloop
  endfacet
  facet normal -1 0 0
    outer loop
      vertex 97 97 105
      vertex 97 97 13
      vertex 97 3 105
    endloop
  endfacet
  facet normal -1 0 0
    outer loop
      vertex 97 3 105
      vertex 97 97 13
      vertex 97 3 13
    endloop
  endfacet
  facet normal 0 -1 0
    outer loop
      vertex 97 97 13
      vertex 97 97 105
      vertex 3 97 105
    endloop
  endfacet
  facet normal 0 -1 0
    outer loop
      vertex 3 97 13
      vertex 97 97 13
      vertex 3 97 105
    endloop
  endfacet
  facet normal 0 0 1
    outer loop
      vertex 97 3 13
      vertex 97 97 13
      vertex 3 97 13
    endloop
  endfacet
  facet normal 0 0 1
    outer loop
      vertex 3 3 13
      vertex 97 3 13
      vertex 3 97 13
    endloop
  endfacet
  facet normal -1 0 0
    outer loop
      vertex 3 3 6
      vertex 3 3 9
      vertex 3 97 6
    endloop
  endfacet
  facet normal -1 0 0
    outer loop
      vertex 3 97 6
      vertex 3 3 9
      vertex 3 97 9
    endloop
  endfacet
  facet normal 0 -1 0
    outer loop
      vertex 3 3 9
      vertex 3 3 6
      vertex 97 3 6
    endloop
  endfacet
  facet normal 0 -1 0
    outer loop
      vertex 97 3 9
      vertex 3 3 9
      vertex 97 3 6
    endloop
  endfacet
  facet normal 0 0 -1
    outer loop
      vertex 3 3 6
      vertex 3 97 6
      vertex 97 3 6
    endloop
  endfacet
  facet normal 0 0 -1
    outer loop
      vertex 97 3 6
      vertex 3 97 6
      vertex 97 97 6
    endloop
  endfacet
  facet normal 0 1 0
    outer loop
      vertex 3 97 6
      vertex 3 97 9
      vertex 97 97 6
    endloop
  endfacet
  facet normal 0 1 0
    outer loop
      vertex 97 97 6
      vertex 3 97 9
      vertex 97 97 9
    endloop
  endfacet
  facet normal 0 0 1
    outer loop
      vertex 97 3 9
      vertex 97 97 9
      vertex 3 97 9
    endloop
  endfacet
  facet normal 0 0 1
    outer loop
      vertex 3 3 9
      vertex 97 3 9
      vertex 3 97 9
    endloop
  endfacet
  facet normal 1 0 0
    outer loop
      vertex 97 3 9
      vertex 97 3 6
      vertex 97 97 6
    endloop
  endfacet
  facet normal 1 0 0
    outer loop
      vertex 97 97 9
      vertex 97 3 9
      vertex 97 97 6
    endloop
  endfacet
  facet normal -1 0 0
    outer loop
      vertex 0 -102 1.22465e-14
      vertex 0 -102 10
      vertex 0 -2 0
    endloop
  endfacet
  facet normal -1 0 0
    outer loop
      vertex 0 -2 0
      vertex 0 -102 10
      vertex 0 -2 10
    endloop
  endfacet
  facet normal 0 -1 1.22465e-16
    outer loop
      vertex 0 -102 10
      vertex 0 -102 1.22465e-14
      vertex 100 -102 1.22465e-14
    endloop
  endfacet
  facet normal 0 -1 1.22465e-16
    outer loop
      vertex 100 -102 10
      vertex 0 -102 10
      vertex 100 -102 1.22465e-14
    endloop
  endfacet
  facet normal 0 -1.22465e-16 -1
    outer loop
      vertex 0 -102 1.22465e-14
      vertex 0 -2 0
      vertex 100 -102 1.22465e-14
    endloop
  endfacet
  facet normal 0 -1.22465e-16 -1
    outer loop
      vertex 100 -102 1.22465e-14
      vertex 0 -2 0
      vertex 100 -2 0
    endloop
  endfacet
  facet normal 0 1 -1.22465e-16
    outer loop
      vertex 0 -2 0
      vertex 0 -2 10
      vertex 100 -2 0
    endloop
  endfacet
  facet normal 0 1 -1.22465e-16
    outer loop
      vertex 100 -2 0
      vertex 0 -2 10
      vertex 100 -2 10
    endloop
  endfacet
  facet normal 0 1.22465e-16 1
    outer loop
      vertex 3 -99 10
      vertex 0 -102 10
      vertex 100 -102 10
    endloop
  endfacet
  facet normal 0 1.22465e-16 1
    outer loop
      vertex 3 -5 10
      vertex 0 -2 10
      vertex 3 -99 10
    endloop
  endfacet
  facet normal 0 1.22465e-16 1
    outer loop
      vertex 97 -99 10
      vertex 3 -99 10
      vertex 100 -102 10
    endloop
  endfacet
  facet normal 0 1.22465e-16 1
    outer loop
      vertex 0 -2 10
      vertex 0 -102 10
      vertex 3 -99 10
    endloop
  endfacet
  facet normal 0 1.22465e-16 1
    outer loop
      vertex 100 -2 10
      vertex 0 -2 10
      vertex 3 -5 10
    endloop
  endfacet
  facet normal 0 1.22465e-16 1
    outer loop
      vertex 100 -2 10
      vertex 97 -5 10
      vertex 100 -102 10
    endloop
  endfacet
  facet normal 0 1.22465e-16 1
    outer loop
      vertex 100 -2 10
      vertex 3 -5 10
      vertex 97 -5 10
    endloop
  endfacet
  facet normal 0 1.22465e-16 1
    outer loop
      vertex 97 -5 10
      vertex 97 -99 10
      vertex 100 -102 10
    endloop
  endfacet
  facet normal 1 0 0
    outer loop
      vertex 100 -102 10
      vertex 100 -102 1.22465e-14
      vertex 100 -2 0
    endloop
  endfacet
  facet normal 1 0 0
    outer loop
      vertex 100 -2 10
      vertex 100 -102 10
      vertex 100 -2 0
    endloop
  endfacet
  facet normal 1 0 0
    outer loop
      vertex 3 -5 3
      vertex 3 -5 10
      vertex 3 -99 10
    endloop
  endfacet
  facet normal 1 0 0
    outer loop
      vertex 3 -99 3
      vertex 3 -5 3
      vertex 3 -99 10
    endloop
  endfacet
  facet normal 0 1 -1.22465e-16
    outer loop
      vertex 97 -99 10
      vertex 97 -99 3
      vertex 3 -99 10
    endloop
  endfacet
  facet normal 0 1 -1.22465e-16
    outer loop
      vertex 3 -99 10
      vertex 97 -99 3
      vertex 3 -99 3
    endloop
  endfacet
  facet normal -1 0 0
    outer loop
      vertex 97 -5 10
      vertex 97 -5 3
      vertex 97 -99 10
    endloop
  endfacet
  facet normal -1 0 0
    outer loop
      vertex 97 -99 10
      vertex 97 -5 3
      vertex 97 -99 3
    endloop
  endfacet
  facet normal 0 -1 1.22465e-16
    outer loop
      vertex 97 -5 3
      vertex 97 -5 10
      vertex 3 -5 10
    endloop
  endfacet
  facet normal 0 -1 1.22465e-16
    outer loop
      vertex 3 -5 3
      vertex 97 -5 3
      vertex 3 -5 10
    endloop
  endfacet
  facet normal 0 1.22465e-16 1
    outer loop
      vertex 97 -99 3
      vertex 97 -5 3
      vertex 3 -5 3
    endloop
  endfacet
  facet normal 0 1.22465e-16 1
    outer loop
      vertex 3 -99 3
      vertex 97 -99 3
      vertex 3 -5 3
    endloop
  endfacet
endsolid OpenSCAD_Model
