<?xml version="1.0" encoding="UTF-8" standalone="no"?>
<!-- Created with Inkscape (http://www.inkscape.org/) -->

<svg
   xmlns:dc="http://purl.org/dc/elements/1.1/"
   xmlns:cc="http://creativecommons.org/ns#"
   xmlns:rdf="http://www.w3.org/1999/02/22-rdf-syntax-ns#"
   xmlns:svg="http://www.w3.org/2000/svg"
   xmlns="http://www.w3.org/2000/svg"
   xmlns:sodipodi="http://sodipodi.sourceforge.net/DTD/sodipodi-0.dtd"
   xmlns:inkscape="http://www.inkscape.org/namespaces/inkscape"
   width="163.62643"
   height="163.62643"
   id="svg2"
   version="1.1"
   inkscape:version="0.48.4 r9939"
   sodipodi:docname="Karma_V1.svg">
  <defs
     id="defs4" />
  <sodipodi:namedview
     id="base"
     pagecolor="#ffffff"
     bordercolor="#666666"
     borderopacity="1.0"
     inkscape:pageopacity="0.0"
     inkscape:pageshadow="2"
     inkscape:zoom="1.4"
     inkscape:cx="275.42167"
     inkscape:cy="50.30424"
     inkscape:document-units="px"
     inkscape:current-layer="g3011"
     showgrid="false"
     inkscape:window-width="1536"
     inkscape:window-height="803"
     inkscape:window-x="-8"
     inkscape:window-y="-8"
     inkscape:window-maximized="1"
     fit-margin-top="0"
     fit-margin-left="0"
     fit-margin-right="0"
     fit-margin-bottom="0" />
  <metadata
     id="metadata7">
    <rdf:RDF>
      <cc:Work
         rdf:about="">
        <dc:format>image/svg+xml</dc:format>
        <dc:type
           rdf:resource="http://purl.org/dc/dcmitype/StillImage" />
        <dc:title />
      </cc:Work>
    </rdf:RDF>
  </metadata>
  <g
     inkscape:label="Layer 1"
     inkscape:groupmode="layer"
     id="layer1"
     transform="translate(-117.14285,-614.45006)">
    <g
       id="g3000"
       transform="matrix(0.76706828,0,0,0.76706828,87.515777,161.00921)">
      <g
         id="g3011"
         transform="translate(-7.4495138,-29.798055)">
        <g
           id="g2998"
           transform="matrix(0.23280183,0,0,0.23280183,65.696897,608.8161)">
          <path
             sodipodi:type="arc"
             style="fill:#ff6600;fill-opacity:1;fill-rule:evenodd;stroke-width:1;stroke-miterlimit:4;stroke-dasharray:none"
             id="path3007"
             sodipodi:cx="507.14285"
             sodipodi:cy="553.79077"
             sodipodi:rx="355.71429"
             sodipodi:ry="355.71429"
             d="m 862.85715,553.79077 c 0,196.45558 -159.25872,355.7143 -355.7143,355.7143 -196.45558,0 -355.71429,-159.25872 -355.71429,-355.7143 0,-196.45558 159.25871,-355.71429 355.71429,-355.71429 196.45558,0 355.7143,159.25871 355.7143,355.71429 z"
             transform="matrix(1.2879581,0,0,1.2879581,-279.32684,-203.06615)" />
          <path
             transform="matrix(1.2011251,0,0,1.1884816,-236.37978,-146.11461)"
             d="m 862.85715,553.79077 c 0,196.45558 -159.25872,355.7143 -355.7143,355.7143 -196.45558,0 -355.71429,-159.25872 -355.71429,-355.7143 0,-196.45558 159.25871,-355.71429 355.71429,-355.71429 196.45558,0 355.7143,159.25871 355.7143,355.71429 z"
             sodipodi:ry="355.71429"
             sodipodi:rx="355.71429"
             sodipodi:cy="553.79077"
             sodipodi:cx="507.14285"
             id="path3009"
             style="fill:#ffffff;fill-opacity:1;fill-rule:evenodd;stroke-width:1;stroke-miterlimit:4;stroke-dasharray:none"
             sodipodi:type="arc" />
          <path
             transform="translate(-138.87808,-41.735228)"
             d="m 862.85715,553.79077 c 0,196.45558 -159.25872,355.7143 -355.7143,355.7143 -196.45558,0 -355.71429,-159.25872 -355.71429,-355.7143 0,-196.45558 159.25871,-355.71429 355.71429,-355.71429 196.45558,0 355.7143,159.25871 355.7143,355.71429 z"
             sodipodi:ry="355.71429"
             sodipodi:rx="355.71429"
             sodipodi:cy="553.79077"
             sodipodi:cx="507.14285"
             id="path2998"
             style="fill:#ff6600;fill-opacity:1;fill-rule:evenodd;stroke-width:1;stroke-miterlimit:4;stroke-dasharray:none"
             sodipodi:type="arc" />
          <g
             style="fill:#ffffff"
             id="g2985"
             transform="matrix(0.99999873,-0.00159352,0.00159352,0.99999873,38.953692,-113.43993)">
            <rect
               style="fill:#ffffff;fill-opacity:1;fill-rule:evenodd;stroke-width:1;stroke-miterlimit:4;stroke-dasharray:none"
               id="rect2985"
               width="81.428574"
               height="491.42856"
               x="187.14285"
               y="392.36218" />
            <path
               transform="matrix(0.89218299,0.45167411,-0.60125311,0.79905863,0,0)"
               style="fill:#ffffff;fill-opacity:1;fill-rule:evenodd;stroke-width:1;stroke-miterlimit:4"
               d="m 600.04242,151.25244 64.04625,-35.65536 13.62073,464.93625 -77.66698,0 z"
               id="rect2985-6"
               inkscape:connector-curvature="0"
               sodipodi:nodetypes="ccccc" />
            <path
               style="fill:#ffffff;fill-opacity:1;fill-rule:evenodd;stroke-width:1;stroke-miterlimit:4"
               d="M 520.73177,880.18232 436.58465,880.4144 306.57251,661.40537 349.72275,605.78489 z"
               id="rect2985-6-3"
               inkscape:connector-curvature="0"
               sodipodi:nodetypes="ccccc" />
          </g>
        </g>
      </g>
    </g>
  </g>
</svg>
