<?xml version="1.0" encoding="UTF-8" standalone="no"?>
<!-- Created with Inkscape (http://www.inkscape.org/) -->

<svg
   xmlns:dc="http://purl.org/dc/elements/1.1/"
   xmlns:cc="http://creativecommons.org/ns#"
   xmlns:rdf="http://www.w3.org/1999/02/22-rdf-syntax-ns#"
   xmlns:svg="http://www.w3.org/2000/svg"
   xmlns="http://www.w3.org/2000/svg"
   xmlns:sodipodi="http://sodipodi.sourceforge.net/DTD/sodipodi-0.dtd"
   xmlns:inkscape="http://www.inkscape.org/namespaces/inkscape"
   width="744.09448819"
   height="1052.3622047"
   id="svg2"
   version="1.1"
   inkscape:version="0.48.4 r9939"
   sodipodi:docname="S3.svg">
  <defs
     id="defs4" />
  <sodipodi:namedview
     id="base"
     pagecolor="#ffffff"
     bordercolor="#666666"
     borderopacity="1.0"
     inkscape:pageopacity="0.0"
     inkscape:pageshadow="2"
     inkscape:zoom="2.8"
     inkscape:cx="421.82136"
     inkscape:cy="698.68931"
     inkscape:document-units="px"
     inkscape:current-layer="g3389"
     showgrid="false"
     inkscape:window-width="1853"
     inkscape:window-height="1056"
     inkscape:window-x="67"
     inkscape:window-y="24"
     inkscape:window-maximized="1" />
  <metadata
     id="metadata7">
    <rdf:RDF>
      <cc:Work
         rdf:about="">
        <dc:format>image/svg+xml</dc:format>
        <dc:type
           rdf:resource="http://purl.org/dc/dcmitype/StillImage" />
        <dc:title></dc:title>
      </cc:Work>
    </rdf:RDF>
  </metadata>
  <g
     inkscape:label="Layer 1"
     inkscape:groupmode="layer"
     id="layer1">
    <g
       id="g3389"
       transform="translate(22.223356,7.5761441)">
      <g
         id="g3044">
        <rect
           style="fill:#000000;fill-opacity:1;fill-rule:evenodd;stroke-width:1;stroke-miterlimit:4;stroke-dasharray:none"
           id="rect2985-6"
           width="117.40037"
           height="40.333"
           x="289.89865"
           y="372.97943"
           rx="0"
           ry="40.333" />
        <rect
           style="fill:#000000;fill-opacity:1;fill-rule:evenodd;stroke-width:1;stroke-miterlimit:4;stroke-dasharray:none"
           id="rect2985-6-2"
           width="119.87949"
           height="40.333"
           x="289.41949"
           y="288.45734"
           rx="0"
           ry="40.333" />
        <rect
           style="fill:#000000;fill-opacity:1;fill-rule:evenodd;stroke-width:1;stroke-miterlimit:4;stroke-dasharray:none"
           id="rect2985-6-6"
           width="80.152"
           height="40.172001"
           x="-476.54449"
           y="390.38379"
           rx="0"
           ry="40.172001"
           transform="matrix(0,-1,1,0,0,0)" />
        <rect
           style="fill:#000000;fill-opacity:1;fill-rule:evenodd;stroke-width:1;stroke-miterlimit:4;stroke-dasharray:none"
           id="rect3089"
           width="40.350571"
           height="29.89151"
           x="390.78424"
           y="312.76901"
           ry="0" />
        <path
           sodipodi:type="arc"
           style="fill:#000000;fill-opacity:1;fill-rule:evenodd;stroke-width:1;stroke-miterlimit:4;stroke-dasharray:none"
           id="path3237-8-2"
           sodipodi:cx="254.43217"
           sodipodi:cy="314.82455"
           sodipodi:rx="27.905464"
           sodipodi:ry="27.905464"
           d="m 282.33764,314.82455 a 27.905464,27.905464 0 1 1 -55.81093,0 27.905464,27.905464 0 1 1 55.81093,0 z"
           transform="matrix(0.83111067,0,0,0.79941889,196.6056,59.032116)" />
        <path
           sodipodi:type="arc"
           style="fill:#000000;fill-opacity:1;fill-rule:evenodd;stroke-width:1;stroke-miterlimit:4;stroke-dasharray:none"
           id="path3237-8-2-3"
           sodipodi:cx="254.43217"
           sodipodi:cy="314.82455"
           sodipodi:rx="27.905464"
           sodipodi:ry="27.905464"
           d="m 282.33764,314.82455 c 0,15.41177 -12.4937,27.90547 -27.90547,27.90547 -15.41176,0 -27.90546,-12.4937 -27.90546,-27.90547 0,-15.41176 12.4937,-27.90546 27.90546,-27.90546 15.41177,0 27.90547,12.4937 27.90547,27.90546 z"
           transform="matrix(0.83111067,0,0,0.79941889,196.13525,143.58125)" />
        <path
           sodipodi:type="arc"
           style="fill:#000000;fill-opacity:1;fill-rule:evenodd;stroke-width:1;stroke-miterlimit:4;stroke-dasharray:none"
           id="path3237-8-2-2"
           sodipodi:cx="254.43217"
           sodipodi:cy="314.82455"
           sodipodi:rx="27.905464"
           sodipodi:ry="27.905464"
           d="m 282.33764,314.82455 a 27.905464,27.905464 0 1 1 -55.81093,0 27.905464,27.905464 0 1 1 55.81093,0 z"
           transform="matrix(0.83111067,0,0,0.79941889,78.452485,59.152298)" />
        <path
           sodipodi:type="arc"
           style="fill:#000000;fill-opacity:1;fill-rule:evenodd;stroke-width:1;stroke-miterlimit:4;stroke-dasharray:none"
           id="path3237-8-2-8"
           sodipodi:cx="254.43217"
           sodipodi:cy="314.82455"
           sodipodi:rx="27.905464"
           sodipodi:ry="27.905464"
           d="m 282.33764,314.82455 c 0,15.41177 -12.4937,27.90547 -27.90547,27.90547 -15.41176,0 -27.90546,-12.4937 -27.90546,-27.90547 0,-15.41176 12.4937,-27.90546 27.90546,-27.90546 15.41177,0 27.90547,12.4937 27.90547,27.90546 z"
           transform="matrix(0.83111067,0,0,0.79941889,78.498971,139.36201)" />
        <rect
           transform="matrix(0,-1,1,0,0,0)"
           ry="40.172001"
           rx="0"
           y="266.84933"
           x="-392.14075"
           height="40.172001"
           width="80.152"
           id="rect2996"
           style="fill:#000000;fill-opacity:1;fill-rule:evenodd;stroke-width:1;stroke-miterlimit:4;stroke-dasharray:none" />
        <g
           transform="translate(0.25253814,-5.7474619)"
           id="g3036">
          <rect
             ry="40.333"
             rx="0"
             y="-502.63831"
             x="-407.56839"
             height="40.333"
             width="119.87949"
             id="rect2985-6-2-5"
             style="fill:#000000;fill-opacity:1;fill-rule:evenodd;stroke-width:1;stroke-miterlimit:4;stroke-dasharray:none"
             transform="scale(-1,-1)" />
          <rect
             ry="0"
             y="-478.32666"
             x="-306.20364"
             height="29.89151"
             width="40.350571"
             id="rect3089-9"
             style="fill:#000000;fill-opacity:1;fill-rule:evenodd;stroke-width:1;stroke-miterlimit:4;stroke-dasharray:none"
             transform="scale(-1,-1)" />
          <path
             transform="matrix(-0.83111067,0,0,-0.79941889,500.38229,732.06355)"
             d="m 282.33764,314.82455 c 0,15.41177 -12.4937,27.90547 -27.90547,27.90547 -15.41176,0 -27.90546,-12.4937 -27.90546,-27.90547 0,-15.41176 12.4937,-27.90546 27.90546,-27.90546 15.41177,0 27.90547,12.4937 27.90547,27.90546 z"
             sodipodi:ry="27.905464"
             sodipodi:rx="27.905464"
             sodipodi:cy="314.82455"
             sodipodi:cx="254.43217"
             id="path3237-8-2-31"
             style="fill:#000000;fill-opacity:1;fill-rule:evenodd;stroke-width:1;stroke-miterlimit:4;stroke-dasharray:none"
             sodipodi:type="arc" />
          <path
             transform="matrix(-0.83111067,0,0,-0.79941889,618.53541,731.94337)"
             d="m 282.33764,314.82455 c 0,15.41177 -12.4937,27.90547 -27.90547,27.90547 -15.41176,0 -27.90546,-12.4937 -27.90546,-27.90547 0,-15.41176 12.4937,-27.90546 27.90546,-27.90546 15.41177,0 27.90547,12.4937 27.90547,27.90546 z"
             sodipodi:ry="27.905464"
             sodipodi:rx="27.905464"
             sodipodi:cy="314.82455"
             sodipodi:cx="254.43217"
             id="path3237-8-2-2-7"
             style="fill:#000000;fill-opacity:1;fill-rule:evenodd;stroke-width:1;stroke-miterlimit:4;stroke-dasharray:none"
             sodipodi:type="arc" />
        </g>
      </g>
    </g>
  </g>
</svg>
