solid OpenSCAD_Model
  facet normal -1 0 0
    outer loop
      vertex 0 0 0
      vertex 0 0 2
      vertex 0 10 0
    endloop
  endfacet
  facet normal -1 0 0
    outer loop
      vertex 0 10 0
      vertex 0 0 2
      vertex 0 10 2
    endloop
  endfacet
  facet normal 0 -1 0
    outer loop
      vertex 0 0 2
      vertex 0 0 0
      vertex 10 0 0
    endloop
  endfacet
  facet normal 0 -1 0
    outer loop
      vertex 10 0 2
      vertex 0 0 2
      vertex 10 0 0
    endloop
  endfacet
  facet normal 0 0 -1
    outer loop
      vertex 0 0 0
      vertex 0 10 0
      vertex 10 0 0
    endloop
  endfacet
  facet normal 0 0 -1
    outer loop
      vertex 10 0 0
      vertex 0 10 0
      vertex 10 10 0
    endloop
  endfacet
  facet normal 0 1 0
    outer loop
      vertex 0 10 0
      vertex 0 10 2
      vertex 10 10 0
    endloop
  endfacet
  facet normal 0 1 0
    outer loop
      vertex 10 10 0
      vertex 0 10 2
      vertex 10 10 2
    endloop
  endfacet
  facet normal 0 0 1
    outer loop
      vertex 2 2 2
      vertex 0 0 2
      vertex 10 0 2
    endloop
  endfacet
  facet normal 0 0 1
    outer loop
      vertex 2 8 2
      vertex 0 10 2
      vertex 2 2 2
    endloop
  endfacet
  facet normal 0 0 1
    outer loop
      vertex 8 2 2
      vertex 2 2 2
      vertex 10 0 2
    endloop
  endfacet
  facet normal 0 0 1
    outer loop
      vertex 0 10 2
      vertex 0 0 2
      vertex 2 2 2
    endloop
  endfacet
  facet normal 0 0 1
    outer loop
      vertex 10 10 2
      vertex 0 10 2
      vertex 2 8 2
    endloop
  endfacet
  facet normal 0 0 1
    outer loop
      vertex 10 10 2
      vertex 8 8 2
      vertex 10 0 2
    endloop
  endfacet
  facet normal 0 0 1
    outer loop
      vertex 10 10 2
      vertex 2 8 2
      vertex 8 8 2
    endloop
  endfacet
  facet normal 0 0 1
    outer loop
      vertex 8 8 2
      vertex 8 2 2
      vertex 10 0 2
    endloop
  endfacet
  facet normal 1 0 0
    outer loop
      vertex 10 0 2
      vertex 10 0 0
      vertex 10 10 0
    endloop
  endfacet
  facet normal 1 0 0
    outer loop
      vertex 10 10 2
      vertex 10 0 2
      vertex 10 10 0
    endloop
  endfacet
  facet normal -1 0 0
    outer loop
      vertex 2 2 2
      vertex 2 2 4
      vertex 2 8 2
    endloop
  endfacet
  facet normal -1 0 0
    outer loop
      vertex 2 8 2
      vertex 2 2 4
      vertex 2 8 4
    endloop
  endfacet
  facet normal 0 -1 0
    outer loop
      vertex 2 2 4
      vertex 2 2 2
      vertex 8 2 2
    endloop
  endfacet
  facet normal 0 -1 0
    outer loop
      vertex 8 2 4
      vertex 2 2 4
      vertex 8 2 2
    endloop
  endfacet
  facet normal 1 0 0
    outer loop
      vertex 8 2 4
      vertex 8 2 2
      vertex 8 8 2
    endloop
  endfacet
  facet normal 1 0 0
    outer loop
      vertex 8 8 4
      vertex 8 2 4
      vertex 8 8 2
    endloop
  endfacet
  facet normal 0 1 0
    outer loop
      vertex 2 8 2
      vertex 2 8 4
      vertex 8 8 2
    endloop
  endfacet
  facet normal 0 1 0
    outer loop
      vertex 8 8 2
      vertex 2 8 4
      vertex 8 8 4
    endloop
  endfacet
  facet normal 0 0 1
    outer loop
      vertex 2 8 4
      vertex 2 2 4
      vertex 8 2 4
    endloop
  endfacet
  facet normal 0 0 1
    outer loop
      vertex 8 8 4
      vertex 2 8 4
      vertex 8 2 4
    endloop
  endfacet
endsolid OpenSCAD_Model
