<?xml version="1.0" encoding="UTF-8" standalone="no"?>
<!-- Created with Inkscape (http://www.inkscape.org/) -->

<svg
   xmlns:dc="http://purl.org/dc/elements/1.1/"
   xmlns:cc="http://creativecommons.org/ns#"
   xmlns:rdf="http://www.w3.org/1999/02/22-rdf-syntax-ns#"
   xmlns:svg="http://www.w3.org/2000/svg"
   xmlns="http://www.w3.org/2000/svg"
   xmlns:sodipodi="http://sodipodi.sourceforge.net/DTD/sodipodi-0.dtd"
   xmlns:inkscape="http://www.inkscape.org/namespaces/inkscape"
   width="133.8586"
   height="133.8586"
   id="svg2"
   version="1.1"
   inkscape:version="0.48.4 r9939"
   sodipodi:docname="exams.svg">
  <defs
     id="defs4">
    <inkscape:perspective
       sodipodi:type="inkscape:persp3d"
       inkscape:vp_x="0 : 526.18109 : 1"
       inkscape:vp_y="0 : 1000 : 0"
       inkscape:vp_z="744.09448 : 526.18109 : 1"
       inkscape:persp3d-origin="372.04724 : 350.78739 : 1"
       id="perspective2985" />
  </defs>
  <sodipodi:namedview
     id="base"
     pagecolor="#ffffff"
     bordercolor="#666666"
     borderopacity="1.0"
     inkscape:pageopacity="0.0"
     inkscape:pageshadow="2"
     inkscape:zoom="0.7"
     inkscape:cx="196.93138"
     inkscape:cy="219.07566"
     inkscape:document-units="px"
     inkscape:current-layer="g3187"
     showgrid="false"
     inkscape:window-width="1536"
     inkscape:window-height="803"
     inkscape:window-x="-8"
     inkscape:window-y="-8"
     inkscape:window-maximized="1"
     fit-margin-top="0"
     fit-margin-left="0"
     fit-margin-right="0"
     fit-margin-bottom="0" />
  <metadata
     id="metadata7">
    <rdf:RDF>
      <cc:Work
         rdf:about="">
        <dc:format>image/svg+xml</dc:format>
        <dc:type
           rdf:resource="http://purl.org/dc/dcmitype/StillImage" />
        <dc:title />
      </cc:Work>
    </rdf:RDF>
  </metadata>
  <g
     inkscape:label="Layer 1"
     inkscape:groupmode="layer"
     id="layer1"
     transform="translate(-178.06862,-617.57924)">
    <g
       transform="matrix(14.071429,0,0,14.071429,-5063.7374,-4620.5199)"
       id="g3187">
      <rect
         width="20"
         height="20"
         x="377.32144"
         y="357.36218"
         id="rect2415"
         style="fill:none;stroke:none" />
      <g
         id="g2993"
         transform="matrix(0.32122047,0,0,0.32122047,252.8551,259.13304)">
        <path
           transform="matrix(0.07106599,0,0,0.07106599,364.83412,326.83897)"
           d="m 524.28571,564.50507 c 0,114.79633 -93.06082,207.85714 -207.85715,207.85714 -114.79633,0 -207.85715,-93.06081 -207.85715,-207.85714 0,-114.79634 93.06082,-207.85715 207.85715,-207.85715 114.79633,0 207.85715,93.06081 207.85715,207.85715 z"
           sodipodi:ry="207.85715"
           sodipodi:rx="207.85715"
           sodipodi:cy="564.50507"
           sodipodi:cx="316.42856"
           id="path3001"
           style="fill:#2ad4ff;fill-rule:evenodd;stroke:#000000;stroke-width:1px;stroke-linecap:butt;stroke-linejoin:miter;stroke-opacity:1"
           sodipodi:type="arc" />
        <path
           sodipodi:type="arc"
           style="fill:#0000ff;fill-rule:evenodd"
           id="path3003"
           sodipodi:cx="316.42856"
           sodipodi:cy="564.50507"
           sodipodi:rx="207.85715"
           sodipodi:ry="207.85715"
           d="m 524.28571,564.50507 c 0,114.79633 -93.06082,207.85714 -207.85715,207.85714 -114.79633,0 -207.85715,-93.06081 -207.85715,-207.85714 0,-114.79634 93.06082,-207.85715 207.85715,-207.85715 114.79633,0 207.85715,93.06081 207.85715,207.85715 z"
           transform="matrix(0.05985915,0,0,0.05985915,368.33967,333.19574)" />
        <g
           id="g2410"
           transform="matrix(0.4569906,0,0,0.4569906,235.14357,196.46917)">
          <path
             style="fill:#ffff00;fill-rule:evenodd;stroke:#000000;stroke-width:1px;stroke-linecap:butt;stroke-linejoin:miter;stroke-opacity:1"
             id="path2385"
             d="m 346,392.36218 c -1.89404,-4.36865 -4.91687,-4.50546 -10,-5 l 0,-10 c 5,-5 11.02979,-9.77299 10,-20 l -26,0 c -1.02979,10.22701 5,15 10,20 l 0,10 c -5.08313,0.49454 -8.10596,0.63135 -10,5 l 26,0 z"
             inkscape:connector-curvature="0" />
          <path
             style="fill:none;stroke:#000000;stroke-width:1px;stroke-linecap:butt;stroke-linejoin:miter;stroke-opacity:1"
             id="path2387"
             d="m 320,357.36218 c -6.78444,-7.9414 -11.52977,12.62218 4.11611,13.93909"
             inkscape:connector-curvature="0" />
          <path
             style="fill:none;stroke:#000000;stroke-width:1px;stroke-linecap:butt;stroke-linejoin:miter;stroke-opacity:1"
             id="path2399"
             d="m 346,357.36218 c 6.78444,-7.9414 11.52977,12.62218 -4.11611,13.93909"
             inkscape:connector-curvature="0" />
        </g>
      </g>
    </g>
  </g>
</svg>
