<?xml version="1.0" encoding="UTF-8" standalone="no"?>
<!-- Created with Inkscape (http://www.inkscape.org/) -->

<svg
   xmlns:dc="http://purl.org/dc/elements/1.1/"
   xmlns:cc="http://creativecommons.org/ns#"
   xmlns:rdf="http://www.w3.org/1999/02/22-rdf-syntax-ns#"
   xmlns:svg="http://www.w3.org/2000/svg"
   xmlns="http://www.w3.org/2000/svg"
   xmlns:sodipodi="http://sodipodi.sourceforge.net/DTD/sodipodi-0.dtd"
   xmlns:inkscape="http://www.inkscape.org/namespaces/inkscape"
   width="162.14316"
   height="162.14316"
   id="svg2"
   version="1.1"
   inkscape:version="0.48.4 r9939"
   sodipodi:docname="first2.svg">
  <defs
     id="defs4" />
  <sodipodi:namedview
     id="base"
     pagecolor="#ffffff"
     bordercolor="#666666"
     borderopacity="1.0"
     inkscape:pageopacity="0.0"
     inkscape:pageshadow="2"
     inkscape:zoom="1.979899"
     inkscape:cx="245.06403"
     inkscape:cy="39.388924"
     inkscape:document-units="px"
     inkscape:current-layer="layer1"
     showgrid="false"
     inkscape:window-width="1536"
     inkscape:window-height="803"
     inkscape:window-x="-8"
     inkscape:window-y="-8"
     inkscape:window-maximized="1"
     fit-margin-top="0"
     fit-margin-left="0"
     fit-margin-right="0"
     fit-margin-bottom="0" />
  <metadata
     id="metadata7">
    <rdf:RDF>
      <cc:Work
         rdf:about="">
        <dc:format>image/svg+xml</dc:format>
        <dc:type
           rdf:resource="http://purl.org/dc/dcmitype/StillImage" />
        <dc:title />
      </cc:Work>
    </rdf:RDF>
  </metadata>
  <g
     inkscape:label="Layer 1"
     inkscape:groupmode="layer"
     id="layer1"
     transform="translate(-129.93597,-559.39767)">
    <rect
       style="fill:none;stroke:none"
       id="rect2415"
       y="380.21957"
       x="210.71448"
       height="281.42859"
       width="281.42859" />
    <path
       sodipodi:type="arc"
       style="fill:#ff9955;fill-rule:evenodd;stroke:#000000;stroke-width:1px;stroke-linecap:butt;stroke-linejoin:miter;stroke-opacity:1"
       id="path3001"
       sodipodi:cx="316.42856"
       sodipodi:cy="564.50507"
       sodipodi:rx="207.85715"
       sodipodi:ry="207.85715"
       d="m 524.28571,564.50507 a 207.85715,207.85715 0 1 1 -415.7143,0 207.85715,207.85715 0 1 1 415.7143,0 z"
       transform="matrix(0.38909494,0,0,0.38909494,87.889398,420.81908)" />
    <path
       transform="matrix(0.32773612,0,0,0.32773612,107.08274,455.6232)"
       d="m 524.28571,564.50507 a 207.85715,207.85715 0 1 1 -415.7143,0 207.85715,207.85715 0 1 1 415.7143,0 z"
       sodipodi:ry="207.85715"
       sodipodi:rx="207.85715"
       sodipodi:cy="564.50507"
       sodipodi:cx="316.42856"
       id="path3003"
       style="fill:#ff6600;fill-rule:evenodd"
       sodipodi:type="arc" />
    <g
       id="g3273"
       transform="translate(-126.91541,-22.811372)">
      <rect
         ry="2.6613548"
         y="650.73621"
         x="325.9317"
         height="52.817657"
         width="26.561054"
         id="rect3275"
         style="fill:#000000" />
      <path
         transform="matrix(2.1669301,0,0,2.2612966,-137.278,451.51882)"
         d="m 235.11301,111.73949 c 0,1.74341 -7.01004,3.15672 -15.65737,3.15672 -8.64732,0 -15.65736,-1.41331 -15.65736,-3.15672 0,-1.74342 7.01004,-3.15673 15.65736,-3.15673 8.64733,0 15.65737,1.41331 15.65737,3.15673 z"
         sodipodi:ry="3.1567266"
         sodipodi:rx="15.657364"
         sodipodi:cy="111.73949"
         sodipodi:cx="219.45564"
         id="path3277"
         style="fill:#000000"
         sodipodi:type="arc" />
      <rect
         ry="5.7477717"
         y="701.76233"
         x="302.39429"
         height="11.495543"
         width="72.242676"
         id="rect3279"
         style="fill:#000000" />
      <path
         transform="matrix(2.1558268,0,0,1.6743269,-134.48477,523.61042)"
         d="m 237.13331,74.742653 c 0,9.205215 -7.8015,16.667517 -17.42513,16.667517 -9.62364,0 -17.42514,-7.462302 -17.42514,-16.667517 0,-9.205215 7.8015,-16.667517 17.42514,-16.667517 9.62363,0 17.42513,7.462302 17.42513,16.667517 z"
         sodipodi:ry="16.667517"
         sodipodi:rx="17.425131"
         sodipodi:cy="74.742653"
         sodipodi:cx="219.70818"
         id="path3281"
         style="fill:#000000"
         sodipodi:type="arc" />
      <rect
         ry="2.8893406"
         y="617.86273"
         x="301.41977"
         height="32.005005"
         width="75.518082"
         id="rect3283"
         style="fill:#000000" />
      <g
         id="g3285">
        <rect
           ry="2.5873601"
           y="652.07458"
           x="330.30551"
           height="51.349148"
           width="18.078434"
           id="rect3287"
           style="fill:#ffff00" />
        <path
           transform="matrix(1.9347825,0,0,1.5064516,-86.436379,537.29361)"
           d="m 235.11301,111.73949 c 0,1.74341 -7.01004,3.15672 -15.65737,3.15672 -8.64732,0 -15.65736,-1.41331 -15.65736,-3.15672 0,-1.74342 7.01004,-3.15673 15.65736,-3.15673 8.64733,0 15.65737,1.41331 15.65737,3.15673 z"
           sodipodi:ry="3.1567266"
           sodipodi:rx="15.657364"
           sodipodi:cy="111.73949"
           sodipodi:cx="219.45564"
           id="path3289"
           style="fill:#ffff00"
           sodipodi:type="arc" />
        <rect
           ry="3.3288352"
           y="704.10193"
           x="307.03488"
           height="6.6576705"
           width="63.375751"
           id="rect3291"
           style="fill:#ffff00" />
        <path
           transform="matrix(1.9248688,0,0,1.5064516,-83.942386,534.81535)"
           d="m 237.13331,74.742653 c 0,9.205215 -7.8015,16.667517 -17.42513,16.667517 -9.62364,0 -17.42514,-7.462302 -17.42514,-16.667517 0,-9.205215 7.8015,-16.667517 17.42514,-16.667517 9.62363,0 17.42513,7.462302 17.42513,16.667517 z"
           sodipodi:ry="16.667517"
           sodipodi:rx="17.425131"
           sodipodi:cy="74.742653"
           sodipodi:cx="219.70818"
           id="path3293"
           style="fill:#ffff00"
           sodipodi:type="arc" />
        <rect
           ry="2.472837"
           y="621.87622"
           x="305.26282"
           height="27.391426"
           width="67.427673"
           id="rect3295"
           style="fill:#ffff00" />
      </g>
    </g>
    <g
       transform="matrix(0.38909494,0,0,0.38909494,61.375347,429.21243)"
       id="g3816">
      <rect
         y="457.21933"
         x="377.71429"
         height="92.85714"
         width="15.714286"
         id="rect3042"
         style="fill:#000000;fill-rule:evenodd;stroke:#000000;stroke-width:1px;stroke-linecap:butt;stroke-linejoin:miter;stroke-opacity:1" />
      <rect
         y="449.50504"
         x="354.57144"
         height="15.714286"
         width="62.857143"
         id="rect3812"
         style="fill:#000000" />
      <rect
         style="fill:#000000"
         id="rect3814"
         width="62.857143"
         height="15.714286"
         x="354.57144"
         y="535.505" />
    </g>
  </g>
</svg>
