<?xml version="1.0" encoding="UTF-8" standalone="no"?>
<!-- Created with Inkscape (http://www.inkscape.org/) -->

<svg
   xmlns:dc="http://purl.org/dc/elements/1.1/"
   xmlns:cc="http://creativecommons.org/ns#"
   xmlns:rdf="http://www.w3.org/1999/02/22-rdf-syntax-ns#"
   xmlns:svg="http://www.w3.org/2000/svg"
   xmlns="http://www.w3.org/2000/svg"
   xmlns:sodipodi="http://sodipodi.sourceforge.net/DTD/sodipodi-0.dtd"
   xmlns:inkscape="http://www.inkscape.org/namespaces/inkscape"
   width="162.14316"
   height="162.14316"
   id="svg2"
   version="1.1"
   inkscape:version="0.48.4 r9939"
   sodipodi:docname="error.svg">
  <defs
     id="defs4" />
  <sodipodi:namedview
     id="base"
     pagecolor="#ffffff"
     bordercolor="#666666"
     borderopacity="1.0"
     inkscape:pageopacity="0.0"
     inkscape:pageshadow="2"
     inkscape:zoom="2.8"
     inkscape:cx="119.83762"
     inkscape:cy="108.83491"
     inkscape:document-units="px"
     inkscape:current-layer="layer1"
     showgrid="false"
     fit-margin-top="0"
     fit-margin-left="0"
     fit-margin-right="0"
     fit-margin-bottom="0"
     inkscape:window-width="1536"
     inkscape:window-height="803"
     inkscape:window-x="-8"
     inkscape:window-y="-8"
     inkscape:window-maximized="1" />
  <metadata
     id="metadata7">
    <rdf:RDF>
      <cc:Work
         rdf:about="">
        <dc:format>image/svg+xml</dc:format>
        <dc:type
           rdf:resource="http://purl.org/dc/dcmitype/StillImage" />
        <dc:title></dc:title>
      </cc:Work>
    </rdf:RDF>
  </metadata>
  <g
     inkscape:label="Layer 1"
     inkscape:groupmode="layer"
     id="layer1"
     transform="translate(-341.78296,-402.72328)">
    <path
       sodipodi:type="arc"
       style="fill:#ffc90f;fill-opacity:1;fill-rule:evenodd;stroke:#000000;stroke-width:0.99975598;stroke-linecap:butt;stroke-linejoin:miter;stroke-miterlimit:4;stroke-opacity:1;stroke-dasharray:none"
       id="path3001"
       sodipodi:cx="316.42856"
       sodipodi:cy="564.50507"
       sodipodi:rx="207.85715"
       sodipodi:ry="207.85715"
       d="m 524.28571,564.50507 c 0,114.79633 -93.06082,207.85714 -207.85715,207.85714 -114.79633,0 -207.85715,-93.06081 -207.85715,-207.85714 0,-114.79634 93.06082,-207.85715 207.85715,-207.85715 114.79633,0 207.85715,93.06081 207.85715,207.85715 z"
       transform="matrix(0.38909494,0,0,0.38909494,299.73639,264.14469)" />
    <path
       transform="matrix(0.32773612,0,0,0.32773612,318.92973,298.94881)"
       d="m 524.28571,564.50507 c 0,114.79633 -93.06082,207.85714 -207.85715,207.85714 -114.79633,0 -207.85715,-93.06081 -207.85715,-207.85714 0,-114.79634 93.06082,-207.85715 207.85715,-207.85715 114.79633,0 207.85715,93.06081 207.85715,207.85715 z"
       sodipodi:ry="207.85715"
       sodipodi:rx="207.85715"
       sodipodi:cy="564.50507"
       sodipodi:cx="316.42856"
       id="path3003"
       style="fill:#2a17b1;fill-opacity:1;fill-rule:evenodd;stroke-width:1.18693054;stroke-linejoin:miter;stroke-miterlimit:4;stroke-dasharray:none"
       sodipodi:type="arc" />
    <text
       transform="scale(-1.2382934,0.80756304)"
       xml:space="preserve"
       font-size="24"
       id="svg_1"
       y="598.59967"
       x="-319.09091"
       style="font-size:6.14948463px;text-anchor:middle;fill:#000000;stroke-width:0;stroke-dasharray:none;font-family:Arial" />
    <g
       id="g3897"
       transform="translate(-172.14286,35)">
      <rect
         ry="18.319706"
         y="402.00928"
         x="545.71155"
         height="93.571426"
         width="98.928574"
         id="rect3895"
         style="fill:#ffff00;fill-opacity:1" />
      <g
         id="g3024"
         transform="matrix(0.12327193,0,0,0.12984755,548.96482,404.89789)">
        <path
           style="fill:none;stroke:#000000;stroke-width:21;stroke-linecap:butt;stroke-linejoin:miter;stroke-miterlimit:4;stroke-opacity:1;stroke-dasharray:none;display:inline"
           d="m 676.08427,186.36085 c -19.4733,-30.6012 -2.781,-55.6386 -22.2552,-69.5481 -19.4736,-13.9095 -44.511,-41.728801 -111.2772,-52.856701 -66.7662,-11.1276 -278.208,-26.9064 -341.6838,-15.705 -99.7134,65.693701 -56.1315,82.471201 -92.2968,118.636501 -36.164996,36.1647 -55.638296,44.5107 -69.548096,80.67576 -13.9095,36.16506 -2.781,69.54816 8.346,86.23974 11.1276,16.69155 41.7288,30.60117 50.0745,44.51082 8.345696,13.90962 2.780996,44.51082 22.255496,63.9843 19.4733,19.47348 61.2024,75.11202 191.9529,125.1867 130.7505,50.07468 250.3734,91.80357 308.7939,69.54816 58.4205,-22.25541 75.1119,-58.42047 72.33,-91.80357 -2.781,-33.38313 -16.6917,-125.1867 -16.6917,-125.1867 5.5641,-100.14936 35.6115,-118.03743 34.1919,-151.50618 -1.425,-33.59796 -8.8182,-65.49093 -37.9602,-88.03503"
           id="path4109"
           sodipodi:nodetypes="csscsssssssscss"
           inkscape:connector-curvature="0" />
        <path
           style="fill:none;stroke:#000000;stroke-width:18;stroke-linecap:round;stroke-linejoin:miter;stroke-miterlimit:4;stroke-opacity:1;stroke-dasharray:none;display:inline"
           d="m 121.39597,296.35417 c 34.5864,-0.5271 37.6041,-29.53728 36.9741,-42.62466"
           id="path4113"
           sodipodi:nodetypes="cs"
           inkscape:connector-curvature="0" />
        <path
           style="fill:none;stroke:#000000;stroke-width:15;stroke-linecap:round;stroke-linejoin:miter;stroke-miterlimit:4;stroke-opacity:1;stroke-dasharray:none;display:inline"
           d="m 148.85977,296.35417 c 41.1957,83.53569 81.2472,157.91679 184.2363,188.81358 102.9891,30.89676 223.1433,12.58755 255.1845,2.2887 32.0409,-10.29891 44.6283,-41.1957 44.6283,-41.1957 9.0162,-18.81213 6.45,-39.61908 2.289,-99.55626 -3.4125,-49.1583 -8.2245,-37.25352 -18.309,-69.80379"
           id="path4115"
           sodipodi:nodetypes="csscsc"
           inkscape:connector-curvature="0" />
        <path
           style="fill:none;stroke:#000000;stroke-width:15;stroke-linecap:butt;stroke-linejoin:miter;stroke-miterlimit:4;stroke-opacity:1;stroke-dasharray:none;display:inline"
           d="m 152.29267,266.6017 c 137.7339,64.92885 206.0292,101.73294 332.9985,97.26762 134.0994,-4.71606 119.9472,-57.02505 133.8861,-83.53569"
           id="path4117"
           sodipodi:nodetypes="csc"
           inkscape:connector-curvature="0" />
        <path
           style="fill:none;stroke:#000000;stroke-width:15;stroke-linecap:round;stroke-linejoin:miter;stroke-miterlimit:4;stroke-opacity:1;stroke-dasharray:none;display:inline"
           d="m 234.68407,311.23039 c 3.4329,53.78325 5.7216,75.52542 -9.1545,101.8449"
           id="path4121"
           inkscape:connector-curvature="0" />
        <path
           style="fill:none;stroke:#000000;stroke-width:15;stroke-linecap:butt;stroke-linejoin:miter;stroke-miterlimit:4;stroke-opacity:1;stroke-dasharray:none;display:inline"
           d="m 337.67347,345.56014 c -5.7219,61.79352 -13.7319,86.96865 -32.0412,125.87571"
           id="path4125"
           sodipodi:nodetypes="cc"
           inkscape:connector-curvature="0" />
        <path
           style="fill:none;stroke:#000000;stroke-width:12;stroke-linecap:round;stroke-linejoin:miter;stroke-miterlimit:4;stroke-opacity:1;stroke-dasharray:none;display:inline"
           d="m 423.49777,362.725 c 1.143,25.17513 1.143,40.05135 1.143,59.50488"
           id="path4127"
           inkscape:connector-curvature="0" />
        <path
           style="fill:none;stroke:#000000;stroke-width:12;stroke-linecap:round;stroke-linejoin:miter;stroke-miterlimit:4;stroke-opacity:1;stroke-dasharray:none;display:inline"
           d="m 408.62137,427.95151 1.146,62.93784"
           id="path4129"
           inkscape:connector-curvature="0" />
        <path
           style="fill:none;stroke:#000000;stroke-width:12;stroke-linecap:butt;stroke-linejoin:miter;stroke-miterlimit:4;stroke-opacity:1;stroke-dasharray:none;display:inline"
           d="m 484.14697,367.30231 c 5.7216,18.30918 5.7216,40.05135 5.7216,56.07189 0,16.02054 -8.0103,17.16489 -10.299,35.47407 -2.289,18.30921 -3.4329,42.34002 -3.4329,42.34002"
           id="path4131"
           inkscape:connector-curvature="0" />
        <path
           style="fill:none;stroke:#000000;stroke-width:15;stroke-linecap:round;stroke-linejoin:miter;stroke-miterlimit:4;stroke-opacity:1;stroke-dasharray:none;display:inline"
           d="m 549.37357,360.43636 c 4.5771,18.30918 10.2987,32.04108 12.5874,49.20594"
           id="path4135"
           inkscape:connector-curvature="0" />
        <path
           style="fill:none;stroke:#000000;stroke-width:15;stroke-linecap:round;stroke-linejoin:miter;stroke-miterlimit:4;stroke-opacity:1;stroke-dasharray:none;display:inline"
           d="m 540.21877,440.53909 c -8.0103,26.31945 -12.5874,40.05135 -19.4535,51.49461"
           id="path4137"
           inkscape:connector-curvature="0" />
        <path
           style="fill:none;stroke:#000000;stroke-width:15;stroke-linecap:round;stroke-linejoin:miter;stroke-miterlimit:4;stroke-opacity:1;stroke-dasharray:none;display:inline"
           d="m 592.85767,340.98283 c 10.299,24.03081 4.5774,64.08219 0,75.52542 -4.5771,11.44326 -20.5977,49.20597 -35.4741,75.52545"
           id="path4139"
           inkscape:connector-curvature="0" />
        <path
           style="fill:none;stroke:#000000;stroke-width:15;stroke-linecap:round;stroke-linejoin:miter;stroke-miterlimit:4;stroke-opacity:1;stroke-dasharray:none;display:inline"
           d="m 615.74437,304.36444 c -1.479,55.16835 6.8418,70.61655 5.7216,99.55623 -1.176,30.34578 -20.598,61.79355 -29.7525,75.52545"
           id="path4141"
           sodipodi:nodetypes="csc"
           inkscape:connector-curvature="0" />
        <path
           style="fill:#000000;fill-opacity:1;stroke:none;display:inline"
           d="m 179.75647,344.41579 c 92.6904,46.91733 120.1542,64.08219 187.6692,82.3914 67.5153,18.30918 70.9482,24.03081 145.3293,24.03081 74.3811,0 96.1233,-13.7319 109.8552,-20.59785 13.7319,-6.86595 14.8764,-14.87622 14.8764,-14.87622 l -0.714,-40.91379 c -34.3023,16.24839 -51.7284,21.92832 -97.3425,25.88826 -46.9635,4.07709 -76.6905,2.9901 -118.5324,2.7882 -41.3379,-0.201 -94.6686,-15.22638 -134.7198,-31.24692 -40.0515,-16.02054 -81.8064,-38.34255 -113.2881,-48.06162 -26.2002,-8.08857 16.4982,24.04524 6.8658,20.59782 l 3e-4,0 6e-4,0 z"
           id="path4145"
           sodipodi:nodetypes="csssccssssccc"
           inkscape:connector-curvature="0" />
        <path
           style="fill:none;stroke:#000000;stroke-width:15;stroke-linecap:round;stroke-linejoin:miter;stroke-miterlimit:4;stroke-opacity:1;stroke-dasharray:none;display:inline"
           d="m 108.49657,325.11529 c -23.395496,-32.3082 -13.368896,-52.36155 -11.140796,-59.04603 2.229,-6.68445 5.570396,-22.28151 30.080096,-34.53636 28.0605,-14.03025 40.1067,-2.2284 65.7306,8.91261 25.6236,11.14077 40.1067,15.59706 64.6164,11.14077 24.5094,-4.45632 41.2206,-24.50973 41.2206,-24.50973"
           id="path4147"
           sodipodi:nodetypes="cssssc"
           inkscape:connector-curvature="0" />
        <path
           style="fill:none;stroke:#000000;stroke-width:15;stroke-linecap:round;stroke-linejoin:round;stroke-miterlimit:4;stroke-opacity:1;stroke-dasharray:none;display:inline"
           d="m 555.98737,259.42024 c 18.9393,8.91261 36.7644,6.68445 36.7644,6.68445 -1.578,-12.70002 5.0496,-17.46225 16.7112,-17.82519 19.0605,-0.5931 32.3082,-5.5704 43.449,7.79853"
           id="path4171"
           sodipodi:nodetypes="ccsc"
           inkscape:connector-curvature="0" />
        <path
           style="fill:none;stroke:#000000;stroke-width:15;stroke-linecap:round;stroke-linejoin:miter;stroke-miterlimit:4;stroke-opacity:1;stroke-dasharray:none;display:inline"
           d="m 383.30557,283.92994 c -21.1674,0 -30.0801,5.57037 -31.194,12.25482 -1.113,6.68445 -2.229,16.71114 1.113,22.28151 3.3423,5.5704 4.4565,3.34224 11.1408,6.68448"
           id="path4173"
           inkscape:connector-curvature="0" />
        <path
           style="fill:none;stroke:#000000;stroke-width:18;stroke-linecap:round;stroke-linejoin:round;stroke-miterlimit:4;stroke-opacity:1;stroke-dasharray:none;display:inline"
           d="m 385.53367,316.23814 c 1.113,-5.5704 0,-8.91261 7.7988,-7.79853 7.7985,1.1142 16.7109,0 27.8517,4.45629"
           id="path4175"
           inkscape:connector-curvature="0" />
        <path
           style="fill:none;stroke:#000000;stroke-width:15;stroke-linecap:round;stroke-linejoin:round;stroke-miterlimit:4;stroke-opacity:1;stroke-dasharray:none;display:inline"
           d="m 456.83467,337.40557 c 11.1408,4.45632 18.9393,4.45632 23.3955,1.1142 4.4565,-3.34221 25.6239,-24.50967 28.9662,-30.08004 3.342,-5.5704 6.6843,-13.36893 -1.113,-21.16746 -7.7985,-7.79853 -16.7112,-6.68445 -24.5097,-17.82522 -7.7985,-11.14077 -8.9127,-28.96596 -6.6843,-40.1067 2.229,-11.1408 7.7985,-27.852 24.5094,-34.5363 16.7112,-6.6846 49.0194,-8.9127 63.5025,-6.6846 14.4831,2.229 25.6236,18.9393 0,18.9393 -25.6239,0 -44.5632,0 -60.1602,5.5704 -15.597,5.5704 -42.3348,6.6846 -55.7037,2.229"
           id="path4177"
           sodipodi:nodetypes="csssssssssc"
           inkscape:connector-curvature="0" />
        <path
           style="fill:none;stroke:#000000;stroke-width:18;stroke-linecap:round;stroke-linejoin:miter;stroke-miterlimit:4;stroke-opacity:1;stroke-dasharray:none;display:inline"
           d="m 524.13907,303.32902 c -7.7985,-4.45629 -8.2584,-8.25837 -8.2584,-8.25837"
           id="path4179"
           sodipodi:nodetypes="cc"
           inkscape:connector-curvature="0" />
        <path
           style="fill:none;stroke:#000000;stroke-width:15;stroke-linecap:round;stroke-linejoin:round;stroke-miterlimit:4;stroke-opacity:1;stroke-dasharray:none;display:inline"
           d="m 521.45107,199.26025 c -23.3955,6.6843 -37.8786,17.8251 -37.8786,17.8251"
           id="path4181"
           inkscape:connector-curvature="0" />
        <path
           style="fill:none;stroke:#000000;stroke-width:15;stroke-linecap:butt;stroke-linejoin:miter;stroke-miterlimit:4;stroke-opacity:1;stroke-dasharray:none;display:inline"
           d="m 270.78397,205.94455 c 56.3736,-7.5603 77.2464,12.0678 95.8104,20.0535 9.3765,4.0332 25.8555,-16.1706 24.5097,-17.8254 -19.6077,-24.1083 -48.723,-48.1743 -114.5427,-36.7125 -14.1003,2.454 -20.9004,6.6417 -26.1471,10.2228 -11.7123,7.9941 -20.7174,15.8727 -19.2447,23.0433 1.035,5.0472 5.3949,7.404 12.5883,5.8833 11.9367,-2.523 26.358,-3.9969 27.0261,-4.665 z"
           id="path4183"
           sodipodi:nodetypes="cssssssc"
           inkscape:connector-curvature="0" />
        <path
           style="fill:none;stroke:#000000;stroke-width:24;stroke-linecap:round;stroke-linejoin:miter;stroke-miterlimit:4;stroke-opacity:1;stroke-dasharray:none;display:inline"
           d="m 265.10197,191.63005 c 30.7386,-5.6274 30.633,-5.3244 45.8532,-5.2104"
           id="path4185"
           sodipodi:nodetypes="cc"
           inkscape:connector-curvature="0" />
        <path
           style="fill:none;stroke:#000000;stroke-width:6;stroke-linecap:round;stroke-linejoin:round;stroke-miterlimit:4;stroke-opacity:1;stroke-dasharray:none;display:inline"
           d="m 183.17347,141.51265 c 32.0589,-24.8619 66.735,-49.069801 89.6343,-58.229701 22.8993,-9.1596 37.293,-13.0851 56.2668,-13.7394 18.9738,-0.654 30.0963,-3.2712 67.3893,1.308 37.2933,4.5798 56.9211,9.1596 90.2886,9.8139 33.3678,0.654 41.8731,-2.616 54.9585,-5.8884"
           id="path4187"
           sodipodi:nodetypes="cssssc"
           inkscape:connector-curvature="0" />
        <path
           style="fill:none;stroke:#000000;stroke-width:6;stroke-linecap:round;stroke-linejoin:round;stroke-miterlimit:4;stroke-opacity:1;stroke-dasharray:none;display:inline"
           d="m 201.49297,157.21495 c 35.9847,-31.4046 53.7708,-46.02 94.2141,-57.575101 32.0592,-9.1599 56.2077,-8.9478 87.0174,-8.5056 32.0718,0.459 24.2079,12.431101 85.7088,11.776801 61.5009,-0.654 73.3008,-5.955601 95.5227,-7.851301 8.4129,-0.717 13.0851,4.0917 18.9735,11.776801"
           id="path4189"
           sodipodi:nodetypes="cssssc"
           inkscape:connector-curvature="0" />
        <path
           style="fill:none;stroke:#000000;stroke-width:6;stroke-linecap:round;stroke-linejoin:round;stroke-miterlimit:4;stroke-opacity:1;stroke-dasharray:none;display:inline"
           d="m 221.77507,165.06625 c 20.2824,-23.5536 40.6023,-47.5791 107.9538,-51.0327 25.5162,-1.308 39.9102,-3.2712 54.3042,4.5798"
           id="path4191"
           sodipodi:nodetypes="csc"
           inkscape:connector-curvature="0" />
        <path
           style="fill:none;stroke:#000000;stroke-width:6;stroke-linecap:round;stroke-linejoin:round;stroke-miterlimit:4;stroke-opacity:1;stroke-dasharray:none;display:inline"
           d="m 590.12647,167.02915 c -2.616,-31.4049 -7.2504,-28.6665 -34.0215,-40.5645 -23.5539,-10.4682 -52.9956,1.308 -80.475,3.2712"
           id="path4193"
           sodipodi:nodetypes="csc"
           inkscape:connector-curvature="0" />
        <path
           style="fill:none;stroke:#000000;stroke-width:6;stroke-linecap:round;stroke-linejoin:round;stroke-miterlimit:4;stroke-opacity:1;stroke-dasharray:none;display:inline"
           d="m 386.64997,162.44905 c -1.308,-22.245 1.962,-24.8619 -15.7023,-40.5642"
           id="path4195"
           inkscape:connector-curvature="0" />
        <path
           style="fill:none;stroke:#000000;stroke-width:6;stroke-linecap:round;stroke-linejoin:round;stroke-miterlimit:4;stroke-opacity:1;stroke-dasharray:none;display:inline"
           d="m 480.21007,185.34835 c -1.308,-26.1705 -1.308,-35.9844 9.8139,-41.2185"
           id="path4197"
           inkscape:connector-curvature="0" />
        <path
           style="fill:none;stroke:#000000;stroke-width:6;stroke-linecap:round;stroke-linejoin:round;stroke-miterlimit:4;stroke-opacity:1;stroke-dasharray:none;display:inline"
           d="m 282.62197,293.95651 c 46.4526,-1.3086 59.538,3.27135 56.2668,-15.70236"
           id="path4199"
           inkscape:connector-curvature="0" />
        <path
           style="fill:none;stroke:#000000;stroke-width:6;stroke-linecap:round;stroke-linejoin:round;stroke-miterlimit:4;stroke-opacity:1;stroke-dasharray:none;display:inline"
           d="m 568.53577,321.43564 c -7.8513,-8.50542 -51.687,-21.59073 -54.9582,-30.09618"
           id="path4201"
           sodipodi:nodetypes="cc"
           inkscape:connector-curvature="0" />
        <path
           style="fill:none;stroke:#000000;stroke-width:6;stroke-linecap:round;stroke-linejoin:round;stroke-miterlimit:4;stroke-opacity:1;stroke-dasharray:none;display:inline"
           d="m 653.59027,325.36126 c 30.0963,-15.04809 45.7986,-16.35663 45.7986,-56.92107 0,-40.56444 -9.8142,-34.0218 -26.1708,-47.10714 -16.3566,-13.0854 3.2712,-15.7023 -70.0065,-17.0109"
           id="path4203"
           sodipodi:nodetypes="cssc"
           inkscape:connector-curvature="0" />
        <path
           style="fill:none;stroke:#000000;stroke-width:6;stroke-linecap:round;stroke-linejoin:round;stroke-miterlimit:4;stroke-opacity:1;stroke-dasharray:none;display:inline"
           d="m 658.82437,300.49918 c 17.6652,-15.70236 22.8993,-11.1225 16.3566,-35.98458 -6.5427,-24.86208 10.4682,-24.86208 -24.8622,-37.29315"
           id="path4205"
           inkscape:connector-curvature="0" />
        <path
           style="fill:none;stroke:#000000;stroke-width:6;stroke-linecap:round;stroke-linejoin:round;stroke-miterlimit:4;stroke-opacity:1;stroke-dasharray:none;display:inline"
           d="M 107.93287,344.98921 C 57.730274,333.09277 67.774574,298.20232 66.714374,276.29134 c -1.71,-35.36223 2.616,-80.56509 87.017396,-70.66059"
           id="path4207"
           sodipodi:nodetypes="csc"
           inkscape:connector-curvature="0" />
        <path
           style="fill:none;stroke:#000000;stroke-width:6;stroke-linecap:round;stroke-linejoin:round;stroke-miterlimit:4;stroke-opacity:1;stroke-dasharray:none;display:inline"
           d="m 145.88017,196.47085 c -35.9844,0 -59.537996,-9.1596 -96.830996,45.79872"
           id="path4209"
           sodipodi:nodetypes="cc"
           inkscape:connector-curvature="0" />
        <path
           style="fill:none;stroke:#000000;stroke-width:6;stroke-linecap:round;stroke-linejoin:round;stroke-miterlimit:4;stroke-opacity:1;stroke-dasharray:none;display:inline"
           d="m 212.61547,197.12515 c -21.8082,0.363 -40.1259,11.0484 -7.8513,12.4311"
           id="path4211"
           sodipodi:nodetypes="cc"
           inkscape:connector-curvature="0" />
        <path
           style="fill:none;stroke:#000000;stroke-width:6;stroke-linecap:round;stroke-linejoin:round;stroke-miterlimit:4;stroke-opacity:1;stroke-dasharray:none;display:inline"
           d="m 214.63327,216.55465 c -3.2814,-0.12 -9.6093,-1.524 -7.9686,4.5702"
           id="path4213"
           sodipodi:nodetypes="cc"
           inkscape:connector-curvature="0" />
        <path
           style="fill:none;stroke:#000000;stroke-width:6;stroke-linecap:round;stroke-linejoin:round;stroke-miterlimit:4;stroke-opacity:1;stroke-dasharray:none;display:inline"
           d="m 186.62017,471.76894 c 56.217,31.66257 87.2337,54.27867 191.9139,80.12568 104.6802,25.84698 154.4358,20.03142 187.3905,20.03142 41.226,0 34.5672,1.9281 64.0053,-21.88842 10.3899,-8.40564 13.3803,-10.84902 15.1332,-32.11416"
           id="path4215"
           sodipodi:nodetypes="csssc"
           inkscape:connector-curvature="0" />
        <path
           style="fill:none;stroke:#000000;stroke-width:6;stroke-linecap:round;stroke-linejoin:round;stroke-miterlimit:4;stroke-opacity:1;stroke-dasharray:none;display:inline"
           d="m 226.13107,471.41209 c 105.7854,54.69747 111.495,60.05145 214.2198,73.96515 79.1301,10.71789 100.6758,1.9302 127.6947,-1.3956 16.5246,-2.034 30.7023,-17.44461 43.2624,-30.00474"
           id="path4217"
           sodipodi:nodetypes="cssc"
           inkscape:connector-curvature="0" />
        <path
           style="fill:none;stroke:#000000;stroke-width:6;stroke-linecap:round;stroke-linejoin:round;stroke-miterlimit:4;stroke-opacity:1;stroke-dasharray:none;display:inline"
           d="m 416.62627,526.53709 c 112.3431,0 0.699,0.6978 112.3431,0"
           id="path4219"
           inkscape:connector-curvature="0" />
      </g>
    </g>
  </g>
</svg>
