<?xml version="1.0" encoding="UTF-8" standalone="no"?>
<!-- Created with Inkscape (http://www.inkscape.org/) -->

<svg
   xmlns:dc="http://purl.org/dc/elements/1.1/"
   xmlns:cc="http://creativecommons.org/ns#"
   xmlns:rdf="http://www.w3.org/1999/02/22-rdf-syntax-ns#"
   xmlns:svg="http://www.w3.org/2000/svg"
   xmlns="http://www.w3.org/2000/svg"
   xmlns:sodipodi="http://sodipodi.sourceforge.net/DTD/sodipodi-0.dtd"
   xmlns:inkscape="http://www.inkscape.org/namespaces/inkscape"
   width="744.09448819"
   height="1052.3622047"
   id="svg2"
   version="1.1"
   inkscape:version="0.48.4 r9939"
   sodipodi:docname="third2.svg">
  <defs
     id="defs4" />
  <sodipodi:namedview
     id="base"
     pagecolor="#ffffff"
     bordercolor="#666666"
     borderopacity="1.0"
     inkscape:pageopacity="0.0"
     inkscape:pageshadow="2"
     inkscape:zoom="0.7"
     inkscape:cx="375"
     inkscape:cy="520"
     inkscape:document-units="px"
     inkscape:current-layer="layer1"
     showgrid="false"
     inkscape:window-width="1536"
     inkscape:window-height="803"
     inkscape:window-x="-8"
     inkscape:window-y="-8"
     inkscape:window-maximized="1" />
  <metadata
     id="metadata7">
    <rdf:RDF>
      <cc:Work
         rdf:about="">
        <dc:format>image/svg+xml</dc:format>
        <dc:type
           rdf:resource="http://purl.org/dc/dcmitype/StillImage" />
        <dc:title />
      </cc:Work>
    </rdf:RDF>
  </metadata>
  <g
     inkscape:label="Layer 1"
     inkscape:groupmode="layer"
     id="layer1">
    <g
       id="g3000"
       transform="matrix(0.29722319,0,0,0.29722319,100.54728,508.51277)">
      <path
         transform="translate(35.000013,-49.285739)"
         d="m 524.28571,564.50507 c 0,114.79633 -93.06082,207.85714 -207.85715,207.85714 -114.79633,0 -207.85715,-93.06081 -207.85715,-207.85714 0,-114.79634 93.06082,-207.85715 207.85715,-207.85715 114.79633,0 207.85715,93.06081 207.85715,207.85715 z"
         sodipodi:ry="207.85715"
         sodipodi:rx="207.85715"
         sodipodi:cy="564.50507"
         sodipodi:cx="316.42856"
         id="path3001"
         style="fill:#ff9955;fill-rule:evenodd;stroke:#000000;stroke-width:1px;stroke-linecap:butt;stroke-linejoin:miter;stroke-opacity:1"
         sodipodi:type="arc" />
      <path
         sodipodi:type="arc"
         style="fill:#ff6600;fill-rule:evenodd"
         id="path3003"
         sodipodi:cx="316.42856"
         sodipodi:cy="564.50507"
         sodipodi:rx="207.85715"
         sodipodi:ry="207.85715"
         d="m 524.28571,564.50507 c 0,114.79633 -93.06082,207.85714 -207.85715,207.85714 -114.79633,0 -207.85715,-93.06081 -207.85715,-207.85714 0,-114.79634 93.06082,-207.85715 207.85715,-207.85715 114.79633,0 207.85715,93.06081 207.85715,207.85715 z"
         transform="matrix(0.84230374,0,0,0.84230374,84.328192,40.163169)" />
      <g
         id="g3187"
         transform="matrix(14.071429,0,0,14.071429,-5098.7374,-4648.377)">
        <rect
           style="fill:none;stroke:none"
           id="rect2415"
           y="357.36218"
           x="377.32144"
           height="20"
           width="20" />
        <g
           id="g2410"
           transform="matrix(0.4569906,0,0,0.4569906,235.14357,196.46917)">
          <path
             style="fill:#ffff00;fill-rule:evenodd;stroke:#000000;stroke-width:1px;stroke-linecap:butt;stroke-linejoin:miter;stroke-opacity:1"
             id="path2385"
             d="m 346,392.36218 c -1.89404,-4.36865 -4.91687,-4.50546 -10,-5 l 0,-10 c 5,-5 11.02979,-9.77299 10,-20 l -26,0 c -1.02979,10.22701 5,15 10,20 l 0,10 c -5.08313,0.49454 -8.10596,0.63135 -10,5 l 26,0 z"
             inkscape:connector-curvature="0" />
          <path
             style="fill:none;stroke:#000000;stroke-width:1px;stroke-linecap:butt;stroke-linejoin:miter;stroke-opacity:1"
             id="path2387"
             d="m 320,357.36218 c -6.78444,-7.9414 -11.52977,12.62218 4.11611,13.93909"
             inkscape:connector-curvature="0" />
          <path
             style="fill:none;stroke:#000000;stroke-width:1px;stroke-linecap:butt;stroke-linejoin:miter;stroke-opacity:1"
             id="path2399"
             d="m 346,357.36218 c 6.78444,-7.9414 11.52977,12.62218 -4.11611,13.93909"
             inkscape:connector-curvature="0" />
        </g>
      </g>
      <path
         inkscape:connector-curvature="0"
         style="fill:#000000;fill-opacity:1;fill-rule:evenodd;stroke:#000000;stroke-width:0.82020056px;stroke-linecap:butt;stroke-linejoin:miter;stroke-miterlimit:4;stroke-opacity:1;stroke-dasharray:none"
         d="m 325.75188,436.40794 13.48951,0 0,73.85818 -13.48951,0 z"
         id="path3075" />
      <path
         inkscape:connector-curvature="0"
         style="fill:#000000;fill-opacity:1;fill-rule:nonzero;stroke:none"
         d="m 311.99944,433.24379 78.57256,0 0,12.48347 -78.57256,0 z"
         id="path3077" />
      <path
         inkscape:connector-curvature="0"
         style="fill:#000000;fill-opacity:1;fill-rule:evenodd;stroke:#000000;stroke-width:0.82020056px;stroke-linecap:butt;stroke-linejoin:miter;stroke-miterlimit:4;stroke-opacity:1;stroke-dasharray:none"
         d="m 365.2866,436.40794 13.48951,0 0,73.85818 -13.48951,0 z"
         id="path3079" />
      <path
         id="path3081"
         d="m 345.14924,435.04459 13.48951,0 0,73.85818 -13.48951,0 z"
         style="fill:#000000;fill-opacity:1;fill-rule:evenodd;stroke:#000000;stroke-width:0.82020056px;stroke-linecap:butt;stroke-linejoin:miter;stroke-miterlimit:4;stroke-opacity:1;stroke-dasharray:none"
         inkscape:connector-curvature="0" />
      <path
         id="path3083"
         d="m 311.99944,498.45717 78.57256,0 0,12.48347 -78.57256,0 z"
         style="fill:#000000;fill-opacity:1;fill-rule:nonzero;stroke:none"
         inkscape:connector-curvature="0" />
    </g>
  </g>
</svg>
