<?xml version="1.0" encoding="UTF-8" standalone="no"?>
<!-- Generator: Adobe Illustrator 15.0.2, SVG Export Plug-In . SVG Version: 6.00 Build 0)  -->

<svg
   xmlns:dc="http://purl.org/dc/elements/1.1/"
   xmlns:cc="http://creativecommons.org/ns#"
   xmlns:rdf="http://www.w3.org/1999/02/22-rdf-syntax-ns#"
   xmlns:svg="http://www.w3.org/2000/svg"
   xmlns="http://www.w3.org/2000/svg"
   xmlns:sodipodi="http://sodipodi.sourceforge.net/DTD/sodipodi-0.dtd"
   xmlns:inkscape="http://www.inkscape.org/namespaces/inkscape"
   enable-background="new 0 0 51.121 130.32"
   height="130.32px"
   id="Layer_1"
   version="1.1"
   viewBox="0 0 51.121 130.32"
   width="51.121px"
   x="0px"
   xml:space="preserve"
   y="0px"
   inkscape:version="0.48.4 r9939"
   sodipodi:docname="Arduinonano.svg"><metadata
   id="metadata778"><rdf:RDF><cc:Work
       rdf:about=""><dc:format>image/svg+xml</dc:format><dc:type
         rdf:resource="http://purl.org/dc/dcmitype/StillImage" /><dc:title></dc:title></cc:Work></rdf:RDF></metadata><defs
   id="defs776">
	
	
	
	
	
	
	
	
	
	
	
	
	
	
	
	
	
	
	
	
	
	
	
	
	
	
	
	
	
	
	
	
	
	
	
	
	
	
	
	
	
	
	
	
	
	
	
	
	
	
	
	
	
	
	
	
	
	
	
	
	
	
	
	
	
	
	
	
	
	
	
	
	
	
	
	
	
	
	
	
	
	
	
	
	
	
	
	
	
	
	
	
	
	
	
	
	
	
	
	
	
	
	
	
	
	
	
	
	
	
	
	
	
	
	
	
	
	
	
	
	
	
	
	
	
	
	
	
	
	
	
	
	
	
	
	
	
	
	
	
	
	
	
	
	
	
	
	
	
	
	
	
	
	
	
	
	
	
	
	
	
	
	
	
	
	
	
	
	
	
	
	
	
	
	
	
	
	
	
	
	
	
	
	
	
	
	
	
	
	
	
	
	
	
	
	
	
	
	
	
	
	
	
	
	
	
	
	
	
	
	
	
	
	
	
	
	
	
	
	
	
	
	
	
	
	
	
	
	
	
	
	
	
	
	
	
	
	
	
	
	
	
	
	
	
	
	
	
	
	
	
	
	
	
	
	
	
	
	
	
	
	
	
	
	
	
	
	
		
	
		
	
		
</defs><sodipodi:namedview
   pagecolor="#ffffff"
   bordercolor="#666666"
   borderopacity="1"
   objecttolerance="10"
   gridtolerance="10"
   guidetolerance="10"
   inkscape:pageopacity="0"
   inkscape:pageshadow="2"
   inkscape:window-width="1842"
   inkscape:window-height="1057"
   id="namedview774"
   showgrid="false"
   inkscape:zoom="5.1220746"
   inkscape:cx="-6.9476914"
   inkscape:cy="64.417068"
   inkscape:window-x="70"
   inkscape:window-y="-8"
   inkscape:window-maximized="1"
   inkscape:current-layer="Layer_1" />
































<flowRoot
   xml:space="preserve"
   id="flowRoot6052"
   style="fill:black;stroke:none;stroke-opacity:1;stroke-width:1px;stroke-linejoin:miter;stroke-linecap:butt;fill-opacity:1;font-family:Arabic Typesetting;font-style:normal;font-weight:normal;font-size:40px;line-height:125%;letter-spacing:0px;word-spacing:0px;-inkscape-font-specification:Arabic Typesetting;font-stretch:normal;font-variant:normal;text-anchor:middle;text-align:center"><flowRegion
     id="flowRegion6054"><rect
       id="rect6056"
       width="37.680046"
       height="43.732281"
       x="-89.612129"
       y="19.817907" /></flowRegion><flowPara
     id="flowPara6058"></flowPara></flowRoot><g
   id="g6068"><g
     id="g5664"><rect
       style="fill:#8c8c8c"
       height="1.184"
       id="connector1pin"
       width="1.184"
       x="3.029"
       y="9.9680004" /><rect
       style="fill:#8c8c8c"
       height="1.1849999"
       id="connector2pin"
       width="1.184"
       x="3.029"
       y="17.176001" /><rect
       style="fill:#8c8c8c"
       height="1.1849999"
       id="connector3pin"
       width="1.184"
       x="3.029"
       y="24.385" /><rect
       style="fill:#8c8c8c"
       height="1.1849999"
       id="connector4pin"
       width="1.184"
       x="3.029"
       y="31.593" /><rect
       style="fill:#8c8c8c"
       height="1.1849999"
       id="connector5pin"
       width="1.184"
       x="3.029"
       y="38.801998" /><rect
       style="fill:#8c8c8c"
       height="1.1849999"
       id="connector6pin"
       width="1.184"
       x="3.029"
       y="46.009998" /><rect
       style="fill:#8c8c8c"
       height="1.1849999"
       id="connector7pin"
       width="1.184"
       x="3.029"
       y="53.219002" /><rect
       style="fill:#8c8c8c"
       height="1.184"
       id="connector8pin"
       width="1.184"
       x="3.029"
       y="60.429001" /><rect
       style="fill:#8c8c8c"
       height="1.184"
       id="connector9pin"
       width="1.184"
       x="3.029"
       y="67.637001" /><rect
       style="fill:#8c8c8c"
       height="1.184"
       id="connector10pin"
       width="1.184"
       x="3.029"
       y="74.846001" /><rect
       style="fill:#8c8c8c"
       height="1.184"
       id="connector11pin"
       width="1.184"
       x="3.029"
       y="82.055" /><rect
       style="fill:#8c8c8c"
       height="1.183"
       id="connector12pin"
       width="1.184"
       x="3.029"
       y="89.263" /><rect
       style="fill:#8c8c8c"
       height="1.184"
       id="connector13pin"
       width="1.184"
       x="3.029"
       y="96.471001" /><rect
       style="fill:#8c8c8c"
       height="1.184"
       id="connector14pin"
       width="1.184"
       x="3.029"
       y="103.68" /><rect
       style="fill:#8c8c8c"
       height="1.1849999"
       id="connector15pin"
       width="1.184"
       x="3.029"
       y="110.889" /><rect
       style="fill:#8c8c8c"
       height="1.184"
       id="connector16pin"
       width="1.184"
       x="46.908001"
       y="110.889" /><rect
       style="fill:#8c8c8c"
       height="1.184"
       id="connector17pin"
       width="1.184"
       x="46.908001"
       y="103.68" /><rect
       style="fill:#8c8c8c"
       height="1.183"
       id="connector18pin"
       width="1.184"
       x="46.908001"
       y="96.473" /><rect
       style="fill:#8c8c8c"
       height="1.183"
       id="connector19pin"
       width="1.184"
       x="46.908001"
       y="89.263" /><rect
       style="fill:#8c8c8c"
       height="1.184"
       id="connector20pin"
       width="1.184"
       x="46.908001"
       y="82.055" /><rect
       style="fill:#8c8c8c"
       height="1.184"
       id="connector21pin"
       width="1.184"
       x="46.908001"
       y="74.845001" /><rect
       style="fill:#8c8c8c"
       height="1.184"
       id="connector22pin"
       width="1.184"
       x="46.908001"
       y="67.637001" /><rect
       style="fill:#8c8c8c"
       height="1.184"
       id="connector23pin"
       width="1.184"
       x="46.908001"
       y="60.429001" /><rect
       style="fill:#8c8c8c"
       height="1.184"
       id="connector24pin"
       width="1.184"
       x="46.908001"
       y="53.220001" /><rect
       style="fill:#8c8c8c"
       height="1.184"
       id="connector25pin"
       width="1.184"
       x="46.908001"
       y="46.011002" /><rect
       style="fill:#8c8c8c"
       height="1.184"
       id="connector26pin"
       width="1.184"
       x="46.908001"
       y="38.801998" /><rect
       style="fill:#8c8c8c"
       height="1.1849999"
       id="connector27pin"
       width="1.184"
       x="46.908001"
       y="31.594" /><rect
       style="fill:#8c8c8c"
       height="1.1849999"
       id="connector28pin"
       width="1.184"
       x="46.908001"
       y="24.385" /><rect
       style="fill:#8c8c8c"
       height="1.1849999"
       id="connector29pin"
       width="1.184"
       x="46.908001"
       y="17.177" /><rect
       style="fill:#8c8c8c"
       height="1.184"
       id="connector30pin"
       width="1.184"
       x="46.908001"
       y="9.9689999" /><path
       style="fill:#0f7391"
       inkscape:connector-curvature="0"
       id="path34"
       d="M 0.017,0.002 V 122.041 H 51.102 V 0.002 H 0.017 z m 3.642,120.62 c -1.229,0 -2.224,-0.995 -2.224,-2.224 0,-1.229 0.995,-2.225 2.224,-2.225 1.229,0 2.224,0.995 2.224,2.225 0,1.229 -0.995,2.224 -2.224,2.224 z m 0,-114.755 c -1.229,0 -2.224,-0.995 -2.224,-2.224 0,-1.229 0.995,-2.224 2.224,-2.224 1.229,0 2.224,0.994 2.224,2.224 0,1.229 -0.995,2.224 -2.224,2.224 z M 47.43,120.622 c -1.229,0 -2.224,-0.995 -2.224,-2.224 0,-1.229 0.994,-2.225 2.224,-2.225 1.23,0 2.226,0.995 2.226,2.225 0,1.229 -0.996,2.224 -2.226,2.224 z m 0,-114.755 c -1.229,0 -2.224,-0.995 -2.224,-2.224 0,-1.229 0.994,-2.224 2.224,-2.224 1.23,0 2.226,0.994 2.226,2.224 0,1.229 -0.996,2.224 -2.226,2.224 z" /><rect
       style="fill:#8d8c8c"
       id="rect36"
       y="9.4069996"
       x="2.471"
       width="2.3010001"
       height="2.302" /><rect
       style="fill:#8c8663"
       id="rect38"
       y="9.9680004"
       x="3.03"
       width="1.184"
       height="1.184" /><polygon
       style="fill:#b8af82"
       id="polygon40"
       points="2.471,9.407 3.03,9.968 4.212,9.968 4.771,9.407 " /><polygon
       style="fill:#80795b"
       id="polygon42"
       points="4.212,11.149 4.212,9.968 4.771,9.407 4.771,11.709 " /><polygon
       style="fill:#5e5b43"
       id="polygon44"
       points="3.03,11.149 4.212,11.149 4.771,11.709 2.471,11.709 " /><polygon
       style="fill:#9a916c"
       id="polygon46"
       points="2.471,9.407 3.03,9.968 3.03,11.149 2.471,11.709 " /><rect
       style="fill:#8d8c8c"
       id="rect48"
       y="16.617001"
       x="2.471"
       width="2.3010001"
       height="2.302" /><rect
       style="fill:#8c8663"
       id="rect50"
       y="17.174999"
       x="3.03"
       width="1.184"
       height="1.187" /><polygon
       style="fill:#b8af82"
       id="polygon52"
       points="2.471,16.617 3.03,17.175 4.212,17.175 4.771,16.617 " /><polygon
       style="fill:#80795b"
       id="polygon54"
       points="4.212,18.359 4.212,17.175 4.771,16.617 4.771,18.919 " /><polygon
       style="fill:#5e5b43"
       id="polygon56"
       points="3.03,18.359 4.212,18.359 4.771,18.919 2.471,18.919 " /><polygon
       style="fill:#9a916c"
       id="polygon58"
       points="2.471,16.617 3.03,17.175 3.03,18.359 2.471,18.919 " /><rect
       style="fill:#8d8c8c"
       id="rect60"
       y="23.825001"
       x="2.471"
       width="2.3010001"
       height="2.302" /><rect
       style="fill:#8c8663"
       id="rect62"
       y="24.385"
       x="3.03"
       width="1.184"
       height="1.1849999" /><polygon
       style="fill:#b8af82"
       id="polygon64"
       points="2.471,23.825 3.03,24.385 4.212,24.385 4.771,23.825 " /><polygon
       style="fill:#80795b"
       id="polygon66"
       points="4.212,25.568 4.212,24.385 4.771,23.825 4.771,26.127 " /><polygon
       style="fill:#5e5b43"
       id="polygon68"
       points="3.03,25.568 4.212,25.568 4.771,26.127 2.471,26.127 " /><polygon
       style="fill:#9a916c"
       id="polygon70"
       points="2.471,23.825 3.03,24.385 3.03,25.568 2.471,26.127 " /><rect
       style="fill:#8d8c8c"
       id="rect72"
       y="31.035999"
       x="2.471"
       width="2.3010001"
       height="2.302" /><rect
       style="fill:#8c8663"
       id="rect74"
       y="31.593"
       x="3.03"
       width="1.184"
       height="1.187" /><polygon
       style="fill:#b8af82"
       id="polygon76"
       points="2.471,31.036 3.03,31.593 4.212,31.593 4.771,31.036 " /><polygon
       style="fill:#80795b"
       id="polygon78"
       points="4.212,32.778 4.212,31.593 4.771,31.036 4.771,33.337 " /><polygon
       style="fill:#5e5b43"
       id="polygon80"
       points="3.03,32.778 4.212,32.778 4.771,33.337 2.471,33.337 " /><polygon
       style="fill:#9a916c"
       id="polygon82"
       points="2.471,31.036 3.03,31.593 3.03,32.778 2.471,33.337 " /><rect
       style="fill:#8d8c8c"
       id="rect84"
       y="38.243999"
       x="2.471"
       width="2.3010001"
       height="2.302" /><rect
       style="fill:#8c8663"
       id="rect86"
       y="38.801998"
       x="3.03"
       width="1.184"
       height="1.184" /><polygon
       style="fill:#b8af82"
       id="polygon88"
       points="2.471,38.244 3.03,38.802 4.212,38.802 4.771,38.244 " /><polygon
       style="fill:#80795b"
       id="polygon90"
       points="4.212,39.985 4.212,38.802 4.771,38.244 4.771,40.546 " /><polygon
       style="fill:#5e5b43"
       id="polygon92"
       points="3.03,39.985 4.212,39.985 4.771,40.546 2.471,40.546 " /><polygon
       style="fill:#9a916c"
       id="polygon94"
       points="2.471,38.244 3.03,38.802 3.03,39.985 2.471,40.546 " /><rect
       style="fill:#8d8c8c"
       id="rect96"
       y="45.452999"
       x="2.471"
       width="2.3010001"
       height="2.303" /><rect
       style="fill:#8c8663"
       id="rect98"
       y="46.009998"
       x="3.03"
       width="1.184"
       height="1.186" /><polygon
       style="fill:#b8af82"
       id="polygon100"
       points="2.471,45.453 3.03,46.01 4.212,46.01 4.771,45.453 " /><polygon
       style="fill:#80795b"
       id="polygon102"
       points="4.212,47.195 4.212,46.01 4.771,45.453 4.771,47.756 " /><polygon
       style="fill:#5e5b43"
       id="polygon104"
       points="3.03,47.195 4.212,47.195 4.771,47.756 2.471,47.756 " /><polygon
       style="fill:#9a916c"
       id="polygon106"
       points="2.471,45.453 3.03,46.01 3.03,47.195 2.471,47.756 " /><rect
       style="fill:#8d8c8c"
       id="rect108"
       y="52.660999"
       x="2.471"
       width="2.3010001"
       height="2.303" /><rect
       style="fill:#8c8663"
       id="rect110"
       y="53.220001"
       x="3.03"
       width="1.184"
       height="1.184" /><polygon
       style="fill:#b8af82"
       id="polygon112"
       points="2.471,52.661 3.03,53.22 4.212,53.22 4.771,52.661 " /><polygon
       style="fill:#80795b"
       id="polygon114"
       points="4.212,54.403 4.212,53.22 4.771,52.661 4.771,54.964 " /><polygon
       style="fill:#5e5b43"
       id="polygon116"
       points="3.03,54.403 4.212,54.403 4.771,54.964 2.471,54.964 " /><polygon
       style="fill:#9a916c"
       id="polygon118"
       points="2.471,52.661 3.03,53.22 3.03,54.403 2.471,54.964 " /><rect
       style="fill:#8d8c8c"
       id="rect120"
       y="59.870998"
       x="2.471"
       width="2.3010001"
       height="2.302" /><rect
       style="fill:#8c8663"
       id="rect122"
       y="60.428001"
       x="3.03"
       width="1.184"
       height="1.186" /><polygon
       style="fill:#b8af82"
       id="polygon124"
       points="2.471,59.871 3.03,60.428 4.212,60.428 4.771,59.871 " /><polygon
       style="fill:#80795b"
       id="polygon126"
       points="4.212,61.614 4.212,60.428 4.771,59.871 4.771,62.173 " /><polygon
       style="fill:#5e5b43"
       id="polygon128"
       points="3.03,61.614 4.212,61.614 4.771,62.173 2.471,62.173 " /><polygon
       style="fill:#9a916c"
       id="polygon130"
       points="2.471,59.871 3.03,60.428 3.03,61.614 2.471,62.173 " /><rect
       style="fill:#8d8c8c"
       id="rect132"
       y="67.080002"
       x="2.471"
       width="2.3010001"
       height="2.302" /><rect
       style="fill:#8c8663"
       id="rect134"
       y="67.639"
       x="3.03"
       width="1.184"
       height="1.184" /><polygon
       style="fill:#b8af82"
       id="polygon136"
       points="2.471,67.08 3.03,67.639 4.212,67.639 4.771,67.08 " /><polygon
       style="fill:#80795b"
       id="polygon138"
       points="4.212,68.821 4.212,67.639 4.771,67.08 4.771,69.382 " /><polygon
       style="fill:#5e5b43"
       id="polygon140"
       points="3.03,68.821 4.212,68.821 4.771,69.382 2.471,69.382 " /><polygon
       style="fill:#9a916c"
       id="polygon142"
       points="2.471,67.08 3.03,67.639 3.03,68.821 2.471,69.382 " /><rect
       style="fill:#8d8c8c"
       id="rect144"
       y="74.289001"
       x="2.471"
       width="2.3010001"
       height="2.303" /><rect
       style="fill:#8c8663"
       id="rect146"
       y="74.846001"
       x="3.03"
       width="1.184"
       height="1.186" /><polygon
       style="fill:#b8af82"
       id="polygon148"
       points="2.471,74.289 3.03,74.846 4.212,74.846 4.771,74.289 " /><polygon
       style="fill:#80795b"
       id="polygon150"
       points="4.212,76.033 4.212,74.846 4.771,74.289 4.771,76.592 " /><polygon
       style="fill:#5e5b43"
       id="polygon152"
       points="3.03,76.033 4.212,76.033 4.771,76.592 2.471,76.592 " /><polygon
       style="fill:#9a916c"
       id="polygon154"
       points="2.471,74.289 3.03,74.846 3.03,76.033 2.471,76.592 " /><rect
       style="fill:#8d8c8c"
       id="rect156"
       y="81.497002"
       x="2.471"
       width="2.3010001"
       height="2.303" /><rect
       style="fill:#8c8663"
       id="rect158"
       y="82.056"
       x="3.03"
       width="1.184"
       height="1.184" /><polygon
       style="fill:#b8af82"
       id="polygon160"
       points="2.471,81.497 3.03,82.056 4.212,82.056 4.771,81.497 " /><polygon
       style="fill:#80795b"
       id="polygon162"
       points="4.212,83.24 4.212,82.056 4.771,81.497 4.771,83.8 " /><polygon
       style="fill:#5e5b43"
       id="polygon164"
       points="3.03,83.24 4.212,83.24 4.771,83.8 2.471,83.8 " /><polygon
       style="fill:#9a916c"
       id="polygon166"
       points="2.471,81.497 3.03,82.056 3.03,83.24 2.471,83.8 " /><rect
       style="fill:#8d8c8c"
       id="rect168"
       y="88.708"
       x="2.471"
       width="2.3010001"
       height="2.303" /><rect
       style="fill:#8c8663"
       id="rect170"
       y="89.264"
       x="3.03"
       width="1.184"
       height="1.186" /><polygon
       style="fill:#b8af82"
       id="polygon172"
       points="2.471,88.708 3.03,89.264 4.212,89.264 4.771,88.708 " /><polygon
       style="fill:#80795b"
       id="polygon174"
       points="4.212,90.45 4.212,89.264 4.771,88.708 4.771,91.01 " /><polygon
       style="fill:#9a916c"
       id="polygon176"
       points="2.471,88.708 3.03,89.264 3.03,90.45 2.471,91.01 " /><rect
       style="fill:#8d8c8c"
       id="rect178"
       y="95.916"
       x="2.471"
       width="2.3010001"
       height="2.303" /><rect
       style="fill:#8c8663"
       id="rect180"
       y="96.473"
       x="3.03"
       width="1.184"
       height="1.1849999" /><polygon
       style="fill:#b8af82"
       id="polygon182"
       points="2.471,95.916 3.03,96.473 4.212,96.473 4.771,95.916 " /><polygon
       style="fill:#80795b"
       id="polygon184"
       points="4.212,97.657 4.212,96.473 4.771,95.916 4.771,98.219 " /><polygon
       style="fill:#5e5b43"
       id="polygon186"
       points="3.03,97.657 4.212,97.657 4.771,98.219 2.471,98.219 " /><polygon
       style="fill:#9a916c"
       id="polygon188"
       points="2.471,95.916 3.03,96.473 3.03,97.657 2.471,98.219 " /><rect
       style="fill:#8d8c8c"
       id="rect190"
       y="103.123"
       x="2.471"
       width="2.3010001"
       height="2.3039999" /><rect
       style="fill:#8c8663"
       id="rect192"
       y="103.683"
       x="3.03"
       width="1.184"
       height="1.183" /><polygon
       style="fill:#b8af82"
       id="polygon194"
       points="2.471,103.123 3.03,103.683 4.212,103.683 4.771,103.123 " /><polygon
       style="fill:#80795b"
       id="polygon196"
       points="4.212,104.865 4.212,103.683 4.771,103.123 4.771,105.426 " /><polygon
       style="fill:#5e5b43"
       id="polygon198"
       points="3.03,104.865 4.212,104.865 4.771,105.426 2.471,105.426 " /><polygon
       style="fill:#9a916c"
       id="polygon200"
       points="2.471,103.123 3.03,103.683 3.03,104.865 2.471,105.426 " /><rect
       style="fill:#8d8c8c"
       id="rect202"
       y="110.333"
       x="2.471"
       width="2.3010001"
       height="2.3039999" /><rect
       style="fill:#8c8663"
       id="rect204"
       y="110.89"
       x="3.03"
       width="1.184"
       height="1.186" /><polygon
       style="fill:#b8af82"
       id="polygon206"
       points="2.471,110.333 3.03,110.89 4.212,110.89 4.771,110.333 " /><polygon
       style="fill:#80795b"
       id="polygon208"
       points="4.212,112.076 4.212,110.89 4.771,110.333 4.771,112.635 " /><polygon
       style="fill:#9a916c"
       id="polygon210"
       points="2.471,110.333 3.03,110.89 3.03,112.076 2.471,112.635 " /><rect
       style="fill:#8d8c8c"
       id="rect212"
       y="9.4069996"
       x="46.347"
       width="2.302"
       height="2.302" /><rect
       style="fill:#8c8663"
       id="rect214"
       y="9.9680004"
       x="46.908001"
       width="1.184"
       height="1.184" /><polygon
       style="fill:#b8af82"
       id="polygon216"
       points="46.347,9.407 46.908,9.968 48.089,9.968 48.649,9.407 " /><polygon
       style="fill:#80795b"
       id="polygon218"
       points="48.089,11.149 48.089,9.968 48.649,9.407 48.649,11.709 " /><polygon
       style="fill:#5e5b43"
       id="polygon220"
       points="46.908,11.149 48.089,11.149 48.649,11.709 46.347,11.709 " /><polygon
       style="fill:#9a916c"
       id="polygon222"
       points="46.347,9.407 46.908,9.968 46.908,11.149 46.347,11.709 " /><rect
       style="fill:#8d8c8c"
       id="rect224"
       y="16.617001"
       x="46.347"
       width="2.302"
       height="2.302" /><rect
       style="fill:#8c8663"
       id="rect226"
       y="17.174999"
       x="46.908001"
       width="1.184"
       height="1.187" /><polygon
       style="fill:#b8af82"
       id="polygon228"
       points="46.347,16.617 46.908,17.175 48.089,17.175 48.649,16.617 " /><polygon
       style="fill:#80795b"
       id="polygon230"
       points="48.089,18.359 48.089,17.175 48.649,16.617 48.649,18.919 " /><polygon
       style="fill:#5e5b43"
       id="polygon232"
       points="46.908,18.359 48.089,18.359 48.649,18.919 46.347,18.919 " /><polygon
       style="fill:#9a916c"
       id="polygon234"
       points="46.347,16.617 46.908,17.175 46.908,18.359 46.347,18.919 " /><rect
       style="fill:#8d8c8c"
       id="rect236"
       y="23.825001"
       x="46.347"
       width="2.302"
       height="2.302" /><rect
       style="fill:#8c8663"
       id="rect238"
       y="24.385"
       x="46.908001"
       width="1.184"
       height="1.1849999" /><polygon
       style="fill:#b8af82"
       id="polygon240"
       points="46.347,23.825 46.908,24.385 48.089,24.385 48.649,23.825 " /><polygon
       style="fill:#80795b"
       id="polygon242"
       points="48.089,25.568 48.089,24.385 48.649,23.825 48.649,26.127 " /><polygon
       style="fill:#5e5b43"
       id="polygon244"
       points="46.908,25.568 48.089,25.568 48.649,26.127 46.347,26.127 " /><polygon
       style="fill:#9a916c"
       id="polygon246"
       points="46.347,23.825 46.908,24.385 46.908,25.568 46.347,26.127 " /><rect
       style="fill:#8d8c8c"
       id="rect248"
       y="31.035999"
       x="46.347"
       width="2.302"
       height="2.302" /><rect
       style="fill:#8c8663"
       id="rect250"
       y="31.593"
       x="46.908001"
       width="1.184"
       height="1.187" /><polygon
       style="fill:#b8af82"
       id="polygon252"
       points="46.347,31.036 46.908,31.593 48.089,31.593 48.649,31.036 " /><polygon
       style="fill:#80795b"
       id="polygon254"
       points="48.089,32.778 48.089,31.593 48.649,31.036 48.649,33.337 " /><polygon
       style="fill:#5e5b43"
       id="polygon256"
       points="46.908,32.778 48.089,32.778 48.649,33.337 46.347,33.337 " /><polygon
       style="fill:#9a916c"
       id="polygon258"
       points="46.347,31.036 46.908,31.593 46.908,32.778 46.347,33.337 " /><rect
       style="fill:#8d8c8c"
       id="rect260"
       y="38.243999"
       x="46.347"
       width="2.302"
       height="2.302" /><rect
       style="fill:#8c8663"
       id="rect262"
       y="38.801998"
       x="46.908001"
       width="1.184"
       height="1.184" /><polygon
       style="fill:#b8af82"
       id="polygon264"
       points="46.347,38.244 46.908,38.802 48.089,38.802 48.649,38.244 " /><polygon
       style="fill:#80795b"
       id="polygon266"
       points="48.089,39.985 48.089,38.802 48.649,38.244 48.649,40.546 " /><polygon
       style="fill:#5e5b43"
       id="polygon268"
       points="46.908,39.985 48.089,39.985 48.649,40.546 46.347,40.546 " /><polygon
       style="fill:#9a916c"
       id="polygon270"
       points="46.347,38.244 46.908,38.802 46.908,39.985 46.347,40.546 " /><rect
       style="fill:#8d8c8c"
       id="rect272"
       y="45.452999"
       x="46.347"
       width="2.302"
       height="2.303" /><rect
       style="fill:#8c8663"
       id="rect274"
       y="46.009998"
       x="46.908001"
       width="1.184"
       height="1.186" /><polygon
       style="fill:#b8af82"
       id="polygon276"
       points="46.347,45.453 46.908,46.01 48.089,46.01 48.649,45.453 " /><polygon
       style="fill:#80795b"
       id="polygon278"
       points="48.089,47.195 48.089,46.01 48.649,45.453 48.649,47.756 " /><polygon
       style="fill:#5e5b43"
       id="polygon280"
       points="46.908,47.195 48.089,47.195 48.649,47.756 46.347,47.756 " /><polygon
       style="fill:#9a916c"
       id="polygon282"
       points="46.347,45.453 46.908,46.01 46.908,47.195 46.347,47.756 " /><rect
       style="fill:#8d8c8c"
       id="rect284"
       y="52.660999"
       x="46.347"
       width="2.302"
       height="2.303" /><rect
       style="fill:#8c8663"
       id="rect286"
       y="53.220001"
       x="46.908001"
       width="1.184"
       height="1.184" /><polygon
       style="fill:#b8af82"
       id="polygon288"
       points="46.347,52.661 46.908,53.22 48.089,53.22 48.649,52.661 " /><polygon
       style="fill:#80795b"
       id="polygon290"
       points="48.089,54.403 48.089,53.22 48.649,52.661 48.649,54.964 " /><polygon
       style="fill:#5e5b43"
       id="polygon292"
       points="46.908,54.403 48.089,54.403 48.649,54.964 46.347,54.964 " /><polygon
       style="fill:#9a916c"
       id="polygon294"
       points="46.347,52.661 46.908,53.22 46.908,54.403 46.347,54.964 " /><rect
       style="fill:#8d8c8c"
       id="rect296"
       y="59.870998"
       x="46.347"
       width="2.302"
       height="2.302" /><rect
       style="fill:#8c8663"
       id="rect298"
       y="60.428001"
       x="46.908001"
       width="1.184"
       height="1.186" /><polygon
       style="fill:#b8af82"
       id="polygon300"
       points="46.347,59.871 46.908,60.428 48.089,60.428 48.649,59.871 " /><polygon
       style="fill:#80795b"
       id="polygon302"
       points="48.089,61.614 48.089,60.428 48.649,59.871 48.649,62.173 " /><polygon
       style="fill:#5e5b43"
       id="polygon304"
       points="46.908,61.614 48.089,61.614 48.649,62.173 46.347,62.173 " /><polygon
       style="fill:#9a916c"
       id="polygon306"
       points="46.347,59.871 46.908,60.428 46.908,61.614 46.347,62.173 " /><rect
       style="fill:#8d8c8c"
       id="rect308"
       y="67.080002"
       x="46.347"
       width="2.302"
       height="2.302" /><rect
       style="fill:#8c8663"
       id="rect310"
       y="67.639"
       x="46.908001"
       width="1.184"
       height="1.184" /><polygon
       style="fill:#b8af82"
       id="polygon312"
       points="46.347,67.08 46.908,67.639 48.089,67.639 48.649,67.08 " /><polygon
       style="fill:#80795b"
       id="polygon314"
       points="48.089,68.821 48.089,67.639 48.649,67.08 48.649,69.382 " /><polygon
       style="fill:#5e5b43"
       id="polygon316"
       points="46.908,68.821 48.089,68.821 48.649,69.382 46.347,69.382 " /><polygon
       style="fill:#9a916c"
       id="polygon318"
       points="46.347,67.08 46.908,67.639 46.908,68.821 46.347,69.382 " /><rect
       style="fill:#8d8c8c"
       id="rect320"
       y="74.289001"
       x="46.347"
       width="2.302"
       height="2.303" /><rect
       style="fill:#8c8663"
       id="rect322"
       y="74.846001"
       x="46.908001"
       width="1.184"
       height="1.186" /><polygon
       style="fill:#b8af82"
       id="polygon324"
       points="46.347,74.289 46.908,74.846 48.089,74.846 48.649,74.289 " /><polygon
       style="fill:#80795b"
       id="polygon326"
       points="48.089,76.033 48.089,74.846 48.649,74.289 48.649,76.592 " /><polygon
       style="fill:#5e5b43"
       id="polygon328"
       points="46.908,76.033 48.089,76.033 48.649,76.592 46.347,76.592 " /><polygon
       style="fill:#9a916c"
       id="polygon330"
       points="46.347,74.289 46.908,74.846 46.908,76.033 46.347,76.592 " /><rect
       style="fill:#8d8c8c"
       id="rect332"
       y="81.497002"
       x="46.347"
       width="2.302"
       height="2.303" /><rect
       style="fill:#8c8663"
       id="rect334"
       y="82.056"
       x="46.908001"
       width="1.184"
       height="1.184" /><polygon
       style="fill:#b8af82"
       id="polygon336"
       points="46.347,81.497 46.908,82.056 48.089,82.056 48.649,81.497 " /><polygon
       style="fill:#80795b"
       id="polygon338"
       points="48.089,83.24 48.089,82.056 48.649,81.497 48.649,83.8 " /><polygon
       style="fill:#5e5b43"
       id="polygon340"
       points="46.908,83.24 48.089,83.24 48.649,83.8 46.347,83.8 " /><polygon
       style="fill:#9a916c"
       id="polygon342"
       points="46.347,81.497 46.908,82.056 46.908,83.24 46.347,83.8 " /><rect
       style="fill:#8d8c8c"
       id="rect344"
       y="88.708"
       x="46.347"
       width="2.302"
       height="2.303" /><rect
       style="fill:#8c8663"
       id="rect346"
       y="89.264"
       x="46.908001"
       width="1.184"
       height="1.186" /><polygon
       style="fill:#b8af82"
       id="polygon348"
       points="46.347,88.708 46.908,89.264 48.089,89.264 48.649,88.708 " /><polygon
       style="fill:#80795b"
       id="polygon350"
       points="48.089,90.45 48.089,89.264 48.649,88.708 48.649,91.01 " /><polygon
       style="fill:#9a916c"
       id="polygon352"
       points="46.347,88.708 46.908,89.264 46.908,90.45 46.347,91.01 " /><rect
       style="fill:#8d8c8c"
       id="rect354"
       y="95.916"
       x="46.347"
       width="2.302"
       height="2.303" /><rect
       style="fill:#8c8663"
       id="rect356"
       y="96.473"
       x="46.908001"
       width="1.184"
       height="1.1849999" /><polygon
       style="fill:#b8af82"
       id="polygon358"
       points="46.347,95.916 46.908,96.473 48.089,96.473 48.649,95.916 " /><polygon
       style="fill:#80795b"
       id="polygon360"
       points="48.089,97.657 48.089,96.473 48.649,95.916 48.649,98.219 " /><polygon
       style="fill:#5e5b43"
       id="polygon362"
       points="46.908,97.657 48.089,97.657 48.649,98.219 46.347,98.219 " /><polygon
       style="fill:#9a916c"
       id="polygon364"
       points="46.347,95.916 46.908,96.473 46.908,97.657 46.347,98.219 " /><rect
       style="fill:#8d8c8c"
       id="rect366"
       y="103.123"
       x="46.347"
       width="2.302"
       height="2.3039999" /><rect
       style="fill:#8c8663"
       id="rect368"
       y="103.683"
       x="46.908001"
       width="1.184"
       height="1.183" /><polygon
       style="fill:#b8af82"
       id="polygon370"
       points="46.347,103.123 46.908,103.683 48.089,103.683 48.649,103.123 " /><polygon
       style="fill:#80795b"
       id="polygon372"
       points="48.089,104.865 48.089,103.683 48.649,103.123 48.649,105.426 " /><polygon
       style="fill:#5e5b43"
       id="polygon374"
       points="46.908,104.865 48.089,104.865 48.649,105.426 46.347,105.426 " /><polygon
       style="fill:#9a916c"
       id="polygon376"
       points="46.347,103.123 46.908,103.683 46.908,104.865 46.347,105.426 " /><rect
       style="fill:#8d8c8c"
       id="rect378"
       y="110.333"
       x="46.347"
       width="2.302"
       height="2.3039999" /><rect
       style="fill:#8c8663"
       id="rect380"
       y="110.89"
       x="46.908001"
       width="1.184"
       height="1.186" /><polygon
       style="fill:#b8af82"
       id="polygon382"
       points="46.347,110.333 46.908,110.89 48.089,110.89 48.649,110.333 " /><polygon
       style="fill:#80795b"
       id="polygon384"
       points="48.089,112.076 48.089,110.89 48.649,110.333 48.649,112.635 " /><polygon
       style="fill:#9a916c"
       id="polygon386"
       points="46.347,110.333 46.908,110.89 46.908,112.076 46.347,112.635 " /><path
       style="fill:#02809e"
       inkscape:connector-curvature="0"
       id="path388"
       d="m 39.947,53.406 c 0,-3.036 -2.232,-5.535 -5.141,-5.996 V 47.315 H 17.263 c -3.362,0 -6.089,2.727 -6.089,6.091 0,3.362 2.727,6.09 6.089,6.09 h 17.543 v -0.095 c 2.909,-0.461 5.141,-2.96 5.141,-5.995 z" /><rect
       style="fill:#02809e"
       id="rect390"
       y="64.924004"
       x="11.295"
       width="28.531"
       height="28.531" /><polygon
       style="fill:#404040"
       id="polygon392"
       points="30.73,0.002 29.166,1.567 27.597,0.002 23.521,0.002 21.956,1.567 20.389,0.002 16.312,0.002 14.747,1.567 14.747,5.645 16.312,7.209 16.312,7.21 14.747,8.777 14.747,12.854 16.312,14.418 20.389,14.418 21.956,12.854 23.521,14.418 27.597,14.418 29.164,12.854 29.166,12.854 30.73,14.418 34.806,14.418 36.375,12.854 36.375,8.777 34.806,7.21 34.806,7.209 36.375,5.645 36.375,1.567 34.806,0.002 " /><rect
       style="fill:#8d8c8c"
       id="rect394"
       y="2.454"
       x="17.201"
       width="2.3010001"
       height="2.303" /><rect
       style="fill:#8c8663"
       id="rect396"
       y="3.0120001"
       x="17.761"
       width="1.184"
       height="1.1849999" /><polygon
       style="fill:#b8af82"
       id="polygon398"
       points="17.201,2.454 17.761,3.012 18.941,3.012 19.501,2.454 " /><polygon
       style="fill:#80795b"
       id="polygon400"
       points="18.941,4.196 18.941,3.012 19.501,2.454 19.501,4.757 " /><polygon
       style="fill:#5e5b43"
       id="polygon402"
       points="17.761,4.196 18.941,4.196 19.501,4.757 17.201,4.757 " /><polygon
       style="fill:#9a916c"
       id="polygon404"
       points="17.201,2.454 17.761,3.012 17.761,4.196 17.201,4.757 " /><rect
       style="fill:#8d8c8c"
       id="rect406"
       y="2.454"
       x="24.41"
       width="2.3"
       height="2.303" /><rect
       style="fill:#8c8663"
       id="rect408"
       y="3.0120001"
       x="24.969999"
       width="1.184"
       height="1.1849999" /><polygon
       style="fill:#b8af82"
       id="polygon410"
       points="24.41,2.454 24.97,3.012 26.152,3.012 26.709,2.454 " /><polygon
       style="fill:#80795b"
       id="polygon412"
       points="26.152,4.196 26.152,3.012 26.709,2.454 26.709,4.757 " /><polygon
       style="fill:#5e5b43"
       id="polygon414"
       points="24.97,4.196 26.152,4.196 26.709,4.757 24.41,4.757 " /><polygon
       style="fill:#9a916c"
       id="polygon416"
       points="24.41,2.454 24.97,3.012 24.97,4.196 24.41,4.757 " /><rect
       style="fill:#8d8c8c"
       id="rect418"
       y="2.454"
       x="31.618999"
       width="2.3010001"
       height="2.303" /><rect
       style="fill:#8c8663"
       id="rect420"
       y="3.0120001"
       x="32.178001"
       width="1.1849999"
       height="1.1849999" /><polygon
       style="fill:#b8af82"
       id="polygon422"
       points="31.619,2.454 32.178,3.012 33.361,3.012 33.918,2.454 " /><polygon
       style="fill:#80795b"
       id="polygon424"
       points="33.361,4.196 33.361,3.012 33.918,2.454 33.918,4.757 " /><polygon
       style="fill:#5e5b43"
       id="polygon426"
       points="32.178,4.196 33.361,4.196 33.918,4.757 31.619,4.757 " /><polygon
       style="fill:#9a916c"
       id="polygon428"
       points="31.619,2.454 32.178,3.012 32.178,4.196 31.619,4.757 " /><rect
       style="fill:#8d8c8c"
       id="rect430"
       y="9.6630001"
       x="17.201"
       width="2.3010001"
       height="2.302" /><rect
       style="fill:#8c8663"
       id="rect432"
       y="10.221"
       x="17.761"
       width="1.184"
       height="1.1849999" /><polygon
       style="fill:#b8af82"
       id="polygon434"
       points="17.201,9.663 17.761,10.221 18.941,10.221 19.501,9.663 " /><polygon
       style="fill:#80795b"
       id="polygon436"
       points="18.941,11.406 18.941,10.221 19.501,9.663 19.501,11.965 " /><polygon
       style="fill:#5e5b43"
       id="polygon438"
       points="17.761,11.406 18.941,11.406 19.501,11.965 17.201,11.965 " /><polygon
       style="fill:#9a916c"
       id="polygon440"
       points="17.201,9.663 17.761,10.221 17.761,11.406 17.201,11.965 " /><rect
       style="fill:#8d8c8c"
       id="rect442"
       y="9.6630001"
       x="24.41"
       width="2.3"
       height="2.302" /><rect
       style="fill:#8c8663"
       id="rect444"
       y="10.221"
       x="24.969999"
       width="1.184"
       height="1.1849999" /><polygon
       style="fill:#b8af82"
       id="polygon446"
       points="24.41,9.663 24.97,10.221 26.152,10.221 26.709,9.663 " /><polygon
       style="fill:#80795b"
       id="polygon448"
       points="26.152,11.406 26.152,10.221 26.709,9.663 26.709,11.965 " /><polygon
       style="fill:#5e5b43"
       id="polygon450"
       points="24.97,11.406 26.152,11.406 26.709,11.965 24.41,11.965 " /><polygon
       style="fill:#9a916c"
       id="polygon452"
       points="24.41,9.663 24.97,10.221 24.97,11.406 24.41,11.965 " /><rect
       style="fill:#8d8c8c"
       id="rect454"
       y="9.6630001"
       x="31.618999"
       width="2.3010001"
       height="2.302" /><rect
       style="fill:#8c8663"
       id="rect456"
       y="10.221"
       x="32.178001"
       width="1.1849999"
       height="1.1849999" /><polygon
       style="fill:#b8af82"
       id="polygon458"
       points="31.619,9.663 32.178,10.221 33.361,10.221 33.918,9.663 " /><polygon
       style="fill:#80795b"
       id="polygon460"
       points="33.361,11.406 33.361,10.221 33.918,9.663 33.918,11.965 " /><polygon
       style="fill:#5e5b43"
       id="polygon462"
       points="32.178,11.406 33.361,11.406 33.918,11.965 31.619,11.965 " /><polygon
       style="fill:#9a916c"
       id="polygon464"
       points="31.619,9.663 32.178,10.221 32.178,11.406 31.619,11.965 " /><path
       style="fill:#8d8c8c"
       inkscape:connector-curvature="0"
       id="path466"
       d="m 11.19,44.094 c 1.005,0 1.832,-0.736 1.985,-1.699 h 0.031 v -6.868 c 0,-1.112 -0.902,-2.017 -2.017,-2.017 -1.114,0 -2.019,0.902 -2.019,2.017 v 6.868 h 0.033 c 0.155,0.96 0.981,1.699 1.987,1.699 z" /><rect
       style="fill:#fbbe0e"
       id="rect468"
       y="37.036999"
       x="9.5830002"
       width="3.2149999"
       height="3.652" /><path
       style="fill:#8d8c8c"
       inkscape:connector-curvature="0"
       id="path470"
       d="m 39.949,44.094 c 1.004,0 1.83,-0.736 1.983,-1.699 h 0.031 v -5.876 c 0,-1.112 -0.904,-2.017 -2.019,-2.017 -1.113,0 -2.018,0.902 -2.018,2.017 v 5.876 h 0.033 c 0.158,0.96 0.982,1.699 1.99,1.699 z" /><rect
       style="fill:#fbbe0e"
       id="rect472"
       y="37.603001"
       x="38.337002"
       width="3.2149999"
       height="3.654" /><path
       style="fill:#8d8c8c"
       inkscape:connector-curvature="0"
       id="path474"
       d="m 18.353,44.094 c 1.005,0 1.831,-0.736 1.984,-1.699 h 0.031 v -6.868 c 0,-1.112 -0.902,-2.017 -2.017,-2.017 -1.115,0 -2.019,0.902 -2.019,2.017 v 6.868 h 0.033 c 0.156,0.96 0.981,1.699 1.988,1.699 z" /><rect
       style="fill:#fbbe0e"
       id="rect476"
       y="37.036999"
       x="16.745001"
       width="3.2149999"
       height="3.652" /><path
       style="fill:#8d8c8c"
       inkscape:connector-curvature="0"
       id="path478"
       d="m 32.792,44.094 c 1.006,0 1.832,-0.736 1.983,-1.699 h 0.031 v -9.707 c 0,-1.112 -0.9,-2.017 -2.017,-2.017 -1.112,0 -2.019,0.902 -2.019,2.017 v 9.707 h 0.032 c 0.157,0.96 0.983,1.699 1.99,1.699 z" /><rect
       style="fill:#666666"
       id="rect480"
       y="33.508999"
       x="29.993999"
       width="5.598"
       height="7.7509999" /><circle
       d="m 34.777,37.383999 c 0,1.096285 -0.888715,1.985 -1.985,1.985 -1.096285,0 -1.985,-0.888715 -1.985,-1.985 0,-1.096285 0.888715,-1.985 1.985,-1.985 1.096285,0 1.985,0.888715 1.985,1.985 z"
       style="fill:#404040"
       sodipodi:ry="1.985"
       sodipodi:rx="1.985"
       sodipodi:cy="37.383999"
       sodipodi:cx="32.792"
       id="circle482"
       r="1.985"
       cy="37.383999"
       cx="32.792" /><g
       id="g510">
		<path
   style="fill:#ffffff"
   inkscape:connector-curvature="0"
   id="path512"
   d="M 0.544,14.109 H 0.452 c -0.083,0 -0.153,-0.03 -0.153,-0.125 0,-0.09 0.068,-0.125 0.145,-0.125 h 0.418 c 0.195,0 0.293,0.08 0.378,0.25 l 0.22,0.439 c 0.05,0.104 0.075,0.176 0.075,0.291 0,0.101 -0.028,0.186 -0.073,0.275 L 1.234,15.57 c -0.088,0.178 -0.2,0.235 -0.396,0.235 H 0.424 c -0.065,0 -0.125,-0.035 -0.125,-0.125 0,-0.091 0.06,-0.125 0.125,-0.125 h 0.12 v -1.446 z m 0.251,1.446 h 0.047 c 0.105,0 0.13,-0.014 0.175,-0.105 l 0.22,-0.445 c 0.027,-0.058 0.047,-0.1 0.047,-0.163 0,-0.085 -0.027,-0.133 -0.062,-0.204 L 1.014,14.214 C 0.961,14.108 0.939,14.11 0.824,14.11 h -0.03 l 0.001,1.445 0,0 z" />
		<path
   style="fill:#ffffff"
   inkscape:connector-curvature="0"
   id="path514"
   d="m 3.087,13.859 c 0.138,0 0.25,0.112 0.25,0.25 v 1.447 c 0,0.14 -0.107,0.25 -0.25,0.25 H 2.352 c -0.143,0 -0.25,-0.11 -0.25,-0.25 v -1.447 c 0,-0.138 0.113,-0.25 0.25,-0.25 h 0.735 z m 0,1.696 V 14.108 H 2.352 v 1.447 h 0.735 z" />
		<path
   style="fill:#ffffff"
   inkscape:connector-curvature="0"
   id="path516"
   d="m 4.154,15.68 c 0,0.079 -0.035,0.125 -0.125,0.125 -0.09,0 -0.125,-0.046 -0.125,-0.125 v -1.822 h 0.841 c 0.198,0 0.396,0.14 0.396,0.363 v 0.173 c 0,0.234 -0.195,0.354 -0.396,0.354 h -0.23 l 0.563,0.807 c 0.027,0.036 0.062,0.085 0.062,0.132 0,0.069 -0.058,0.118 -0.127,0.118 -0.05,0 -0.083,-0.03 -0.11,-0.07 L 4.213,14.749 H 4.154 v 0.931 z m 0,-1.181 h 0.555 c 0.07,0 0.18,-0.005 0.18,-0.104 v -0.173 c 0,-0.101 -0.103,-0.113 -0.178,-0.113 H 4.154 v 0.39 z" />
		<path
   style="fill:#ffffff"
   inkscape:connector-curvature="0"
   id="path518"
   d="M 6.182,14.832 5.737,14.066 c -0.018,-0.027 -0.03,-0.056 -0.03,-0.09 0,-0.065 0.06,-0.118 0.123,-0.118 0.083,0 0.11,0.062 0.145,0.123 l 0.351,0.598 0.351,-0.598 c 0.035,-0.061 0.062,-0.123 0.145,-0.123 0.062,0 0.123,0.052 0.123,0.118 0,0.034 -0.013,0.062 -0.03,0.09 l -0.445,0.766 0.445,0.767 c 0.018,0.026 0.03,0.055 0.03,0.09 0,0.064 -0.06,0.118 -0.123,0.118 -0.083,0 -0.11,-0.063 -0.145,-0.123 L 6.326,15.085 5.975,15.684 c -0.035,0.06 -0.062,0.123 -0.145,0.123 -0.062,0 -0.123,-0.054 -0.123,-0.118 0,-0.035 0.013,-0.063 0.03,-0.09 l 0.445,-0.767 z" />
	</g><g
       id="g520">
		<path
   style="fill:#ffffff"
   inkscape:connector-curvature="0"
   id="path522"
   d="M 8.563,4.755 V 4.661 c 0,-0.083 0.03,-0.152 0.125,-0.152 0.09,0 0.125,0.066 0.125,0.145 v 0.418 c 0,0.195 -0.08,0.293 -0.25,0.378 L 8.123,5.67 C 8.02,5.72 7.947,5.745 7.832,5.745 7.732,5.745 7.647,5.719 7.557,5.673 L 7.102,5.445 C 6.924,5.358 6.867,5.245 6.867,5.049 V 4.635 c 0,-0.065 0.035,-0.125 0.125,-0.125 0.09,0 0.125,0.06 0.125,0.125 v 0.12 h 1.446 z m -1.447,0.25 v 0.047 c 0,0.104 0.013,0.13 0.105,0.175 l 0.445,0.22 c 0.058,0.027 0.1,0.047 0.163,0.047 0.085,0 0.133,-0.026 0.205,-0.062 L 8.457,5.224 C 8.564,5.17 8.562,5.149 8.562,5.034 V 5.004 H 7.116 v 0.001 z" />
		<path
   style="fill:#ffffff"
   inkscape:connector-curvature="0"
   id="path524"
   d="m 7.116,7.297 h 0.506 c 0.072,0 0.125,0.033 0.125,0.125 0,0.093 -0.053,0.125 -0.125,0.125 H 6.991 c -0.09,0 -0.125,-0.06 -0.125,-0.125 V 6.436 c 0,-0.065 0.035,-0.125 0.125,-0.125 0.09,0 0.125,0.06 0.125,0.125 V 6.804 H 8.563 V 6.436 c 0,-0.065 0.035,-0.125 0.125,-0.125 0.09,0 0.125,0.06 0.125,0.125 V 7.054 H 7.116 v 0.243 z" />
		<path
   style="fill:#ffffff"
   inkscape:connector-curvature="0"
   id="path526"
   d="m 8.563,8.364 h -0.09 c -0.08,0 -0.125,-0.035 -0.125,-0.125 0,-0.09 0.045,-0.125 0.125,-0.125 h 0.34 V 9.35 H 8.473 C 8.393,9.35 8.348,9.315 8.348,9.225 8.348,9.135 8.393,9.1 8.473,9.1 h 0.09 V 8.856 H 6.991 c -0.08,0 -0.125,-0.035 -0.125,-0.125 0,-0.09 0.045,-0.125 0.125,-0.125 H 8.563 V 8.364 z" />
		<path
   style="fill:#ffffff"
   inkscape:connector-curvature="0"
   id="path528"
   d="M 7.84,10.391 8.606,9.946 c 0.027,-0.018 0.055,-0.03 0.09,-0.03 0.065,0 0.118,0.061 0.118,0.123 0,0.083 -0.062,0.11 -0.123,0.146 l -0.598,0.35 0.598,0.351 c 0.06,0.034 0.123,0.063 0.123,0.146 0,0.063 -0.052,0.123 -0.118,0.123 -0.035,0 -0.062,-0.013 -0.09,-0.03 L 7.84,10.677 7.074,11.121 c -0.027,0.019 -0.055,0.03 -0.09,0.03 -0.065,0 -0.118,-0.061 -0.118,-0.123 0,-0.083 0.062,-0.11 0.123,-0.146 l 0.598,-0.35 -0.598,-0.35 c -0.06,-0.035 -0.123,-0.063 -0.123,-0.146 0,-0.062 0.053,-0.123 0.118,-0.123 0.035,0 0.062,0.014 0.09,0.03 l 0.766,0.448 z" />
	</g><g
       id="g530">
		<path
   style="fill:#ffffff"
   inkscape:connector-curvature="0"
   id="path532"
   d="m 43.078,10.166 h -0.4 c -0.08,0 -0.125,-0.035 -0.125,-0.125 0,-0.09 0.045,-0.125 0.125,-0.125 h 0.396 c 0.031,0 0.066,0.002 0.098,0.016 l 1.218,0.478 c 0.063,0.025 0.11,0.047 0.11,0.125 0,0.078 -0.047,0.101 -0.11,0.125 l -1.218,0.479 c -0.03,0.013 -0.065,0.015 -0.098,0.015 h -0.396 c -0.08,0 -0.125,-0.035 -0.125,-0.125 0,-0.09 0.045,-0.125 0.125,-0.125 h 0.4 l 0.955,-0.368 -0.955,-0.37 z" />
		<path
   style="fill:#ffffff"
   inkscape:connector-curvature="0"
   id="path534"
   d="M 44.25,8.607 V 8.239 c 0,-0.064 0.033,-0.125 0.125,-0.125 0.09,0 0.125,0.061 0.125,0.125 V 9.225 C 44.5,9.289 44.465,9.35 44.375,9.35 44.283,9.35 44.25,9.289 44.25,9.225 V 8.857 h -1.447 v 0.368 c 0,0.064 -0.035,0.125 -0.125,0.125 -0.09,0 -0.125,-0.061 -0.125,-0.125 V 8.239 c 0,-0.064 0.035,-0.125 0.125,-0.125 0.09,0 0.125,0.061 0.125,0.125 v 0.368 h 1.447 z" />
		<path
   style="fill:#ffffff"
   inkscape:connector-curvature="0"
   id="path536"
   d="m 42.678,6.559 c -0.08,0 -0.125,-0.035 -0.125,-0.125 0,-0.09 0.045,-0.125 0.125,-0.125 H 44.5 V 6.64 L 43,7.292 h -0.002 v 0.005 h 1.377 c 0.08,0 0.125,0.035 0.125,0.125 0,0.091 -0.045,0.125 -0.125,0.125 H 42.553 V 7.218 l 1.52,-0.653 V 6.567 6.562 L 42.678,6.559 z" />
	</g><g
       id="g538">
		<path
   style="fill:#ffffff"
   inkscape:connector-curvature="0"
   id="path540"
   d="m 1.018,22.907 c 0,0.096 -0.042,0.149 -0.15,0.149 -0.108,0 -0.15,-0.054 -0.15,-0.149 v -2.188 h 1.01 c 0.238,0 0.475,0.168 0.475,0.437 v 0.208 c 0,0.283 -0.234,0.427 -0.475,0.427 H 1.451 l 0.676,0.968 c 0.033,0.045 0.075,0.104 0.075,0.16 0,0.084 -0.069,0.141 -0.153,0.141 -0.06,0 -0.099,-0.035 -0.132,-0.084 L 1.087,21.791 H 1.018 v 1.116 z m 0,-1.419 h 0.667 c 0.084,0 0.216,-0.006 0.216,-0.126 v -0.208 c 0,-0.12 -0.123,-0.135 -0.213,-0.135 h -0.67 v 0.469 z" />
		<path
   style="fill:#ffffff"
   inkscape:connector-curvature="0"
   id="path542"
   d="m 4.259,22.468 c 0.06,0.078 0.105,0.147 0.105,0.25 0,0.227 -0.171,0.34 -0.379,0.34 H 3.325 C 3.211,23.058 3.112,23.037 3.021,22.962 2.94,22.895 2.88,22.787 2.88,22.68 c 0,-0.096 0.054,-0.18 0.159,-0.18 0.087,0 0.141,0.072 0.141,0.153 0,0.09 0.048,0.102 0.132,0.102 h 0.652 c 0.024,0 0.099,0.009 0.099,-0.036 0,-0.023 -0.042,-0.068 -0.054,-0.087 L 2.978,21.306 C 2.916,21.227 2.88,21.166 2.88,21.061 c 0,-0.12 0.057,-0.223 0.159,-0.289 0.084,-0.055 0.153,-0.055 0.25,-0.055 h 0.637 c 0.114,0 0.21,0.024 0.298,0.101 0.078,0.068 0.141,0.18 0.141,0.285 0,0.096 -0.048,0.175 -0.156,0.175 -0.09,0 -0.145,-0.058 -0.145,-0.143 0,-0.102 -0.051,-0.116 -0.144,-0.116 H 3.283 c -0.033,0 -0.103,-0.01 -0.103,0.042 0,0.026 0.033,0.063 0.045,0.08 l 1.034,1.327 z" />
		<path
   style="fill:#ffffff"
   inkscape:connector-curvature="0"
   id="path544"
   d="m 5.343,21.019 v 0.107 c 0,0.096 -0.042,0.15 -0.15,0.15 -0.108,0 -0.15,-0.055 -0.15,-0.15 v -0.409 h 1.485 v 0.409 c 0,0.096 -0.042,0.15 -0.15,0.15 -0.108,0 -0.15,-0.055 -0.15,-0.15 V 21.019 H 5.935 v 1.888 c 0,0.096 -0.042,0.149 -0.15,0.149 -0.108,0 -0.15,-0.054 -0.15,-0.149 V 21.019 H 5.343 z" />
	</g><g
       id="g546">
		<path
   style="fill:#ffffff"
   inkscape:connector-curvature="0"
   id="path548"
   d="m 44.895,22.907 c 0,0.096 -0.042,0.149 -0.149,0.149 -0.107,0 -0.15,-0.054 -0.15,-0.149 v -2.188 h 1.01 c 0.238,0 0.477,0.168 0.477,0.437 v 0.208 c 0,0.283 -0.234,0.427 -0.477,0.427 H 45.33 l 0.676,0.968 c 0.033,0.045 0.074,0.104 0.074,0.16 0,0.084 -0.068,0.141 -0.152,0.141 -0.061,0 -0.1,-0.035 -0.133,-0.084 l -0.829,-1.185 h -0.069 l -0.002,1.116 0,0 z m 0,-1.419 h 0.668 c 0.084,0 0.216,-0.006 0.216,-0.126 v -0.208 c 0,-0.12 -0.123,-0.135 -0.214,-0.135 h -0.67 v 0.469 z" />
		<path
   style="fill:#ffffff"
   inkscape:connector-curvature="0"
   id="path550"
   d="m 48.137,22.468 c 0.062,0.078 0.104,0.147 0.104,0.25 0,0.227 -0.172,0.34 -0.379,0.34 H 47.2 c -0.113,0 -0.213,-0.021 -0.303,-0.096 -0.082,-0.065 -0.143,-0.174 -0.143,-0.28 0,-0.096 0.055,-0.18 0.16,-0.18 0.086,0 0.141,0.072 0.141,0.153 0,0.09 0.049,0.102 0.133,0.102 h 0.652 c 0.023,0 0.1,0.009 0.1,-0.036 0,-0.023 -0.043,-0.068 -0.055,-0.087 l -1.031,-1.326 c -0.063,-0.08 -0.1,-0.141 -0.1,-0.246 0,-0.12 0.059,-0.223 0.16,-0.289 0.084,-0.055 0.152,-0.055 0.25,-0.055 h 0.637 c 0.113,0 0.211,0.024 0.297,0.101 0.079,0.068 0.143,0.18 0.143,0.285 0,0.096 -0.049,0.175 -0.156,0.175 -0.09,0 -0.145,-0.058 -0.145,-0.143 0,-0.102 -0.051,-0.116 -0.145,-0.116 H 47.16 c -0.033,0 -0.104,-0.01 -0.104,0.042 0,0.026 0.032,0.063 0.046,0.08 l 1.035,1.326 z" />
		<path
   style="fill:#ffffff"
   inkscape:connector-curvature="0"
   id="path552"
   d="m 49.22,21.019 v 0.107 c 0,0.096 -0.042,0.15 -0.15,0.15 -0.107,0 -0.148,-0.055 -0.148,-0.15 v -0.409 h 1.483 v 0.409 c 0,0.096 -0.042,0.15 -0.149,0.15 -0.108,0 -0.15,-0.055 -0.15,-0.15 v -0.107 h -0.291 v 1.888 c 0,0.096 -0.043,0.149 -0.15,0.149 -0.107,0 -0.149,-0.054 -0.149,-0.149 V 21.019 H 49.22 z" />
	</g><g
       id="g554">
		<path
   style="fill:#ffffff"
   inkscape:connector-curvature="0"
   id="path556"
   d="m 45.488,15.085 c -0.078,0 -0.15,-0.042 -0.15,-0.149 0,-0.108 0.072,-0.15 0.15,-0.15 h 0.592 v 0.592 c 0,0.292 -0.194,0.473 -0.48,0.473 h -0.518 c -0.137,0 -0.24,-0.024 -0.346,-0.12 -0.119,-0.108 -0.142,-0.221 -0.142,-0.37 v -0.752 c 0,-0.192 0.043,-0.292 0.155,-0.438 l 0.355,-0.454 c 0.119,-0.152 0.225,-0.205 0.42,-0.205 h 0.403 c 0.077,0 0.149,0.042 0.149,0.15 0,0.108 -0.072,0.15 -0.149,0.15 h -0.36 c -0.166,0 -0.154,-0.003 -0.253,0.123 l -0.325,0.418 c -0.095,0.116 -0.095,0.243 -0.095,0.391 v 0.589 c 0,0.166 0.036,0.216 0.207,0.216 h 0.479 c 0.107,0 0.197,-0.023 0.197,-0.155 v -0.308 l -0.289,-10e-4 0,0 z" />
		<path
   style="fill:#ffffff"
   inkscape:connector-curvature="0"
   id="path558"
   d="m 47.944,13.663 c 0,-0.096 0.044,-0.149 0.15,-0.149 0.108,0 0.149,0.054 0.149,0.149 v 2.188 h -0.396 l -0.784,-1.805 v -0.003 h -0.007 v 1.653 c 0,0.096 -0.041,0.15 -0.149,0.15 -0.107,0 -0.149,-0.055 -0.149,-0.15 v -2.188 h 0.396 l 0.784,1.825 h -0.002 0.006 l 0.002,-1.67 z" />
		<path
   style="fill:#ffffff"
   inkscape:connector-curvature="0"
   id="path560"
   d="m 49.214,13.81 h -0.111 c -0.1,0 -0.184,-0.036 -0.184,-0.15 0,-0.108 0.08,-0.15 0.175,-0.15 h 0.502 c 0.233,0 0.353,0.097 0.452,0.302 l 0.267,0.528 c 0.06,0.123 0.09,0.21 0.09,0.35 0,0.12 -0.032,0.222 -0.088,0.331 l -0.272,0.547 c -0.104,0.213 -0.24,0.283 -0.476,0.283 H 49.07 c -0.078,0 -0.148,-0.042 -0.148,-0.15 0,-0.108 0.07,-0.15 0.148,-0.15 h 0.145 V 13.81 l -0.001,0 z m 0.301,1.738 h 0.059 c 0.125,0 0.155,-0.015 0.209,-0.126 l 0.266,-0.535 c 0.033,-0.068 0.057,-0.119 0.057,-0.194 0,-0.103 -0.033,-0.159 -0.075,-0.247 l -0.249,-0.508 c -0.063,-0.129 -0.09,-0.126 -0.229,-0.126 h -0.036 l -0.002,1.736 0,0 z" />
	</g><g
       id="g562">
		<path
   style="fill:#ffffff"
   inkscape:connector-curvature="0"
   id="path564"
   d="m 45.186,28.499 c 0,-0.096 0.043,-0.15 0.149,-0.15 0.109,0 0.15,0.055 0.15,0.15 v 0.448 h 0.442 c 0.077,0 0.149,0.042 0.149,0.149 0,0.108 -0.071,0.15 -0.149,0.15 h -0.442 v 0.441 c 0,0.097 -0.041,0.15 -0.15,0.15 -0.106,0 -0.149,-0.054 -0.149,-0.15 v -0.441 h -0.44 c -0.078,0 -0.15,-0.042 -0.15,-0.15 0,-0.107 0.072,-0.149 0.15,-0.149 h 0.44 v -0.448 z" />
		<path
   style="fill:#ffffff"
   inkscape:connector-curvature="0"
   id="path566"
   d="m 47.356,28.947 h 0.554 c 0.096,0 0.168,0.015 0.239,0.084 0.084,0.078 0.095,0.149 0.095,0.255 v 0.643 c 0,0.093 -0.011,0.16 -0.072,0.235 -0.076,0.09 -0.154,0.102 -0.262,0.102 h -0.668 c -0.078,0 -0.123,-0.021 -0.197,-0.054 L 46.93,30.161 c -0.081,-0.036 -0.171,-0.063 -0.171,-0.168 0,-0.078 0.065,-0.15 0.144,-0.15 0.037,0 0.063,0.009 0.098,0.024 l 0.09,0.039 c 0.041,0.018 0.111,0.06 0.158,0.06 h 0.695 v -0.718 h -0.887 v -1.32 h 1.037 c 0.078,0 0.15,0.042 0.15,0.15 0,0.107 -0.072,0.149 -0.15,0.149 h -0.736 l -0.002,0.72 0,0 z" />
		<path
   style="fill:#ffffff"
   inkscape:connector-curvature="0"
   id="path568"
   d="m 50.104,28.558 v -0.48 c 0,-0.096 0.042,-0.15 0.149,-0.15 0.108,0 0.15,0.055 0.15,0.15 v 0.475 c 0,0.039 -0.003,0.081 -0.018,0.117 l -0.574,1.464 c -0.031,0.075 -0.059,0.132 -0.15,0.132 -0.094,0 -0.121,-0.057 -0.149,-0.132 L 48.938,28.67 c -0.017,-0.036 -0.019,-0.078 -0.019,-0.117 v -0.475 c 0,-0.096 0.041,-0.15 0.149,-0.15 0.108,0 0.15,0.055 0.15,0.15 v 0.48 l 0.442,1.148 0.444,-1.148 z" />
	</g><g
       id="g570">
		<path
   style="fill:#ffffff"
   inkscape:connector-curvature="0"
   id="path572"
   d="m 46.264,35.29 c 0.024,-0.081 0.058,-0.153 0.153,-0.153 0.1,0 0.136,0.075 0.156,0.153 l 0.58,2.035 c 0.021,0.071 -0.061,0.149 -0.145,0.149 -0.094,0 -0.141,-0.078 -0.162,-0.149 l -0.111,-0.361 h -0.641 l -0.113,0.361 c -0.021,0.071 -0.07,0.149 -0.162,0.149 -0.084,0 -0.166,-0.078 -0.145,-0.149 l 0.59,-2.035 z m 0.155,0.558 h -0.006 l -0.233,0.815 h 0.474 l -0.235,-0.815 z" />
		<path
   style="fill:#ffffff"
   inkscape:connector-curvature="0"
   id="path574"
   d="m 49.022,35.135 c 0.166,0 0.302,0.135 0.302,0.301 v 1.737 c 0,0.168 -0.13,0.301 -0.302,0.301 h -0.883 c -0.172,0 -0.302,-0.132 -0.302,-0.301 v -1.737 c 0,-0.166 0.136,-0.301 0.302,-0.301 h 0.883 z m 0,2.04 v -1.737 h -0.883 v 1.737 h 0.883 z" />
	</g><g
       id="g576">
		<path
   style="fill:#ffffff"
   inkscape:connector-curvature="0"
   id="path578"
   d="m 46.264,42.499 c 0.024,-0.081 0.058,-0.153 0.153,-0.153 0.1,0 0.136,0.075 0.156,0.153 l 0.58,2.034 c 0.021,0.072 -0.061,0.15 -0.145,0.15 -0.094,0 -0.141,-0.078 -0.162,-0.15 l -0.111,-0.36 h -0.641 l -0.113,0.36 c -0.021,0.072 -0.07,0.15 -0.162,0.15 -0.084,0 -0.166,-0.078 -0.145,-0.15 l 0.59,-2.034 z m 0.155,0.558 h -0.006 l -0.233,0.815 h 0.474 l -0.235,-0.815 z" />
		<path
   style="fill:#ffffff"
   inkscape:connector-curvature="0"
   id="path580"
   d="m 49.022,44.384 v -0.607 c 0,-0.087 0.039,-0.149 0.149,-0.149 0.111,0 0.15,0.063 0.15,0.149 v 0.757 c 0,0.108 -0.072,0.15 -0.15,0.15 H 47.99 c -0.078,0 -0.15,-0.042 -0.15,-0.15 0,-0.107 0.072,-0.149 0.15,-0.149 h 0.44 v -1.737 h -0.44 c -0.078,0 -0.15,-0.042 -0.15,-0.149 0,-0.108 0.072,-0.15 0.15,-0.15 h 0.741 v 2.038 l 0.291,-0.003 0,0 z" />
	</g><g
       id="g582">
		<path
   style="fill:#ffffff"
   inkscape:connector-curvature="0"
   id="path584"
   d="m 46.264,49.708 c 0.024,-0.081 0.058,-0.153 0.153,-0.153 0.1,0 0.136,0.075 0.156,0.153 l 0.58,2.034 c 0.021,0.072 -0.061,0.15 -0.145,0.15 -0.094,0 -0.141,-0.078 -0.162,-0.15 l -0.111,-0.36 h -0.641 l -0.113,0.36 c -0.021,0.072 -0.07,0.15 -0.162,0.15 -0.084,0 -0.166,-0.078 -0.145,-0.15 l 0.59,-2.034 z m 0.155,0.558 H 46.413 L 46.18,51.08 h 0.474 l -0.235,-0.814 z" />
		<path
   style="fill:#ffffff"
   inkscape:connector-curvature="0"
   id="path586"
   d="m 48.139,51.593 h 1.032 c 0.078,0 0.15,0.042 0.15,0.149 0,0.108 -0.072,0.15 -0.15,0.15 h -1.334 v -0.98 c 0,-0.226 0.115,-0.34 0.341,-0.34 h 0.844 V 49.854 H 47.99 c -0.078,0 -0.15,-0.042 -0.15,-0.15 0,-0.107 0.072,-0.149 0.15,-0.149 h 0.997 c 0.101,0 0.169,0.015 0.243,0.084 0.084,0.078 0.094,0.159 0.094,0.268 v 0.616 c 0,0.108 -0.01,0.189 -0.094,0.268 -0.074,0.069 -0.145,0.084 -0.243,0.084 h -0.848 v 0.718 z" />
	</g><g
       id="g588">
		<path
   style="fill:#ffffff"
   inkscape:connector-curvature="0"
   id="path590"
   d="m 46.264,56.916 c 0.024,-0.081 0.058,-0.152 0.153,-0.152 0.1,0 0.136,0.075 0.156,0.152 l 0.58,2.035 c 0.021,0.072 -0.061,0.15 -0.145,0.15 -0.094,0 -0.141,-0.078 -0.162,-0.15 l -0.111,-0.36 h -0.641 l -0.113,0.36 c -0.021,0.072 -0.07,0.15 -0.162,0.15 -0.084,0 -0.166,-0.078 -0.145,-0.15 l 0.59,-2.035 z m 0.155,0.559 H 46.413 L 46.18,58.29 h 0.474 l -0.235,-0.815 z" />
		<path
   style="fill:#ffffff"
   inkscape:connector-curvature="0"
   id="path592"
   d="m 47.99,57.063 c -0.078,0 -0.15,-0.042 -0.15,-0.15 0,-0.107 0.072,-0.149 0.15,-0.149 h 1.032 c 0.172,0 0.302,0.129 0.302,0.301 v 0.577 c 0,0.12 -0.023,0.208 -0.117,0.292 0.094,0.084 0.117,0.171 0.117,0.292 v 0.577 c 0,0.171 -0.13,0.301 -0.302,0.301 H 47.99 c -0.078,0 -0.15,-0.042 -0.15,-0.15 0,-0.107 0.072,-0.149 0.15,-0.149 h 1.032 v -0.499 c 0,-0.168 -0.065,-0.22 -0.149,-0.22 h -0.588 c -0.078,0 -0.15,-0.042 -0.15,-0.149 0,-0.108 0.072,-0.15 0.15,-0.15 h 0.588 c 0.084,0 0.149,-0.051 0.149,-0.219 V 57.069 H 47.99 v -0.006 z" />
	</g><g
       id="g594">
		<path
   style="fill:#ffffff"
   inkscape:connector-curvature="0"
   id="path596"
   d="m 46.264,64.125 c 0.024,-0.081 0.058,-0.152 0.153,-0.152 0.1,0 0.136,0.074 0.156,0.152 l 0.58,2.035 c 0.021,0.072 -0.061,0.15 -0.145,0.15 -0.094,0 -0.141,-0.078 -0.162,-0.15 l -0.111,-0.361 h -0.641 l -0.113,0.361 c -0.021,0.072 -0.07,0.15 -0.162,0.15 -0.084,0 -0.166,-0.078 -0.145,-0.15 l 0.59,-2.035 z m 0.155,0.559 h -0.006 l -0.233,0.814 h 0.474 l -0.235,-0.814 z" />
		<path
   style="fill:#ffffff"
   inkscape:connector-curvature="0"
   id="path598"
   d="m 48.873,65.246 v -0.869 c 0,-0.075 0.037,-0.149 0.149,-0.149 0.115,0 0.149,0.074 0.149,0.149 v 0.869 c 0.078,0 0.15,0.042 0.15,0.15 0,0.107 -0.072,0.149 -0.15,0.149 v 0.613 c 0,0.096 -0.041,0.15 -0.149,0.15 -0.106,0 -0.149,-0.056 -0.149,-0.15 V 65.545 H 47.99 V 64.12 c 0,-0.075 0.034,-0.149 0.149,-0.149 0.112,0 0.149,0.074 0.149,0.149 v 1.125 h 0.585 z" />
	</g><g
       id="g600">
		<path
   style="fill:#ffffff"
   inkscape:connector-curvature="0"
   id="path602"
   d="m 46.264,71.334 c 0.024,-0.081 0.058,-0.153 0.153,-0.153 0.1,0 0.136,0.075 0.156,0.153 l 0.58,2.035 c 0.021,0.072 -0.061,0.15 -0.145,0.15 -0.094,0 -0.141,-0.078 -0.162,-0.15 l -0.111,-0.361 h -0.641 l -0.113,0.361 c -0.021,0.072 -0.07,0.15 -0.162,0.15 -0.084,0 -0.166,-0.078 -0.145,-0.15 l 0.59,-2.035 z m 0.155,0.557 h -0.006 l -0.233,0.815 h 0.474 l -0.235,-0.815 z" />
		<path
   style="fill:#ffffff"
   inkscape:connector-curvature="0"
   id="path604"
   d="m 48.436,72.199 h 0.554 c 0.098,0 0.168,0.016 0.24,0.085 0.084,0.078 0.094,0.149 0.094,0.255 v 0.644 c 0,0.094 -0.01,0.159 -0.072,0.235 -0.074,0.09 -0.152,0.103 -0.262,0.103 h -0.666 c -0.078,0 -0.125,-0.021 -0.199,-0.056 L 48.012,73.414 C 47.93,73.379 47.84,73.352 47.84,73.246 c 0,-0.078 0.066,-0.15 0.145,-0.15 0.035,0 0.063,0.01 0.096,0.023 l 0.09,0.039 c 0.043,0.019 0.111,0.061 0.16,0.061 h 0.693 V 72.5 h -0.887 v -1.32 h 1.037 c 0.078,0 0.15,0.042 0.15,0.15 0,0.108 -0.072,0.15 -0.15,0.15 h -0.736 l -0.002,0.719 0,0 z" />
	</g><g
       id="g606">
		<path
   style="fill:#ffffff"
   inkscape:connector-curvature="0"
   id="path608"
   d="m 46.264,78.543 c 0.024,-0.081 0.058,-0.153 0.153,-0.153 0.1,0 0.136,0.075 0.156,0.153 l 0.58,2.035 c 0.021,0.072 -0.061,0.149 -0.145,0.149 -0.094,0 -0.141,-0.077 -0.162,-0.149 l -0.111,-0.361 h -0.641 l -0.113,0.361 c -0.021,0.072 -0.07,0.149 -0.162,0.149 -0.084,0 -0.166,-0.077 -0.145,-0.149 l 0.59,-2.035 z m 0.155,0.557 h -0.006 l -0.233,0.815 h 0.474 L 46.419,79.1 z" />
		<path
   style="fill:#ffffff"
   inkscape:connector-curvature="0"
   id="path610"
   d="m 48.139,79.664 h 1.004 c 0.149,0 0.181,0.063 0.181,0.201 v 0.674 c 0,0.142 -0.061,0.188 -0.195,0.188 h -1.094 c -0.143,0 -0.195,-0.051 -0.195,-0.188 V 78.54 c 0,-0.069 0.023,-0.15 0.129,-0.15 h 0.181 c 0.078,0 0.142,0.072 0.142,0.15 0,0.091 -0.063,0.15 -0.149,0.15 v 0.974 h -0.004 z m 0,0.301 v 0.463 h 0.883 v -0.463 h -0.883 z" />
	</g><g
       id="g612">
		<path
   style="fill:#ffffff"
   inkscape:connector-curvature="0"
   id="path614"
   d="m 46.264,85.752 c 0.024,-0.081 0.058,-0.153 0.153,-0.153 0.1,0 0.136,0.075 0.156,0.153 l 0.58,2.035 c 0.021,0.071 -0.061,0.149 -0.145,0.149 -0.094,0 -0.141,-0.078 -0.162,-0.149 l -0.111,-0.36 h -0.641 l -0.113,0.36 c -0.021,0.071 -0.07,0.149 -0.162,0.149 -0.084,0 -0.166,-0.078 -0.145,-0.149 l 0.59,-2.035 z m 0.155,0.558 h -0.006 l -0.233,0.814 h 0.474 L 46.419,86.31 z" />
		<path
   style="fill:#ffffff"
   inkscape:connector-curvature="0"
   id="path616"
   d="m 48.139,85.898 c 0,0.066 -0.056,0.15 -0.149,0.15 -0.098,0 -0.15,-0.084 -0.15,-0.15 v -0.149 c 0,-0.065 0.054,-0.15 0.15,-0.15 h 1.334 v 0.872 c 0,0.105 0.004,0.117 -0.08,0.189 l -0.423,0.362 c -0.077,0.069 -0.084,0.075 -0.084,0.182 v 0.583 c 0,0.097 -0.042,0.149 -0.149,0.149 -0.107,0 -0.15,-0.054 -0.15,-0.149 v -0.725 c 0,-0.1 0.004,-0.107 0.078,-0.175 l 0.415,-0.356 c 0.101,-0.089 0.093,-0.085 0.093,-0.218 v -0.415 h -0.885 z" />
	</g><g
       id="g618">
		<path
   style="fill:#ffffff"
   inkscape:connector-curvature="0"
   id="path620"
   d="m 44.667,93.327 c 0.021,-0.067 0.048,-0.129 0.127,-0.129 0.082,0 0.113,0.063 0.13,0.129 l 0.483,1.693 c 0.019,0.062 -0.051,0.125 -0.121,0.125 -0.076,0 -0.117,-0.063 -0.135,-0.125 L 45.058,94.719 H 44.526 L 44.43,95.02 c -0.018,0.062 -0.059,0.125 -0.135,0.125 -0.07,0 -0.139,-0.063 -0.121,-0.125 l 0.493,-1.693 z m 0.13,0.466 h -0.005 l -0.195,0.678 h 0.395 l -0.195,-0.678 z" />
		<path
   style="fill:#ffffff"
   inkscape:connector-curvature="0"
   id="path622"
   d="m 46.229,95.02 c 0,0.08 -0.034,0.125 -0.125,0.125 -0.09,0 -0.125,-0.045 -0.125,-0.125 v -1.822 h 0.841 c 0.198,0 0.396,0.142 0.396,0.363 v 0.173 c 0,0.235 -0.195,0.354 -0.396,0.354 h -0.229 l 0.563,0.807 c 0.026,0.037 0.061,0.085 0.061,0.133 0,0.07 -0.057,0.117 -0.127,0.117 -0.051,0 -0.084,-0.03 -0.11,-0.07 L 46.29,94.09 h -0.06 v 0.93 z m 0,-1.18 h 0.556 c 0.07,0 0.182,-0.005 0.182,-0.104 v -0.173 c 0,-0.1 -0.104,-0.113 -0.178,-0.113 h -0.56 v 0.39 z" />
		<path
   style="fill:#ffffff"
   inkscape:connector-curvature="0"
   id="path624"
   d="m 48.893,94.895 c 0.063,0 0.125,0.035 0.125,0.125 0,0.09 -0.062,0.125 -0.125,0.125 h -1.11 v -1.947 h 1.11 c 0.063,0 0.125,0.035 0.125,0.125 0,0.092 -0.062,0.125 -0.125,0.125 h -0.86 v 0.6 h 0.366 c 0.065,0 0.125,0.035 0.125,0.125 0,0.091 -0.06,0.126 -0.125,0.126 h -0.366 v 0.598 l 0.86,-0.002 0,0 z" />
		<path
   style="fill:#ffffff"
   inkscape:connector-curvature="0"
   id="path626"
   d="m 49.583,93.198 h 1.11 c 0.065,0 0.125,0.035 0.125,0.125 0,0.092 -0.06,0.125 -0.125,0.125 h -0.86 v 0.387 h 0.615 c 0.064,0 0.125,0.035 0.125,0.126 0,0.09 -0.061,0.125 -0.125,0.125 h -0.615 v 0.936 c 0,0.08 -0.035,0.125 -0.125,0.125 -0.09,0 -0.125,-0.045 -0.125,-0.125 v -1.824 z" />
	</g><g
       id="g628">
		<path
   style="fill:#ffffff"
   inkscape:connector-curvature="0"
   id="path630"
   d="m 44.986,100.316 c -0.078,0 -0.15,-0.042 -0.15,-0.149 0,-0.108 0.072,-0.15 0.15,-0.15 h 1.032 c 0.172,0 0.302,0.13 0.302,0.301 v 0.577 c 0,0.12 -0.023,0.207 -0.117,0.291 0.094,0.085 0.117,0.172 0.117,0.292 v 0.577 c 0,0.172 -0.13,0.301 -0.302,0.301 h -1.032 c -0.078,0 -0.15,-0.042 -0.15,-0.15 0,-0.106 0.072,-0.149 0.15,-0.149 h 1.032 v -0.499 c 0,-0.168 -0.065,-0.22 -0.149,-0.22 h -0.588 c -0.078,0 -0.15,-0.041 -0.15,-0.15 0,-0.107 0.072,-0.15 0.15,-0.15 h 0.588 c 0.084,0 0.149,-0.051 0.149,-0.219 v -0.499 h -1.032 v -0.004 z" />
		<path
   style="fill:#ffffff"
   inkscape:connector-curvature="0"
   id="path632"
   d="m 48.181,100.647 v -0.48 c 0,-0.098 0.042,-0.15 0.15,-0.15 0.107,0 0.149,0.054 0.149,0.15 v 0.476 c 0,0.039 -0.003,0.08 -0.019,0.117 l -0.574,1.463 c -0.029,0.076 -0.057,0.133 -0.15,0.133 -0.093,0 -0.119,-0.057 -0.15,-0.133 l -0.572,-1.463 c -0.016,-0.037 -0.02,-0.078 -0.02,-0.117 v -0.476 c 0,-0.098 0.043,-0.15 0.15,-0.15 0.107,0 0.15,0.054 0.15,0.15 v 0.48 l 0.441,1.148 0.445,-1.148 z" />
		<path
   style="fill:#ffffff"
   inkscape:connector-curvature="0"
   id="path634"
   d="m 49.309,100.316 c -0.078,0 -0.149,-0.042 -0.149,-0.149 0,-0.108 0.071,-0.15 0.149,-0.15 h 1.035 c 0.171,0 0.301,0.13 0.301,0.301 v 0.577 c 0,0.12 -0.024,0.207 -0.117,0.291 0.093,0.085 0.117,0.172 0.117,0.292 v 0.577 c 0,0.172 -0.13,0.301 -0.301,0.301 h -1.035 c -0.078,0 -0.149,-0.042 -0.149,-0.15 0,-0.106 0.071,-0.149 0.149,-0.149 h 1.035 v -0.499 c 0,-0.168 -0.066,-0.22 -0.15,-0.22 h -0.59 c -0.078,0 -0.149,-0.041 -0.149,-0.15 0,-0.107 0.071,-0.15 0.149,-0.15 h 0.59 c 0.084,0 0.15,-0.051 0.15,-0.219 v -0.499 h -1.035 v -0.004 z" />
	</g><g
       id="g636">
		<path
   style="fill:#ffffff"
   inkscape:connector-curvature="0"
   id="path638"
   d="m 44.889,107.524 h -0.11 c -0.101,0 -0.185,-0.036 -0.185,-0.15 0,-0.106 0.082,-0.149 0.175,-0.149 h 0.502 c 0.234,0 0.352,0.096 0.454,0.301 l 0.265,0.529 c 0.061,0.123 0.09,0.21 0.09,0.349 0,0.12 -0.033,0.222 -0.086,0.331 l -0.273,0.547 c -0.105,0.213 -0.24,0.282 -0.477,0.282 h -0.498 c -0.078,0 -0.15,-0.042 -0.15,-0.15 0,-0.107 0.072,-0.149 0.15,-0.149 h 0.145 l -0.002,-1.741 0,0 z m 0.301,1.737 h 0.058 c 0.127,0 0.156,-0.016 0.211,-0.126 l 0.264,-0.535 c 0.033,-0.069 0.059,-0.12 0.059,-0.195 0,-0.102 -0.033,-0.159 -0.076,-0.246 l -0.25,-0.508 c -0.062,-0.13 -0.09,-0.127 -0.229,-0.127 h -0.035 l -0.002,1.737 0,0 z" />
		<path
   style="fill:#ffffff"
   inkscape:connector-curvature="0"
   id="path640"
   d="m 47.942,109.261 v -0.606 c 0,-0.088 0.039,-0.15 0.15,-0.15 0.11,0 0.149,0.063 0.149,0.15 v 0.757 c 0,0.108 -0.072,0.15 -0.149,0.15 h -1.187 c -0.078,0 -0.148,-0.042 -0.148,-0.15 0,-0.107 0.07,-0.149 0.148,-0.149 h 0.442 v -1.737 h -0.442 c -0.078,0 -0.148,-0.042 -0.148,-0.15 0,-0.106 0.07,-0.149 0.148,-0.149 h 0.743 v 2.038 h 0.293 v -0.004 z" />
		<path
   style="fill:#ffffff"
   inkscape:connector-curvature="0"
   id="path642"
   d="m 49.07,107.524 c -0.078,0 -0.148,-0.042 -0.148,-0.15 0,-0.106 0.07,-0.149 0.148,-0.149 h 1.034 c 0.172,0 0.301,0.129 0.301,0.301 v 0.577 c 0,0.12 -0.022,0.208 -0.116,0.292 0.094,0.084 0.116,0.171 0.116,0.291 v 0.577 c 0,0.171 -0.129,0.301 -0.301,0.301 H 49.07 c -0.078,0 -0.148,-0.042 -0.148,-0.15 0,-0.107 0.07,-0.149 0.148,-0.149 h 1.034 v -0.499 c 0,-0.168 -0.065,-0.22 -0.149,-0.22 h -0.59 c -0.078,0 -0.15,-0.043 -0.15,-0.149 0,-0.108 0.072,-0.15 0.15,-0.15 h 0.59 c 0.084,0 0.149,-0.051 0.149,-0.22 v -0.499 H 49.07 v -0.004 z" />
	</g><g
       id="g644">
		<path
   style="fill:#ffffff"
   inkscape:connector-curvature="0"
   id="path646"
   d="m 1.61,29.503 c -0.078,0 -0.15,-0.042 -0.15,-0.15 0,-0.107 0.072,-0.149 0.15,-0.149 h 0.592 v 0.592 c 0,0.292 -0.195,0.472 -0.481,0.472 H 1.204 c -0.138,0 -0.241,-0.023 -0.346,-0.12 -0.12,-0.107 -0.141,-0.22 -0.141,-0.369 v -0.752 c 0,-0.192 0.042,-0.292 0.156,-0.438 L 1.227,28.135 C 1.347,27.982 1.453,27.93 1.648,27.93 h 0.403 c 0.078,0 0.15,0.042 0.15,0.15 0,0.107 -0.072,0.149 -0.15,0.149 h -0.36 c -0.165,0 -0.153,-0.003 -0.252,0.123 L 1.111,28.77 c -0.093,0.117 -0.093,0.244 -0.093,0.392 v 0.589 c 0,0.166 0.036,0.216 0.208,0.216 h 0.478 c 0.108,0 0.198,-0.024 0.198,-0.156 v -0.307 l -0.292,-0.001 0,0 z" />
		<path
   style="fill:#ffffff"
   inkscape:connector-curvature="0"
   id="path648"
   d="m 4.067,28.081 c 0,-0.096 0.042,-0.15 0.15,-0.15 0.108,0 0.15,0.055 0.15,0.15 v 2.188 H 3.971 L 3.187,28.465 V 28.462 H 3.18 v 1.653 c 0,0.096 -0.042,0.149 -0.15,0.149 -0.108,0 -0.15,-0.054 -0.15,-0.149 v -2.188 h 0.396 l 0.785,1.825 H 4.058 4.064 l 0.003,-1.671 z" />
		<path
   style="fill:#ffffff"
   inkscape:connector-curvature="0"
   id="path650"
   d="M 5.337,28.227 H 5.226 c -0.099,0 -0.183,-0.035 -0.183,-0.149 0,-0.108 0.081,-0.15 0.174,-0.15 h 0.502 c 0.234,0 0.352,0.097 0.454,0.301 l 0.265,0.529 c 0.06,0.123 0.09,0.21 0.09,0.349 0,0.12 -0.033,0.223 -0.087,0.331 l -0.273,0.548 c -0.105,0.213 -0.24,0.282 -0.475,0.282 H 5.192 c -0.078,0 -0.15,-0.042 -0.15,-0.149 0,-0.108 0.072,-0.15 0.15,-0.15 h 0.145 v -1.742 z m 0.301,1.739 h 0.057 c 0.126,0 0.156,-0.015 0.21,-0.126 l 0.264,-0.535 c 0.033,-0.068 0.057,-0.12 0.057,-0.194 0,-0.103 -0.033,-0.159 -0.075,-0.247 L 5.901,28.355 C 5.838,28.226 5.811,28.229 5.672,28.229 H 5.638 v 1.737 z" />
	</g><g
       id="g652">
		<path
   style="fill:#ffffff"
   inkscape:connector-curvature="0"
   id="path654"
   d="M 2.093,35.436 H 1.981 c -0.099,0 -0.183,-0.036 -0.183,-0.149 0,-0.108 0.081,-0.15 0.174,-0.15 h 0.502 c 0.234,0 0.352,0.096 0.454,0.301 l 0.265,0.529 c 0.06,0.123 0.09,0.21 0.09,0.349 0,0.12 -0.033,0.223 -0.087,0.331 l -0.273,0.547 c -0.105,0.214 -0.24,0.283 -0.475,0.283 h -0.5 c -0.078,0 -0.15,-0.042 -0.15,-0.149 0,-0.108 0.072,-0.15 0.15,-0.15 h 0.145 v -1.742 z m 0.301,1.739 h 0.057 c 0.126,0 0.156,-0.015 0.21,-0.126 l 0.264,-0.535 c 0.033,-0.069 0.057,-0.12 0.057,-0.195 0,-0.102 -0.033,-0.158 -0.075,-0.246 L 2.657,35.564 C 2.594,35.435 2.567,35.438 2.428,35.438 H 2.394 v 1.737 z" />
		<path
   style="fill:#ffffff"
   inkscape:connector-curvature="0"
   id="path656"
   d="m 4.261,37.175 h 1.034 c 0.078,0 0.15,0.042 0.15,0.15 0,0.107 -0.072,0.149 -0.15,0.149 H 3.961 v -0.979 c 0,-0.227 0.114,-0.34 0.339,-0.34 H 5.145 V 35.436 H 4.111 c -0.078,0 -0.15,-0.042 -0.15,-0.149 0,-0.108 0.072,-0.15 0.15,-0.15 h 0.998 c 0.099,0 0.168,0.015 0.244,0.084 0.084,0.078 0.093,0.159 0.093,0.269 v 0.615 c 0,0.108 -0.009,0.189 -0.093,0.269 -0.075,0.068 -0.145,0.084 -0.244,0.084 H 4.261 v 0.717 z" />
	</g><g
       id="g658">
		<path
   style="fill:#ffffff"
   inkscape:connector-curvature="0"
   id="path660"
   d="M 2.093,42.645 H 1.981 c -0.099,0 -0.183,-0.036 -0.183,-0.149 0,-0.108 0.081,-0.15 0.174,-0.15 h 0.502 c 0.234,0 0.352,0.096 0.454,0.301 l 0.265,0.529 c 0.06,0.123 0.09,0.21 0.09,0.349 0,0.12 -0.033,0.223 -0.087,0.331 l -0.273,0.547 c -0.105,0.213 -0.24,0.283 -0.475,0.283 h -0.5 c -0.078,0 -0.15,-0.042 -0.15,-0.15 0,-0.107 0.072,-0.149 0.15,-0.149 h 0.145 v -1.742 z m 0.301,1.739 h 0.057 c 0.126,0 0.156,-0.016 0.21,-0.126 l 0.264,-0.535 c 0.033,-0.069 0.057,-0.12 0.057,-0.195 0,-0.102 -0.033,-0.159 -0.075,-0.247 L 2.657,42.773 C 2.594,42.644 2.567,42.647 2.428,42.647 H 2.394 v 1.737 z" />
		<path
   style="fill:#ffffff"
   inkscape:connector-curvature="0"
   id="path662"
   d="m 4.111,42.645 c -0.078,0 -0.15,-0.042 -0.15,-0.149 0,-0.108 0.072,-0.15 0.15,-0.15 h 1.034 c 0.171,0 0.301,0.129 0.301,0.301 v 0.577 c 0,0.12 -0.024,0.208 -0.117,0.292 0.093,0.084 0.117,0.171 0.117,0.292 v 0.577 c 0,0.171 -0.129,0.301 -0.301,0.301 H 4.111 c -0.078,0 -0.15,-0.042 -0.15,-0.15 0,-0.107 0.072,-0.149 0.15,-0.149 h 1.034 v -0.499 c 0,-0.168 -0.066,-0.219 -0.15,-0.219 H 4.406 c -0.078,0 -0.15,-0.042 -0.15,-0.15 0,-0.108 0.072,-0.15 0.15,-0.15 h 0.589 c 0.084,0 0.15,-0.051 0.15,-0.219 V 42.651 H 4.111 v -0.006 z" />
	</g><g
       id="g664">
		<path
   style="fill:#ffffff"
   inkscape:connector-curvature="0"
   id="path666"
   d="M 2.093,49.854 H 1.981 c -0.099,0 -0.183,-0.036 -0.183,-0.15 0,-0.107 0.081,-0.149 0.174,-0.149 h 0.502 c 0.234,0 0.352,0.096 0.454,0.301 l 0.265,0.529 c 0.06,0.123 0.09,0.21 0.09,0.349 0,0.12 -0.033,0.222 -0.087,0.331 L 2.922,51.61 c -0.105,0.213 -0.24,0.283 -0.475,0.283 H 1.948 c -0.078,0 -0.15,-0.042 -0.15,-0.15 0,-0.107 0.072,-0.149 0.15,-0.149 h 0.145 v -1.74 z m 0.301,1.739 h 0.057 c 0.126,0 0.156,-0.016 0.21,-0.126 l 0.264,-0.535 c 0.033,-0.069 0.057,-0.12 0.057,-0.195 0,-0.102 -0.033,-0.159 -0.075,-0.247 L 2.657,49.982 C 2.594,49.853 2.567,49.856 2.428,49.856 H 2.394 v 1.737 z" />
		<path
   style="fill:#ffffff"
   inkscape:connector-curvature="0"
   id="path668"
   d="m 4.995,50.828 v -0.867 c 0,-0.075 0.036,-0.15 0.15,-0.15 0.114,0 0.15,0.075 0.15,0.15 v 0.868 c 0.078,0 0.15,0.042 0.15,0.15 0,0.108 -0.072,0.15 -0.15,0.15 v 0.612 c 0,0.097 -0.042,0.15 -0.15,0.15 -0.108,0 -0.15,-0.054 -0.15,-0.15 V 51.13 H 4.111 v -1.426 c 0,-0.074 0.036,-0.149 0.15,-0.149 0.114,0 0.15,0.075 0.15,0.149 v 1.125 l 0.584,-10e-4 0,0 z" />
	</g><g
       id="g670">
		<path
   style="fill:#ffffff"
   inkscape:connector-curvature="0"
   id="path672"
   d="M 2.093,57.063 H 1.981 c -0.099,0 -0.183,-0.036 -0.183,-0.15 0,-0.107 0.081,-0.149 0.174,-0.149 h 0.502 c 0.234,0 0.352,0.096 0.454,0.301 l 0.265,0.529 c 0.06,0.123 0.09,0.21 0.09,0.349 0,0.12 -0.033,0.222 -0.087,0.331 L 2.923,58.82 c -0.105,0.213 -0.24,0.283 -0.475,0.283 h -0.5 c -0.078,0 -0.15,-0.042 -0.15,-0.15 0,-0.107 0.072,-0.149 0.15,-0.149 h 0.145 v -1.741 z m 0.301,1.739 h 0.057 c 0.126,0 0.156,-0.016 0.21,-0.126 l 0.264,-0.535 c 0.033,-0.069 0.057,-0.12 0.057,-0.195 0,-0.102 -0.033,-0.159 -0.075,-0.247 L 2.657,57.191 C 2.594,57.062 2.567,57.065 2.428,57.065 H 2.394 v 1.737 z" />
		<path
   style="fill:#ffffff"
   inkscape:connector-curvature="0"
   id="path674"
   d="m 4.559,57.781 h 0.553 c 0.096,0 0.168,0.015 0.24,0.084 0.084,0.078 0.093,0.15 0.093,0.255 v 0.644 c 0,0.093 -0.009,0.16 -0.072,0.234 C 5.298,59.088 5.22,59.1 5.112,59.1 H 4.445 C 4.367,59.1 4.321,59.079 4.246,59.045 L 4.132,58.994 C 4.05,58.958 3.961,58.931 3.961,58.826 c 0,-0.078 0.066,-0.149 0.144,-0.149 0.036,0 0.063,0.009 0.096,0.023 l 0.09,0.039 C 4.333,58.758 4.402,58.8 4.45,58.8 H 5.144 V 58.081 H 4.258 v -1.319 h 1.037 c 0.078,0 0.15,0.042 0.15,0.149 0,0.108 -0.072,0.15 -0.15,0.15 H 4.559 v 0.72 z" />
	</g><g
       id="g676">
		<path
   style="fill:#ffffff"
   inkscape:connector-curvature="0"
   id="path678"
   d="M 2.093,64.272 H 1.981 c -0.099,0 -0.183,-0.036 -0.183,-0.15 0,-0.107 0.081,-0.149 0.174,-0.149 h 0.502 c 0.234,0 0.352,0.096 0.454,0.301 l 0.265,0.528 c 0.06,0.123 0.09,0.211 0.09,0.35 0,0.12 -0.033,0.222 -0.087,0.331 l -0.273,0.546 c -0.105,0.214 -0.24,0.283 -0.475,0.283 h -0.5 c -0.078,0 -0.15,-0.042 -0.15,-0.15 0,-0.107 0.072,-0.15 0.15,-0.15 h 0.145 v -1.74 z m 0.301,1.738 h 0.057 c 0.126,0 0.156,-0.015 0.21,-0.126 L 2.925,65.35 c 0.033,-0.069 0.057,-0.12 0.057,-0.195 0,-0.103 -0.033,-0.159 -0.075,-0.247 L 2.657,64.4 C 2.594,64.271 2.567,64.274 2.428,64.274 H 2.394 v 1.736 z" />
		<path
   style="fill:#ffffff"
   inkscape:connector-curvature="0"
   id="path680"
   d="m 4.261,65.246 h 1.004 c 0.15,0 0.181,0.063 0.181,0.201 v 0.673 c 0,0.142 -0.06,0.189 -0.195,0.189 H 4.156 c -0.142,0 -0.195,-0.052 -0.195,-0.189 v -1.999 c 0,-0.069 0.024,-0.149 0.129,-0.149 h 0.181 c 0.078,0 0.141,0.071 0.141,0.149 0,0.09 -0.063,0.15 -0.15,0.15 l -10e-4,0.975 0,0 z m 0,0.301 V 66.01 H 5.145 V 65.547 H 4.261 z" />
	</g><g
       id="g682">
		<path
   style="fill:#ffffff"
   inkscape:connector-curvature="0"
   id="path684"
   d="M 2.093,71.481 H 1.981 c -0.099,0 -0.183,-0.036 -0.183,-0.15 0,-0.108 0.081,-0.15 0.174,-0.15 h 0.502 c 0.234,0 0.352,0.098 0.454,0.302 l 0.265,0.528 c 0.06,0.123 0.09,0.21 0.09,0.35 0,0.12 -0.033,0.223 -0.087,0.33 l -0.273,0.547 c -0.105,0.214 -0.24,0.283 -0.475,0.283 h -0.5 c -0.078,0 -0.15,-0.042 -0.15,-0.15 0,-0.107 0.072,-0.15 0.15,-0.15 h 0.145 v -1.74 z m 0.301,1.738 h 0.057 c 0.126,0 0.156,-0.015 0.21,-0.126 L 2.925,72.558 C 2.958,72.49 2.982,72.439 2.982,72.364 2.982,72.26 2.949,72.205 2.907,72.117 L 2.657,71.609 C 2.594,71.48 2.567,71.483 2.428,71.483 H 2.394 v 1.736 z" />
		<path
   style="fill:#ffffff"
   inkscape:connector-curvature="0"
   id="path686"
   d="m 4.261,71.481 c 0,0.065 -0.054,0.149 -0.15,0.149 -0.096,0 -0.15,-0.084 -0.15,-0.149 v -0.15 c 0,-0.065 0.054,-0.15 0.15,-0.15 h 1.335 v 0.872 c 0,0.105 0.003,0.117 -0.081,0.189 L 4.944,72.605 C 4.866,72.673 4.86,72.679 4.86,72.786 v 0.583 c 0,0.096 -0.042,0.15 -0.15,0.15 -0.108,0 -0.15,-0.056 -0.15,-0.15 v -0.725 c 0,-0.101 0.003,-0.107 0.078,-0.175 l 0.415,-0.356 c 0.1,-0.088 0.093,-0.085 0.093,-0.217 V 71.481 H 4.261 z" />
	</g><g
       id="g688">
		<path
   style="fill:#ffffff"
   inkscape:connector-curvature="0"
   id="path690"
   d="M 2.093,78.69 H 1.981 c -0.099,0 -0.183,-0.036 -0.183,-0.15 0,-0.108 0.081,-0.15 0.174,-0.15 h 0.502 c 0.234,0 0.352,0.098 0.454,0.302 l 0.265,0.528 c 0.06,0.123 0.09,0.21 0.09,0.35 0,0.119 -0.033,0.223 -0.087,0.33 l -0.273,0.547 c -0.105,0.214 -0.24,0.282 -0.475,0.282 h -0.5 c -0.078,0 -0.15,-0.042 -0.15,-0.149 0,-0.107 0.072,-0.15 0.15,-0.15 h 0.145 v -1.74 z m 0.301,1.737 h 0.057 c 0.126,0 0.156,-0.015 0.21,-0.126 l 0.264,-0.535 c 0.033,-0.068 0.057,-0.12 0.057,-0.194 0,-0.104 -0.033,-0.159 -0.075,-0.247 L 2.657,78.817 C 2.594,78.687 2.567,78.691 2.428,78.691 H 2.394 v 1.736 z" />
		<path
   style="fill:#ffffff"
   inkscape:connector-curvature="0"
   id="path692"
   d="m 4.995,78.388 c 0.103,0 0.15,0.072 0.15,0.15 v 0.868 c 0.093,0 0.166,0.032 0.22,0.085 0.054,0.051 0.081,0.126 0.081,0.22 v 0.715 c 0,0.185 -0.114,0.301 -0.301,0.301 H 4.261 c -0.186,0 -0.3,-0.116 -0.3,-0.301 v -0.715 c 0,-0.094 0.027,-0.169 0.081,-0.22 0.054,-0.053 0.126,-0.085 0.219,-0.085 V 78.54 c 0,-0.078 0.048,-0.15 0.15,-0.15 l 0.584,-0.002 0,0 z m 0.15,2.039 V 79.708 H 4.261 v 0.719 h 0.884 z m -0.3,-1.019 V 78.69 H 4.562 v 0.718 h 0.283 z" />
	</g><g
       id="g694">
		<path
   style="fill:#ffffff"
   inkscape:connector-curvature="0"
   id="path696"
   d="M 2.093,85.898 H 1.981 c -0.099,0 -0.183,-0.035 -0.183,-0.149 0,-0.107 0.081,-0.15 0.174,-0.15 h 0.502 c 0.234,0 0.352,0.098 0.454,0.301 l 0.265,0.529 c 0.06,0.123 0.09,0.21 0.09,0.349 0,0.12 -0.033,0.224 -0.087,0.331 l -0.273,0.548 c -0.105,0.213 -0.24,0.281 -0.475,0.281 h -0.5 c -0.078,0 -0.15,-0.042 -0.15,-0.149 0,-0.107 0.072,-0.15 0.15,-0.15 h 0.145 v -1.741 z m 0.301,1.737 h 0.057 c 0.126,0 0.156,-0.015 0.21,-0.126 l 0.264,-0.535 c 0.033,-0.068 0.057,-0.12 0.057,-0.194 0,-0.103 -0.033,-0.159 -0.075,-0.246 L 2.657,86.025 C 2.594,85.895 2.567,85.898 2.428,85.898 H 2.394 v 1.737 z" />
		<path
   style="fill:#ffffff"
   inkscape:connector-curvature="0"
   id="path698"
   d="M 5.145,86.669 H 4.111 c -0.084,0 -0.15,-0.072 -0.15,-0.15 v -0.77 c 0,-0.078 0.066,-0.15 0.15,-0.15 h 1.185 c 0.084,0 0.15,0.072 0.15,0.15 v 2.038 c 0,0.081 -0.06,0.149 -0.15,0.149 h -0.15 c -0.09,0 -0.15,-0.068 -0.15,-0.149 0,-0.09 0.063,-0.15 0.15,-0.15 l -0.001,-0.968 0,0 z m 0,-0.301 v -0.47 H 4.261 v 0.47 h 0.884 z" />
	</g><g
       id="g700">
		<path
   style="fill:#ffffff"
   inkscape:connector-curvature="0"
   id="path702"
   d="M 1.012,93.107 H 0.9 c -0.099,0 -0.183,-0.036 -0.183,-0.149 0,-0.108 0.081,-0.15 0.174,-0.15 h 0.502 c 0.234,0 0.352,0.097 0.454,0.301 l 0.265,0.529 c 0.06,0.123 0.09,0.21 0.09,0.349 0,0.12 -0.033,0.224 -0.087,0.33 l -0.273,0.547 c -0.105,0.214 -0.24,0.283 -0.475,0.283 h -0.5 c -0.078,0 -0.15,-0.042 -0.15,-0.149 0,-0.107 0.072,-0.15 0.15,-0.15 h 0.145 v -1.741 z m 0.3,1.737 H 1.37 c 0.126,0 0.156,-0.015 0.21,-0.126 l 0.264,-0.535 c 0.033,-0.069 0.057,-0.12 0.057,-0.195 0,-0.103 -0.033,-0.158 -0.075,-0.247 L 1.576,93.233 C 1.513,93.104 1.486,93.107 1.347,93.107 H 1.312 v 1.737 z" />
		<path
   style="fill:#ffffff"
   inkscape:connector-curvature="0"
   id="path704"
   d="m 4.064,94.844 v -0.607 c 0,-0.087 0.039,-0.149 0.15,-0.149 0.111,0 0.15,0.063 0.15,0.149 v 0.759 c 0,0.107 -0.072,0.149 -0.15,0.149 H 3.03 c -0.078,0 -0.15,-0.042 -0.15,-0.149 0,-0.107 0.072,-0.15 0.15,-0.15 H 3.472 V 93.109 H 3.03 c -0.078,0 -0.15,-0.042 -0.15,-0.149 0,-0.108 0.072,-0.15 0.15,-0.15 h 0.743 v 2.038 h 0.291 v -0.004 z" />
		<path
   style="fill:#ffffff"
   inkscape:connector-curvature="0"
   id="path706"
   d="m 6.227,92.806 c 0.166,0 0.301,0.136 0.301,0.301 v 1.737 c 0,0.168 -0.129,0.301 -0.301,0.301 H 5.343 c -0.171,0 -0.3,-0.133 -0.3,-0.301 v -1.737 c 0,-0.165 0.135,-0.301 0.3,-0.301 h 0.884 z m 0,2.038 V 93.107 H 5.343 v 1.737 h 0.884 z" />
	</g><g
       id="g708">
		<path
   style="fill:#ffffff"
   inkscape:connector-curvature="0"
   id="path710"
   d="M 1.012,100.316 H 0.9 c -0.099,0 -0.183,-0.036 -0.183,-0.149 0,-0.108 0.081,-0.15 0.174,-0.15 h 0.502 c 0.234,0 0.352,0.097 0.454,0.301 l 0.265,0.529 c 0.06,0.123 0.09,0.21 0.09,0.349 0,0.12 -0.033,0.224 -0.087,0.33 l -0.273,0.547 c -0.105,0.214 -0.24,0.283 -0.475,0.283 h -0.5 c -0.078,0 -0.15,-0.042 -0.15,-0.15 0,-0.106 0.072,-0.149 0.15,-0.149 h 0.145 v -1.741 z m 0.3,1.737 H 1.37 c 0.126,0 0.156,-0.016 0.21,-0.126 l 0.264,-0.535 c 0.033,-0.069 0.057,-0.12 0.057,-0.195 0,-0.103 -0.033,-0.159 -0.075,-0.247 l -0.25,-0.508 c -0.063,-0.129 -0.09,-0.126 -0.229,-0.126 H 1.312 v 1.737 z" />
		<path
   style="fill:#ffffff"
   inkscape:connector-curvature="0"
   id="path712"
   d="m 4.064,102.053 v -0.607 c 0,-0.087 0.039,-0.149 0.15,-0.149 0.111,0 0.15,0.063 0.15,0.149 v 0.758 c 0,0.108 -0.072,0.15 -0.15,0.15 H 3.03 c -0.078,0 -0.15,-0.042 -0.15,-0.15 0,-0.106 0.072,-0.149 0.15,-0.149 h 0.442 v -1.737 H 3.03 c -0.078,0 -0.15,-0.042 -0.15,-0.149 0,-0.108 0.072,-0.15 0.15,-0.15 h 0.743 v 2.038 h 0.291 v -0.004 z" />
		<path
   style="fill:#ffffff"
   inkscape:connector-curvature="0"
   id="path714"
   d="m 6.227,102.053 v -0.607 c 0,-0.087 0.039,-0.149 0.15,-0.149 0.111,0 0.15,0.063 0.15,0.149 v 0.758 c 0,0.108 -0.072,0.15 -0.15,0.15 H 5.192 c -0.078,0 -0.15,-0.042 -0.15,-0.15 0,-0.106 0.072,-0.149 0.15,-0.149 h 0.442 v -1.737 H 5.192 c -0.078,0 -0.15,-0.042 -0.15,-0.149 0,-0.108 0.072,-0.15 0.15,-0.15 h 0.743 v 2.038 h 0.292 v -0.004 z" />
	</g><g
       id="g716">
		<path
   style="fill:#ffffff"
   inkscape:connector-curvature="0"
   id="path718"
   d="M 1.012,107.524 H 0.9 c -0.099,0 -0.183,-0.036 -0.183,-0.15 0,-0.106 0.081,-0.149 0.174,-0.149 h 0.502 c 0.234,0 0.352,0.096 0.454,0.301 l 0.265,0.529 c 0.06,0.123 0.09,0.21 0.09,0.349 0,0.12 -0.033,0.222 -0.087,0.331 l -0.273,0.547 c -0.105,0.213 -0.24,0.282 -0.475,0.282 h -0.5 c -0.078,0 -0.15,-0.042 -0.15,-0.15 0,-0.107 0.072,-0.149 0.15,-0.149 h 0.145 v -1.741 z m 0.3,1.737 H 1.37 c 0.126,0 0.156,-0.016 0.21,-0.126 L 1.844,108.6 c 0.033,-0.069 0.057,-0.12 0.057,-0.195 0,-0.102 -0.033,-0.159 -0.075,-0.246 l -0.25,-0.508 c -0.063,-0.13 -0.09,-0.127 -0.229,-0.127 H 1.312 v 1.737 z" />
		<path
   style="fill:#ffffff"
   inkscape:connector-curvature="0"
   id="path720"
   d="m 4.064,109.261 v -0.606 c 0,-0.088 0.039,-0.15 0.15,-0.15 0.111,0 0.15,0.063 0.15,0.15 v 0.757 c 0,0.108 -0.072,0.15 -0.15,0.15 H 3.03 c -0.078,0 -0.15,-0.042 -0.15,-0.15 0,-0.107 0.072,-0.149 0.15,-0.149 h 0.442 v -1.737 H 3.03 c -0.078,0 -0.15,-0.042 -0.15,-0.15 0,-0.106 0.072,-0.149 0.15,-0.149 h 0.743 v 2.038 h 0.291 v -0.004 z" />
		<path
   style="fill:#ffffff"
   inkscape:connector-curvature="0"
   id="path722"
   d="m 5.343,109.261 h 1.034 c 0.078,0 0.15,0.042 0.15,0.149 0,0.108 -0.072,0.15 -0.15,0.15 H 5.042 v -0.979 c 0,-0.227 0.114,-0.34 0.339,-0.34 h 0.845 v -0.719 H 5.192 c -0.078,0 -0.15,-0.042 -0.15,-0.15 0,-0.106 0.072,-0.149 0.15,-0.149 H 6.19 c 0.1,0 0.168,0.016 0.244,0.084 0.084,0.078 0.093,0.16 0.093,0.268 v 0.617 c 0,0.107 -0.009,0.189 -0.093,0.268 -0.075,0.068 -0.144,0.084 -0.244,0.084 H 5.343 v 0.717 z" />
	</g><g
       id="g724">
		<rect
   style="fill:#8d8c8c"
   id="rect726"
   y="100.23"
   x="8.5240002"
   width="7.1020002"
   height="6.2579999" />
		<rect
   style="fill:#8d8c8c"
   id="rect728"
   y="112.054"
   x="8.5240002"
   width="7.1020002"
   height="7.2410002" />
	</g><g
       id="g730">
		<rect
   style="fill:#8d8c8c"
   id="rect732"
   y="100.23"
   x="35.495998"
   width="7.1020002"
   height="6.2579999" />
		<rect
   style="fill:#8d8c8c"
   id="rect734"
   y="112.054"
   x="35.495998"
   width="7.1020002"
   height="7.2410002" />
	</g><g
       id="g736">
		<polygon
   style="fill:#404040"
   id="polygon738"
   points="15.852,103.606 15.852,104.561 22.182,104.561 21.354,105.649 14.88,105.649 14.88,130.132 36.24,130.132 36.24,105.649 29.765,105.649 28.939,104.561 34.75,104.561 34.75,103.606 " />
	</g><path
       inkscape:connector-curvature="0"
       id="path740"
       d="m 21.014,115.737 c 0.156,0 0.271,0.127 0.254,0.282 l -1.096,10.502 c -0.016,0.154 -0.157,0.281 -0.313,0.281 h -1.744 c -0.156,0 -0.297,-0.127 -0.313,-0.281 l -1.096,-10.502 c -0.016,-0.155 0.098,-0.282 0.254,-0.282 h 0.254 c 0.156,0 0.295,0.127 0.309,0.282 l 0.83,9.548 c 0.013,0.154 0.152,0.281 0.309,0.281 h 0.65 c 0.156,0 0.295,-0.127 0.309,-0.281 l 0.83,-9.548 c 0.013,-0.155 0.152,-0.282 0.308,-0.282 h 0.255 z" /><path
       inkscape:connector-curvature="0"
       id="path742"
       d="m 34.162,115.737 c 0.156,0 0.271,0.127 0.254,0.282 l -1.098,10.503 c -0.017,0.154 -0.156,0.281 -0.313,0.281 h -1.744 c -0.156,0 -0.297,-0.127 -0.313,-0.281 L 29.85,116.019 c -0.016,-0.155 0.098,-0.282 0.254,-0.282 h 0.256 c 0.156,0 0.295,0.127 0.31,0.282 l 0.828,9.548 c 0.014,0.154 0.151,0.281 0.31,0.281 h 0.649 c 0.155,0 0.296,-0.127 0.31,-0.281 l 0.829,-9.548 c 0.015,-0.155 0.152,-0.282 0.31,-0.282 h 0.256 z" /><g
       id="g744">
		<polygon
   style="fill:none"
   id="polygon746"
   points="31.525,125.843 32.744,125.843 32.812,125.014 31.457,125.014 " />
		<polygon
   style="fill:#939393"
   id="polygon748"
   points="32.812,125.014 32.744,125.843 31.525,125.843 31.457,125.014 " />
		<polygon
   style="fill:#545454"
   id="polygon750"
   points="32.812,125.014 32.846,124.663 31.418,124.663 31.457,125.014 " />
	</g><g
       id="g752">
		<polygon
   style="fill:none"
   id="polygon754"
   points="18.375,125.843 19.596,125.843 19.664,125.014 18.309,125.014 " />
		<polygon
   style="fill:#939393"
   id="polygon756"
   points="19.664,125.014 19.596,125.843 18.375,125.843 18.309,125.014 " />
		<polygon
   style="fill:#545454"
   id="polygon758"
   points="19.664,125.014 19.7,124.663 18.271,124.663 18.309,125.014 " />
	</g><rect
       style="fill:#939393"
       id="rect760"
       y="117.268"
       x="22.650999"
       width="5.5570002"
       height="2.0139999" /><rect
       style="fill:#545454"
       id="rect762"
       y="116.153"
       x="22.650999"
       width="5.5570002"
       height="1.115" /><path
       inkscape:connector-curvature="0"
       id="path764"
       d="m 22.314,127.76 c 0.156,0 0.292,-0.127 0.301,-0.283 l 0.699,-11.613 c 0.009,-0.156 0.145,-0.283 0.301,-0.283 h 3.888 c 0.156,0 0.292,0.127 0.301,0.283 l 0.699,11.613 c 0.009,0.156 0.145,0.283 0.301,0.283 h 0.518 c 0.156,0 0.273,-0.127 0.264,-0.283 l -0.96,-13.2 c -0.013,-0.155 -0.147,-0.283 -0.306,-0.283 h -5.521 c -0.156,0 -0.293,0.127 -0.305,0.283 l -0.96,13.2 c -0.011,0.155 0.107,0.283 0.263,0.283 h 0.517 z" /><line
       style="fill:none;stroke:#ffffff;stroke-width:1;stroke-linecap:round;stroke-opacity:0.23999999"
       id="line766"
       y2="129.81799"
       y1="106.246"
       x2="15.511"
       x1="15.511" /><line
       style="fill:none;stroke:#ffffff;stroke-width:0.5;stroke-linecap:round;stroke-opacity:0.15"
       id="line768"
       y2="129.81799"
       y1="106.246"
       x2="35.867001"
       x1="35.867001" /><line
       style="fill:none;stroke:#ffffff;stroke-width:1;stroke-linecap:round;stroke-opacity:0.3"
       id="line770"
       y2="104.677"
       y1="104.677"
       x2="28.256001"
       x1="22.863001" /></g><flowRoot
     transform="matrix(0.15423087,0,0,0.15423087,28.311804,10.298593)"
     style="font-size:40px;font-style:normal;font-variant:normal;font-weight:normal;font-stretch:normal;text-align:center;line-height:125%;letter-spacing:0px;word-spacing:0px;text-anchor:middle;fill:#ffffff;fill-opacity:1;stroke:none;font-family:Comic Sans MS;-inkscape-font-specification:Comic Sans MS"
     id="flowRoot5264"
     xml:space="preserve"><flowRegion
       id="flowRegion5266"><rect
         style="font-style:normal;font-variant:normal;font-weight:normal;font-stretch:normal;fill:#ffffff;font-family:Comic Sans MS;-inkscape-font-specification:Comic Sans MS"
         y="33.484245"
         x="-121.43517"
         height="65.706963"
         width="206.50372"
         id="rect5268" /></flowRegion><flowPara
       id="flowPara5270">SODAlabs</flowPara></flowRoot><flowRoot
     transform="matrix(0.13660375,0,0,0.13660375,37.610514,20.274609)"
     style="font-size:40px;font-style:normal;font-variant:normal;font-weight:normal;font-stretch:normal;text-align:center;line-height:125%;letter-spacing:0px;word-spacing:0px;text-anchor:middle;fill:#ffffff;fill-opacity:1;stroke:none;font-family:Comic Sans MS;-inkscape-font-specification:Comic Sans MS"
     id="flowRoot6060"
     xml:space="preserve"><flowRegion
       id="flowRegion6062"><rect
         style="font-style:normal;font-variant:normal;font-weight:normal;font-stretch:normal;fill:#ffffff;font-family:Comic Sans MS;-inkscape-font-specification:Comic Sans MS"
         y="23.722576"
         x="-137.83478"
         height="67.941223"
         width="105.0191"
         id="rect6064" /></flowRegion><flowPara
       id="flowPara6066">Nano</flowPara></flowRoot></g></svg>