<?xml version="1.0" encoding="UTF-8" standalone="no"?>
<!-- Generator: Adobe Illustrator 10.0, SVG Export Plug-In . SVG Version: 3.0.0 Build 77)  -->

<svg
   xmlns:i="http://ns.adobe.com/AdobeIllustrator/10.0/"
   xmlns:dc="http://purl.org/dc/elements/1.1/"
   xmlns:cc="http://creativecommons.org/ns#"
   xmlns:rdf="http://www.w3.org/1999/02/22-rdf-syntax-ns#"
   xmlns:svg="http://www.w3.org/2000/svg"
   xmlns="http://www.w3.org/2000/svg"
   xmlns:sodipodi="http://sodipodi.sourceforge.net/DTD/sodipodi-0.dtd"
   xmlns:inkscape="http://www.inkscape.org/namespaces/inkscape"
   enable-background="new 0 0 507.349 417.889"
   height="416.737"
   i:pageBounds="0 792 612 0"
   i:rulerOrigin="0 0"
   i:viewOrigin="52 604"
   overflow="visible"
   space="preserve"
   viewBox="0 0 116.87447 416.73699"
   width="116.87447"
   id="svg2"
   version="1.1"
   inkscape:version="0.48.4 r9939"
   sodipodi:docname="SODAcapacitors.svg"
   style="overflow:visible">
  <defs
     id="defs87" />
  <sodipodi:namedview
     pagecolor="#ffffff"
     bordercolor="#666666"
     borderopacity="1"
     objecttolerance="10"
     gridtolerance="10"
     guidetolerance="10"
     inkscape:pageopacity="0"
     inkscape:pageshadow="2"
     inkscape:window-width="1842"
     inkscape:window-height="1057"
     id="namedview85"
     showgrid="false"
     fit-margin-top="0"
     fit-margin-left="0"
     fit-margin-right="0"
     fit-margin-bottom="0"
     inkscape:zoom="1.6891987"
     inkscape:cx="17.871131"
     inkscape:cy="213.19614"
     inkscape:window-x="70"
     inkscape:window-y="-8"
     inkscape:window-maximized="1"
     inkscape:current-layer="svg2" />
  <metadata
     id="metadata4">
    <rdf:RDF>
      <cc:Work
         rdf:about="">
        <dc:title>Capacitors</dc:title>
        <dc:description>Capacitors</dc:description>
        <dc:subject>
          <rdf:Bag>
            <rdf:li>science</rdf:li>
            <rdf:li>capacitor</rdf:li>
            <rdf:li>electronic</rdf:li>
          </rdf:Bag>
        </dc:subject>
        <dc:publisher>
          <cc:Agent
             rdf:about="http://www.openclipart.org/">
            <dc:title>Open Clip Art Project</dc:title>
          </cc:Agent>
        </dc:publisher>
        <dc:creator>
          <cc:Agent
             rdf:about="http://web.resource.org/cc/PublicDomain">
            <dc:title>Gerald G.</dc:title>
          </cc:Agent>
        </dc:creator>
        <dc:rights>
          <cc:Agent
             rdf:about="http://web.resource.org/cc/PublicDomain">
            <dc:title>Public Domain</dc:title>
          </cc:Agent>
        </dc:rights>
        <dc:date>2005/05/31</dc:date>
        <dc:format>image/svg+xml</dc:format>
        <dc:type
           rdf:resource="http://purl.org/dc/dcmitype/StillImage" />
        <cc:license
           rdf:resource="http://web.resource.org/cc/PublicDomain" />
        <dc:language>en</dc:language>
      </cc:Work>
      <cc:License
         rdf:about="http://web.resource.org/cc/PublicDomain">
        <cc:permits
           rdf:resource="http://web.resource.org/cc/Reproduction" />
        <cc:permits
           rdf:resource="http://web.resource.org/cc/Distribution" />
        <cc:permits
           rdf:resource="http://web.resource.org/cc/DerivativeWorks" />
      </cc:License>
    </rdf:RDF>
  </metadata>
  <g
     id="g3171"
     transform="matrix(0,-1,1,0,-149.93126,657.31321)">
    <path
       style="fill-rule:evenodd"
       inkscape:connector-curvature="0"
       id="path69"
       i:knockout="Off"
       d="m 470.94121,150.02479 c 58.212,0 116.424,0 174.636,0 6.48,0 11.736,5.256 11.736,11.735 0,30.42 0,60.84 0,91.225 0,6.479 -5.256,11.735 -11.736,11.735 -58.212,0 -116.424,0 -174.636,0 l -22.861,-0.036 c -0.828,0.181 -1.799,0 -3.059,-0.396 -1.189,-0.468 -2.557,-1.188 -4.105,-2.16 -1.727,-2.088 -3.203,-3.24 -4.572,-3.312 -1.367,-0.108 -2.447,0.72 -3.527,2.628 -0.936,1.08 -2.16,1.907 -3.527,2.483 -1.404,0.504 -2.809,0.756 -4.645,0.756 l 0,0.036 c -6.48,0 -11.736,-5.256 -11.736,-11.735 0,-30.42 0,-60.805 0,-91.225 0,-6.479 5.256,-11.735 11.736,-11.735 1.836,-0.036 3.24,0.216 4.645,0.756 1.367,0.54 2.592,1.368 3.527,2.483 1.08,1.872 2.16,2.7 3.527,2.628 1.369,-0.107 2.846,-1.26 4.572,-3.312 1.549,-1.008 2.916,-1.729 4.105,-2.16 1.26,-0.432 2.23,-0.612 3.059,-0.396 l 22.861,0 z"
       clip-rule="evenodd" />
    <path
       style="fill:#404040;fill-rule:evenodd"
       inkscape:connector-curvature="0"
       id="path71"
       i:knockout="Off"
       d="m 412.90921,231.95979 c 0,30.384 0,-7.344 0,23.076 0,6.479 5.256,11.736 11.736,11.736 l 0,-0.036 c 1.836,0 3.24,-0.252 4.645,-0.756 1.367,-0.576 2.592,-1.404 3.527,-2.484 1.08,-1.908 2.16,-2.736 3.527,-2.628 1.369,0.072 2.846,1.224 4.572,3.312 1.549,0.973 2.916,1.692 4.105,2.16 1.26,0.396 2.23,0.576 3.059,0.396 l 22.861,0.036 c 58.212,0 116.424,0 174.636,0 6.48,0 11.736,-5.257 11.736,-11.736 0,-30.384 0,7.344 0,-23.076 l -244.404,0 z"
       clip-rule="evenodd" />
    <path
       style="fill:#212121;fill-rule:evenodd"
       inkscape:connector-curvature="0"
       id="path73"
       i:knockout="Off"
       d="m 657.16921,224.40079 0,17.748 -244.26,0 0,-17.748 244.26,0 z"
       clip-rule="evenodd" />
    <path
       style="fill:#999e9e;fill-rule:evenodd"
       inkscape:connector-curvature="0"
       id="path75"
       i:knockout="Off"
       d="m 657.27721,173.63979 0,39.853 -244.369,0 0,-39.853 244.369,0 z"
       clip-rule="evenodd" />
    <path
       style="fill:#808080;fill-rule:evenodd"
       inkscape:connector-curvature="0"
       id="path81"
       i:knockout="Off"
       d="m 412.80121,174.71979 -172.225,0 9.936,6.66 162.289,0 0,-6.66 z"
       clip-rule="evenodd" />
    <path
       style="fill:#808080;fill-rule:evenodd"
       inkscape:connector-curvature="0"
       id="path83"
       i:knockout="Off"
       d="m 414.16821,235.37979 -172.223,0 9.936,6.66 162.287,0 0,-6.66 z"
       clip-rule="evenodd" />
    <flowRoot
       transform="matrix(0.60189988,0,0,0.60189988,429.6631,214.60352)"
       style="font-size:40px;font-style:normal;font-variant:normal;font-weight:normal;font-stretch:normal;line-height:125%;letter-spacing:0px;word-spacing:0px;fill:#000000;fill-opacity:1;stroke:none;font-family:Comic Sans MS;-inkscape-font-specification:Comic Sans MS"
       id="flowRoot3141"
       xml:space="preserve"><flowRegion
         id="flowRegion3143"><rect
           style="font-style:normal;font-variant:normal;font-weight:normal;font-stretch:normal;font-family:Comic Sans MS;-inkscape-font-specification:Comic Sans MS"
           y="-54.8922"
           x="79.239548"
           height="96.061348"
           width="277.55975"
           id="rect3145" /></flowRegion><flowPara
         id="flowPara3147">SODAlabs</flowPara></flowRoot>  </g>
</svg>
