<?xml version="1.0" encoding="UTF-8" standalone="no"?>
<!-- Generator: Adobe Illustrator 14.0.0, SVG Export Plug-In . SVG Version: 6.00 Build 43363)  -->

<svg
   xmlns:dc="http://purl.org/dc/elements/1.1/"
   xmlns:cc="http://creativecommons.org/ns#"
   xmlns:rdf="http://www.w3.org/1999/02/22-rdf-syntax-ns#"
   xmlns:svg="http://www.w3.org/2000/svg"
   xmlns="http://www.w3.org/2000/svg"
   xmlns:sodipodi="http://sodipodi.sourceforge.net/DTD/sodipodi-0.dtd"
   xmlns:inkscape="http://www.inkscape.org/namespaces/inkscape"
   width="1.52215in"
   xml:space="preserve"
   x="0px"
   version="1.1"
   y="0px"
   height="2.10933in"
   viewBox="0 0 109.595 151.872"
   id="svg"
   inkscape:version="0.48.4 r9939"
   sodipodi:docname="SODAbattery.svg"><metadata
   id="metadata178"><rdf:RDF><cc:Work
       rdf:about=""><dc:format>image/svg+xml</dc:format><dc:type
         rdf:resource="http://purl.org/dc/dcmitype/StillImage" /></cc:Work></rdf:RDF></metadata><defs
   id="defs176">
  
  
  
  
  
  
  
  
  
  
  
  
  
  
  
  
  
  
  
 </defs><sodipodi:namedview
   pagecolor="#ffffff"
   bordercolor="#666666"
   borderopacity="1"
   objecttolerance="10"
   gridtolerance="10"
   guidetolerance="10"
   inkscape:pageopacity="0"
   inkscape:pageshadow="2"
   inkscape:window-width="1842"
   inkscape:window-height="1057"
   id="namedview174"
   showgrid="false"
   inkscape:zoom="2.4863083"
   inkscape:cx="68.49675"
   inkscape:cy="111.00796"
   inkscape:window-x="70"
   inkscape:window-y="-8"
   inkscape:window-maximized="1"
   inkscape:current-layer="svg" />
 
 
 
 
 
<g
   id="g3246"><rect
     id="connector0pin"
     height="2.998"
     y="16.158"
     x="101.338"
     width="8.256"
     fill="#8C8C8C" /><rect
     id="connector1pin"
     height="3"
     y="8.958"
     x="101.338"
     width="8.256"
     fill="#8C8C8C" /><rect
     id="connector0terminal"
     height="2.998"
     y="16.158"
     x="109.034"
     width="0.56"
     fill="#8C8C8C" /><rect
     id="connector1terminal"
     height="3"
     y="8.958"
     x="109.034"
     width="0.56"
     fill="#8C8C8C" /><g
     id="g8">
   <g
   id="g10">
    <path
   d="m 9.572,13.877 h 14.457 c 0.312,0 0.566,-0.255 0.566,-0.567 V 5.091 c 0,-0.312 -0.255,-0.567 -0.566,-0.567 H 16.8 9.572 c -0.312,0 -0.566,0.255 -0.566,0.567 v 8.219 c 0,0.313 0.255,0.567 0.566,0.567 z M 9.876,5.188 c 0,-0.304 0.248,-0.552 0.552,-0.552 h 6.373 6.373 c 0.304,0 0.552,0.248 0.552,0.552 v 8.025 c 0,0.304 -0.248,0.552 -0.552,0.552 H 10.428 c -0.304,0 -0.552,-0.248 -0.552,-0.552 V 5.188 z"
   id="path12"
   inkscape:connector-curvature="0"
   style="fill:#939393" />
    <path
   d="m 10.428,13.765 h 6.373 6.373 c 0.304,0 0.552,-0.248 0.552,-0.552 V 5.188 c 0,-0.304 -0.248,-0.552 -0.552,-0.552 h -6.373 -6.373 c -0.304,0 -0.552,0.248 -0.552,0.552 v 8.025 c 0,0.304 0.248,0.552 0.552,0.552 z"
   id="path14"
   inkscape:connector-curvature="0"
   style="fill:#b2b2b2" />
    <path
   d="m 11.673,13.676 h 5.128 5.128 c 0.28,0 0.51,-0.229 0.51,-0.51 v -7.62 c 0,-0.281 -0.229,-0.51 -0.51,-0.51 h -3.981 c 0.109,0.094 0.186,0.232 0.186,0.396 v 6.865 c 0,0.281 -0.21,0.51 -0.466,0.51 h -0.866 -2.474 c -0.256,0 -0.466,-0.229 -0.466,-0.51 V 5.433 c 0,-0.164 0.076,-0.303 0.186,-0.396 h -2.374 c -0.28,0 -0.51,0.229 -0.51,0.51 v 7.62 c -10e-4,0.281 0.229,0.509 0.509,0.509 z"
   id="path16"
   inkscape:connector-curvature="0"
   style="fill:#e6e6e6" />
    <path
   d="m 19.241,5.759 c 0,-0.299 -0.199,-0.542 -0.442,-0.542 h 2.173 c 0.244,0 0.443,0.243 0.443,0.542 v 7.277 c 0,0.299 -0.199,0.542 -0.443,0.542 h -2.173 c 0.243,0 0.442,-0.243 0.442,-0.542 V 5.759 z"
   id="path18"
   inkscape:connector-curvature="0"
   style="opacity:0.9;fill:#ffffff" />
   </g>
   <rect
   width="15.547"
   x="9.0170002"
   y="4.5640001"
   height="1.5470001"
   id="rect20"
   style="opacity:0.1" />
  </g><g
     id="g22">
   <path
   d="m 27.12,7.778 c -0.384,-0.017 -1.126,0.673 -1.126,0.673 0,0 -0.365,-0.743 -1.012,-0.792 C 22.095,7.443 20.654,7.54 17.768,7.54 17.378,7.54 16.955,7.526 16.772,8.031 16.592,7.526 16.17,7.54 15.779,7.54 12.834,7.54 11.366,7.454 8.419,7.677 7.704,7.73 7.402,8.467 7.402,8.467 7.402,8.467 6.98,7.749 6.55,7.768 6.031,7.778 5.543,7.739 5.504,8.186 5.352,9.92 5.209,10.714 5.133,12.269 c -0.065,1.324 0.391,1.901 0.391,3.378 0,1.017 0.904,2.17 1.673,2.17 2.716,0 4.074,-0.062 6.79,0.143 1.206,0.091 2.451,-0.142 2.786,-1.229 0.336,1.088 1.585,1.323 2.791,1.232 2.715,-0.204 4.072,-0.146 6.788,-0.146 0.768,0 1.538,-1.234 1.538,-2.171 0,0 0.683,-2.106 0.574,-3.675 C 28.355,10.402 27.908,8.17 27.908,8.17 27.854,7.531 27.305,7.786 27.12,7.778 z"
   id="path24"
   inkscape:connector-curvature="0"
   style="fill:#919191" />
   <g
   id="g26">
    <path
   d="M 5.615,10.111 C 6.464,9.859 7.061,9.619 7.061,9.619 6.887,11.416 6.785,12.265 7.062,13.782 6.542,13.69 6.056,13.607 5.585,13.532 5.308,12.232 5.519,11.617 5.615,10.111 z"
   id="path28"
   inkscape:connector-curvature="0"
   style="fill:#f4f4f4" />
    <path
   d="m 5.865,8.177 c 0.747,0.039 1.273,0.642 1.196,1.441 0,0 -0.598,0.24 -1.446,0.492 0.05,-0.773 0.182,-1.159 0.25,-1.933 z"
   id="path30"
   inkscape:connector-curvature="0"
   style="fill:#b7b7b7" />
    <path
   d="m 6.958,12.878 c 0.015,0.599 0.095,0.822 0.188,1.341 0.121,0.68 -0.505,1.354 -1.258,1.407 0,-0.926 -0.131,-1.295 -0.302,-2.095 0.559,10e-4 1.385,-0.111 1.372,-0.653 z"
   id="path32"
   inkscape:connector-curvature="0"
   style="fill:#999999" />
   </g>
   <g
   id="g34">
    <path
   d="M 7.822,9.568 C 7.884,8.733 8.37,8.025 8.886,7.988 c 2.619,-0.189 3.907,-0.101 6.508,-0.101 0.515,0 0.932,0.675 0.932,1.51 0,0 -0.187,1.416 -0.187,2.246 0,0.83 0.187,2.157 0.187,2.157 0,1.239 -0.417,2.104 -0.932,2.075 -2.601,-0.147 -3.902,-0.24 -6.503,-0.24 -0.513,0 -0.903,-0.707 -1.001,-1.416 -0.233,-1.7 -0.218,-2.646 -0.068,-4.651 z"
   id="path36"
   inkscape:connector-curvature="0"
   style="fill:#f4f4f4" />
    <g
   id="g38">
     <path
   d="m 8.887,7.988 c 2.619,-0.189 3.907,-0.101 6.508,-0.101 0.515,0 0.932,0.675 0.932,1.51 0,0 -2.748,0.12 -4.409,0.12 -1.786,0 -4.095,0.051 -4.095,0.051 C 7.885,8.733 8.37,8.025 8.887,7.988 z"
   id="path40"
   inkscape:connector-curvature="0"
   style="fill:#b7b7b7" />
    </g>
    <g
   id="g42">
     <path
   d="m 8.892,15.635 c 2.601,0 3.902,0.093 6.503,0.24 0.515,0.029 0.932,-0.641 0.932,-1.472 0,-0.245 0,-0.368 0,-0.613 -1.22,-0.396 -2.746,-0.642 -4.407,-0.643 -1.797,-10e-4 -3.009,0.599 -4.171,-0.355 -0.002,0.645 0.067,0.879 0.143,1.427 0.096,0.709 0.487,1.416 1,1.416 z"
   id="path44"
   inkscape:connector-curvature="0"
   style="fill:#999999" />
    </g>
   </g>
   <g
   id="g46">
    <path
   d="M 27.931,10.108 C 27.08,9.854 26.482,9.614 26.482,9.614 c 0.171,1.797 0.272,2.65 0,4.168 0.52,-0.092 1.004,-0.175 1.476,-0.25 0.274,-1.3 0.07,-1.918 -0.027,-3.424 z"
   id="path48"
   inkscape:connector-curvature="0"
   style="fill:#f4f4f4" />
    <path
   d="m 27.683,8.174 c -0.747,0.037 -1.277,0.64 -1.201,1.439 0,0 0.599,0.24 1.449,0.494 -0.05,-0.773 -0.18,-1.159 -0.248,-1.933 z"
   id="path50"
   inkscape:connector-curvature="0"
   style="fill:#b7b7b7" />
    <path
   d="m 26.584,12.547 c 0.006,0.715 -0.072,1.037 -0.184,1.672 -0.119,0.68 0.506,1.354 1.259,1.407 0,-0.926 0.129,-1.295 0.298,-2.095 -0.422,10e-4 -1.368,-0.333 -1.373,-0.984 z"
   id="path52"
   inkscape:connector-curvature="0"
   style="fill:#999999" />
   </g>
   <g
   id="g54">
    <path
   d="M 25.722,9.562 C 25.66,8.727 25.176,8.021 24.66,7.984 22.043,7.797 20.753,7.887 18.153,7.887 c -0.515,0 -0.928,0.675 -0.928,1.51 0,0 0.169,1.522 0.169,2.435 0,0.913 -0.169,1.968 -0.169,1.968 0,0.832 0.413,2.108 0.928,2.08 2.6,-0.144 3.901,-0.244 6.501,-0.244 0.513,0 0.904,-0.707 0.999,-1.416 0.229,-1.701 0.215,-2.653 0.069,-4.658 z"
   id="path56"
   inkscape:connector-curvature="0"
   style="fill:#f4f4f4" />
    <g
   id="g58">
     <path
   d="M 24.66,7.984 C 22.043,7.797 20.753,7.887 18.153,7.887 c -0.515,0 -0.928,0.675 -0.928,1.51 0,0 2.744,0.12 4.405,0.12 1.786,0 4.091,0.045 4.091,0.045 C 25.66,8.727 25.176,8.021 24.66,7.984 z"
   id="path60"
   inkscape:connector-curvature="0"
   style="fill:#b7b7b7" />
    </g>
    <g
   id="g62">
     <path
   d="m 24.654,15.635 c -2.6,0 -3.901,0.101 -6.501,0.244 -0.515,0.028 -0.928,-0.642 -0.928,-1.474 0,-0.245 0,-0.368 0,-0.614 1.219,-0.395 2.745,-0.642 4.405,-0.644 1.796,-0.002 3.2,0.334 4.164,-0.567 0.001,0.711 -0.059,1.019 -0.142,1.639 -0.093,0.709 -0.485,1.416 -0.998,1.416 z"
   id="path64"
   inkscape:connector-curvature="0"
   style="fill:#999999" />
    </g>
   </g>
  </g><g
     id="g66">
   <path
   d="M 60.123,7.342 H 45.666 c -0.312,0 -0.566,0.255 -0.566,0.567 v 8.219 c 0,0.312 0.255,0.567 0.566,0.567 h 7.229 7.229 c 0.312,0 0.566,-0.255 0.566,-0.567 V 7.91 C 60.689,7.597 60.435,7.342 60.123,7.342 z m -0.304,8.69 c 0,0.304 -0.248,0.552 -0.552,0.552 h -6.373 -6.373 c -0.304,0 -0.552,-0.248 -0.552,-0.552 V 8.006 c 0,-0.304 0.248,-0.552 0.552,-0.552 h 12.746 c 0.304,0 0.552,0.248 0.552,0.552 v 8.026 z"
   id="path68"
   inkscape:connector-curvature="0"
   style="fill:#939393" />
   <path
   d="m 59.268,7.455 h -6.373 -6.373 c -0.304,0 -0.552,0.248 -0.552,0.552 v 8.025 c 0,0.304 0.248,0.552 0.552,0.552 h 6.373 6.373 c 0.304,0 0.552,-0.248 0.552,-0.552 V 8.006 C 59.819,7.703 59.571,7.455 59.268,7.455 z"
   id="path70"
   inkscape:connector-curvature="0"
   style="fill:#b2b2b2" />
   <path
   d="m 58.022,7.543 h -5.128 -5.128 c -0.28,0 -0.51,0.229 -0.51,0.51 v 7.62 c 0,0.281 0.229,0.51 0.51,0.51 h 3.981 C 51.638,16.089 51.561,15.951 51.561,15.787 V 8.921 c 0,-0.281 0.21,-0.51 0.466,-0.51 h 0.866 2.474 c 0.256,0 0.466,0.229 0.466,0.51 v 6.865 c 0,0.164 -0.076,0.303 -0.186,0.396 h 2.374 c 0.28,0 0.51,-0.229 0.51,-0.51 V 8.052 C 58.532,7.772 58.303,7.543 58.022,7.543 z"
   id="path72"
   inkscape:connector-curvature="0"
   style="fill:#e6e6e6" />
   <path
   d="m 50.454,15.46 c 0,0.299 0.199,0.542 0.442,0.542 h -2.173 c -0.244,0 -0.443,-0.243 -0.443,-0.542 V 8.183 c 0,-0.299 0.199,-0.542 0.443,-0.542 h 2.173 c -0.243,0 -0.442,0.243 -0.442,0.542 v 7.277 z"
   id="path74"
   inkscape:connector-curvature="0"
   style="opacity:0.9;fill:#ffffff" />
  </g><rect
     width="15.547"
     x="45.132"
     y="15.109"
     height="1.5470001"
     id="rect76"
     style="fill:none" /><rect
     width="22.591999"
     x="5.382"
     y="15.109"
     height="1.5470001"
     id="rect78"
     style="opacity:0.1" /><path
     d="m 5.67,151.871 h 0.06 c -0.099,0 -0.195,-0.007 -0.293,-0.01 0.078,0.003 0.154,0.01 0.233,0.01 z"
     id="path80"
     inkscape:connector-curvature="0"
     style="fill:#353535" /><path
     d="m 5.111,151.847 c -0.021,-0.001 -0.041,-0.004 -0.062,-0.006 0.021,0.002 0.042,0.005 0.062,0.006 z"
     id="path82"
     inkscape:connector-curvature="0"
     style="fill:#353535" /><path
     d="m 5.437,151.861 c -0.108,-0.004 -0.219,-0.005 -0.325,-0.014 0.106,0.008 0.215,0.01 0.325,0.014 z"
     id="path84"
     inkscape:connector-curvature="0"
     style="opacity:0.35" /><path
     d="m 70.727,148.251 c -0.606,0.896 -2.843,1.566 -5.498,1.566 h -59.5 c -3.117,0 -5.666,-0.924 -5.666,-2.052 v 0.124 c 0.36,2.076 2.42,3.721 4.986,3.951 0.021,0.002 0.041,0.005 0.062,0.006 0.106,0.009 0.217,0.01 0.325,0.014 0.098,0.003 0.194,0.01 0.293,0.01 h 59.469 c 2.695,0.001 4.961,-1.555 5.529,-3.619 z"
     id="path86"
     inkscape:connector-curvature="0"
     style="fill:#353535" /><path
     d="m 70.727,148.251 c -0.606,0.896 -2.843,1.566 -5.498,1.566 h -59.5 c -3.117,0 -5.666,-0.924 -5.666,-2.052 v 0.124 c 0.36,2.076 2.42,3.721 4.986,3.951 0.021,0.002 0.041,0.005 0.062,0.006 0.106,0.009 0.217,0.01 0.325,0.014 0.098,0.003 0.194,0.01 0.293,0.01 h 59.469 c 2.695,0.001 4.961,-1.555 5.529,-3.619 z"
     id="path88"
     inkscape:connector-curvature="0"
     style="opacity:0.35" /><g
     id="g90">
   <g
   id="g92">
    <path
   d="m 66.331,15.798 c 1.985,0 4.536,1.702 4.536,3.783 v 127.662 c 0,2.545 -2.551,4.627 -5.669,4.627 H 5.67 c -3.118,0 -5.669,-2.082 -5.669,-4.627 V 19.582 c 0,-2.081 2.551,-3.783 6.802,-3.783 h 59.528 z"
   id="path94"
   inkscape:connector-curvature="0"
   style="fill:#353535" />
    <path
   d="M 70.867,49.394 H 0.001 V 19.582 c 0,-2.08 2.551,-3.783 6.802,-3.783 h 59.528 c 1.985,0 4.536,1.703 4.536,3.783 v 29.812 z"
   id="path96"
   inkscape:connector-curvature="0"
   style="fill:#d18d52" />
   </g>
   <path
   d="m 69.604,147.766 c 0,0.575 -1.594,1.067 -3.783,1.237 V 17.89 c 2.189,0.139 3.783,0.541 3.783,1.012 v 128.864 z"
   id="path98"
   inkscape:connector-curvature="0"
   style="opacity:0.15;fill:#ffffff" />
   <path
   d="m 1.145,147.766 c 0,0.575 1.594,1.067 3.783,1.237 V 17.89 c -2.189,0.139 -3.783,0.541 -3.783,1.012 v 128.864 z"
   id="path100"
   inkscape:connector-curvature="0"
   style="opacity:0.15;fill:#ffffff" />
   <path
   d="m 1.145,18.89 c 0,-0.586 2.464,-1.065 5.477,-1.065 h 57.507 c 3.013,0 5.477,0.479 5.477,1.065 v -0.218 c 0,-1.052 -2.464,-1.913 -5.477,-1.913 H 6.621 c -3.013,0 -5.477,0.861 -5.477,1.913 v 0.218 z"
   id="path102"
   inkscape:connector-curvature="0"
   style="opacity:0.35;fill:#ffffff" />
   <g
   id="g104"
   style="opacity:0.2">
    <path
   d="m 69.604,18.521 c 0,0 0,128.894 0,130.529 0.628,-0.297 0.628,-0.297 1,-0.646 0,-0.625 0,-126.22 0,-126.681 0,-1.065 -0.707,-2.561 -1,-3.202 z"
   id="path106"
   inkscape:connector-curvature="0" />
   </g>
   <g
   id="g108"
   style="opacity:0.2">
    <path
   d="m 1.145,18.521 c 0,0 0,128.894 0,130.529 -0.628,-0.297 -0.628,-0.297 -1,-0.646 0,-0.625 0,-126.22 0,-126.681 0,-1.065 0.707,-2.561 1,-3.202 z"
   id="path110"
   inkscape:connector-curvature="0" />
   </g>
  </g><path
     d="m 67.713,4.415 c 14.469,0 13.856,13.249 27.556,13.249 h 6.07"
     id="path112"
     inkscape:connector-curvature="0"
     style="fill:none;stroke:#000000;stroke-width:3" /><path
     d="m 67.713,4.417 c 17.259,0 16.104,6.035 27.556,6.035 0,0 1.822,0 6.07,0"
     id="path114"
     inkscape:connector-curvature="0"
     style="fill:none;stroke:#ff0000;stroke-width:3" /><g
     id="g116">
   <path
   d="m 42.569,14.396 c 0.384,0.017 1.126,-0.673 1.126,-0.673 0,0 0.365,0.743 1.012,0.792 2.887,0.216 4.328,0.119 7.214,0.119 0.39,0 0.813,0.014 0.996,-0.491 0.181,0.505 0.603,0.491 0.993,0.491 2.945,0 4.413,0.086 7.36,-0.137 0.715,-0.054 1.017,-0.791 1.017,-0.791 0,0 0.422,0.719 0.853,0.699 0.519,-0.01 1.007,0.029 1.046,-0.418 0.152,-1.734 0.295,-2.528 0.371,-4.083 0.065,-1.324 -0.391,-1.901 -0.391,-3.378 0,-1.017 -0.904,-2.17 -1.673,-2.17 -2.716,0 -4.074,0.062 -6.79,-0.143 C 54.497,4.122 53.252,4.355 52.917,5.442 52.581,4.354 51.332,4.119 50.126,4.21 47.411,4.414 46.054,4.356 43.338,4.356 42.57,4.356 41.8,5.59 41.8,6.527 c 0,0 -0.683,2.106 -0.574,3.675 0.109,1.569 0.556,3.802 0.556,3.802 0.054,0.639 0.603,0.384 0.787,0.392 z"
   id="path118"
   inkscape:connector-curvature="0"
   style="fill:#919191" />
   <g
   id="g120">
    <path
   d="m 64.074,12.063 c -0.849,0.252 -1.446,0.492 -1.446,0.492 0.174,-1.797 0.276,-2.646 -10e-4,-4.163 0.52,0.092 1.006,0.175 1.477,0.25 0.278,1.3 0.067,1.915 -0.03,3.421 z"
   id="path122"
   inkscape:connector-curvature="0"
   style="fill:#f4f4f4" />
    <path
   d="m 63.824,13.997 c -0.747,-0.039 -1.273,-0.642 -1.196,-1.441 0,0 0.598,-0.24 1.446,-0.492 -0.05,0.772 -0.181,1.159 -0.25,1.933 z"
   id="path124"
   inkscape:connector-curvature="0"
   style="fill:#b7b7b7" />
    <path
   d="M 62.731,9.295 C 62.716,8.696 62.636,8.473 62.543,7.954 62.422,7.274 63.048,6.6 63.801,6.547 c 0,0.926 0.131,1.295 0.302,2.095 -0.558,0 -1.384,0.111 -1.372,0.653 z"
   id="path126"
   inkscape:connector-curvature="0"
   style="fill:#999999" />
   </g>
   <g
   id="g128">
    <path
   d="m 61.867,12.606 c -0.062,0.835 -0.548,1.543 -1.064,1.58 -2.619,0.189 -3.907,0.101 -6.508,0.101 -0.515,0 -0.932,-0.675 -0.932,-1.51 0,0 0.187,-1.416 0.187,-2.246 0,-0.83 -0.187,-2.157 -0.187,-2.157 0,-1.239 0.417,-2.104 0.932,-2.075 2.601,0.147 3.902,0.24 6.503,0.24 0.513,0 0.903,0.707 1.001,1.416 0.233,1.7 0.219,2.646 0.068,4.651 z"
   id="path130"
   inkscape:connector-curvature="0"
   style="fill:#f4f4f4" />
    <g
   id="g132">
     <path
   d="m 60.803,14.186 c -2.619,0.189 -3.907,0.101 -6.508,0.101 -0.515,0 -0.932,-0.675 -0.932,-1.51 0,0 2.748,-0.12 4.409,-0.12 1.786,0 4.095,-0.051 4.095,-0.051 -0.062,0.835 -0.548,1.543 -1.064,1.58 z"
   id="path134"
   inkscape:connector-curvature="0"
   style="fill:#b7b7b7" />
    </g>
    <g
   id="g136">
     <path
   d="m 60.798,6.539 c -2.601,0 -3.902,-0.093 -6.503,-0.24 -0.515,-0.029 -0.932,0.641 -0.932,1.472 0,0.245 0,0.368 0,0.613 1.22,0.396 2.746,0.642 4.407,0.643 1.797,0.001 3.009,-0.599 4.171,0.355 0.002,-0.645 -0.067,-0.879 -0.143,-1.427 -0.097,-0.709 -0.487,-1.416 -1,-1.416 z"
   id="path138"
   inkscape:connector-curvature="0"
   style="fill:#999999" />
    </g>
   </g>
   <g
   id="g140">
    <path
   d="m 41.759,12.066 c 0.851,0.254 1.449,0.494 1.449,0.494 -0.171,-1.797 -0.272,-2.65 0,-4.168 -0.52,0.092 -1.004,0.175 -1.476,0.25 -0.275,1.3 -0.071,1.918 0.027,3.424 z"
   id="path142"
   inkscape:connector-curvature="0"
   style="fill:#f4f4f4" />
    <path
   d="m 42.007,14 c 0.747,-0.037 1.277,-0.64 1.201,-1.439 0,0 -0.599,-0.24 -1.449,-0.494 0.05,0.772 0.179,1.159 0.248,1.933 z"
   id="path144"
   inkscape:connector-curvature="0"
   style="fill:#b7b7b7" />
    <path
   d="M 43.105,9.626 C 43.099,8.911 43.177,8.589 43.289,7.954 43.408,7.274 42.783,6.6 42.03,6.547 c 0,0.926 -0.129,1.295 -0.298,2.095 0.422,0 1.369,0.334 1.373,0.984 z"
   id="path146"
   inkscape:connector-curvature="0"
   style="fill:#999999" />
   </g>
   <g
   id="g148">
    <path
   d="m 43.968,12.612 c 0.062,0.835 0.546,1.541 1.062,1.578 2.617,0.187 3.907,0.097 6.507,0.097 0.515,0 0.928,-0.675 0.928,-1.51 0,0 -0.169,-1.522 -0.169,-2.435 0,-0.913 0.169,-1.968 0.169,-1.968 0,-0.832 -0.413,-2.108 -0.928,-2.08 -2.6,0.144 -3.901,0.244 -6.501,0.244 -0.513,0 -0.904,0.707 -0.999,1.416 -0.229,1.701 -0.216,2.653 -0.069,4.658 z"
   id="path150"
   inkscape:connector-curvature="0"
   style="fill:#f4f4f4" />
    <g
   id="g152">
     <path
   d="m 45.029,14.19 c 2.617,0.187 3.907,0.097 6.507,0.097 0.515,0 0.928,-0.675 0.928,-1.51 0,0 -2.744,-0.12 -4.405,-0.12 -1.786,0 -4.091,-0.045 -4.091,-0.045 0.061,0.835 0.546,1.541 1.061,1.578 z"
   id="path154"
   inkscape:connector-curvature="0"
   style="fill:#b7b7b7" />
    </g>
    <g
   id="g156">
     <path
   d="m 45.035,6.539 c 2.6,0 3.901,-0.101 6.501,-0.244 0.515,-0.028 0.928,0.642 0.928,1.474 0,0.245 0,0.368 0,0.614 -1.219,0.395 -2.745,0.642 -4.405,0.644 -1.796,0.002 -3.2,-0.334 -4.164,0.567 -0.001,-0.711 0.059,-1.019 0.142,-1.639 0.094,-0.709 0.485,-1.416 0.998,-1.416 z"
   id="path158"
   inkscape:connector-curvature="0"
   style="fill:#999999" />
    </g>
   </g>
  </g><path
     d="m 67.753,6.917 c 0,0 0,-3.563 0,-4.48 C 67.753,0.738 66.587,0 61.496,0 H 9.354 C 4.263,0 3.097,0.738 3.097,2.437 c 0,0.917 0,4.48 0,4.48 h 64.656 z"
     id="path160"
     inkscape:connector-curvature="0"
     style="fill:#262626" /><path
     d="m 62.767,0.566 c 3.609,0 4.257,0.861 4.257,1.913 v 0.218 c 0,-0.586 -1.447,-1.065 -4.257,-1.065 H 8.082 c -2.81,0 -4.257,0.479 -4.257,1.065 V 2.479 c 0,-1.052 0.647,-1.913 4.257,-1.913 h 54.685 z"
     id="path162"
     inkscape:connector-curvature="0"
     style="opacity:0.35;fill:#ffffff" /><path
     d="M 5.586,1.815 C 4.434,2.003 3.825,2.325 3.825,2.697 V 6.514 H 5.586 V 1.815 z"
     id="path164"
     inkscape:connector-curvature="0"
     style="opacity:0.15;fill:#ffffff" /><path
     d="m 65.263,1.815 c 1.152,0.188 1.761,0.51 1.761,0.882 V 6.514 H 65.263 V 1.815 z"
     id="path166"
     inkscape:connector-curvature="0"
     style="opacity:0.15;fill:#ffffff" /><g
     id="g168">
   <text
   transform="translate(22.6406,75.9355)"
   font-size="22"
   id="text170"
   style="font-size:22px;fill:#ffffff;font-family:DroidSans">9</text>

   <text
   transform="translate(36.5776,75.936)"
   font-size="22"
   id="text172"
   style="font-size:22px;fill:#ffffff;font-family:DroidSans">v</text>

  </g><flowRoot
     transform="matrix(0.50635161,0,0,0.50635161,16.936601,30.589387)"
     style="font-size:40px;font-style:normal;font-variant:normal;font-weight:normal;font-stretch:normal;line-height:125%;letter-spacing:0px;word-spacing:0px;fill:#ffffff;fill-opacity:1;stroke:none;font-family:Comic Sans MS;-inkscape-font-specification:Comic Sans MS"
     id="flowRoot3238"
     xml:space="preserve"><flowRegion
       id="flowRegion3240"><rect
         style="font-style:normal;font-variant:normal;font-weight:normal;font-stretch:normal;font-family:Comic Sans MS;-inkscape-font-specification:Comic Sans MS;fill:#ffffff"
         y="99.545174"
         x="-22.724455"
         height="55.705082"
         width="136.34673"
         id="rect3242" /></flowRegion><flowPara
       id="flowPara3244">SODA</flowPara></flowRoot></g></svg>