solid OpenSCAD_Model
  facet normal -1 0 0
    outer loop
      vertex -0.809017 -0.587785 0
      vertex -0.809017 -0.587785 4
      vertex -0.809017 80.5878 0
    endloop
  endfacet
  facet normal -1 0 0
    outer loop
      vertex -0.809017 80.5878 0
      vertex -0.809017 -0.587785 4
      vertex -0.809017 39.4122 4
    endloop
  endfacet
  facet normal -1 0 0
    outer loop
      vertex -0.809017 41.5878 4
      vertex -0.809017 39.4122 4
      vertex -0.809017 39.4122 5
    endloop
  endfacet
  facet normal -1 0 0
    outer loop
      vertex -0.809017 80.5878 0
      vertex -0.809017 39.4122 4
      vertex -0.809017 41.5878 4
    endloop
  endfacet
  facet normal -1 0 0
    outer loop
      vertex -0.809017 80.5878 4
      vertex -0.809017 80.5878 0
      vertex -0.809017 41.5878 4
    endloop
  endfacet
  facet normal -1 0 0
    outer loop
      vertex -0.809017 41.5878 4
      vertex -0.809017 39.4122 5
      vertex -0.809017 41.5878 5
    endloop
  endfacet
  facet normal -0.309018 -0.951056 0
    outer loop
      vertex -0.809017 -0.587785 4
      vertex -0.809017 -0.587785 0
      vertex 0.309017 -0.951057 0
    endloop
  endfacet
  facet normal -0.309018 -0.951056 0
    outer loop
      vertex 0.309017 -0.951057 4
      vertex -0.809017 -0.587785 4
      vertex 0.309017 -0.951057 0
    endloop
  endfacet
  facet normal -0.279981 -0.861692 -0.423198
    outer loop
      vertex 0.309017 -0.951057 0
      vertex -0.809017 -0.587785 0
      vertex 0.154508 -0.475528 -0.866025
    endloop
  endfacet
  facet normal -0.279981 -0.861693 -0.423197
    outer loop
      vertex 0.154508 -0.475528 -0.866025
      vertex -0.809017 -0.587785 0
      vertex -0.404508 -0.293893 -0.866025
    endloop
  endfacet
  facet normal -0.906037 0 -0.423198
    outer loop
      vertex -0.809017 -0.587785 0
      vertex -0.809017 80.5878 0
      vertex -0.404508 -0.293893 -0.866025
    endloop
  endfacet
  facet normal -0.906037 0 -0.423198
    outer loop
      vertex -0.404508 -0.293893 -0.866025
      vertex -0.809017 80.5878 0
      vertex -0.404508 80.2939 -0.866025
    endloop
  endfacet
  facet normal -0.279981 0.861693 -0.423197
    outer loop
      vertex -0.404508 80.2939 -0.866025
      vertex -0.809017 80.5878 0
      vertex 0.309017 80.9511 0
    endloop
  endfacet
  facet normal -0.309018 0.951056 0
    outer loop
      vertex -0.809017 80.5878 0
      vertex -0.809017 80.5878 4
      vertex 0.309017 80.9511 0
    endloop
  endfacet
  facet normal -0.309018 0.951056 0
    outer loop
      vertex 0.309017 80.9511 0
      vertex -0.809017 80.5878 4
      vertex 0.309017 80.9511 4
    endloop
  endfacet
  facet normal -0.906037 0 0.423198
    outer loop
      vertex -0.809017 41.5878 4
      vertex -0.404508 41.7192 4.86602
      vertex -0.809017 80.5878 4
    endloop
  endfacet
  facet normal -0.906037 0 0.423198
    outer loop
      vertex -0.809017 80.5878 4
      vertex -0.404508 41.7192 4.86602
      vertex -0.404508 80.2939 4.86602
    endloop
  endfacet
  facet normal -0.279981 0.861692 0.423198
    outer loop
      vertex 0.309017 80.9511 4
      vertex -0.809017 80.5878 4
      vertex 0.154508 80.4755 4.86602
    endloop
  endfacet
  facet normal -0.279981 0.861693 0.423197
    outer loop
      vertex 0.154508 80.4755 4.86602
      vertex -0.809017 80.5878 4
      vertex -0.404508 80.2939 4.86602
    endloop
  endfacet
  facet normal -0.309018 0.951056 0
    outer loop
      vertex -0.809017 41.5878 4
      vertex -0.809017 41.5878 5
      vertex -0.404508 41.7192 4.86602
    endloop
  endfacet
  facet normal -0.309018 0.951056 0
    outer loop
      vertex -0.404508 41.7192 4.86602
      vertex -0.809017 41.5878 5
      vertex 0.309017 41.9511 5
    endloop
  endfacet
  facet normal -0.309018 0.951056 0
    outer loop
      vertex -0.404508 41.7192 4.86602
      vertex 0.309017 41.9511 5
      vertex 0.309017 41.9511 4.86602
    endloop
  endfacet
  facet normal -0.906037 0 0.423198
    outer loop
      vertex -0.809017 39.4122 5
      vertex -0.404508 39.7061 5.86602
      vertex -0.809017 41.5878 5
    endloop
  endfacet
  facet normal -0.906037 0 0.423198
    outer loop
      vertex -0.809017 41.5878 5
      vertex -0.404508 39.7061 5.86602
      vertex -0.404508 41.2939 5.86602
    endloop
  endfacet
  facet normal -0.279981 0.861692 0.423198
    outer loop
      vertex 0.309017 41.9511 5
      vertex -0.809017 41.5878 5
      vertex 0.154508 41.4755 5.86602
    endloop
  endfacet
  facet normal -0.279981 0.861693 0.423197
    outer loop
      vertex 0.154508 41.4755 5.86602
      vertex -0.809017 41.5878 5
      vertex -0.404508 41.2939 5.86602
    endloop
  endfacet
  facet normal -0.279981 -0.861693 0.423197
    outer loop
      vertex -0.404508 39.7061 5.86602
      vertex -0.809017 39.4122 5
      vertex 0.309017 39.0489 5
    endloop
  endfacet
  facet normal -0.309018 -0.951056 0
    outer loop
      vertex -0.809017 39.4122 5
      vertex -0.809017 39.4122 4
      vertex -0.404508 39.2808 4.86602
    endloop
  endfacet
  facet normal -0.309018 -0.951056 0
    outer loop
      vertex 0.309017 39.0489 4.86602
      vertex -0.809017 39.4122 5
      vertex -0.404508 39.2808 4.86602
    endloop
  endfacet
  facet normal -0.309018 -0.951056 0
    outer loop
      vertex 0.309017 39.0489 4.86602
      vertex 0.309017 39.0489 5
      vertex -0.809017 39.4122 5
    endloop
  endfacet
  facet normal -0.906037 0 0.423198
    outer loop
      vertex -0.809017 -0.587785 4
      vertex -0.404508 -0.293893 4.86602
      vertex -0.809017 39.4122 4
    endloop
  endfacet
  facet normal -0.906037 0 0.423198
    outer loop
      vertex -0.809017 39.4122 4
      vertex -0.404508 -0.293893 4.86602
      vertex -0.404508 39.2808 4.86602
    endloop
  endfacet
  facet normal -0.279981 -0.861693 0.423197
    outer loop
      vertex -0.404508 -0.293893 4.86602
      vertex -0.809017 -0.587785 4
      vertex 0.309017 -0.951057 4
    endloop
  endfacet
  facet normal 0 -1 0
    outer loop
      vertex 0.309017 -0.951057 4
      vertex 0.309017 -0.951057 0
      vertex 35.309 -0.951057 0
    endloop
  endfacet
  facet normal 0 -1 0
    outer loop
      vertex 35.309 -0.951057 4
      vertex 0.309017 -0.951057 4
      vertex 35.309 -0.951057 0
    endloop
  endfacet
  facet normal -0.27998 -0.861693 0.423198
    outer loop
      vertex 0.154508 -0.475528 4.86602
      vertex -0.404508 -0.293893 4.86602
      vertex 0.309017 -0.951057 4
    endloop
  endfacet
  facet normal 0 -0.876551 0.481309
    outer loop
      vertex 35.1545 -0.475528 4.86602
      vertex 0.154508 -0.475528 4.86602
      vertex 0.309017 -0.951057 4
    endloop
  endfacet
  facet normal 0 -0.876551 0.481309
    outer loop
      vertex 35.309 -0.951057 4
      vertex 35.1545 -0.475528 4.86602
      vertex 0.309017 -0.951057 4
    endloop
  endfacet
  facet normal 0 -0.876551 -0.481309
    outer loop
      vertex 0.309017 -0.951057 0
      vertex 0.154508 -0.475528 -0.866025
      vertex 35.1545 -0.475528 -0.866025
    endloop
  endfacet
  facet normal 0 -0.876551 -0.481309
    outer loop
      vertex 35.309 -0.951057 0
      vertex 0.309017 -0.951057 0
      vertex 35.1545 -0.475528 -0.866025
    endloop
  endfacet
  facet normal 0 0 -1
    outer loop
      vertex -0.404508 -0.293893 -0.866025
      vertex -0.404508 80.2939 -0.866025
      vertex 0.154508 -0.475528 -0.866025
    endloop
  endfacet
  facet normal 0 0 -1
    outer loop
      vertex 0.154508 -0.475528 -0.866025
      vertex -0.404508 80.2939 -0.866025
      vertex 0.154508 80.4755 -0.866025
    endloop
  endfacet
  facet normal 0 0 -1
    outer loop
      vertex 0.154508 -0.475528 -0.866025
      vertex 0.154508 80.4755 -0.866025
      vertex 35.1545 80.4755 -0.866025
    endloop
  endfacet
  facet normal 0 0 -1
    outer loop
      vertex 0.154508 -0.475528 -0.866025
      vertex 35.1545 80.4755 -0.866025
      vertex 35.5 80 -0.866025
    endloop
  endfacet
  facet normal 0 0 -1
    outer loop
      vertex 0.154508 -0.475528 -0.866025
      vertex 35.5 80 -0.866025
      vertex 35.5 0 -0.866025
    endloop
  endfacet
  facet normal 0 0 -1
    outer loop
      vertex 0.154508 -0.475528 -0.866025
      vertex 35.5 0 -0.866025
      vertex 35.1545 -0.475528 -0.866025
    endloop
  endfacet
  facet normal -0.27998 0.861693 -0.423198
    outer loop
      vertex 0.154508 80.4755 -0.866025
      vertex -0.404508 80.2939 -0.866025
      vertex 0.309017 80.9511 0
    endloop
  endfacet
  facet normal 0 1 0
    outer loop
      vertex 0.309017 80.9511 0
      vertex 0.309017 80.9511 4
      vertex 35.309 80.9511 0
    endloop
  endfacet
  facet normal 0 1 0
    outer loop
      vertex 35.309 80.9511 0
      vertex 0.309017 80.9511 4
      vertex 35.309 80.9511 4
    endloop
  endfacet
  facet normal 0 0.876551 -0.481309
    outer loop
      vertex 0.154508 80.4755 -0.866025
      vertex 0.309017 80.9511 0
      vertex 35.1545 80.4755 -0.866025
    endloop
  endfacet
  facet normal 0 0.876551 -0.481309
    outer loop
      vertex 35.1545 80.4755 -0.866025
      vertex 0.309017 80.9511 0
      vertex 35.309 80.9511 0
    endloop
  endfacet
  facet normal 0 0.876551 0.481309
    outer loop
      vertex 0.154508 80.4755 4.86602
      vertex 35.1545 80.4755 4.86602
      vertex 0.309017 80.9511 4
    endloop
  endfacet
  facet normal 0 0.876551 0.481309
    outer loop
      vertex 0.309017 80.9511 4
      vertex 35.1545 80.4755 4.86602
      vertex 35.309 80.9511 4
    endloop
  endfacet
  facet normal 0 0 1
    outer loop
      vertex 35.309 41.9511 4.86602
      vertex 35.5 80 4.86602
      vertex -0.404508 80.2939 4.86602
    endloop
  endfacet
  facet normal 0 0 1
    outer loop
      vertex -0.404508 80.2939 4.86602
      vertex -0.404508 41.7192 4.86602
      vertex 0.309017 41.9511 4.86602
    endloop
  endfacet
  facet normal 0 0 1
    outer loop
      vertex 35.309 41.9511 4.86602
      vertex -0.404508 80.2939 4.86602
      vertex 0.309017 41.9511 4.86602
    endloop
  endfacet
  facet normal 0 0 1
    outer loop
      vertex 35.5 41.6882 4.86602
      vertex 35.5 80 4.86602
      vertex 35.309 41.9511 4.86602
    endloop
  endfacet
  facet normal 0 0 1
    outer loop
      vertex 35.5 80 4.86602
      vertex 35.1545 80.4755 4.86602
      vertex -0.404508 80.2939 4.86602
    endloop
  endfacet
  facet normal 0 0 1
    outer loop
      vertex 35.1545 80.4755 4.86602
      vertex 0.154508 80.4755 4.86602
      vertex -0.404508 80.2939 4.86602
    endloop
  endfacet
  facet normal 0 1 0
    outer loop
      vertex 0.309017 41.9511 4.86602
      vertex 0.309017 41.9511 5
      vertex 35.309 41.9511 4.86602
    endloop
  endfacet
  facet normal 0 1 0
    outer loop
      vertex 35.309 41.9511 4.86602
      vertex 0.309017 41.9511 5
      vertex 35.309 41.9511 5
    endloop
  endfacet
  facet normal 0 0.876551 0.481309
    outer loop
      vertex 0.154508 41.4755 5.86602
      vertex 35.1545 41.4755 5.86602
      vertex 0.309017 41.9511 5
    endloop
  endfacet
  facet normal 0 0.876551 0.481309
    outer loop
      vertex 0.309017 41.9511 5
      vertex 35.1545 41.4755 5.86602
      vertex 35.309 41.9511 5
    endloop
  endfacet
  facet normal 0 0 1
    outer loop
      vertex -0.404508 41.2939 5.86602
      vertex -0.404508 39.7061 5.86602
      vertex 0.154508 39.5245 5.86602
    endloop
  endfacet
  facet normal 0 0 1
    outer loop
      vertex 35.5 40 5.86602
      vertex -0.404508 41.2939 5.86602
      vertex 35.1545 39.5245 5.86602
    endloop
  endfacet
  facet normal 0 0 1
    outer loop
      vertex 35.1545 39.5245 5.86602
      vertex -0.404508 41.2939 5.86602
      vertex 0.154508 39.5245 5.86602
    endloop
  endfacet
  facet normal 0 0 1
    outer loop
      vertex 35.5 41 5.86602
      vertex -0.404508 41.2939 5.86602
      vertex 35.5 40 5.86602
    endloop
  endfacet
  facet normal 0 0 1
    outer loop
      vertex 35.1545 41.4755 5.86602
      vertex -0.404508 41.2939 5.86602
      vertex 35.5 41 5.86602
    endloop
  endfacet
  facet normal 0 0 1
    outer loop
      vertex 0.154508 41.4755 5.86602
      vertex -0.404508 41.2939 5.86602
      vertex 35.1545 41.4755 5.86602
    endloop
  endfacet
  facet normal -0.27998 -0.861693 0.423198
    outer loop
      vertex 0.154508 39.5245 5.86602
      vertex -0.404508 39.7061 5.86602
      vertex 0.309017 39.0489 5
    endloop
  endfacet
  facet normal 0 -1 0
    outer loop
      vertex 0.309017 39.0489 5
      vertex 0.309017 39.0489 4.86602
      vertex 35.309 39.0489 4.86602
    endloop
  endfacet
  facet normal 0 -1 0
    outer loop
      vertex 35.309 39.0489 5
      vertex 0.309017 39.0489 5
      vertex 35.309 39.0489 4.86602
    endloop
  endfacet
  facet normal 0 -0.876551 0.481309
    outer loop
      vertex 35.1545 39.5245 5.86602
      vertex 0.154508 39.5245 5.86602
      vertex 0.309017 39.0489 5
    endloop
  endfacet
  facet normal 0 -0.876551 0.481309
    outer loop
      vertex 35.309 39.0489 5
      vertex 35.1545 39.5245 5.86602
      vertex 0.309017 39.0489 5
    endloop
  endfacet
  facet normal 0 0 1
    outer loop
      vertex -0.404508 39.2808 4.86602
      vertex -0.404508 -0.293893 4.86602
      vertex 0.154508 -0.475528 4.86602
    endloop
  endfacet
  facet normal 0 0 1
    outer loop
      vertex 35.5 0 4.86602
      vertex -0.404508 39.2808 4.86602
      vertex 35.1545 -0.475528 4.86602
    endloop
  endfacet
  facet normal 0 0 1
    outer loop
      vertex 35.1545 -0.475528 4.86602
      vertex -0.404508 39.2808 4.86602
      vertex 0.154508 -0.475528 4.86602
    endloop
  endfacet
  facet normal 0 0 1
    outer loop
      vertex 0.309017 39.0489 4.86602
      vertex -0.404508 39.2808 4.86602
      vertex 35.5 0 4.86602
    endloop
  endfacet
  facet normal 0 0 1
    outer loop
      vertex 35.5 39.3118 4.86602
      vertex 35.309 39.0489 4.86602
      vertex 35.5 0 4.86602
    endloop
  endfacet
  facet normal 0 0 1
    outer loop
      vertex 35.309 39.0489 4.86602
      vertex 0.309017 39.0489 4.86602
      vertex 35.5 0 4.86602
    endloop
  endfacet
  facet normal 0.732999 -0.532555 0.423198
    outer loop
      vertex 36 0 4
      vertex 35.1545 -0.475528 4.86602
      vertex 35.309 -0.951057 4
    endloop
  endfacet
  facet normal 0.809017 -0.587785 0
    outer loop
      vertex 35.309 -0.951057 4
      vertex 35.309 -0.951057 0
      vertex 36 0 0
    endloop
  endfacet
  facet normal 0.809017 -0.587785 0
    outer loop
      vertex 36 0 4
      vertex 35.309 -0.951057 4
      vertex 36 0 0
    endloop
  endfacet
  facet normal 0.733 -0.532555 -0.423198
    outer loop
      vertex 36 0 0
      vertex 35.309 -0.951057 0
      vertex 35.5 0 -0.866025
    endloop
  endfacet
  facet normal 0.732999 -0.532556 -0.423199
    outer loop
      vertex 35.309 -0.951057 0
      vertex 35.1545 -0.475528 -0.866025
      vertex 35.5 0 -0.866025
    endloop
  endfacet
  facet normal 0.732999 -0.532556 0.423197
    outer loop
      vertex 35.5 0 4.86602
      vertex 35.1545 -0.475528 4.86602
      vertex 36 0 4
    endloop
  endfacet
  facet normal 0.866025 0 -0.5
    outer loop
      vertex 36 0 0
      vertex 35.5 0 -0.866025
      vertex 35.5 80 -0.866025
    endloop
  endfacet
  facet normal 0.866025 0 -0.5
    outer loop
      vertex 36 80 0
      vertex 36 0 0
      vertex 35.5 80 -0.866025
    endloop
  endfacet
  facet normal 0.732999 0.532556 -0.423197
    outer loop
      vertex 35.5 80 -0.866025
      vertex 35.1545 80.4755 -0.866025
      vertex 36 80 0
    endloop
  endfacet
  facet normal 0.732999 0.532555 -0.423198
    outer loop
      vertex 36 80 0
      vertex 35.1545 80.4755 -0.866025
      vertex 35.309 80.9511 0
    endloop
  endfacet
  facet normal 0.809017 0.587785 0
    outer loop
      vertex 36 80 0
      vertex 35.309 80.9511 0
      vertex 35.309 80.9511 4
    endloop
  endfacet
  facet normal 0.809017 0.587785 0
    outer loop
      vertex 36 80 4
      vertex 36 80 0
      vertex 35.309 80.9511 4
    endloop
  endfacet
  facet normal 0.733 0.532555 0.423198
    outer loop
      vertex 36 80 4
      vertex 35.309 80.9511 4
      vertex 35.5 80 4.86602
    endloop
  endfacet
  facet normal 0.732999 0.532556 0.423199
    outer loop
      vertex 35.309 80.9511 4
      vertex 35.1545 80.4755 4.86602
      vertex 35.5 80 4.86602
    endloop
  endfacet
  facet normal 0.866025 0 0.5
    outer loop
      vertex 35.5 80 4.86602
      vertex 35.5 41.6882 4.86602
      vertex 36 41 4
    endloop
  endfacet
  facet normal 0.866025 0 0.5
    outer loop
      vertex 36 80 4
      vertex 35.5 80 4.86602
      vertex 36 41 4
    endloop
  endfacet
  facet normal 0.809017 0.587785 0
    outer loop
      vertex 35.5 41.6882 4.86602
      vertex 35.309 41.9511 4.86602
      vertex 35.309 41.9511 5
    endloop
  endfacet
  facet normal 0.809017 0.587785 0
    outer loop
      vertex 36 41 4
      vertex 35.5 41.6882 4.86602
      vertex 36 41 5
    endloop
  endfacet
  facet normal 0.809017 0.587785 0
    outer loop
      vertex 36 41 5
      vertex 35.5 41.6882 4.86602
      vertex 35.309 41.9511 5
    endloop
  endfacet
  facet normal 0.733 0.532555 0.423198
    outer loop
      vertex 36 41 5
      vertex 35.309 41.9511 5
      vertex 35.5 41 5.86602
    endloop
  endfacet
  facet normal 0.732999 0.532556 0.423199
    outer loop
      vertex 35.309 41.9511 5
      vertex 35.1545 41.4755 5.86602
      vertex 35.5 41 5.86602
    endloop
  endfacet
  facet normal 0.866025 0 0.5
    outer loop
      vertex 35.5 41 5.86602
      vertex 35.5 40 5.86602
      vertex 36 40 5
    endloop
  endfacet
  facet normal 0.866025 0 0.5
    outer loop
      vertex 36 41 5
      vertex 35.5 41 5.86602
      vertex 36 40 5
    endloop
  endfacet
  facet normal 0.732999 -0.532556 0.423197
    outer loop
      vertex 35.5 40 5.86602
      vertex 35.1545 39.5245 5.86602
      vertex 36 40 5
    endloop
  endfacet
  facet normal 0.732999 -0.532555 0.423198
    outer loop
      vertex 36 40 5
      vertex 35.1545 39.5245 5.86602
      vertex 35.309 39.0489 5
    endloop
  endfacet
  facet normal 0.809017 -0.587785 0
    outer loop
      vertex 35.309 39.0489 5
      vertex 35.309 39.0489 4.86602
      vertex 35.5 39.3118 4.86602
    endloop
  endfacet
  facet normal 0.809017 -0.587785 0
    outer loop
      vertex 36 40 5
      vertex 35.309 39.0489 5
      vertex 35.5 39.3118 4.86602
    endloop
  endfacet
  facet normal 0.809017 -0.587785 0
    outer loop
      vertex 36 40 4
      vertex 36 40 5
      vertex 35.5 39.3118 4.86602
    endloop
  endfacet
  facet normal 0.866025 0 0.5
    outer loop
      vertex 35.5 39.3118 4.86602
      vertex 35.5 0 4.86602
      vertex 36 0 4
    endloop
  endfacet
  facet normal 0.866025 0 0.5
    outer loop
      vertex 36 40 4
      vertex 35.5 39.3118 4.86602
      vertex 36 0 4
    endloop
  endfacet
  facet normal 1 0 0
    outer loop
      vertex 36 0 4
      vertex 36 0 0
      vertex 36 80 0
    endloop
  endfacet
  facet normal 1 0 0
    outer loop
      vertex 36 40 4
      vertex 36 0 4
      vertex 36 80 0
    endloop
  endfacet
  facet normal 1 0 0
    outer loop
      vertex 36 41 4
      vertex 36 40 4
      vertex 36 80 0
    endloop
  endfacet
  facet normal 1 0 0
    outer loop
      vertex 36 80 4
      vertex 36 41 4
      vertex 36 80 0
    endloop
  endfacet
  facet normal 1 0 0
    outer loop
      vertex 36 41 5
      vertex 36 40 4
      vertex 36 41 4
    endloop
  endfacet
  facet normal 1 0 0
    outer loop
      vertex 36 40 5
      vertex 36 40 4
      vertex 36 41 5
    endloop
  endfacet
endsolid OpenSCAD_Model
