solid OpenSCAD_Model
  facet normal -1 0 0
    outer loop
      vertex 0 0 0
      vertex 0 0 0.2
      vertex 0 5 0
    endloop
  endfacet
  facet normal -1 0 0
    outer loop
      vertex 0 5 0
      vertex 0 0 0.2
      vertex 0 5 0.2
    endloop
  endfacet
  facet normal 0 -1 0
    outer loop
      vertex 0 0 0.2
      vertex 0 0 0
      vertex 40 0 0
    endloop
  endfacet
  facet normal 0 -1 0
    outer loop
      vertex 22.5 0 0.2
      vertex 17.5 0 0.2
      vertex 40 0 0
    endloop
  endfacet
  facet normal 0 -1 0
    outer loop
      vertex 35 0 0.2
      vertex 22.5 0 0.2
      vertex 40 0 0
    endloop
  endfacet
  facet normal 0 -1 0
    outer loop
      vertex 40 0 0.2
      vertex 35 0 0.2
      vertex 40 0 0
    endloop
  endfacet
  facet normal 0 -1 0
    outer loop
      vertex 35 0 2.8
      vertex 22.5 0 0.2
      vertex 35 0 0.2
    endloop
  endfacet
  facet normal 0 -1 0
    outer loop
      vertex 17.5 0 0.2
      vertex 5 0 0.2
      vertex 40 0 0
    endloop
  endfacet
  facet normal 0 -1 0
    outer loop
      vertex 5 0 0.2
      vertex 0 0 0.2
      vertex 40 0 0
    endloop
  endfacet
  facet normal 0 -1 0
    outer loop
      vertex 17.5 0 0.2
      vertex 17.5 0 2.8
      vertex 5 0 0.2
    endloop
  endfacet
  facet normal 0 -1 0
    outer loop
      vertex 5 0 2.8
      vertex 5 0 0.2
      vertex 17.5 0 2.8
    endloop
  endfacet
  facet normal 0 -1 0
    outer loop
      vertex 22.5 0 2.8
      vertex 22.5 0 0.2
      vertex 35 0 2.8
    endloop
  endfacet
  facet normal 0 0 -1
    outer loop
      vertex 0 0 0
      vertex 0 5 0
      vertex 40 0 0
    endloop
  endfacet
  facet normal 0 0 -1
    outer loop
      vertex 40 0 0
      vertex 0 5 0
      vertex 40 5 0
    endloop
  endfacet
  facet normal 0 1 0
    outer loop
      vertex 0 5 0
      vertex 0 5 0.2
      vertex 40 5 0
    endloop
  endfacet
  facet normal 0 1 0
    outer loop
      vertex 40 5 0
      vertex 0 5 0.2
      vertex 5 5 0.2
    endloop
  endfacet
  facet normal 0 1 0
    outer loop
      vertex 17.5 5 0.2
      vertex 5 5 0.2
      vertex 5 5 2.8
    endloop
  endfacet
  facet normal 0 1 0
    outer loop
      vertex 40 5 0
      vertex 5 5 0.2
      vertex 17.5 5 0.2
    endloop
  endfacet
  facet normal 0 1 0
    outer loop
      vertex 40 5 0.2
      vertex 40 5 0
      vertex 35 5 0.2
    endloop
  endfacet
  facet normal 0 1 0
    outer loop
      vertex 40 5 0
      vertex 17.5 5 0.2
      vertex 22.5 5 0.2
    endloop
  endfacet
  facet normal 0 1 0
    outer loop
      vertex 22.5 5 2.8
      vertex 35 5 0.2
      vertex 22.5 5 0.2
    endloop
  endfacet
  facet normal 0 1 0
    outer loop
      vertex 35 5 0.2
      vertex 22.5 5 2.8
      vertex 35 5 2.8
    endloop
  endfacet
  facet normal 0 1 0
    outer loop
      vertex 40 5 0
      vertex 22.5 5 0.2
      vertex 35 5 0.2
    endloop
  endfacet
  facet normal 0 1 0
    outer loop
      vertex 17.5 5 0.2
      vertex 5 5 2.8
      vertex 17.5 5 2.8
    endloop
  endfacet
  facet normal 0 0 1
    outer loop
      vertex 0 5 0.2
      vertex 0 0 0.2
      vertex 5 0 0.2
    endloop
  endfacet
  facet normal 0 0 1
    outer loop
      vertex 5 5 0.2
      vertex 0 5 0.2
      vertex 5 0 0.2
    endloop
  endfacet
  facet normal -1 0 0
    outer loop
      vertex 5 0 0.2
      vertex 5 0 2.8
      vertex 5 5 0.2
    endloop
  endfacet
  facet normal -1 0 0
    outer loop
      vertex 5 5 0.2
      vertex 5 0 2.8
      vertex 5 5 2.8
    endloop
  endfacet
  facet normal 0 0 1
    outer loop
      vertex 5 5 2.8
      vertex 5 0 2.8
      vertex 17.5 0 2.8
    endloop
  endfacet
  facet normal 0 0 1
    outer loop
      vertex 17.5 5 2.8
      vertex 5 5 2.8
      vertex 17.5 0 2.8
    endloop
  endfacet
  facet normal 1 0 0
    outer loop
      vertex 17.5 0 2.8
      vertex 17.5 0 0.2
      vertex 17.5 5 0.2
    endloop
  endfacet
  facet normal 1 0 0
    outer loop
      vertex 17.5 5 2.8
      vertex 17.5 0 2.8
      vertex 17.5 5 0.2
    endloop
  endfacet
  facet normal 0 0 1
    outer loop
      vertex 17.5 5 0.2
      vertex 17.5 0 0.2
      vertex 22.5 0 0.2
    endloop
  endfacet
  facet normal 0 0 1
    outer loop
      vertex 22.5 5 0.2
      vertex 17.5 5 0.2
      vertex 22.5 0 0.2
    endloop
  endfacet
  facet normal -1 0 0
    outer loop
      vertex 22.5 0 0.2
      vertex 22.5 0 2.8
      vertex 22.5 5 0.2
    endloop
  endfacet
  facet normal -1 0 0
    outer loop
      vertex 22.5 5 0.2
      vertex 22.5 0 2.8
      vertex 22.5 5 2.8
    endloop
  endfacet
  facet normal 0 0 1
    outer loop
      vertex 22.5 5 2.8
      vertex 22.5 0 2.8
      vertex 35 0 2.8
    endloop
  endfacet
  facet normal 0 0 1
    outer loop
      vertex 35 5 2.8
      vertex 22.5 5 2.8
      vertex 35 0 2.8
    endloop
  endfacet
  facet normal 1 0 0
    outer loop
      vertex 35 0 2.8
      vertex 35 0 0.2
      vertex 35 5 0.2
    endloop
  endfacet
  facet normal 1 0 0
    outer loop
      vertex 35 5 2.8
      vertex 35 0 2.8
      vertex 35 5 0.2
    endloop
  endfacet
  facet normal 0 0 1
    outer loop
      vertex 35 5 0.2
      vertex 35 0 0.2
      vertex 40 0 0.2
    endloop
  endfacet
  facet normal 0 0 1
    outer loop
      vertex 40 5 0.2
      vertex 35 5 0.2
      vertex 40 0 0.2
    endloop
  endfacet
  facet normal 1 0 0
    outer loop
      vertex 40 0 0.2
      vertex 40 0 0
      vertex 40 5 0
    endloop
  endfacet
  facet normal 1 0 0
    outer loop
      vertex 40 5 0.2
      vertex 40 0 0.2
      vertex 40 5 0
    endloop
  endfacet
endsolid OpenSCAD_Model
