solid OpenSCAD_Model
  facet normal -0.5 0.866025 0
    outer loop
      vertex 0 0 10
      vertex 0 0 0
      vertex -17.3108 -9.9944 10
    endloop
  endfacet
  facet normal -0.5 0.866025 0
    outer loop
      vertex -17.3108 -9.9944 10
      vertex 0 0 0
      vertex -17.3108 -9.9944 0
    endloop
  endfacet
  facet normal -0.880596 -0.473868 0
    outer loop
      vertex -17.3108 -9.9944 0
      vertex -17.169 -10.258 0
      vertex -17.3108 -9.9944 10
    endloop
  endfacet
  facet normal -0.880596 -0.473868 0
    outer loop
      vertex -17.3108 -9.9944 10
      vertex -17.169 -10.258 0
      vertex -17.169 -10.258 10
    endloop
  endfacet
  facet normal 0 0 -1
    outer loop
      vertex -17.3108 -9.9944 0
      vertex 0 0 0
      vertex -17.169 -10.258 0
    endloop
  endfacet
  facet normal 0 0 -1
    outer loop
      vertex -17.169 10.258 0
      vertex 0 0 0
      vertex -17.3108 9.9944 0
    endloop
  endfacet
  facet normal 0 0 -1
    outer loop
      vertex -16.1803 11.7557 0
      vertex 0 0 0
      vertex -17.169 10.258 0
    endloop
  endfacet
  facet normal 0 0 -1
    outer loop
      vertex -15.0614 13.1588 0
      vertex 0 0 0
      vertex -16.1803 11.7557 0
    endloop
  endfacet
  facet normal 0 0 -1
    outer loop
      vertex -13.8213 14.4559 0
      vertex 0 0 0
      vertex -15.0614 13.1588 0
    endloop
  endfacet
  facet normal 0 0 -1
    outer loop
      vertex -12.4698 15.6366 0
      vertex 0 0 0
      vertex -13.8213 14.4559 0
    endloop
  endfacet
  facet normal 0 0 -1
    outer loop
      vertex -11.0179 16.6915 0
      vertex 0 0 0
      vertex -12.4698 15.6366 0
    endloop
  endfacet
  facet normal 0 0 -1
    outer loop
      vertex -9.47737 17.6119 0
      vertex 0 0 0
      vertex -11.0179 16.6915 0
    endloop
  endfacet
  facet normal 0 0 -1
    outer loop
      vertex -7.8605 18.3906 0
      vertex 0 0 0
      vertex -9.47737 17.6119 0
    endloop
  endfacet
  facet normal 0 0 -1
    outer loop
      vertex -6.18034 19.0211 0
      vertex 0 0 0
      vertex -7.8605 18.3906 0
    endloop
  endfacet
  facet normal 0 0 -1
    outer loop
      vertex -4.45042 19.4986 0
      vertex 0 0 0
      vertex -6.18034 19.0211 0
    endloop
  endfacet
  facet normal 0 0 -1
    outer loop
      vertex -2.68466 19.819 0
      vertex 0 0 0
      vertex -4.45042 19.4986 0
    endloop
  endfacet
  facet normal 0 0 -1
    outer loop
      vertex -0.897297 19.9799 0
      vertex 0 0 0
      vertex -2.68466 19.819 0
    endloop
  endfacet
  facet normal 0 0 -1
    outer loop
      vertex 0.897297 19.9799 0
      vertex 0 0 0
      vertex -0.897297 19.9799 0
    endloop
  endfacet
  facet normal 0 0 -1
    outer loop
      vertex 2.68466 19.819 0
      vertex 0 0 0
      vertex 0.897297 19.9799 0
    endloop
  endfacet
  facet normal 0 0 -1
    outer loop
      vertex 4.45042 19.4986 0
      vertex 0 0 0
      vertex 2.68466 19.819 0
    endloop
  endfacet
  facet normal 0 0 -1
    outer loop
      vertex 6.18034 19.0211 0
      vertex 0 0 0
      vertex 4.45042 19.4986 0
    endloop
  endfacet
  facet normal 0 0 -1
    outer loop
      vertex 7.8605 18.3906 0
      vertex 0 0 0
      vertex 6.18034 19.0211 0
    endloop
  endfacet
  facet normal 0 0 -1
    outer loop
      vertex 9.47737 17.6119 0
      vertex 0 0 0
      vertex 7.8605 18.3906 0
    endloop
  endfacet
  facet normal 0 0 -1
    outer loop
      vertex 11.0179 16.6915 0
      vertex 0 0 0
      vertex 9.47737 17.6119 0
    endloop
  endfacet
  facet normal 0 0 -1
    outer loop
      vertex 12.4698 15.6366 0
      vertex 0 0 0
      vertex 11.0179 16.6915 0
    endloop
  endfacet
  facet normal 0 0 -1
    outer loop
      vertex 13.8213 14.4559 0
      vertex 0 0 0
      vertex 12.4698 15.6366 0
    endloop
  endfacet
  facet normal 0 0 -1
    outer loop
      vertex 15.0614 13.1588 0
      vertex 0 0 0
      vertex 13.8213 14.4559 0
    endloop
  endfacet
  facet normal 0 0 -1
    outer loop
      vertex 16.1803 11.7557 0
      vertex 0 0 0
      vertex 15.0614 13.1588 0
    endloop
  endfacet
  facet normal 0 0 -1
    outer loop
      vertex 17.169 10.258 0
      vertex 0 0 0
      vertex 16.1803 11.7557 0
    endloop
  endfacet
  facet normal 0 0 -1
    outer loop
      vertex 18.0194 8.67767 0
      vertex 0 0 0
      vertex 17.169 10.258 0
    endloop
  endfacet
  facet normal 0 0 -1
    outer loop
      vertex -17.169 -10.258 0
      vertex 0 0 0
      vertex 18.0194 8.67767 0
    endloop
  endfacet
  facet normal 0 0 -1
    outer loop
      vertex -17.169 -10.258 0
      vertex 18.0194 8.67767 0
      vertex 18.7247 7.0275 0
    endloop
  endfacet
  facet normal 0 0 -1
    outer loop
      vertex -17.169 -10.258 0
      vertex 18.7247 7.0275 0
      vertex 19.2793 5.32074 0
    endloop
  endfacet
  facet normal 0 0 -1
    outer loop
      vertex -17.169 -10.258 0
      vertex 19.2793 5.32074 0
      vertex 19.6786 3.57114 0
    endloop
  endfacet
  facet normal 0 0 -1
    outer loop
      vertex -17.169 -10.258 0
      vertex 19.6786 3.57114 0
      vertex 19.9195 1.79279 0
    endloop
  endfacet
  facet normal 0 0 -1
    outer loop
      vertex -17.169 -10.258 0
      vertex 19.9195 1.79279 0
      vertex 20 0 0
    endloop
  endfacet
  facet normal 0 0 -1
    outer loop
      vertex -3.31358 -7.01643 0
      vertex 20 0 0
      vertex 19.9195 -1.79279 0
    endloop
  endfacet
  facet normal 0 0 -1
    outer loop
      vertex -1.5 -7.40192 0
      vertex 19.9195 -1.79279 0
      vertex 19.6786 -3.57114 0
    endloop
  endfacet
  facet normal 0 0 -1
    outer loop
      vertex -0.992608 -7.77057 0
      vertex 19.6786 -3.57114 0
      vertex 19.2793 -5.32074 0
    endloop
  endfacet
  facet normal 0 0 -1
    outer loop
      vertex -0.572949 -8.23664 0
      vertex 19.2793 -5.32074 0
      vertex 18.7247 -7.0275 0
    endloop
  endfacet
  facet normal 0 0 -1
    outer loop
      vertex -0.065557 -9.37627 0
      vertex 18.7247 -7.0275 0
      vertex 18.0194 -8.67767 0
    endloop
  endfacet
  facet normal 0 0 -1
    outer loop
      vertex 0 -10 0
      vertex 18.0194 -8.67767 0
      vertex 17.169 -10.258 0
    endloop
  endfacet
  facet normal 0 0 -1
    outer loop
      vertex -0.065557 -10.6237 0
      vertex 17.169 -10.258 0
      vertex 16.1803 -11.7557 0
    endloop
  endfacet
  facet normal 0 0 -1
    outer loop
      vertex -0.992608 -12.2294 0
      vertex 15.0614 -13.1588 0
      vertex 13.8213 -14.4559 0
    endloop
  endfacet
  facet normal 0 0 -1
    outer loop
      vertex -2.68641 -12.9836 0
      vertex 12.4698 -15.6366 0
      vertex 11.0179 -16.6915 0
    endloop
  endfacet
  facet normal 0 0 -1
    outer loop
      vertex -17.169 -10.258 0
      vertex 11.0179 -16.6915 0
      vertex 9.47737 -17.6119 0
    endloop
  endfacet
  facet normal 0 0 -1
    outer loop
      vertex -17.169 -10.258 0
      vertex 9.47737 -17.6119 0
      vertex 7.8605 -18.3906 0
    endloop
  endfacet
  facet normal 0 0 -1
    outer loop
      vertex -17.169 -10.258 0
      vertex 7.8605 -18.3906 0
      vertex 6.18034 -19.0211 0
    endloop
  endfacet
  facet normal 0 0 -1
    outer loop
      vertex -17.169 -10.258 0
      vertex 6.18034 -19.0211 0
      vertex 4.45042 -19.4986 0
    endloop
  endfacet
  facet normal 0 0 -1
    outer loop
      vertex -17.169 -10.258 0
      vertex 4.45042 -19.4986 0
      vertex 2.68466 -19.819 0
    endloop
  endfacet
  facet normal 0 0 -1
    outer loop
      vertex -17.169 -10.258 0
      vertex 2.68466 -19.819 0
      vertex 0.897297 -19.9799 0
    endloop
  endfacet
  facet normal 0 0 -1
    outer loop
      vertex -17.169 -10.258 0
      vertex 0.897297 -19.9799 0
      vertex -0.897297 -19.9799 0
    endloop
  endfacet
  facet normal 0 0 -1
    outer loop
      vertex -17.169 -10.258 0
      vertex -0.897297 -19.9799 0
      vertex -2.68466 -19.819 0
    endloop
  endfacet
  facet normal 0 0 -1
    outer loop
      vertex -17.169 -10.258 0
      vertex -2.68466 -19.819 0
      vertex -4.45042 -19.4986 0
    endloop
  endfacet
  facet normal 0 0 -1
    outer loop
      vertex -17.169 -10.258 0
      vertex -4.45042 -19.4986 0
      vertex -6.18034 -19.0211 0
    endloop
  endfacet
  facet normal 0 0 -1
    outer loop
      vertex -17.169 -10.258 0
      vertex -6.18034 -19.0211 0
      vertex -7.8605 -18.3906 0
    endloop
  endfacet
  facet normal 0 0 -1
    outer loop
      vertex -17.169 -10.258 0
      vertex -7.8605 -18.3906 0
      vertex -9.47737 -17.6119 0
    endloop
  endfacet
  facet normal 0 0 -1
    outer loop
      vertex -17.169 -10.258 0
      vertex -9.47737 -17.6119 0
      vertex -11.0179 -16.6915 0
    endloop
  endfacet
  facet normal 0 0 -1
    outer loop
      vertex -17.169 -10.258 0
      vertex -11.0179 -16.6915 0
      vertex -12.4698 -15.6366 0
    endloop
  endfacet
  facet normal 0 0 -1
    outer loop
      vertex -17.169 -10.258 0
      vertex -12.4698 -15.6366 0
      vertex -13.8213 -14.4559 0
    endloop
  endfacet
  facet normal 0 0 -1
    outer loop
      vertex -17.169 -10.258 0
      vertex -13.8213 -14.4559 0
      vertex -15.0614 -13.1588 0
    endloop
  endfacet
  facet normal 0 0 -1
    outer loop
      vertex -17.169 -10.258 0
      vertex -15.0614 -13.1588 0
      vertex -16.1803 -11.7557 0
    endloop
  endfacet
  facet normal 0 0 -1
    outer loop
      vertex -5.93444 -10.6237 0
      vertex -17.169 -10.258 0
      vertex -6 -10 0
    endloop
  endfacet
  facet normal 0 0 -1
    outer loop
      vertex -5.74064 -11.2202 0
      vertex -17.169 -10.258 0
      vertex -5.93444 -10.6237 0
    endloop
  endfacet
  facet normal 0 0 -1
    outer loop
      vertex -0.065557 -10.6237 0
      vertex 16.1803 -11.7557 0
      vertex -0.259364 -11.2202 0
    endloop
  endfacet
  facet normal 0 0 -1
    outer loop
      vertex -0.259364 -11.2202 0
      vertex 16.1803 -11.7557 0
      vertex 15.0614 -13.1588 0
    endloop
  endfacet
  facet normal 0 0 -1
    outer loop
      vertex -0.992608 -12.2294 0
      vertex 13.8213 -14.4559 0
      vertex -1.5 -12.5981 0
    endloop
  endfacet
  facet normal 0 0 -1
    outer loop
      vertex -2.68641 -12.9836 0
      vertex 11.0179 -16.6915 0
      vertex -3.31358 -12.9836 0
    endloop
  endfacet
  facet normal 0 0 -1
    outer loop
      vertex -17.169 -10.258 0
      vertex -4.5 -12.5981 0
      vertex -3.92705 -12.8532 0
    endloop
  endfacet
  facet normal 0 0 -1
    outer loop
      vertex -17.169 -10.258 0
      vertex -3.92705 -12.8532 0
      vertex 11.0179 -16.6915 0
    endloop
  endfacet
  facet normal 0 0 -1
    outer loop
      vertex -3.92705 -12.8532 0
      vertex -3.31358 -12.9836 0
      vertex 11.0179 -16.6915 0
    endloop
  endfacet
  facet normal 0 0 -1
    outer loop
      vertex -1.5 -12.5981 0
      vertex 12.4698 -15.6366 0
      vertex -2.07295 -12.8532 0
    endloop
  endfacet
  facet normal 0 0 -1
    outer loop
      vertex -2.07295 -12.8532 0
      vertex 12.4698 -15.6366 0
      vertex -2.68641 -12.9836 0
    endloop
  endfacet
  facet normal 0 0 -1
    outer loop
      vertex -1.5 -12.5981 0
      vertex 13.8213 -14.4559 0
      vertex 12.4698 -15.6366 0
    endloop
  endfacet
  facet normal 0 0 -1
    outer loop
      vertex -4.5 -12.5981 0
      vertex -17.169 -10.258 0
      vertex -5.00739 -12.2294 0
    endloop
  endfacet
  facet normal 0 0 -1
    outer loop
      vertex -0.259364 -11.2202 0
      vertex 15.0614 -13.1588 0
      vertex -0.572949 -11.7634 0
    endloop
  endfacet
  facet normal 0 0 -1
    outer loop
      vertex -0.572949 -11.7634 0
      vertex 15.0614 -13.1588 0
      vertex -0.992608 -12.2294 0
    endloop
  endfacet
  facet normal 0 0 -1
    outer loop
      vertex -5.00739 -12.2294 0
      vertex -17.169 -10.258 0
      vertex -5.42705 -11.7634 0
    endloop
  endfacet
  facet normal 0 0 -1
    outer loop
      vertex -5.42705 -11.7634 0
      vertex -17.169 -10.258 0
      vertex -5.74064 -11.2202 0
    endloop
  endfacet
  facet normal 0 0 -1
    outer loop
      vertex 0 -10 0
      vertex 17.169 -10.258 0
      vertex -0.065557 -10.6237 0
    endloop
  endfacet
  facet normal 0 0 -1
    outer loop
      vertex -0.065557 -9.37627 0
      vertex 18.0194 -8.67767 0
      vertex 0 -10 0
    endloop
  endfacet
  facet normal 0 0 -1
    outer loop
      vertex -0.259364 -8.77979 0
      vertex 18.7247 -7.0275 0
      vertex -0.065557 -9.37627 0
    endloop
  endfacet
  facet normal 0 0 -1
    outer loop
      vertex -5.93444 -9.37627 0
      vertex -17.169 -10.258 0
      vertex -5.74064 -8.77979 0
    endloop
  endfacet
  facet normal 0 0 -1
    outer loop
      vertex -0.992608 -7.77057 0
      vertex 19.2793 -5.32074 0
      vertex -0.572949 -8.23664 0
    endloop
  endfacet
  facet normal 0 0 -1
    outer loop
      vertex -1.5 -7.40192 0
      vertex 19.6786 -3.57114 0
      vertex -0.992608 -7.77057 0
    endloop
  endfacet
  facet normal 0 0 -1
    outer loop
      vertex -2.07295 -7.14683 0
      vertex 19.9195 -1.79279 0
      vertex -1.5 -7.40192 0
    endloop
  endfacet
  facet normal 0 0 -1
    outer loop
      vertex -3.31358 -7.01643 0
      vertex 19.9195 -1.79279 0
      vertex -2.68641 -7.01643 0
    endloop
  endfacet
  facet normal 0 0 -1
    outer loop
      vertex -2.68641 -7.01643 0
      vertex 19.9195 -1.79279 0
      vertex -2.07295 -7.14683 0
    endloop
  endfacet
  facet normal 0 0 -1
    outer loop
      vertex -3.92705 -7.14683 0
      vertex 20 0 0
      vertex -3.31358 -7.01643 0
    endloop
  endfacet
  facet normal 0 0 -1
    outer loop
      vertex -4.5 -7.40192 0
      vertex -17.169 -10.258 0
      vertex -3.92705 -7.14683 0
    endloop
  endfacet
  facet normal 0 0 -1
    outer loop
      vertex -17.169 -10.258 0
      vertex 20 0 0
      vertex -3.92705 -7.14683 0
    endloop
  endfacet
  facet normal 0 0 -1
    outer loop
      vertex -5.42705 -8.23664 0
      vertex -17.169 -10.258 0
      vertex -5.00739 -7.77057 0
    endloop
  endfacet
  facet normal 0 0 -1
    outer loop
      vertex -5.00739 -7.77057 0
      vertex -17.169 -10.258 0
      vertex -4.5 -7.40192 0
    endloop
  endfacet
  facet normal 0 0 -1
    outer loop
      vertex -5.74064 -8.77979 0
      vertex -17.169 -10.258 0
      vertex -5.42705 -8.23664 0
    endloop
  endfacet
  facet normal 0 0 -1
    outer loop
      vertex -6 -10 0
      vertex -17.169 -10.258 0
      vertex -5.93444 -9.37627 0
    endloop
  endfacet
  facet normal 0 0 -1
    outer loop
      vertex -0.572949 -8.23664 0
      vertex 18.7247 -7.0275 0
      vertex -0.259364 -8.77979 0
    endloop
  endfacet
  facet normal 0 0 1
    outer loop
      vertex 0 0 10
      vertex -17.3108 -9.9944 10
      vertex -17.169 -10.258 10
    endloop
  endfacet
  facet normal 0 0 1
    outer loop
      vertex -15.0614 -13.1588 10
      vertex 0 0 10
      vertex -16.1803 -11.7557 10
    endloop
  endfacet
  facet normal 0 0 1
    outer loop
      vertex -16.1803 -11.7557 10
      vertex 0 0 10
      vertex -17.169 -10.258 10
    endloop
  endfacet
  facet normal 0 0 1
    outer loop
      vertex -3.92705 -7.14683 10
      vertex -3.31358 -7.01643 10
      vertex 0 0 10
    endloop
  endfacet
  facet normal 0 0 1
    outer loop
      vertex -13.8213 -14.4559 10
      vertex 0 0 10
      vertex -15.0614 -13.1588 10
    endloop
  endfacet
  facet normal 0 0 1
    outer loop
      vertex -12.4698 -15.6366 10
      vertex 0 0 10
      vertex -13.8213 -14.4559 10
    endloop
  endfacet
  facet normal 0 0 1
    outer loop
      vertex -11.0179 -16.6915 10
      vertex 0 0 10
      vertex -12.4698 -15.6366 10
    endloop
  endfacet
  facet normal 0 0 1
    outer loop
      vertex -5.42705 -8.23664 10
      vertex 0 0 10
      vertex -11.0179 -16.6915 10
    endloop
  endfacet
  facet normal 0 0 1
    outer loop
      vertex -4.5 -7.40192 10
      vertex -3.92705 -7.14683 10
      vertex 0 0 10
    endloop
  endfacet
  facet normal 0 0 1
    outer loop
      vertex 2.68466 -19.819 10
      vertex 0 0 10
      vertex 0.897297 -19.9799 10
    endloop
  endfacet
  facet normal 0 0 1
    outer loop
      vertex 4.45042 -19.4986 10
      vertex 0 0 10
      vertex 2.68466 -19.819 10
    endloop
  endfacet
  facet normal 0 0 1
    outer loop
      vertex 6.18034 -19.0211 10
      vertex 0 0 10
      vertex 4.45042 -19.4986 10
    endloop
  endfacet
  facet normal 0 0 1
    outer loop
      vertex 7.8605 -18.3906 10
      vertex 0 0 10
      vertex 6.18034 -19.0211 10
    endloop
  endfacet
  facet normal 0 0 1
    outer loop
      vertex 9.47737 -17.6119 10
      vertex 0 0 10
      vertex 7.8605 -18.3906 10
    endloop
  endfacet
  facet normal 0 0 1
    outer loop
      vertex 11.0179 -16.6915 10
      vertex 0 0 10
      vertex 9.47737 -17.6119 10
    endloop
  endfacet
  facet normal 0 0 1
    outer loop
      vertex 12.4698 -15.6366 10
      vertex 0 0 10
      vertex 11.0179 -16.6915 10
    endloop
  endfacet
  facet normal 0 0 1
    outer loop
      vertex 13.8213 -14.4559 10
      vertex 0 0 10
      vertex 12.4698 -15.6366 10
    endloop
  endfacet
  facet normal 0 0 1
    outer loop
      vertex 15.0614 -13.1588 10
      vertex 0 0 10
      vertex 13.8213 -14.4559 10
    endloop
  endfacet
  facet normal 0 0 1
    outer loop
      vertex 16.1803 -11.7557 10
      vertex 0 0 10
      vertex 15.0614 -13.1588 10
    endloop
  endfacet
  facet normal 0 0 1
    outer loop
      vertex 17.169 -10.258 10
      vertex 0 0 10
      vertex 16.1803 -11.7557 10
    endloop
  endfacet
  facet normal 0 0 1
    outer loop
      vertex 18.0194 -8.67767 10
      vertex 0 0 10
      vertex 17.169 -10.258 10
    endloop
  endfacet
  facet normal 0 0 1
    outer loop
      vertex 18.7247 -7.0275 10
      vertex 0 0 10
      vertex 18.0194 -8.67767 10
    endloop
  endfacet
  facet normal 0 0 1
    outer loop
      vertex 19.2793 -5.32074 10
      vertex 0 0 10
      vertex 18.7247 -7.0275 10
    endloop
  endfacet
  facet normal 0 0 1
    outer loop
      vertex 19.6786 -3.57114 10
      vertex 0 0 10
      vertex 19.2793 -5.32074 10
    endloop
  endfacet
  facet normal 0 0 1
    outer loop
      vertex 19.9195 -1.79279 10
      vertex 0 0 10
      vertex 19.6786 -3.57114 10
    endloop
  endfacet
  facet normal 0 0 1
    outer loop
      vertex 20 0 10
      vertex 0 0 10
      vertex 19.9195 -1.79279 10
    endloop
  endfacet
  facet normal 0 0 1
    outer loop
      vertex 19.9195 1.79279 10
      vertex 0 0 10
      vertex 20 0 10
    endloop
  endfacet
  facet normal 0 0 1
    outer loop
      vertex 19.6786 3.57114 10
      vertex 0 0 10
      vertex 19.9195 1.79279 10
    endloop
  endfacet
  facet normal 0 0 1
    outer loop
      vertex 19.2793 5.32074 10
      vertex 0 0 10
      vertex 19.6786 3.57114 10
    endloop
  endfacet
  facet normal 0 0 1
    outer loop
      vertex 18.7247 7.0275 10
      vertex 0 0 10
      vertex 19.2793 5.32074 10
    endloop
  endfacet
  facet normal 0 0 1
    outer loop
      vertex 18.0194 8.67767 10
      vertex 0 0 10
      vertex 18.7247 7.0275 10
    endloop
  endfacet
  facet normal 0 0 1
    outer loop
      vertex 17.169 10.258 10
      vertex 0 0 10
      vertex 18.0194 8.67767 10
    endloop
  endfacet
  facet normal 0 0 1
    outer loop
      vertex -5.74064 -11.2202 10
      vertex -5.93444 -10.6237 10
      vertex -9.47737 -17.6119 10
    endloop
  endfacet
  facet normal 0 0 1
    outer loop
      vertex -9.47737 -17.6119 10
      vertex -5.93444 -10.6237 10
      vertex -11.0179 -16.6915 10
    endloop
  endfacet
  facet normal 0 0 1
    outer loop
      vertex -5.93444 -10.6237 10
      vertex -6 -10 10
      vertex -11.0179 -16.6915 10
    endloop
  endfacet
  facet normal 0 0 1
    outer loop
      vertex -3.31358 -7.01643 10
      vertex -2.68641 -7.01643 10
      vertex 0 0 10
    endloop
  endfacet
  facet normal 0 0 1
    outer loop
      vertex -6 -10 10
      vertex -5.93444 -9.37627 10
      vertex -11.0179 -16.6915 10
    endloop
  endfacet
  facet normal 0 0 1
    outer loop
      vertex -5.93444 -9.37627 10
      vertex -5.74064 -8.77979 10
      vertex -11.0179 -16.6915 10
    endloop
  endfacet
  facet normal 0 0 1
    outer loop
      vertex -5.74064 -8.77979 10
      vertex -5.42705 -8.23664 10
      vertex -11.0179 -16.6915 10
    endloop
  endfacet
  facet normal 0 0 1
    outer loop
      vertex -5.00739 -7.77057 10
      vertex -4.5 -7.40192 10
      vertex 0 0 10
    endloop
  endfacet
  facet normal 0 0 1
    outer loop
      vertex -0.572949 -8.23664 10
      vertex -0.259364 -8.77979 10
      vertex 0 0 10
    endloop
  endfacet
  facet normal 0 0 1
    outer loop
      vertex -5.42705 -8.23664 10
      vertex -5.00739 -7.77057 10
      vertex 0 0 10
    endloop
  endfacet
  facet normal 0 0 1
    outer loop
      vertex -2.68641 -7.01643 10
      vertex -2.07295 -7.14683 10
      vertex 0 0 10
    endloop
  endfacet
  facet normal 0 0 1
    outer loop
      vertex -2.07295 -7.14683 10
      vertex -1.5 -7.40192 10
      vertex 0 0 10
    endloop
  endfacet
  facet normal 0 0 1
    outer loop
      vertex -5.00739 -12.2294 10
      vertex -5.42705 -11.7634 10
      vertex -7.8605 -18.3906 10
    endloop
  endfacet
  facet normal 0 0 1
    outer loop
      vertex -1.5 -7.40192 10
      vertex -0.992608 -7.77057 10
      vertex 0 0 10
    endloop
  endfacet
  facet normal 0 0 1
    outer loop
      vertex -3.92705 -12.8532 10
      vertex -4.5 -12.5981 10
      vertex -6.18034 -19.0211 10
    endloop
  endfacet
  facet normal 0 0 1
    outer loop
      vertex -2.68641 -12.9836 10
      vertex -3.31358 -12.9836 10
      vertex -4.45042 -19.4986 10
    endloop
  endfacet
  facet normal 0 0 1
    outer loop
      vertex -0.572949 -8.23664 10
      vertex 0 0 10
      vertex -0.992608 -7.77057 10
    endloop
  endfacet
  facet normal 0 0 1
    outer loop
      vertex -0.572949 -11.7634 10
      vertex -0.992608 -12.2294 10
      vertex -0.897297 -19.9799 10
    endloop
  endfacet
  facet normal 0 0 1
    outer loop
      vertex -0.065557 -9.37627 10
      vertex 0 0 10
      vertex -0.259364 -8.77979 10
    endloop
  endfacet
  facet normal 0 0 1
    outer loop
      vertex 0 -10 10
      vertex 0 0 10
      vertex -0.065557 -9.37627 10
    endloop
  endfacet
  facet normal 0 0 1
    outer loop
      vertex -0.065557 -10.6237 10
      vertex -0.259364 -11.2202 10
      vertex 0.897297 -19.9799 10
    endloop
  endfacet
  facet normal 0 0 1
    outer loop
      vertex 0.897297 -19.9799 10
      vertex 0 0 10
      vertex 0 -10 10
    endloop
  endfacet
  facet normal 0 0 1
    outer loop
      vertex -0.259364 -11.2202 10
      vertex -0.572949 -11.7634 10
      vertex -0.897297 -19.9799 10
    endloop
  endfacet
  facet normal 0 0 1
    outer loop
      vertex 0.897297 -19.9799 10
      vertex -0.259364 -11.2202 10
      vertex -0.897297 -19.9799 10
    endloop
  endfacet
  facet normal 0 0 1
    outer loop
      vertex -1.5 -12.5981 10
      vertex -2.07295 -12.8532 10
      vertex -2.68466 -19.819 10
    endloop
  endfacet
  facet normal 0 0 1
    outer loop
      vertex 0 -10 10
      vertex -0.065557 -10.6237 10
      vertex 0.897297 -19.9799 10
    endloop
  endfacet
  facet normal 0 0 1
    outer loop
      vertex -0.897297 -19.9799 10
      vertex -0.992608 -12.2294 10
      vertex -2.68466 -19.819 10
    endloop
  endfacet
  facet normal 0 0 1
    outer loop
      vertex -0.992608 -12.2294 10
      vertex -1.5 -12.5981 10
      vertex -2.68466 -19.819 10
    endloop
  endfacet
  facet normal 0 0 1
    outer loop
      vertex -2.68466 -19.819 10
      vertex -2.07295 -12.8532 10
      vertex -4.45042 -19.4986 10
    endloop
  endfacet
  facet normal 0 0 1
    outer loop
      vertex -2.07295 -12.8532 10
      vertex -2.68641 -12.9836 10
      vertex -4.45042 -19.4986 10
    endloop
  endfacet
  facet normal 0 0 1
    outer loop
      vertex -4.45042 -19.4986 10
      vertex -3.31358 -12.9836 10
      vertex -6.18034 -19.0211 10
    endloop
  endfacet
  facet normal 0 0 1
    outer loop
      vertex -3.31358 -12.9836 10
      vertex -3.92705 -12.8532 10
      vertex -6.18034 -19.0211 10
    endloop
  endfacet
  facet normal 0 0 1
    outer loop
      vertex -6.18034 -19.0211 10
      vertex -4.5 -12.5981 10
      vertex -7.8605 -18.3906 10
    endloop
  endfacet
  facet normal 0 0 1
    outer loop
      vertex -4.5 -12.5981 10
      vertex -5.00739 -12.2294 10
      vertex -7.8605 -18.3906 10
    endloop
  endfacet
  facet normal 0 0 1
    outer loop
      vertex -7.8605 -18.3906 10
      vertex -5.42705 -11.7634 10
      vertex -9.47737 -17.6119 10
    endloop
  endfacet
  facet normal 0 0 1
    outer loop
      vertex -5.42705 -11.7634 10
      vertex -5.74064 -11.2202 10
      vertex -9.47737 -17.6119 10
    endloop
  endfacet
  facet normal 0 0 1
    outer loop
      vertex -17.3108 9.9944 10
      vertex -16.1803 11.7557 10
      vertex -17.169 10.258 10
    endloop
  endfacet
  facet normal 0 0 1
    outer loop
      vertex -17.3108 9.9944 10
      vertex -15.0614 13.1588 10
      vertex -16.1803 11.7557 10
    endloop
  endfacet
  facet normal 0 0 1
    outer loop
      vertex -17.3108 9.9944 10
      vertex -13.8213 14.4559 10
      vertex -15.0614 13.1588 10
    endloop
  endfacet
  facet normal 0 0 1
    outer loop
      vertex -17.3108 9.9944 10
      vertex -12.4698 15.6366 10
      vertex -13.8213 14.4559 10
    endloop
  endfacet
  facet normal 0 0 1
    outer loop
      vertex -17.3108 9.9944 10
      vertex -11.0179 16.6915 10
      vertex -12.4698 15.6366 10
    endloop
  endfacet
  facet normal 0 0 1
    outer loop
      vertex -17.3108 9.9944 10
      vertex -9.47737 17.6119 10
      vertex -11.0179 16.6915 10
    endloop
  endfacet
  facet normal 0 0 1
    outer loop
      vertex -17.3108 9.9944 10
      vertex -7.8605 18.3906 10
      vertex -9.47737 17.6119 10
    endloop
  endfacet
  facet normal 0 0 1
    outer loop
      vertex -17.3108 9.9944 10
      vertex -6.18034 19.0211 10
      vertex -7.8605 18.3906 10
    endloop
  endfacet
  facet normal 0 0 1
    outer loop
      vertex -17.3108 9.9944 10
      vertex -4.45042 19.4986 10
      vertex -6.18034 19.0211 10
    endloop
  endfacet
  facet normal 0 0 1
    outer loop
      vertex -17.3108 9.9944 10
      vertex -2.68466 19.819 10
      vertex -4.45042 19.4986 10
    endloop
  endfacet
  facet normal 0 0 1
    outer loop
      vertex -17.3108 9.9944 10
      vertex -0.897297 19.9799 10
      vertex -2.68466 19.819 10
    endloop
  endfacet
  facet normal 0 0 1
    outer loop
      vertex -17.3108 9.9944 10
      vertex 0.897297 19.9799 10
      vertex -0.897297 19.9799 10
    endloop
  endfacet
  facet normal 0 0 1
    outer loop
      vertex -17.3108 9.9944 10
      vertex 2.68466 19.819 10
      vertex 0.897297 19.9799 10
    endloop
  endfacet
  facet normal 0 0 1
    outer loop
      vertex -17.3108 9.9944 10
      vertex 4.45042 19.4986 10
      vertex 2.68466 19.819 10
    endloop
  endfacet
  facet normal 0 0 1
    outer loop
      vertex -17.3108 9.9944 10
      vertex 6.18034 19.0211 10
      vertex 4.45042 19.4986 10
    endloop
  endfacet
  facet normal 0 0 1
    outer loop
      vertex -17.3108 9.9944 10
      vertex 7.8605 18.3906 10
      vertex 6.18034 19.0211 10
    endloop
  endfacet
  facet normal 0 0 1
    outer loop
      vertex -17.3108 9.9944 10
      vertex 9.47737 17.6119 10
      vertex 7.8605 18.3906 10
    endloop
  endfacet
  facet normal 0 0 1
    outer loop
      vertex -17.3108 9.9944 10
      vertex 11.0179 16.6915 10
      vertex 9.47737 17.6119 10
    endloop
  endfacet
  facet normal 0 0 1
    outer loop
      vertex -17.3108 9.9944 10
      vertex 12.4698 15.6366 10
      vertex 11.0179 16.6915 10
    endloop
  endfacet
  facet normal 0 0 1
    outer loop
      vertex -17.3108 9.9944 10
      vertex 13.8213 14.4559 10
      vertex 12.4698 15.6366 10
    endloop
  endfacet
  facet normal 0 0 1
    outer loop
      vertex -17.3108 9.9944 10
      vertex 15.0614 13.1588 10
      vertex 13.8213 14.4559 10
    endloop
  endfacet
  facet normal 0 0 1
    outer loop
      vertex -17.3108 9.9944 10
      vertex 16.1803 11.7557 10
      vertex 15.0614 13.1588 10
    endloop
  endfacet
  facet normal 0 0 1
    outer loop
      vertex -17.3108 9.9944 10
      vertex 17.169 10.258 10
      vertex 16.1803 11.7557 10
    endloop
  endfacet
  facet normal 0 0 1
    outer loop
      vertex -17.3108 9.9944 10
      vertex 0 0 10
      vertex 17.169 10.258 10
    endloop
  endfacet
  facet normal -0.5 -0.866025 0
    outer loop
      vertex 0 0 0
      vertex 0 0 10
      vertex -17.3108 9.9944 10
    endloop
  endfacet
  facet normal -0.5 -0.866025 0
    outer loop
      vertex -17.3108 9.9944 0
      vertex 0 0 0
      vertex -17.3108 9.9944 10
    endloop
  endfacet
  facet normal -0.834573 -0.550897 0
    outer loop
      vertex -17.169 -10.258 0
      vertex -16.1803 -11.7557 0
      vertex -17.169 -10.258 10
    endloop
  endfacet
  facet normal -0.834573 -0.550897 0
    outer loop
      vertex -17.169 -10.258 10
      vertex -16.1803 -11.7557 0
      vertex -16.1803 -11.7557 10
    endloop
  endfacet
  facet normal -0.781831 -0.62349 0
    outer loop
      vertex -16.1803 -11.7557 0
      vertex -15.0614 -13.1588 0
      vertex -16.1803 -11.7557 10
    endloop
  endfacet
  facet normal -0.781831 -0.62349 0
    outer loop
      vertex -16.1803 -11.7557 10
      vertex -15.0614 -13.1588 0
      vertex -15.0614 -13.1588 10
    endloop
  endfacet
  facet normal -0.722795 -0.691063 0
    outer loop
      vertex -15.0614 -13.1588 0
      vertex -13.8213 -14.4559 0
      vertex -15.0614 -13.1588 10
    endloop
  endfacet
  facet normal -0.722795 -0.691063 0
    outer loop
      vertex -15.0614 -13.1588 10
      vertex -13.8213 -14.4559 0
      vertex -13.8213 -14.4559 10
    endloop
  endfacet
  facet normal -0.657939 -0.753071 0
    outer loop
      vertex -13.8213 -14.4559 10
      vertex -13.8213 -14.4559 0
      vertex -12.4698 -15.6366 0
    endloop
  endfacet
  facet normal -0.657939 -0.753071 0
    outer loop
      vertex -12.4698 -15.6366 10
      vertex -13.8213 -14.4559 10
      vertex -12.4698 -15.6366 0
    endloop
  endfacet
  facet normal -0.587785 -0.809017 0
    outer loop
      vertex -12.4698 -15.6366 10
      vertex -12.4698 -15.6366 0
      vertex -11.0179 -16.6915 0
    endloop
  endfacet
  facet normal -0.587785 -0.809017 0
    outer loop
      vertex -11.0179 -16.6915 10
      vertex -12.4698 -15.6366 10
      vertex -11.0179 -16.6915 0
    endloop
  endfacet
  facet normal -0.512899 -0.858449 0
    outer loop
      vertex -11.0179 -16.6915 10
      vertex -11.0179 -16.6915 0
      vertex -9.47737 -17.6119 0
    endloop
  endfacet
  facet normal -0.512899 -0.858449 0
    outer loop
      vertex -9.47737 -17.6119 10
      vertex -11.0179 -16.6915 10
      vertex -9.47737 -17.6119 0
    endloop
  endfacet
  facet normal -0.433884 -0.900969 0
    outer loop
      vertex -9.47737 -17.6119 10
      vertex -9.47737 -17.6119 0
      vertex -7.8605 -18.3906 0
    endloop
  endfacet
  facet normal -0.433884 -0.900969 0
    outer loop
      vertex -7.8605 -18.3906 10
      vertex -9.47737 -17.6119 10
      vertex -7.8605 -18.3906 0
    endloop
  endfacet
  facet normal -0.351375 -0.936235 0
    outer loop
      vertex -7.8605 -18.3906 10
      vertex -7.8605 -18.3906 0
      vertex -6.18034 -19.0211 0
    endloop
  endfacet
  facet normal -0.351375 -0.936235 0
    outer loop
      vertex -6.18034 -19.0211 10
      vertex -7.8605 -18.3906 10
      vertex -6.18034 -19.0211 0
    endloop
  endfacet
  facet normal -0.266037 -0.963963 0
    outer loop
      vertex -6.18034 -19.0211 10
      vertex -6.18034 -19.0211 0
      vertex -4.45042 -19.4986 0
    endloop
  endfacet
  facet normal -0.266037 -0.963963 0
    outer loop
      vertex -4.45042 -19.4986 10
      vertex -6.18034 -19.0211 10
      vertex -4.45042 -19.4986 0
    endloop
  endfacet
  facet normal -0.178557 -0.98393 0
    outer loop
      vertex -4.45042 -19.4986 10
      vertex -4.45042 -19.4986 0
      vertex -2.68466 -19.819 0
    endloop
  endfacet
  facet normal -0.178557 -0.98393 0
    outer loop
      vertex -2.68466 -19.819 10
      vertex -4.45042 -19.4986 10
      vertex -2.68466 -19.819 0
    endloop
  endfacet
  facet normal -0.0896393 -0.995974 0
    outer loop
      vertex -2.68466 -19.819 10
      vertex -2.68466 -19.819 0
      vertex -0.897297 -19.9799 0
    endloop
  endfacet
  facet normal -0.0896393 -0.995974 0
    outer loop
      vertex -0.897297 -19.9799 10
      vertex -2.68466 -19.819 10
      vertex -0.897297 -19.9799 0
    endloop
  endfacet
  facet normal 0 -1 0
    outer loop
      vertex -0.897297 -19.9799 10
      vertex -0.897297 -19.9799 0
      vertex 0.897297 -19.9799 0
    endloop
  endfacet
  facet normal 0 -1 0
    outer loop
      vertex 0.897297 -19.9799 10
      vertex -0.897297 -19.9799 10
      vertex 0.897297 -19.9799 0
    endloop
  endfacet
  facet normal 0.0896393 -0.995974 0
    outer loop
      vertex 0.897297 -19.9799 10
      vertex 0.897297 -19.9799 0
      vertex 2.68466 -19.819 0
    endloop
  endfacet
  facet normal 0.0896393 -0.995974 0
    outer loop
      vertex 2.68466 -19.819 10
      vertex 0.897297 -19.9799 10
      vertex 2.68466 -19.819 0
    endloop
  endfacet
  facet normal 0.178557 -0.98393 0
    outer loop
      vertex 2.68466 -19.819 10
      vertex 2.68466 -19.819 0
      vertex 4.45042 -19.4986 0
    endloop
  endfacet
  facet normal 0.178557 -0.98393 0
    outer loop
      vertex 4.45042 -19.4986 10
      vertex 2.68466 -19.819 10
      vertex 4.45042 -19.4986 0
    endloop
  endfacet
  facet normal 0.266037 -0.963963 0
    outer loop
      vertex 4.45042 -19.4986 10
      vertex 4.45042 -19.4986 0
      vertex 6.18034 -19.0211 0
    endloop
  endfacet
  facet normal 0.266037 -0.963963 0
    outer loop
      vertex 6.18034 -19.0211 10
      vertex 4.45042 -19.4986 10
      vertex 6.18034 -19.0211 0
    endloop
  endfacet
  facet normal 0.351375 -0.936235 0
    outer loop
      vertex 6.18034 -19.0211 10
      vertex 6.18034 -19.0211 0
      vertex 7.8605 -18.3906 0
    endloop
  endfacet
  facet normal 0.351375 -0.936235 0
    outer loop
      vertex 7.8605 -18.3906 10
      vertex 6.18034 -19.0211 10
      vertex 7.8605 -18.3906 0
    endloop
  endfacet
  facet normal 0.433884 -0.900969 0
    outer loop
      vertex 7.8605 -18.3906 10
      vertex 7.8605 -18.3906 0
      vertex 9.47737 -17.6119 0
    endloop
  endfacet
  facet normal 0.433884 -0.900969 0
    outer loop
      vertex 9.47737 -17.6119 10
      vertex 7.8605 -18.3906 10
      vertex 9.47737 -17.6119 0
    endloop
  endfacet
  facet normal 0.512899 -0.858449 0
    outer loop
      vertex 9.47737 -17.6119 10
      vertex 9.47737 -17.6119 0
      vertex 11.0179 -16.6915 0
    endloop
  endfacet
  facet normal 0.512899 -0.858449 0
    outer loop
      vertex 11.0179 -16.6915 10
      vertex 9.47737 -17.6119 10
      vertex 11.0179 -16.6915 0
    endloop
  endfacet
  facet normal 0.587785 -0.809017 0
    outer loop
      vertex 11.0179 -16.6915 10
      vertex 11.0179 -16.6915 0
      vertex 12.4698 -15.6366 0
    endloop
  endfacet
  facet normal 0.587785 -0.809017 0
    outer loop
      vertex 12.4698 -15.6366 10
      vertex 11.0179 -16.6915 10
      vertex 12.4698 -15.6366 0
    endloop
  endfacet
  facet normal 0.657939 -0.753071 0
    outer loop
      vertex 12.4698 -15.6366 10
      vertex 12.4698 -15.6366 0
      vertex 13.8213 -14.4559 0
    endloop
  endfacet
  facet normal 0.657939 -0.753071 0
    outer loop
      vertex 13.8213 -14.4559 10
      vertex 12.4698 -15.6366 10
      vertex 13.8213 -14.4559 0
    endloop
  endfacet
  facet normal 0.722795 -0.691063 0
    outer loop
      vertex 13.8213 -14.4559 10
      vertex 13.8213 -14.4559 0
      vertex 15.0614 -13.1588 0
    endloop
  endfacet
  facet normal 0.722795 -0.691063 0
    outer loop
      vertex 15.0614 -13.1588 10
      vertex 13.8213 -14.4559 10
      vertex 15.0614 -13.1588 0
    endloop
  endfacet
  facet normal 0.781831 -0.62349 0
    outer loop
      vertex 15.0614 -13.1588 10
      vertex 15.0614 -13.1588 0
      vertex 16.1803 -11.7557 0
    endloop
  endfacet
  facet normal 0.781831 -0.62349 0
    outer loop
      vertex 16.1803 -11.7557 10
      vertex 15.0614 -13.1588 10
      vertex 16.1803 -11.7557 0
    endloop
  endfacet
  facet normal 0.834573 -0.550897 0
    outer loop
      vertex 16.1803 -11.7557 10
      vertex 16.1803 -11.7557 0
      vertex 17.169 -10.258 0
    endloop
  endfacet
  facet normal 0.834573 -0.550897 0
    outer loop
      vertex 17.169 -10.258 10
      vertex 16.1803 -11.7557 10
      vertex 17.169 -10.258 0
    endloop
  endfacet
  facet normal 0.880596 -0.473868 0
    outer loop
      vertex 17.169 -10.258 10
      vertex 17.169 -10.258 0
      vertex 18.0194 -8.67767 0
    endloop
  endfacet
  facet normal 0.880596 -0.473868 0
    outer loop
      vertex 18.0194 -8.67767 10
      vertex 17.169 -10.258 10
      vertex 18.0194 -8.67767 0
    endloop
  endfacet
  facet normal 0.919528 -0.393025 0
    outer loop
      vertex 18.0194 -8.67767 10
      vertex 18.0194 -8.67767 0
      vertex 18.7247 -7.0275 0
    endloop
  endfacet
  facet normal 0.919528 -0.393025 0
    outer loop
      vertex 18.7247 -7.0275 10
      vertex 18.0194 -8.67767 10
      vertex 18.7247 -7.0275 0
    endloop
  endfacet
  facet normal 0.951056 -0.309017 0
    outer loop
      vertex 18.7247 -7.0275 10
      vertex 18.7247 -7.0275 0
      vertex 19.2793 -5.32074 0
    endloop
  endfacet
  facet normal 0.951056 -0.309017 0
    outer loop
      vertex 19.2793 -5.32074 10
      vertex 18.7247 -7.0275 10
      vertex 19.2793 -5.32074 0
    endloop
  endfacet
  facet normal 0.974928 -0.222521 0
    outer loop
      vertex 19.2793 -5.32074 10
      vertex 19.2793 -5.32074 0
      vertex 19.6786 -3.57114 0
    endloop
  endfacet
  facet normal 0.974928 -0.222521 0
    outer loop
      vertex 19.6786 -3.57114 10
      vertex 19.2793 -5.32074 10
      vertex 19.6786 -3.57114 0
    endloop
  endfacet
  facet normal 0.99095 -0.134233 0
    outer loop
      vertex 19.6786 -3.57114 10
      vertex 19.6786 -3.57114 0
      vertex 19.9195 -1.79279 0
    endloop
  endfacet
  facet normal 0.99095 -0.134233 0
    outer loop
      vertex 19.9195 -1.79279 10
      vertex 19.6786 -3.57114 10
      vertex 19.9195 -1.79279 0
    endloop
  endfacet
  facet normal 0.998993 -0.0448648 0
    outer loop
      vertex 19.9195 -1.79279 10
      vertex 19.9195 -1.79279 0
      vertex 20 0 0
    endloop
  endfacet
  facet normal 0.998993 -0.0448648 0
    outer loop
      vertex 20 0 10
      vertex 19.9195 -1.79279 10
      vertex 20 0 0
    endloop
  endfacet
  facet normal 0.998993 0.0448648 0
    outer loop
      vertex 20 0 0
      vertex 19.9195 1.79279 0
      vertex 19.9195 1.79279 10
    endloop
  endfacet
  facet normal 0.998993 0.0448648 0
    outer loop
      vertex 20 0 10
      vertex 20 0 0
      vertex 19.9195 1.79279 10
    endloop
  endfacet
  facet normal 0.99095 0.134233 0
    outer loop
      vertex 19.9195 1.79279 0
      vertex 19.6786 3.57114 0
      vertex 19.6786 3.57114 10
    endloop
  endfacet
  facet normal 0.99095 0.134233 0
    outer loop
      vertex 19.9195 1.79279 10
      vertex 19.9195 1.79279 0
      vertex 19.6786 3.57114 10
    endloop
  endfacet
  facet normal 0.974928 0.222521 0
    outer loop
      vertex 19.6786 3.57114 0
      vertex 19.2793 5.32074 0
      vertex 19.2793 5.32074 10
    endloop
  endfacet
  facet normal 0.974928 0.222521 0
    outer loop
      vertex 19.6786 3.57114 10
      vertex 19.6786 3.57114 0
      vertex 19.2793 5.32074 10
    endloop
  endfacet
  facet normal 0.951056 0.309017 0
    outer loop
      vertex 19.2793 5.32074 0
      vertex 18.7247 7.0275 0
      vertex 18.7247 7.0275 10
    endloop
  endfacet
  facet normal 0.951056 0.309017 0
    outer loop
      vertex 19.2793 5.32074 10
      vertex 19.2793 5.32074 0
      vertex 18.7247 7.0275 10
    endloop
  endfacet
  facet normal 0.919528 0.393025 0
    outer loop
      vertex 18.7247 7.0275 0
      vertex 18.0194 8.67767 0
      vertex 18.0194 8.67767 10
    endloop
  endfacet
  facet normal 0.919528 0.393025 0
    outer loop
      vertex 18.7247 7.0275 10
      vertex 18.7247 7.0275 0
      vertex 18.0194 8.67767 10
    endloop
  endfacet
  facet normal 0.880596 0.473868 0
    outer loop
      vertex 18.0194 8.67767 0
      vertex 17.169 10.258 0
      vertex 17.169 10.258 10
    endloop
  endfacet
  facet normal 0.880596 0.473868 0
    outer loop
      vertex 18.0194 8.67767 10
      vertex 18.0194 8.67767 0
      vertex 17.169 10.258 10
    endloop
  endfacet
  facet normal 0.834573 0.550897 0
    outer loop
      vertex 17.169 10.258 0
      vertex 16.1803 11.7557 0
      vertex 16.1803 11.7557 10
    endloop
  endfacet
  facet normal 0.834573 0.550897 0
    outer loop
      vertex 17.169 10.258 10
      vertex 17.169 10.258 0
      vertex 16.1803 11.7557 10
    endloop
  endfacet
  facet normal 0.781831 0.62349 0
    outer loop
      vertex 16.1803 11.7557 0
      vertex 15.0614 13.1588 0
      vertex 15.0614 13.1588 10
    endloop
  endfacet
  facet normal 0.781831 0.62349 0
    outer loop
      vertex 16.1803 11.7557 10
      vertex 16.1803 11.7557 0
      vertex 15.0614 13.1588 10
    endloop
  endfacet
  facet normal 0.722795 0.691063 0
    outer loop
      vertex 15.0614 13.1588 0
      vertex 13.8213 14.4559 0
      vertex 13.8213 14.4559 10
    endloop
  endfacet
  facet normal 0.722795 0.691063 0
    outer loop
      vertex 15.0614 13.1588 10
      vertex 15.0614 13.1588 0
      vertex 13.8213 14.4559 10
    endloop
  endfacet
  facet normal 0.657939 0.753071 0
    outer loop
      vertex 12.4698 15.6366 0
      vertex 12.4698 15.6366 10
      vertex 13.8213 14.4559 0
    endloop
  endfacet
  facet normal 0.657939 0.753071 0
    outer loop
      vertex 13.8213 14.4559 0
      vertex 12.4698 15.6366 10
      vertex 13.8213 14.4559 10
    endloop
  endfacet
  facet normal 0.587785 0.809017 0
    outer loop
      vertex 11.0179 16.6915 0
      vertex 11.0179 16.6915 10
      vertex 12.4698 15.6366 0
    endloop
  endfacet
  facet normal 0.587785 0.809017 0
    outer loop
      vertex 12.4698 15.6366 0
      vertex 11.0179 16.6915 10
      vertex 12.4698 15.6366 10
    endloop
  endfacet
  facet normal 0.512899 0.858449 0
    outer loop
      vertex 9.47737 17.6119 0
      vertex 9.47737 17.6119 10
      vertex 11.0179 16.6915 0
    endloop
  endfacet
  facet normal 0.512899 0.858449 0
    outer loop
      vertex 11.0179 16.6915 0
      vertex 9.47737 17.6119 10
      vertex 11.0179 16.6915 10
    endloop
  endfacet
  facet normal 0.433884 0.900969 0
    outer loop
      vertex 7.8605 18.3906 0
      vertex 7.8605 18.3906 10
      vertex 9.47737 17.6119 0
    endloop
  endfacet
  facet normal 0.433884 0.900969 0
    outer loop
      vertex 9.47737 17.6119 0
      vertex 7.8605 18.3906 10
      vertex 9.47737 17.6119 10
    endloop
  endfacet
  facet normal 0.351375 0.936235 0
    outer loop
      vertex 6.18034 19.0211 0
      vertex 6.18034 19.0211 10
      vertex 7.8605 18.3906 0
    endloop
  endfacet
  facet normal 0.351375 0.936235 0
    outer loop
      vertex 7.8605 18.3906 0
      vertex 6.18034 19.0211 10
      vertex 7.8605 18.3906 10
    endloop
  endfacet
  facet normal 0.266037 0.963963 0
    outer loop
      vertex 4.45042 19.4986 0
      vertex 4.45042 19.4986 10
      vertex 6.18034 19.0211 0
    endloop
  endfacet
  facet normal 0.266037 0.963963 0
    outer loop
      vertex 6.18034 19.0211 0
      vertex 4.45042 19.4986 10
      vertex 6.18034 19.0211 10
    endloop
  endfacet
  facet normal 0.178557 0.98393 0
    outer loop
      vertex 2.68466 19.819 0
      vertex 2.68466 19.819 10
      vertex 4.45042 19.4986 0
    endloop
  endfacet
  facet normal 0.178557 0.98393 0
    outer loop
      vertex 4.45042 19.4986 0
      vertex 2.68466 19.819 10
      vertex 4.45042 19.4986 10
    endloop
  endfacet
  facet normal 0.0896393 0.995974 0
    outer loop
      vertex 0.897297 19.9799 0
      vertex 0.897297 19.9799 10
      vertex 2.68466 19.819 0
    endloop
  endfacet
  facet normal 0.0896393 0.995974 0
    outer loop
      vertex 2.68466 19.819 0
      vertex 0.897297 19.9799 10
      vertex 2.68466 19.819 10
    endloop
  endfacet
  facet normal 0 1 0
    outer loop
      vertex -0.897297 19.9799 0
      vertex -0.897297 19.9799 10
      vertex 0.897297 19.9799 0
    endloop
  endfacet
  facet normal 0 1 0
    outer loop
      vertex 0.897297 19.9799 0
      vertex -0.897297 19.9799 10
      vertex 0.897297 19.9799 10
    endloop
  endfacet
  facet normal -0.0896393 0.995974 0
    outer loop
      vertex -2.68466 19.819 0
      vertex -2.68466 19.819 10
      vertex -0.897297 19.9799 0
    endloop
  endfacet
  facet normal -0.0896393 0.995974 0
    outer loop
      vertex -0.897297 19.9799 0
      vertex -2.68466 19.819 10
      vertex -0.897297 19.9799 10
    endloop
  endfacet
  facet normal -0.178557 0.98393 0
    outer loop
      vertex -4.45042 19.4986 0
      vertex -4.45042 19.4986 10
      vertex -2.68466 19.819 0
    endloop
  endfacet
  facet normal -0.178557 0.98393 0
    outer loop
      vertex -2.68466 19.819 0
      vertex -4.45042 19.4986 10
      vertex -2.68466 19.819 10
    endloop
  endfacet
  facet normal -0.266037 0.963963 0
    outer loop
      vertex -6.18034 19.0211 0
      vertex -6.18034 19.0211 10
      vertex -4.45042 19.4986 0
    endloop
  endfacet
  facet normal -0.266037 0.963963 0
    outer loop
      vertex -4.45042 19.4986 0
      vertex -6.18034 19.0211 10
      vertex -4.45042 19.4986 10
    endloop
  endfacet
  facet normal -0.351375 0.936235 0
    outer loop
      vertex -7.8605 18.3906 0
      vertex -7.8605 18.3906 10
      vertex -6.18034 19.0211 0
    endloop
  endfacet
  facet normal -0.351375 0.936235 0
    outer loop
      vertex -6.18034 19.0211 0
      vertex -7.8605 18.3906 10
      vertex -6.18034 19.0211 10
    endloop
  endfacet
  facet normal -0.433884 0.900969 0
    outer loop
      vertex -9.47737 17.6119 0
      vertex -9.47737 17.6119 10
      vertex -7.8605 18.3906 0
    endloop
  endfacet
  facet normal -0.433884 0.900969 0
    outer loop
      vertex -7.8605 18.3906 0
      vertex -9.47737 17.6119 10
      vertex -7.8605 18.3906 10
    endloop
  endfacet
  facet normal -0.512899 0.858449 0
    outer loop
      vertex -11.0179 16.6915 0
      vertex -11.0179 16.6915 10
      vertex -9.47737 17.6119 0
    endloop
  endfacet
  facet normal -0.512899 0.858449 0
    outer loop
      vertex -9.47737 17.6119 0
      vertex -11.0179 16.6915 10
      vertex -9.47737 17.6119 10
    endloop
  endfacet
  facet normal -0.587785 0.809017 0
    outer loop
      vertex -12.4698 15.6366 0
      vertex -12.4698 15.6366 10
      vertex -11.0179 16.6915 0
    endloop
  endfacet
  facet normal -0.587785 0.809017 0
    outer loop
      vertex -11.0179 16.6915 0
      vertex -12.4698 15.6366 10
      vertex -11.0179 16.6915 10
    endloop
  endfacet
  facet normal -0.657939 0.753071 0
    outer loop
      vertex -13.8213 14.4559 0
      vertex -13.8213 14.4559 10
      vertex -12.4698 15.6366 0
    endloop
  endfacet
  facet normal -0.657939 0.753071 0
    outer loop
      vertex -12.4698 15.6366 0
      vertex -13.8213 14.4559 10
      vertex -12.4698 15.6366 10
    endloop
  endfacet
  facet normal -0.722795 0.691063 0
    outer loop
      vertex -15.0614 13.1588 0
      vertex -15.0614 13.1588 10
      vertex -13.8213 14.4559 0
    endloop
  endfacet
  facet normal -0.722795 0.691063 0
    outer loop
      vertex -13.8213 14.4559 0
      vertex -15.0614 13.1588 10
      vertex -13.8213 14.4559 10
    endloop
  endfacet
  facet normal -0.781831 0.62349 0
    outer loop
      vertex -16.1803 11.7557 0
      vertex -16.1803 11.7557 10
      vertex -15.0614 13.1588 0
    endloop
  endfacet
  facet normal -0.781831 0.62349 0
    outer loop
      vertex -15.0614 13.1588 0
      vertex -16.1803 11.7557 10
      vertex -15.0614 13.1588 10
    endloop
  endfacet
  facet normal -0.834573 0.550897 0
    outer loop
      vertex -17.169 10.258 0
      vertex -17.169 10.258 10
      vertex -16.1803 11.7557 0
    endloop
  endfacet
  facet normal -0.834573 0.550897 0
    outer loop
      vertex -16.1803 11.7557 0
      vertex -17.169 10.258 10
      vertex -16.1803 11.7557 10
    endloop
  endfacet
  facet normal -0.880596 0.473868 0
    outer loop
      vertex -17.3108 9.9944 0
      vertex -17.3108 9.9944 10
      vertex -17.169 10.258 0
    endloop
  endfacet
  facet normal -0.880596 0.473868 0
    outer loop
      vertex -17.169 10.258 0
      vertex -17.3108 9.9944 10
      vertex -17.169 10.258 10
    endloop
  endfacet
  facet normal 0.994522 0.104528 0
    outer loop
      vertex -6 -10 10
      vertex -5.93444 -10.6237 10
      vertex -5.93444 -10.6237 0
    endloop
  endfacet
  facet normal 0.994522 0.104528 0
    outer loop
      vertex -6 -10 0
      vertex -6 -10 10
      vertex -5.93444 -10.6237 0
    endloop
  endfacet
  facet normal 0.994522 -0.104528 0
    outer loop
      vertex -5.93444 -9.37627 0
      vertex -5.93444 -9.37627 10
      vertex -6 -10 10
    endloop
  endfacet
  facet normal 0.994522 -0.104528 0
    outer loop
      vertex -6 -10 0
      vertex -5.93444 -9.37627 0
      vertex -6 -10 10
    endloop
  endfacet
  facet normal 0.951056 -0.309018 0
    outer loop
      vertex -5.74064 -8.77979 0
      vertex -5.74064 -8.77979 10
      vertex -5.93444 -9.37627 10
    endloop
  endfacet
  facet normal 0.951056 -0.309018 0
    outer loop
      vertex -5.93444 -9.37627 0
      vertex -5.74064 -8.77979 0
      vertex -5.93444 -9.37627 10
    endloop
  endfacet
  facet normal 0.866026 -0.499999 0
    outer loop
      vertex -5.42705 -8.23664 0
      vertex -5.42705 -8.23664 10
      vertex -5.74064 -8.77979 10
    endloop
  endfacet
  facet normal 0.866026 -0.499999 0
    outer loop
      vertex -5.74064 -8.77979 0
      vertex -5.42705 -8.23664 0
      vertex -5.74064 -8.77979 10
    endloop
  endfacet
  facet normal 0.743144 -0.669131 0
    outer loop
      vertex -5.00739 -7.77057 0
      vertex -5.00739 -7.77057 10
      vertex -5.42705 -8.23664 10
    endloop
  endfacet
  facet normal 0.743144 -0.669131 0
    outer loop
      vertex -5.42705 -8.23664 0
      vertex -5.00739 -7.77057 0
      vertex -5.42705 -8.23664 10
    endloop
  endfacet
  facet normal 0.587785 -0.809017 0
    outer loop
      vertex -4.5 -7.40192 0
      vertex -4.5 -7.40192 10
      vertex -5.00739 -7.77057 10
    endloop
  endfacet
  facet normal 0.587785 -0.809017 0
    outer loop
      vertex -5.00739 -7.77057 0
      vertex -4.5 -7.40192 0
      vertex -5.00739 -7.77057 10
    endloop
  endfacet
  facet normal 0.406738 -0.913545 0
    outer loop
      vertex -3.92705 -7.14683 0
      vertex -3.92705 -7.14683 10
      vertex -4.5 -7.40192 10
    endloop
  endfacet
  facet normal 0.406738 -0.913545 0
    outer loop
      vertex -4.5 -7.40192 0
      vertex -3.92705 -7.14683 0
      vertex -4.5 -7.40192 10
    endloop
  endfacet
  facet normal 0.207911 -0.978148 0
    outer loop
      vertex -3.31358 -7.01643 0
      vertex -3.31358 -7.01643 10
      vertex -3.92705 -7.14683 10
    endloop
  endfacet
  facet normal 0.207911 -0.978148 0
    outer loop
      vertex -3.92705 -7.14683 0
      vertex -3.31358 -7.01643 0
      vertex -3.92705 -7.14683 10
    endloop
  endfacet
  facet normal 0 -1 0
    outer loop
      vertex -2.68641 -7.01643 0
      vertex -2.68641 -7.01643 10
      vertex -3.31358 -7.01643 10
    endloop
  endfacet
  facet normal 0 -1 0
    outer loop
      vertex -3.31358 -7.01643 0
      vertex -2.68641 -7.01643 0
      vertex -3.31358 -7.01643 10
    endloop
  endfacet
  facet normal -0.207911 -0.978148 0
    outer loop
      vertex -2.07295 -7.14683 0
      vertex -2.07295 -7.14683 10
      vertex -2.68641 -7.01643 10
    endloop
  endfacet
  facet normal -0.207911 -0.978148 0
    outer loop
      vertex -2.68641 -7.01643 0
      vertex -2.07295 -7.14683 0
      vertex -2.68641 -7.01643 10
    endloop
  endfacet
  facet normal -0.406738 -0.913545 0
    outer loop
      vertex -1.5 -7.40192 0
      vertex -1.5 -7.40192 10
      vertex -2.07295 -7.14683 10
    endloop
  endfacet
  facet normal -0.406738 -0.913545 0
    outer loop
      vertex -2.07295 -7.14683 0
      vertex -1.5 -7.40192 0
      vertex -2.07295 -7.14683 10
    endloop
  endfacet
  facet normal -0.587785 -0.809017 0
    outer loop
      vertex -0.992608 -7.77057 0
      vertex -0.992608 -7.77057 10
      vertex -1.5 -7.40192 10
    endloop
  endfacet
  facet normal -0.587785 -0.809017 0
    outer loop
      vertex -1.5 -7.40192 0
      vertex -0.992608 -7.77057 0
      vertex -1.5 -7.40192 10
    endloop
  endfacet
  facet normal -0.743144 -0.669131 0
    outer loop
      vertex -0.572949 -8.23664 10
      vertex -0.992608 -7.77057 10
      vertex -0.572949 -8.23664 0
    endloop
  endfacet
  facet normal -0.743144 -0.669131 0
    outer loop
      vertex -0.572949 -8.23664 0
      vertex -0.992608 -7.77057 10
      vertex -0.992608 -7.77057 0
    endloop
  endfacet
  facet normal -0.866026 -0.499999 0
    outer loop
      vertex -0.259364 -8.77979 10
      vertex -0.572949 -8.23664 10
      vertex -0.259364 -8.77979 0
    endloop
  endfacet
  facet normal -0.866026 -0.499999 0
    outer loop
      vertex -0.259364 -8.77979 0
      vertex -0.572949 -8.23664 10
      vertex -0.572949 -8.23664 0
    endloop
  endfacet
  facet normal -0.951056 -0.309018 0
    outer loop
      vertex -0.065557 -9.37627 10
      vertex -0.259364 -8.77979 10
      vertex -0.065557 -9.37627 0
    endloop
  endfacet
  facet normal -0.951056 -0.309018 0
    outer loop
      vertex -0.065557 -9.37627 0
      vertex -0.259364 -8.77979 10
      vertex -0.259364 -8.77979 0
    endloop
  endfacet
  facet normal -0.994522 -0.104528 0
    outer loop
      vertex 0 -10 10
      vertex -0.065557 -9.37627 10
      vertex 0 -10 0
    endloop
  endfacet
  facet normal -0.994522 -0.104528 0
    outer loop
      vertex 0 -10 0
      vertex -0.065557 -9.37627 10
      vertex -0.065557 -9.37627 0
    endloop
  endfacet
  facet normal -0.994522 0.104528 0
    outer loop
      vertex 0 -10 10
      vertex 0 -10 0
      vertex -0.065557 -10.6237 10
    endloop
  endfacet
  facet normal -0.994522 0.104528 0
    outer loop
      vertex -0.065557 -10.6237 10
      vertex 0 -10 0
      vertex -0.065557 -10.6237 0
    endloop
  endfacet
  facet normal -0.951056 0.309018 0
    outer loop
      vertex -0.065557 -10.6237 10
      vertex -0.065557 -10.6237 0
      vertex -0.259364 -11.2202 10
    endloop
  endfacet
  facet normal -0.951056 0.309018 0
    outer loop
      vertex -0.259364 -11.2202 10
      vertex -0.065557 -10.6237 0
      vertex -0.259364 -11.2202 0
    endloop
  endfacet
  facet normal -0.866026 0.499999 0
    outer loop
      vertex -0.259364 -11.2202 10
      vertex -0.259364 -11.2202 0
      vertex -0.572949 -11.7634 10
    endloop
  endfacet
  facet normal -0.866026 0.499999 0
    outer loop
      vertex -0.572949 -11.7634 10
      vertex -0.259364 -11.2202 0
      vertex -0.572949 -11.7634 0
    endloop
  endfacet
  facet normal -0.743144 0.669131 0
    outer loop
      vertex -0.572949 -11.7634 10
      vertex -0.572949 -11.7634 0
      vertex -0.992608 -12.2294 10
    endloop
  endfacet
  facet normal -0.743144 0.669131 0
    outer loop
      vertex -0.992608 -12.2294 10
      vertex -0.572949 -11.7634 0
      vertex -0.992608 -12.2294 0
    endloop
  endfacet
  facet normal -0.587785 0.809017 0
    outer loop
      vertex -0.992608 -12.2294 10
      vertex -0.992608 -12.2294 0
      vertex -1.5 -12.5981 10
    endloop
  endfacet
  facet normal -0.587785 0.809017 0
    outer loop
      vertex -1.5 -12.5981 10
      vertex -0.992608 -12.2294 0
      vertex -1.5 -12.5981 0
    endloop
  endfacet
  facet normal -0.406738 0.913545 0
    outer loop
      vertex -1.5 -12.5981 10
      vertex -1.5 -12.5981 0
      vertex -2.07295 -12.8532 10
    endloop
  endfacet
  facet normal -0.406738 0.913545 0
    outer loop
      vertex -2.07295 -12.8532 10
      vertex -1.5 -12.5981 0
      vertex -2.07295 -12.8532 0
    endloop
  endfacet
  facet normal -0.207911 0.978148 0
    outer loop
      vertex -2.07295 -12.8532 10
      vertex -2.07295 -12.8532 0
      vertex -2.68641 -12.9836 10
    endloop
  endfacet
  facet normal -0.207911 0.978148 0
    outer loop
      vertex -2.68641 -12.9836 10
      vertex -2.07295 -12.8532 0
      vertex -2.68641 -12.9836 0
    endloop
  endfacet
  facet normal 0 1 0
    outer loop
      vertex -2.68641 -12.9836 10
      vertex -2.68641 -12.9836 0
      vertex -3.31358 -12.9836 10
    endloop
  endfacet
  facet normal 0 1 0
    outer loop
      vertex -3.31358 -12.9836 10
      vertex -2.68641 -12.9836 0
      vertex -3.31358 -12.9836 0
    endloop
  endfacet
  facet normal 0.207911 0.978148 0
    outer loop
      vertex -3.31358 -12.9836 10
      vertex -3.31358 -12.9836 0
      vertex -3.92705 -12.8532 10
    endloop
  endfacet
  facet normal 0.207911 0.978148 0
    outer loop
      vertex -3.92705 -12.8532 10
      vertex -3.31358 -12.9836 0
      vertex -3.92705 -12.8532 0
    endloop
  endfacet
  facet normal 0.406738 0.913545 0
    outer loop
      vertex -3.92705 -12.8532 10
      vertex -3.92705 -12.8532 0
      vertex -4.5 -12.5981 10
    endloop
  endfacet
  facet normal 0.406738 0.913545 0
    outer loop
      vertex -4.5 -12.5981 10
      vertex -3.92705 -12.8532 0
      vertex -4.5 -12.5981 0
    endloop
  endfacet
  facet normal 0.587785 0.809017 0
    outer loop
      vertex -4.5 -12.5981 10
      vertex -4.5 -12.5981 0
      vertex -5.00739 -12.2294 10
    endloop
  endfacet
  facet normal 0.587785 0.809017 0
    outer loop
      vertex -5.00739 -12.2294 10
      vertex -4.5 -12.5981 0
      vertex -5.00739 -12.2294 0
    endloop
  endfacet
  facet normal 0.743144 0.669131 0
    outer loop
      vertex -5.42705 -11.7634 10
      vertex -5.00739 -12.2294 10
      vertex -5.00739 -12.2294 0
    endloop
  endfacet
  facet normal 0.743144 0.669131 0
    outer loop
      vertex -5.42705 -11.7634 0
      vertex -5.42705 -11.7634 10
      vertex -5.00739 -12.2294 0
    endloop
  endfacet
  facet normal 0.866026 0.499999 0
    outer loop
      vertex -5.74064 -11.2202 10
      vertex -5.42705 -11.7634 10
      vertex -5.42705 -11.7634 0
    endloop
  endfacet
  facet normal 0.866026 0.499999 0
    outer loop
      vertex -5.74064 -11.2202 0
      vertex -5.74064 -11.2202 10
      vertex -5.42705 -11.7634 0
    endloop
  endfacet
  facet normal 0.951056 0.309018 0
    outer loop
      vertex -5.93444 -10.6237 10
      vertex -5.74064 -11.2202 10
      vertex -5.74064 -11.2202 0
    endloop
  endfacet
  facet normal 0.951056 0.309018 0
    outer loop
      vertex -5.93444 -10.6237 0
      vertex -5.93444 -10.6237 10
      vertex -5.74064 -11.2202 0
    endloop
  endfacet
endsolid OpenSCAD_Model
