solid OpenSCAD_Model
  facet normal 0 0 -1
    outer loop
      vertex -100 0 0
      vertex -97.8148 20.7912 0
      vertex -97.8148 -20.7912 0
    endloop
  endfacet
  facet normal 0 0 -1
    outer loop
      vertex -97.8148 -20.7912 0
      vertex -97.8148 20.7912 0
      vertex -91.3545 40.6737 0
    endloop
  endfacet
  facet normal 0 0 -1
    outer loop
      vertex -97.8148 -20.7912 0
      vertex -91.3545 40.6737 0
      vertex -80.9017 58.7785 0
    endloop
  endfacet
  facet normal 0 0 -1
    outer loop
      vertex -97.8148 -20.7912 0
      vertex -80.9017 58.7785 0
      vertex -66.9131 74.3145 0
    endloop
  endfacet
  facet normal 0 0 -1
    outer loop
      vertex -97.8148 -20.7912 0
      vertex -66.9131 74.3145 0
      vertex -50 86.6025 0
    endloop
  endfacet
  facet normal 0 0 -1
    outer loop
      vertex -97.8148 -20.7912 0
      vertex -50 86.6025 0
      vertex -30.9017 95.1057 0
    endloop
  endfacet
  facet normal 0 0 -1
    outer loop
      vertex -97.8148 -20.7912 0
      vertex -30.9017 95.1057 0
      vertex -10.4528 99.4522 0
    endloop
  endfacet
  facet normal 0 0 -1
    outer loop
      vertex -97.8148 -20.7912 0
      vertex -10.4528 99.4522 0
      vertex 10.4528 99.4522 0
    endloop
  endfacet
  facet normal 0 0 -1
    outer loop
      vertex -97.8148 -20.7912 0
      vertex 10.4528 99.4522 0
      vertex 30.9017 95.1057 0
    endloop
  endfacet
  facet normal 0 0 -1
    outer loop
      vertex -5.22642 49.7261 0
      vertex 30.9017 95.1057 0
      vertex 50 86.6025 0
    endloop
  endfacet
  facet normal 0 0 -1
    outer loop
      vertex 15.4508 47.5528 0
      vertex 50 86.6025 0
      vertex 66.9131 74.3145 0
    endloop
  endfacet
  facet normal 0 0 -1
    outer loop
      vertex 25 43.3013 0
      vertex 66.9131 74.3145 0
      vertex 80.9017 58.7785 0
    endloop
  endfacet
  facet normal 0 0 -1
    outer loop
      vertex 40.4508 29.3893 0
      vertex 80.9017 58.7785 0
      vertex 91.3545 40.6737 0
    endloop
  endfacet
  facet normal 0 0 -1
    outer loop
      vertex 48.9074 10.3956 0
      vertex 91.3545 40.6737 0
      vertex 97.8148 20.7912 0
    endloop
  endfacet
  facet normal 0 0 -1
    outer loop
      vertex 50 0 0
      vertex 97.8148 20.7912 0
      vertex 100 0 0
    endloop
  endfacet
  facet normal 0 0 -1
    outer loop
      vertex 45.6773 -20.3368 0
      vertex 100 0 0
      vertex 97.8148 -20.7912 0
    endloop
  endfacet
  facet normal 0 0 -1
    outer loop
      vertex 40.4508 -29.3893 0
      vertex 97.8148 -20.7912 0
      vertex 91.3545 -40.6737 0
    endloop
  endfacet
  facet normal 0 0 -1
    outer loop
      vertex 25 -43.3013 0
      vertex 91.3545 -40.6737 0
      vertex 80.9017 -58.7785 0
    endloop
  endfacet
  facet normal 0 0 -1
    outer loop
      vertex 5.22642 -49.7261 0
      vertex 80.9017 -58.7785 0
      vertex 66.9131 -74.3145 0
    endloop
  endfacet
  facet normal 0 0 -1
    outer loop
      vertex -15.4508 -47.5528 0
      vertex 66.9131 -74.3145 0
      vertex 50 -86.6025 0
    endloop
  endfacet
  facet normal 0 0 -1
    outer loop
      vertex -97.8148 -20.7912 0
      vertex 50 -86.6025 0
      vertex 30.9017 -95.1057 0
    endloop
  endfacet
  facet normal 0 0 -1
    outer loop
      vertex -97.8148 -20.7912 0
      vertex 30.9017 -95.1057 0
      vertex 10.4528 -99.4522 0
    endloop
  endfacet
  facet normal 0 0 -1
    outer loop
      vertex -97.8148 -20.7912 0
      vertex 10.4528 -99.4522 0
      vertex -10.4528 -99.4522 0
    endloop
  endfacet
  facet normal 0 0 -1
    outer loop
      vertex -97.8148 -20.7912 0
      vertex -10.4528 -99.4522 0
      vertex -30.9017 -95.1057 0
    endloop
  endfacet
  facet normal 0 0 -1
    outer loop
      vertex -97.8148 -20.7912 0
      vertex -30.9017 -95.1057 0
      vertex -50 -86.6025 0
    endloop
  endfacet
  facet normal 0 0 -1
    outer loop
      vertex -97.8148 -20.7912 0
      vertex -50 -86.6025 0
      vertex -66.9131 -74.3145 0
    endloop
  endfacet
  facet normal 0 0 -1
    outer loop
      vertex -97.8148 -20.7912 0
      vertex -66.9131 -74.3145 0
      vertex -80.9017 -58.7785 0
    endloop
  endfacet
  facet normal 0 0 -1
    outer loop
      vertex -97.8148 -20.7912 0
      vertex -80.9017 -58.7785 0
      vertex -91.3545 -40.6737 0
    endloop
  endfacet
  facet normal 0 0 -1
    outer loop
      vertex -48.9074 -10.3956 0
      vertex -97.8148 -20.7912 0
      vertex -50 0 0
    endloop
  endfacet
  facet normal 0 0 -1
    outer loop
      vertex -45.6773 -20.3368 0
      vertex -97.8148 -20.7912 0
      vertex -48.9074 -10.3956 0
    endloop
  endfacet
  facet normal 0 0 -1
    outer loop
      vertex -40.4508 -29.3893 0
      vertex -97.8148 -20.7912 0
      vertex -45.6773 -20.3368 0
    endloop
  endfacet
  facet normal 0 0 -1
    outer loop
      vertex -33.4565 -37.1572 0
      vertex -97.8148 -20.7912 0
      vertex -40.4508 -29.3893 0
    endloop
  endfacet
  facet normal 0 0 -1
    outer loop
      vertex -15.4508 -47.5528 0
      vertex -97.8148 -20.7912 0
      vertex -25 -43.3013 0
    endloop
  endfacet
  facet normal 0 0 -1
    outer loop
      vertex -97.8148 -20.7912 0
      vertex -33.4565 -37.1572 0
      vertex -25 -43.3013 0
    endloop
  endfacet
  facet normal 0 0 -1
    outer loop
      vertex -5.22642 -49.7261 0
      vertex 66.9131 -74.3145 0
      vertex -15.4508 -47.5528 0
    endloop
  endfacet
  facet normal 0 0 -1
    outer loop
      vertex -97.8148 -20.7912 0
      vertex -15.4508 -47.5528 0
      vertex 50 -86.6025 0
    endloop
  endfacet
  facet normal 0 0 -1
    outer loop
      vertex 5.22642 -49.7261 0
      vertex 66.9131 -74.3145 0
      vertex -5.22642 -49.7261 0
    endloop
  endfacet
  facet normal 0 0 -1
    outer loop
      vertex 15.4508 -47.5528 0
      vertex 80.9017 -58.7785 0
      vertex 5.22642 -49.7261 0
    endloop
  endfacet
  facet normal 0 0 -1
    outer loop
      vertex 25 -43.3013 0
      vertex 80.9017 -58.7785 0
      vertex 15.4508 -47.5528 0
    endloop
  endfacet
  facet normal 0 0 -1
    outer loop
      vertex 33.4565 -37.1572 0
      vertex 91.3545 -40.6737 0
      vertex 25 -43.3013 0
    endloop
  endfacet
  facet normal 0 0 -1
    outer loop
      vertex 40.4508 -29.3893 0
      vertex 91.3545 -40.6737 0
      vertex 33.4565 -37.1572 0
    endloop
  endfacet
  facet normal 0 0 -1
    outer loop
      vertex 48.9074 -10.3956 0
      vertex 100 0 0
      vertex 45.6773 -20.3368 0
    endloop
  endfacet
  facet normal 0 0 -1
    outer loop
      vertex 50 0 0
      vertex 100 0 0
      vertex 48.9074 -10.3956 0
    endloop
  endfacet
  facet normal 0 0 -1
    outer loop
      vertex 48.9074 10.3956 0
      vertex 97.8148 20.7912 0
      vertex 50 0 0
    endloop
  endfacet
  facet normal 0 0 -1
    outer loop
      vertex 45.6773 20.3368 0
      vertex 91.3545 40.6737 0
      vertex 48.9074 10.3956 0
    endloop
  endfacet
  facet normal 0 0 -1
    outer loop
      vertex 45.6773 -20.3368 0
      vertex 97.8148 -20.7912 0
      vertex 40.4508 -29.3893 0
    endloop
  endfacet
  facet normal 0 0 -1
    outer loop
      vertex 33.4565 37.1572 0
      vertex 80.9017 58.7785 0
      vertex 40.4508 29.3893 0
    endloop
  endfacet
  facet normal 0 0 -1
    outer loop
      vertex 25 43.3013 0
      vertex 80.9017 58.7785 0
      vertex 33.4565 37.1572 0
    endloop
  endfacet
  facet normal 0 0 -1
    outer loop
      vertex 5.22642 49.7261 0
      vertex 50 86.6025 0
      vertex 15.4508 47.5528 0
    endloop
  endfacet
  facet normal 0 0 -1
    outer loop
      vertex 40.4508 29.3893 0
      vertex 91.3545 40.6737 0
      vertex 45.6773 20.3368 0
    endloop
  endfacet
  facet normal 0 0 -1
    outer loop
      vertex -15.4508 47.5528 0
      vertex 30.9017 95.1057 0
      vertex -5.22642 49.7261 0
    endloop
  endfacet
  facet normal 0 0 -1
    outer loop
      vertex -40.4508 29.3893 0
      vertex -97.8148 -20.7912 0
      vertex -33.4565 37.1572 0
    endloop
  endfacet
  facet normal 0 0 -1
    outer loop
      vertex -25 43.3013 0
      vertex 30.9017 95.1057 0
      vertex -15.4508 47.5528 0
    endloop
  endfacet
  facet normal 0 0 -1
    outer loop
      vertex -33.4565 37.1572 0
      vertex 30.9017 95.1057 0
      vertex -25 43.3013 0
    endloop
  endfacet
  facet normal 0 0 -1
    outer loop
      vertex -97.8148 -20.7912 0
      vertex 30.9017 95.1057 0
      vertex -33.4565 37.1572 0
    endloop
  endfacet
  facet normal 0 0 -1
    outer loop
      vertex -45.6773 20.3368 0
      vertex -97.8148 -20.7912 0
      vertex -40.4508 29.3893 0
    endloop
  endfacet
  facet normal 0 0 -1
    outer loop
      vertex -48.9074 10.3956 0
      vertex -97.8148 -20.7912 0
      vertex -45.6773 20.3368 0
    endloop
  endfacet
  facet normal 0 0 -1
    outer loop
      vertex -50 0 0
      vertex -97.8148 -20.7912 0
      vertex -48.9074 10.3956 0
    endloop
  endfacet
  facet normal 0 0 -1
    outer loop
      vertex -5.22642 49.7261 0
      vertex 50 86.6025 0
      vertex 5.22642 49.7261 0
    endloop
  endfacet
  facet normal 0 0 -1
    outer loop
      vertex 15.4508 47.5528 0
      vertex 66.9131 74.3145 0
      vertex 25 43.3013 0
    endloop
  endfacet
  facet normal -0.924087 0.0971255 0.369635
    outer loop
      vertex -97.8148 20.7912 0
      vertex -100 0 0
      vertex 0 0 250
    endloop
  endfacet
  facet normal -0.924087 -0.0971255 0.369635
    outer loop
      vertex 0 0 250
      vertex -100 0 0
      vertex -97.8148 -20.7912 0
    endloop
  endfacet
  facet normal -0.8837 -0.287132 0.369635
    outer loop
      vertex 0 0 250
      vertex -97.8148 -20.7912 0
      vertex -91.3545 -40.6737 0
    endloop
  endfacet
  facet normal -0.804691 -0.464589 0.369635
    outer loop
      vertex 0 0 250
      vertex -91.3545 -40.6737 0
      vertex -80.9017 -58.7785 0
    endloop
  endfacet
  facet normal -0.690513 -0.621741 0.369635
    outer loop
      vertex 0 0 250
      vertex -80.9017 -58.7785 0
      vertex -66.9131 -74.3145 0
    endloop
  endfacet
  facet normal -0.546157 -0.75172 0.369635
    outer loop
      vertex 0 0 250
      vertex -66.9131 -74.3145 0
      vertex -50 -86.6025 0
    endloop
  endfacet
  facet normal -0.37793 -0.848846 0.369635
    outer loop
      vertex 0 0 250
      vertex -50 -86.6025 0
      vertex -30.9017 -95.1057 0
    endloop
  endfacet
  facet normal -0.193187 -0.908872 0.369635
    outer loop
      vertex 0 0 250
      vertex -30.9017 -95.1057 0
      vertex -10.4528 -99.4522 0
    endloop
  endfacet
  facet normal 0 -0.929177 0.369635
    outer loop
      vertex 0 0 250
      vertex -10.4528 -99.4522 0
      vertex 10.4528 -99.4522 0
    endloop
  endfacet
  facet normal 0.193187 -0.908872 0.369635
    outer loop
      vertex 30.9017 -95.1057 0
      vertex 0 0 250
      vertex 10.4528 -99.4522 0
    endloop
  endfacet
  facet normal 0.37793 -0.848846 0.369635
    outer loop
      vertex 50 -86.6025 0
      vertex 0 0 250
      vertex 30.9017 -95.1057 0
    endloop
  endfacet
  facet normal 0.546157 -0.75172 0.369635
    outer loop
      vertex 66.9131 -74.3145 0
      vertex 0 0 250
      vertex 50 -86.6025 0
    endloop
  endfacet
  facet normal 0.690513 -0.621741 0.369635
    outer loop
      vertex 80.9017 -58.7785 0
      vertex 0 0 250
      vertex 66.9131 -74.3145 0
    endloop
  endfacet
  facet normal 0.804691 -0.464589 0.369635
    outer loop
      vertex 91.3545 -40.6737 0
      vertex 0 0 250
      vertex 80.9017 -58.7785 0
    endloop
  endfacet
  facet normal 0.8837 -0.287132 0.369635
    outer loop
      vertex 97.8148 -20.7912 0
      vertex 0 0 250
      vertex 91.3545 -40.6737 0
    endloop
  endfacet
  facet normal 0.924087 -0.0971255 0.369635
    outer loop
      vertex 100 0 0
      vertex 0 0 250
      vertex 97.8148 -20.7912 0
    endloop
  endfacet
  facet normal 0.924087 0.0971255 0.369635
    outer loop
      vertex 97.8148 20.7912 0
      vertex 0 0 250
      vertex 100 0 0
    endloop
  endfacet
  facet normal 0.8837 0.287132 0.369635
    outer loop
      vertex 91.3545 40.6737 0
      vertex 0 0 250
      vertex 97.8148 20.7912 0
    endloop
  endfacet
  facet normal 0.804691 0.464589 0.369635
    outer loop
      vertex 80.9017 58.7785 0
      vertex 0 0 250
      vertex 91.3545 40.6737 0
    endloop
  endfacet
  facet normal 0.690513 0.621741 0.369635
    outer loop
      vertex 66.9131 74.3145 0
      vertex 0 0 250
      vertex 80.9017 58.7785 0
    endloop
  endfacet
  facet normal 0.546157 0.75172 0.369635
    outer loop
      vertex 50 86.6025 0
      vertex 0 0 250
      vertex 66.9131 74.3145 0
    endloop
  endfacet
  facet normal 0.37793 0.848846 0.369635
    outer loop
      vertex 30.9017 95.1057 0
      vertex 0 0 250
      vertex 50 86.6025 0
    endloop
  endfacet
  facet normal 0.193187 0.908872 0.369635
    outer loop
      vertex 10.4528 99.4522 0
      vertex 0 0 250
      vertex 30.9017 95.1057 0
    endloop
  endfacet
  facet normal 0 0.929177 0.369635
    outer loop
      vertex 10.4528 99.4522 0
      vertex -10.4528 99.4522 0
      vertex 0 0 250
    endloop
  endfacet
  facet normal -0.193187 0.908872 0.369635
    outer loop
      vertex -10.4528 99.4522 0
      vertex -30.9017 95.1057 0
      vertex 0 0 250
    endloop
  endfacet
  facet normal -0.37793 0.848846 0.369635
    outer loop
      vertex -30.9017 95.1057 0
      vertex -50 86.6025 0
      vertex 0 0 250
    endloop
  endfacet
  facet normal -0.546157 0.75172 0.369635
    outer loop
      vertex -50 86.6025 0
      vertex -66.9131 74.3145 0
      vertex 0 0 250
    endloop
  endfacet
  facet normal -0.690513 0.621741 0.369635
    outer loop
      vertex -66.9131 74.3145 0
      vertex -80.9017 58.7785 0
      vertex 0 0 250
    endloop
  endfacet
  facet normal -0.804691 0.464589 0.369635
    outer loop
      vertex -80.9017 58.7785 0
      vertex -91.3545 40.6737 0
      vertex 0 0 250
    endloop
  endfacet
  facet normal -0.8837 0.287132 0.369635
    outer loop
      vertex -91.3545 40.6737 0
      vertex -97.8148 20.7912 0
      vertex 0 0 250
    endloop
  endfacet
  facet normal -0.994522 0.104528 0
    outer loop
      vertex -50 0 -110
      vertex -50 0 0
      vertex -48.9074 10.3956 -110
    endloop
  endfacet
  facet normal -0.994522 0.104528 0
    outer loop
      vertex -48.9074 10.3956 -110
      vertex -50 0 0
      vertex -48.9074 10.3956 0
    endloop
  endfacet
  facet normal -0.994522 -0.104528 0
    outer loop
      vertex -50 0 -110
      vertex -48.9074 -10.3956 -110
      vertex -50 0 0
    endloop
  endfacet
  facet normal -0.994522 -0.104528 0
    outer loop
      vertex -50 0 0
      vertex -48.9074 -10.3956 -110
      vertex -48.9074 -10.3956 0
    endloop
  endfacet
  facet normal -0.951057 0.309017 0
    outer loop
      vertex -48.9074 10.3956 -110
      vertex -48.9074 10.3956 0
      vertex -45.6773 20.3368 -110
    endloop
  endfacet
  facet normal -0.951057 0.309017 0
    outer loop
      vertex -45.6773 20.3368 -110
      vertex -48.9074 10.3956 0
      vertex -45.6773 20.3368 0
    endloop
  endfacet
  facet normal -0.866025 0.5 0
    outer loop
      vertex -45.6773 20.3368 -110
      vertex -45.6773 20.3368 0
      vertex -40.4508 29.3893 -110
    endloop
  endfacet
  facet normal -0.866025 0.5 0
    outer loop
      vertex -40.4508 29.3893 -110
      vertex -45.6773 20.3368 0
      vertex -40.4508 29.3893 0
    endloop
  endfacet
  facet normal -0.743145 0.669131 0
    outer loop
      vertex -40.4508 29.3893 -110
      vertex -40.4508 29.3893 0
      vertex -33.4565 37.1572 -110
    endloop
  endfacet
  facet normal -0.743145 0.669131 0
    outer loop
      vertex -33.4565 37.1572 -110
      vertex -40.4508 29.3893 0
      vertex -33.4565 37.1572 0
    endloop
  endfacet
  facet normal -0.587785 0.809017 0
    outer loop
      vertex -33.4565 37.1572 -110
      vertex -33.4565 37.1572 0
      vertex -25 43.3013 -110
    endloop
  endfacet
  facet normal -0.587785 0.809017 0
    outer loop
      vertex -25 43.3013 -110
      vertex -33.4565 37.1572 0
      vertex -25 43.3013 0
    endloop
  endfacet
  facet normal -0.406737 0.913545 0
    outer loop
      vertex -25 43.3013 -110
      vertex -25 43.3013 0
      vertex -15.4508 47.5528 -110
    endloop
  endfacet
  facet normal -0.406737 0.913545 0
    outer loop
      vertex -15.4508 47.5528 -110
      vertex -25 43.3013 0
      vertex -15.4508 47.5528 0
    endloop
  endfacet
  facet normal -0.207912 0.978148 0
    outer loop
      vertex -15.4508 47.5528 -110
      vertex -15.4508 47.5528 0
      vertex -5.22642 49.7261 -110
    endloop
  endfacet
  facet normal -0.207912 0.978148 0
    outer loop
      vertex -5.22642 49.7261 -110
      vertex -15.4508 47.5528 0
      vertex -5.22642 49.7261 0
    endloop
  endfacet
  facet normal 0 1 0
    outer loop
      vertex -5.22642 49.7261 -110
      vertex -5.22642 49.7261 0
      vertex 5.22642 49.7261 -110
    endloop
  endfacet
  facet normal 0 1 0
    outer loop
      vertex 5.22642 49.7261 -110
      vertex -5.22642 49.7261 0
      vertex 5.22642 49.7261 0
    endloop
  endfacet
  facet normal 0.207912 0.978148 0
    outer loop
      vertex 5.22642 49.7261 -110
      vertex 5.22642 49.7261 0
      vertex 15.4508 47.5528 -110
    endloop
  endfacet
  facet normal 0.207912 0.978148 0
    outer loop
      vertex 15.4508 47.5528 -110
      vertex 5.22642 49.7261 0
      vertex 15.4508 47.5528 0
    endloop
  endfacet
  facet normal 0.406737 0.913545 0
    outer loop
      vertex 15.4508 47.5528 -110
      vertex 15.4508 47.5528 0
      vertex 25 43.3013 -110
    endloop
  endfacet
  facet normal 0.406737 0.913545 0
    outer loop
      vertex 25 43.3013 -110
      vertex 15.4508 47.5528 0
      vertex 25 43.3013 0
    endloop
  endfacet
  facet normal 0.587785 0.809017 0
    outer loop
      vertex 25 43.3013 -110
      vertex 25 43.3013 0
      vertex 33.4565 37.1572 -110
    endloop
  endfacet
  facet normal 0.587785 0.809017 0
    outer loop
      vertex 33.4565 37.1572 -110
      vertex 25 43.3013 0
      vertex 33.4565 37.1572 0
    endloop
  endfacet
  facet normal 0.743145 0.669131 0
    outer loop
      vertex 40.4508 29.3893 -110
      vertex 33.4565 37.1572 -110
      vertex 33.4565 37.1572 0
    endloop
  endfacet
  facet normal 0.743145 0.669131 0
    outer loop
      vertex 40.4508 29.3893 0
      vertex 40.4508 29.3893 -110
      vertex 33.4565 37.1572 0
    endloop
  endfacet
  facet normal 0.866025 0.5 0
    outer loop
      vertex 45.6773 20.3368 -110
      vertex 40.4508 29.3893 -110
      vertex 40.4508 29.3893 0
    endloop
  endfacet
  facet normal 0.866025 0.5 0
    outer loop
      vertex 45.6773 20.3368 0
      vertex 45.6773 20.3368 -110
      vertex 40.4508 29.3893 0
    endloop
  endfacet
  facet normal 0.951057 0.309017 0
    outer loop
      vertex 48.9074 10.3956 -110
      vertex 45.6773 20.3368 -110
      vertex 45.6773 20.3368 0
    endloop
  endfacet
  facet normal 0.951057 0.309017 0
    outer loop
      vertex 48.9074 10.3956 0
      vertex 48.9074 10.3956 -110
      vertex 45.6773 20.3368 0
    endloop
  endfacet
  facet normal 0.994522 0.104528 0
    outer loop
      vertex 50 0 -110
      vertex 48.9074 10.3956 -110
      vertex 48.9074 10.3956 0
    endloop
  endfacet
  facet normal 0.994522 0.104528 0
    outer loop
      vertex 50 0 0
      vertex 50 0 -110
      vertex 48.9074 10.3956 0
    endloop
  endfacet
  facet normal 0.994522 -0.104528 0
    outer loop
      vertex 48.9074 -10.3956 0
      vertex 48.9074 -10.3956 -110
      vertex 50 0 -110
    endloop
  endfacet
  facet normal 0.994522 -0.104528 0
    outer loop
      vertex 50 0 0
      vertex 48.9074 -10.3956 0
      vertex 50 0 -110
    endloop
  endfacet
  facet normal 0.951057 -0.309017 0
    outer loop
      vertex 45.6773 -20.3368 0
      vertex 45.6773 -20.3368 -110
      vertex 48.9074 -10.3956 -110
    endloop
  endfacet
  facet normal 0.951057 -0.309017 0
    outer loop
      vertex 48.9074 -10.3956 0
      vertex 45.6773 -20.3368 0
      vertex 48.9074 -10.3956 -110
    endloop
  endfacet
  facet normal 0.866025 -0.5 0
    outer loop
      vertex 40.4508 -29.3893 0
      vertex 40.4508 -29.3893 -110
      vertex 45.6773 -20.3368 -110
    endloop
  endfacet
  facet normal 0.866025 -0.5 0
    outer loop
      vertex 45.6773 -20.3368 0
      vertex 40.4508 -29.3893 0
      vertex 45.6773 -20.3368 -110
    endloop
  endfacet
  facet normal 0.743145 -0.669131 0
    outer loop
      vertex 33.4565 -37.1572 0
      vertex 33.4565 -37.1572 -110
      vertex 40.4508 -29.3893 -110
    endloop
  endfacet
  facet normal 0.743145 -0.669131 0
    outer loop
      vertex 40.4508 -29.3893 0
      vertex 33.4565 -37.1572 0
      vertex 40.4508 -29.3893 -110
    endloop
  endfacet
  facet normal 0.587785 -0.809017 0
    outer loop
      vertex 25 -43.3013 0
      vertex 25 -43.3013 -110
      vertex 33.4565 -37.1572 -110
    endloop
  endfacet
  facet normal 0.587785 -0.809017 0
    outer loop
      vertex 33.4565 -37.1572 0
      vertex 25 -43.3013 0
      vertex 33.4565 -37.1572 -110
    endloop
  endfacet
  facet normal 0.406737 -0.913545 0
    outer loop
      vertex 15.4508 -47.5528 0
      vertex 15.4508 -47.5528 -110
      vertex 25 -43.3013 -110
    endloop
  endfacet
  facet normal 0.406737 -0.913545 0
    outer loop
      vertex 25 -43.3013 0
      vertex 15.4508 -47.5528 0
      vertex 25 -43.3013 -110
    endloop
  endfacet
  facet normal 0.207912 -0.978148 0
    outer loop
      vertex 5.22642 -49.7261 0
      vertex 5.22642 -49.7261 -110
      vertex 15.4508 -47.5528 -110
    endloop
  endfacet
  facet normal 0.207912 -0.978148 0
    outer loop
      vertex 15.4508 -47.5528 0
      vertex 5.22642 -49.7261 0
      vertex 15.4508 -47.5528 -110
    endloop
  endfacet
  facet normal 0 -1 0
    outer loop
      vertex -5.22642 -49.7261 0
      vertex -5.22642 -49.7261 -110
      vertex 5.22642 -49.7261 -110
    endloop
  endfacet
  facet normal 0 -1 0
    outer loop
      vertex 5.22642 -49.7261 0
      vertex -5.22642 -49.7261 0
      vertex 5.22642 -49.7261 -110
    endloop
  endfacet
  facet normal -0.207912 -0.978148 0
    outer loop
      vertex -15.4508 -47.5528 0
      vertex -15.4508 -47.5528 -110
      vertex -5.22642 -49.7261 -110
    endloop
  endfacet
  facet normal -0.207912 -0.978148 0
    outer loop
      vertex -5.22642 -49.7261 0
      vertex -15.4508 -47.5528 0
      vertex -5.22642 -49.7261 -110
    endloop
  endfacet
  facet normal -0.406737 -0.913545 0
    outer loop
      vertex -25 -43.3013 0
      vertex -25 -43.3013 -110
      vertex -15.4508 -47.5528 -110
    endloop
  endfacet
  facet normal -0.406737 -0.913545 0
    outer loop
      vertex -15.4508 -47.5528 0
      vertex -25 -43.3013 0
      vertex -15.4508 -47.5528 -110
    endloop
  endfacet
  facet normal -0.587785 -0.809017 0
    outer loop
      vertex -33.4565 -37.1572 0
      vertex -33.4565 -37.1572 -110
      vertex -25 -43.3013 -110
    endloop
  endfacet
  facet normal -0.587785 -0.809017 0
    outer loop
      vertex -25 -43.3013 0
      vertex -33.4565 -37.1572 0
      vertex -25 -43.3013 -110
    endloop
  endfacet
  facet normal -0.743145 -0.669131 0
    outer loop
      vertex -40.4508 -29.3893 -110
      vertex -33.4565 -37.1572 -110
      vertex -40.4508 -29.3893 0
    endloop
  endfacet
  facet normal -0.743145 -0.669131 0
    outer loop
      vertex -40.4508 -29.3893 0
      vertex -33.4565 -37.1572 -110
      vertex -33.4565 -37.1572 0
    endloop
  endfacet
  facet normal -0.866025 -0.5 0
    outer loop
      vertex -45.6773 -20.3368 -110
      vertex -40.4508 -29.3893 -110
      vertex -45.6773 -20.3368 0
    endloop
  endfacet
  facet normal -0.866025 -0.5 0
    outer loop
      vertex -45.6773 -20.3368 0
      vertex -40.4508 -29.3893 -110
      vertex -40.4508 -29.3893 0
    endloop
  endfacet
  facet normal -0.951057 -0.309017 0
    outer loop
      vertex -48.9074 -10.3956 -110
      vertex -45.6773 -20.3368 -110
      vertex -48.9074 -10.3956 0
    endloop
  endfacet
  facet normal -0.951057 -0.309017 0
    outer loop
      vertex -48.9074 -10.3956 0
      vertex -45.6773 -20.3368 -110
      vertex -45.6773 -20.3368 0
    endloop
  endfacet
  facet normal 0 0 -1
    outer loop
      vertex -50 0 -110
      vertex -48.9074 10.3956 -110
      vertex -48.9074 -10.3956 -110
    endloop
  endfacet
  facet normal 0 0 -1
    outer loop
      vertex -48.9074 -10.3956 -110
      vertex -48.9074 10.3956 -110
      vertex -45.6773 20.3368 -110
    endloop
  endfacet
  facet normal 0 0 -1
    outer loop
      vertex -48.9074 -10.3956 -110
      vertex -45.6773 20.3368 -110
      vertex -40.4508 29.3893 -110
    endloop
  endfacet
  facet normal 0 0 -1
    outer loop
      vertex -48.9074 -10.3956 -110
      vertex -40.4508 29.3893 -110
      vertex -33.4565 37.1572 -110
    endloop
  endfacet
  facet normal 0 0 -1
    outer loop
      vertex -48.9074 -10.3956 -110
      vertex -33.4565 37.1572 -110
      vertex -25 43.3013 -110
    endloop
  endfacet
  facet normal 0 0 -1
    outer loop
      vertex -48.9074 -10.3956 -110
      vertex -25 43.3013 -110
      vertex -15.4508 47.5528 -110
    endloop
  endfacet
  facet normal 0 0 -1
    outer loop
      vertex -48.9074 -10.3956 -110
      vertex -15.4508 47.5528 -110
      vertex -5.22642 49.7261 -110
    endloop
  endfacet
  facet normal 0 0 -1
    outer loop
      vertex -48.9074 -10.3956 -110
      vertex -5.22642 49.7261 -110
      vertex 5.22642 49.7261 -110
    endloop
  endfacet
  facet normal 0 0 -1
    outer loop
      vertex -48.9074 -10.3956 -110
      vertex 5.22642 49.7261 -110
      vertex 15.4508 47.5528 -110
    endloop
  endfacet
  facet normal 0 0 -1
    outer loop
      vertex -48.9074 -10.3956 -110
      vertex 15.4508 47.5528 -110
      vertex 25 43.3013 -110
    endloop
  endfacet
  facet normal 0 0 -1
    outer loop
      vertex -48.9074 -10.3956 -110
      vertex 25 43.3013 -110
      vertex 33.4565 37.1572 -110
    endloop
  endfacet
  facet normal 0 0 -1
    outer loop
      vertex -48.9074 -10.3956 -110
      vertex 33.4565 37.1572 -110
      vertex 40.4508 29.3893 -110
    endloop
  endfacet
  facet normal 0 0 -1
    outer loop
      vertex -48.9074 -10.3956 -110
      vertex 40.4508 29.3893 -110
      vertex 45.6773 20.3368 -110
    endloop
  endfacet
  facet normal 0 0 -1
    outer loop
      vertex -48.9074 -10.3956 -110
      vertex 45.6773 20.3368 -110
      vertex 48.9074 10.3956 -110
    endloop
  endfacet
  facet normal 0 0 -1
    outer loop
      vertex -48.9074 -10.3956 -110
      vertex 48.9074 10.3956 -110
      vertex 50 0 -110
    endloop
  endfacet
  facet normal 0 0 -1
    outer loop
      vertex -48.9074 -10.3956 -110
      vertex 50 0 -110
      vertex 48.9074 -10.3956 -110
    endloop
  endfacet
  facet normal 0 0 -1
    outer loop
      vertex -48.9074 -10.3956 -110
      vertex 48.9074 -10.3956 -110
      vertex 45.6773 -20.3368 -110
    endloop
  endfacet
  facet normal 0 0 -1
    outer loop
      vertex -48.9074 -10.3956 -110
      vertex 45.6773 -20.3368 -110
      vertex 40.4508 -29.3893 -110
    endloop
  endfacet
  facet normal 0 0 -1
    outer loop
      vertex -48.9074 -10.3956 -110
      vertex 40.4508 -29.3893 -110
      vertex 33.4565 -37.1572 -110
    endloop
  endfacet
  facet normal 0 0 -1
    outer loop
      vertex -48.9074 -10.3956 -110
      vertex 33.4565 -37.1572 -110
      vertex 25 -43.3013 -110
    endloop
  endfacet
  facet normal 0 0 -1
    outer loop
      vertex -48.9074 -10.3956 -110
      vertex 25 -43.3013 -110
      vertex 15.4508 -47.5528 -110
    endloop
  endfacet
  facet normal 0 0 -1
    outer loop
      vertex -48.9074 -10.3956 -110
      vertex 15.4508 -47.5528 -110
      vertex 5.22642 -49.7261 -110
    endloop
  endfacet
  facet normal 0 0 -1
    outer loop
      vertex -48.9074 -10.3956 -110
      vertex 5.22642 -49.7261 -110
      vertex -5.22642 -49.7261 -110
    endloop
  endfacet
  facet normal 0 0 -1
    outer loop
      vertex -48.9074 -10.3956 -110
      vertex -5.22642 -49.7261 -110
      vertex -15.4508 -47.5528 -110
    endloop
  endfacet
  facet normal 0 0 -1
    outer loop
      vertex -48.9074 -10.3956 -110
      vertex -15.4508 -47.5528 -110
      vertex -25 -43.3013 -110
    endloop
  endfacet
  facet normal 0 0 -1
    outer loop
      vertex -48.9074 -10.3956 -110
      vertex -25 -43.3013 -110
      vertex -33.4565 -37.1572 -110
    endloop
  endfacet
  facet normal 0 0 -1
    outer loop
      vertex -48.9074 -10.3956 -110
      vertex -33.4565 -37.1572 -110
      vertex -40.4508 -29.3893 -110
    endloop
  endfacet
  facet normal 0 0 -1
    outer loop
      vertex -48.9074 -10.3956 -110
      vertex -40.4508 -29.3893 -110
      vertex -45.6773 -20.3368 -110
    endloop
  endfacet
endsolid OpenSCAD_Model
