solid OpenSCAD_Model
  facet normal -1 0 0
    outer loop
      vertex -4 -1 -1
      vertex -4 -1 1
      vertex -4 1 -1
    endloop
  endfacet
  facet normal -1 0 0
    outer loop
      vertex -4 1 -1
      vertex -4 -1 1
      vertex -4 1 1
    endloop
  endfacet
  facet normal 0 -1 0
    outer loop
      vertex -4 -1 1
      vertex -4 -1 -1
      vertex 0 -1 -1
    endloop
  endfacet
  facet normal 0 -1 0
    outer loop
      vertex -2.22045e-16 -1 1
      vertex -4 -1 1
      vertex 0 -1 0
    endloop
  endfacet
  facet normal 0 -1 0
    outer loop
      vertex 0 -1 0
      vertex -4 -1 1
      vertex 0 -1 -1
    endloop
  endfacet
  facet normal 0 0 -1
    outer loop
      vertex -4 -1 -1
      vertex -4 1 -1
      vertex 0 -1 -1
    endloop
  endfacet
  facet normal 0 0 -1
    outer loop
      vertex 0 -1 -1
      vertex -4 1 -1
      vertex 0 1 -1
    endloop
  endfacet
  facet normal 0 1 0
    outer loop
      vertex -4 1 -1
      vertex -4 1 1
      vertex 0 1 -1
    endloop
  endfacet
  facet normal 0 1 0
    outer loop
      vertex 0 1 -1
      vertex -4 1 1
      vertex -2.22045e-16 1 1
    endloop
  endfacet
  facet normal 0 1 0
    outer loop
      vertex 0 1 -1
      vertex -2.22045e-16 1 1
      vertex 0 1 0
    endloop
  endfacet
  facet normal 0 0 1
    outer loop
      vertex -4 1 1
      vertex -4 -1 1
      vertex -2.22045e-16 -1 1
    endloop
  endfacet
  facet normal 0 0 1
    outer loop
      vertex -2.22045e-16 1 1
      vertex -4 1 1
      vertex -2.22045e-16 -1 1
    endloop
  endfacet
  facet normal -1 0 -2.22045e-16
    outer loop
      vertex -9.77366e-16 -0.935603 4.40166
      vertex -9.77366e-16 0.935603 4.40166
      vertex -8.0837e-16 -2.64503 3.64058
    endloop
  endfacet
  facet normal -1 0 -2.22045e-16
    outer loop
      vertex -8.0837e-16 -2.64503 3.64058
      vertex -9.77366e-16 0.935603 4.40166
      vertex -8.0837e-16 2.64503 3.64058
    endloop
  endfacet
  facet normal -1 0 -2.22045e-16
    outer loop
      vertex -8.0837e-16 -2.64503 3.64058
      vertex -8.0837e-16 2.64503 3.64058
      vertex -4.996e-16 3.89711 2.25
    endloop
  endfacet
  facet normal -1 0 -2.22045e-16
    outer loop
      vertex -8.0837e-16 -2.64503 3.64058
      vertex -4.996e-16 3.89711 2.25
      vertex -1.04445e-16 4.47535 0.470378
    endloop
  endfacet
  facet normal -1 0 -2.22045e-16
    outer loop
      vertex -2.22045e-16 1 1
      vertex -1.04445e-16 4.47535 0.470378
      vertex 3.0877e-16 4.27975 -1.39058
    endloop
  endfacet
  facet normal -1 0 -2.22045e-16
    outer loop
      vertex 0 1 0
      vertex 3.0877e-16 4.27975 -1.39058
      vertex 6.68596e-16 3.34415 -3.01109
    endloop
  endfacet
  facet normal -1 0 -2.22045e-16
    outer loop
      vertex 0 -1 0
      vertex 9.12815e-16 1.83031 -4.11095
      vertex 9.99201e-16 0 -4.5
    endloop
  endfacet
  facet normal -1 0 -2.22045e-16
    outer loop
      vertex -8.0837e-16 -2.64503 3.64058
      vertex 9.99201e-16 0 -4.5
      vertex 9.12815e-16 -1.83031 -4.11095
    endloop
  endfacet
  facet normal -1 0 -2.22045e-16
    outer loop
      vertex -8.0837e-16 -2.64503 3.64058
      vertex 9.12815e-16 -1.83031 -4.11095
      vertex 6.68596e-16 -3.34415 -3.01109
    endloop
  endfacet
  facet normal -1 0 -2.22045e-16
    outer loop
      vertex -8.0837e-16 -2.64503 3.64058
      vertex 6.68596e-16 -3.34415 -3.01109
      vertex 3.0877e-16 -4.27975 -1.39058
    endloop
  endfacet
  facet normal -1 0 -2.22045e-16
    outer loop
      vertex -8.0837e-16 -2.64503 3.64058
      vertex 3.0877e-16 -4.27975 -1.39058
      vertex -1.04445e-16 -4.47535 0.470378
    endloop
  endfacet
  facet normal -1 0 -2.22045e-16
    outer loop
      vertex -8.0837e-16 -2.64503 3.64058
      vertex -1.04445e-16 -4.47535 0.470378
      vertex -4.996e-16 -3.89711 2.25
    endloop
  endfacet
  facet normal -1 0 -2.22045e-16
    outer loop
      vertex -8.0837e-16 -2.64503 3.64058
      vertex -1.04445e-16 4.47535 0.470378
      vertex -2.22045e-16 1 1
    endloop
  endfacet
  facet normal -1 0 -2.22045e-16
    outer loop
      vertex -2.22045e-16 -1 1
      vertex -8.0837e-16 -2.64503 3.64058
      vertex -2.22045e-16 1 1
    endloop
  endfacet
  facet normal -1 0 -2.22045e-16
    outer loop
      vertex 0 -1 0
      vertex -8.0837e-16 -2.64503 3.64058
      vertex -2.22045e-16 -1 1
    endloop
  endfacet
  facet normal -1 0 -2.22045e-16
    outer loop
      vertex 0 1 0
      vertex 9.12815e-16 1.83031 -4.11095
      vertex 0 -1 0
    endloop
  endfacet
  facet normal -1 0 -2.22045e-16
    outer loop
      vertex 0 1 0
      vertex 6.68596e-16 3.34415 -3.01109
      vertex 9.12815e-16 1.83031 -4.11095
    endloop
  endfacet
  facet normal -1 0 -2.22045e-16
    outer loop
      vertex -8.0837e-16 -2.64503 3.64058
      vertex 0 -1 0
      vertex 9.99201e-16 0 -4.5
    endloop
  endfacet
  facet normal -1 0 -2.22045e-16
    outer loop
      vertex -2.22045e-16 1 1
      vertex 3.0877e-16 4.27975 -1.39058
      vertex 0 1 0
    endloop
  endfacet
  facet normal 1 0 0
    outer loop
      vertex 0 -1 0
      vertex 0 -1 -1
      vertex 0 1 -1
    endloop
  endfacet
  facet normal 1 0 0
    outer loop
      vertex 0 1 0
      vertex 0 -1 0
      vertex 0 1 -1
    endloop
  endfacet
  facet normal -2.02848e-16 -0.406737 0.913545
    outer loop
      vertex 1 -0.935603 4.40166
      vertex -9.77366e-16 -0.935603 4.40166
      vertex -8.0837e-16 -2.64503 3.64058
    endloop
  endfacet
  facet normal -2.02848e-16 -0.406737 0.913545
    outer loop
      vertex 1 -2.64503 3.64058
      vertex 1 -0.935603 4.40166
      vertex -8.0837e-16 -2.64503 3.64058
    endloop
  endfacet
  facet normal -1.48577e-16 -0.743145 0.669131
    outer loop
      vertex 1 -2.64503 3.64058
      vertex -8.0837e-16 -2.64503 3.64058
      vertex -4.996e-16 -3.89711 2.25
    endloop
  endfacet
  facet normal -1.48577e-16 -0.743145 0.669131
    outer loop
      vertex 1 -3.89711 2.25
      vertex 1 -2.64503 3.64058
      vertex -4.996e-16 -3.89711 2.25
    endloop
  endfacet
  facet normal -6.86156e-17 -0.951056 0.309017
    outer loop
      vertex 1 -3.89711 2.25
      vertex -4.996e-16 -3.89711 2.25
      vertex -1.04445e-16 -4.47535 0.470378
    endloop
  endfacet
  facet normal -6.86156e-17 -0.951056 0.309017
    outer loop
      vertex 1 -4.47535 0.470378
      vertex 1 -3.89711 2.25
      vertex -1.04445e-16 -4.47535 0.470378
    endloop
  endfacet
  facet normal 2.32101e-17 -0.994522 -0.104529
    outer loop
      vertex 1 -4.47535 0.470378
      vertex -1.04445e-16 -4.47535 0.470378
      vertex 3.0877e-16 -4.27975 -1.39058
    endloop
  endfacet
  facet normal 2.32101e-17 -0.994522 -0.104529
    outer loop
      vertex 1 -4.27975 -1.39058
      vertex 1 -4.47535 0.470378
      vertex 3.0877e-16 -4.27975 -1.39058
    endloop
  endfacet
  facet normal 1.11022e-16 -0.866026 -0.5
    outer loop
      vertex 1 -4.27975 -1.39058
      vertex 3.0877e-16 -4.27975 -1.39058
      vertex 6.68596e-16 -3.34415 -3.01109
    endloop
  endfacet
  facet normal 1.11022e-16 -0.866026 -0.5
    outer loop
      vertex 1 -3.34415 -3.01109
      vertex 1 -4.27975 -1.39058
      vertex 6.68596e-16 -3.34415 -3.01109
    endloop
  endfacet
  facet normal 1.79638e-16 -0.587785 -0.809017
    outer loop
      vertex 6.68596e-16 -3.34415 -3.01109
      vertex 9.12815e-16 -1.83031 -4.11095
      vertex 1 -3.34415 -3.01109
    endloop
  endfacet
  facet normal 1.79638e-16 -0.587785 -0.809017
    outer loop
      vertex 1 -3.34415 -3.01109
      vertex 9.12815e-16 -1.83031 -4.11095
      vertex 1 -1.83031 -4.11095
    endloop
  endfacet
  facet normal 2.17192e-16 -0.207911 -0.978148
    outer loop
      vertex 9.12815e-16 -1.83031 -4.11095
      vertex 9.99201e-16 0 -4.5
      vertex 1 -1.83031 -4.11095
    endloop
  endfacet
  facet normal 2.17192e-16 -0.207911 -0.978148
    outer loop
      vertex 1 -1.83031 -4.11095
      vertex 9.99201e-16 0 -4.5
      vertex 1 0 -4.5
    endloop
  endfacet
  facet normal 2.17192e-16 0.207911 -0.978148
    outer loop
      vertex 9.12815e-16 1.83031 -4.11095
      vertex 1 1.83031 -4.11095
      vertex 9.99201e-16 0 -4.5
    endloop
  endfacet
  facet normal 2.17192e-16 0.207911 -0.978148
    outer loop
      vertex 9.99201e-16 0 -4.5
      vertex 1 1.83031 -4.11095
      vertex 1 0 -4.5
    endloop
  endfacet
  facet normal 1.79638e-16 0.587785 -0.809017
    outer loop
      vertex 6.68596e-16 3.34415 -3.01109
      vertex 1 3.34415 -3.01109
      vertex 9.12815e-16 1.83031 -4.11095
    endloop
  endfacet
  facet normal 1.79638e-16 0.587785 -0.809017
    outer loop
      vertex 9.12815e-16 1.83031 -4.11095
      vertex 1 3.34415 -3.01109
      vertex 1 1.83031 -4.11095
    endloop
  endfacet
  facet normal 1.11022e-16 0.866026 -0.5
    outer loop
      vertex 3.0877e-16 4.27975 -1.39058
      vertex 1 4.27975 -1.39058
      vertex 6.68596e-16 3.34415 -3.01109
    endloop
  endfacet
  facet normal 1.11022e-16 0.866026 -0.5
    outer loop
      vertex 6.68596e-16 3.34415 -3.01109
      vertex 1 4.27975 -1.39058
      vertex 1 3.34415 -3.01109
    endloop
  endfacet
  facet normal 2.32101e-17 0.994522 -0.104529
    outer loop
      vertex -1.04445e-16 4.47535 0.470378
      vertex 1 4.47535 0.470378
      vertex 3.0877e-16 4.27975 -1.39058
    endloop
  endfacet
  facet normal 2.32101e-17 0.994522 -0.104529
    outer loop
      vertex 3.0877e-16 4.27975 -1.39058
      vertex 1 4.47535 0.470378
      vertex 1 4.27975 -1.39058
    endloop
  endfacet
  facet normal -6.86156e-17 0.951056 0.309017
    outer loop
      vertex -4.996e-16 3.89711 2.25
      vertex 1 3.89711 2.25
      vertex -1.04445e-16 4.47535 0.470378
    endloop
  endfacet
  facet normal -6.86156e-17 0.951056 0.309017
    outer loop
      vertex -1.04445e-16 4.47535 0.470378
      vertex 1 3.89711 2.25
      vertex 1 4.47535 0.470378
    endloop
  endfacet
  facet normal -1.48577e-16 0.743145 0.669131
    outer loop
      vertex -8.0837e-16 2.64503 3.64058
      vertex 1 2.64503 3.64058
      vertex -4.996e-16 3.89711 2.25
    endloop
  endfacet
  facet normal -1.48577e-16 0.743145 0.669131
    outer loop
      vertex -4.996e-16 3.89711 2.25
      vertex 1 2.64503 3.64058
      vertex 1 3.89711 2.25
    endloop
  endfacet
  facet normal -2.02848e-16 0.406737 0.913545
    outer loop
      vertex -8.0837e-16 2.64503 3.64058
      vertex -9.77366e-16 0.935603 4.40166
      vertex 1 0.935603 4.40166
    endloop
  endfacet
  facet normal -2.02848e-16 0.406737 0.913545
    outer loop
      vertex 1 2.64503 3.64058
      vertex -8.0837e-16 2.64503 3.64058
      vertex 1 0.935603 4.40166
    endloop
  endfacet
  facet normal -2.22045e-16 0 1
    outer loop
      vertex -9.77366e-16 0.935603 4.40166
      vertex -9.77366e-16 -0.935603 4.40166
      vertex 1 -0.935603 4.40166
    endloop
  endfacet
  facet normal -2.22045e-16 0 1
    outer loop
      vertex 1 0.935603 4.40166
      vertex -9.77366e-16 0.935603 4.40166
      vertex 1 -0.935603 4.40166
    endloop
  endfacet
  facet normal 1 0 2.22045e-16
    outer loop
      vertex 1 0.935603 4.40166
      vertex 1 -0.935603 4.40166
      vertex 1 -2.64503 3.64058
    endloop
  endfacet
  facet normal 1 0 2.22045e-16
    outer loop
      vertex 1 -4.47535 0.470378
      vertex 1 0.935603 4.40166
      vertex 1 -3.89711 2.25
    endloop
  endfacet
  facet normal 1 0 2.22045e-16
    outer loop
      vertex 1 -3.89711 2.25
      vertex 1 0.935603 4.40166
      vertex 1 -2.64503 3.64058
    endloop
  endfacet
  facet normal 1 0 2.22045e-16
    outer loop
      vertex 1 -1.76777 1.76777
      vertex 1 0.935603 4.40166
      vertex 1 -4.47535 0.470378
    endloop
  endfacet
  facet normal 1 0 2.22045e-16
    outer loop
      vertex 1 1.76777 -1.76777
      vertex 1 0 -4.5
      vertex 1 1.83031 -4.11095
    endloop
  endfacet
  facet normal 1 0 2.22045e-16
    outer loop
      vertex 1 2.5 2.22045e-16
      vertex 1 1.76777 -1.76777
      vertex 1 1.83031 -4.11095
    endloop
  endfacet
  facet normal 1 0 2.22045e-16
    outer loop
      vertex 1 1.76777 1.76777
      vertex 1 2.5 2.22045e-16
      vertex 1 0.935603 4.40166
    endloop
  endfacet
  facet normal 1 0 2.22045e-16
    outer loop
      vertex 1 4.47535 0.470378
      vertex 1 0.935603 4.40166
      vertex 1 4.27975 -1.39058
    endloop
  endfacet
  facet normal 1 0 2.22045e-16
    outer loop
      vertex 1 3.89711 2.25
      vertex 1 0.935603 4.40166
      vertex 1 4.47535 0.470378
    endloop
  endfacet
  facet normal 1 0 2.22045e-16
    outer loop
      vertex 1 2.64503 3.64058
      vertex 1 0.935603 4.40166
      vertex 1 3.89711 2.25
    endloop
  endfacet
  facet normal 1 0 2.22045e-16
    outer loop
      vertex 1 -4.27975 -1.39058
      vertex 1 -1.76777 1.76777
      vertex 1 -4.47535 0.470378
    endloop
  endfacet
  facet normal 1 0 2.22045e-16
    outer loop
      vertex 1 1.76777 -1.76777
      vertex 1 0 -2.5
      vertex 1 0 -4.5
    endloop
  endfacet
  facet normal 1 0 2.22045e-16
    outer loop
      vertex 1 2.5 2.22045e-16
      vertex 1 1.83031 -4.11095
      vertex 1 3.34415 -3.01109
    endloop
  endfacet
  facet normal 1 0 2.22045e-16
    outer loop
      vertex 1 4.27975 -1.39058
      vertex 1 2.5 2.22045e-16
      vertex 1 3.34415 -3.01109
    endloop
  endfacet
  facet normal 1 0 2.22045e-16
    outer loop
      vertex 1 4.27975 -1.39058
      vertex 1 0.935603 4.40166
      vertex 1 2.5 2.22045e-16
    endloop
  endfacet
  facet normal 1 0 2.22045e-16
    outer loop
      vertex 1 0 -2.5
      vertex 1 -1.76777 -1.76777
      vertex 1 -1.83031 -4.11095
    endloop
  endfacet
  facet normal 1 0 2.22045e-16
    outer loop
      vertex 1 0 -4.5
      vertex 1 0 -2.5
      vertex 1 -1.83031 -4.11095
    endloop
  endfacet
  facet normal 1 0 2.22045e-16
    outer loop
      vertex 1 -1.83031 -4.11095
      vertex 1 -1.76777 -1.76777
      vertex 1 -3.34415 -3.01109
    endloop
  endfacet
  facet normal 1 0 2.22045e-16
    outer loop
      vertex 1 -3.34415 -3.01109
      vertex 1 -2.5 2.22045e-16
      vertex 1 -4.27975 -1.39058
    endloop
  endfacet
  facet normal 1 0 2.22045e-16
    outer loop
      vertex 1 -2.5 2.22045e-16
      vertex 1 -1.76777 1.76777
      vertex 1 -4.27975 -1.39058
    endloop
  endfacet
  facet normal 1 0 2.22045e-16
    outer loop
      vertex 1 -1.76777 1.76777
      vertex 1 0 2.5
      vertex 1 0.935603 4.40166
    endloop
  endfacet
  facet normal 1 0 2.22045e-16
    outer loop
      vertex 1 -1.76777 -1.76777
      vertex 1 -2.5 2.22045e-16
      vertex 1 -3.34415 -3.01109
    endloop
  endfacet
  facet normal 1 0 2.22045e-16
    outer loop
      vertex 1 0 2.5
      vertex 1 1.76777 1.76777
      vertex 1 0.935603 4.40166
    endloop
  endfacet
  facet normal -2.05142e-16 -0.382683 0.92388
    outer loop
      vertex 35 0 2.5
      vertex 1 0 2.5
      vertex 1 -1.76777 1.76777
    endloop
  endfacet
  facet normal -2.05142e-16 -0.382683 0.92388
    outer loop
      vertex 35 -1.76777 1.76777
      vertex 35 0 2.5
      vertex 1 -1.76777 1.76777
    endloop
  endfacet
  facet normal -8.49728e-17 -0.92388 0.382683
    outer loop
      vertex 35 -1.76777 1.76777
      vertex 1 -1.76777 1.76777
      vertex 1 -2.5 2.22045e-16
    endloop
  endfacet
  facet normal -8.49728e-17 -0.92388 0.382683
    outer loop
      vertex 35 -2.5 7.77156e-15
      vertex 35 -1.76777 1.76777
      vertex 1 -2.5 2.22045e-16
    endloop
  endfacet
  facet normal 8.49728e-17 -0.92388 -0.382683
    outer loop
      vertex 35 -2.5 7.77156e-15
      vertex 1 -2.5 2.22045e-16
      vertex 1 -1.76777 -1.76777
    endloop
  endfacet
  facet normal 8.49728e-17 -0.92388 -0.382683
    outer loop
      vertex 35 -1.76777 -1.76777
      vertex 35 -2.5 7.77156e-15
      vertex 1 -1.76777 -1.76777
    endloop
  endfacet
  facet normal 2.05142e-16 -0.382683 -0.92388
    outer loop
      vertex 1 -1.76777 -1.76777
      vertex 1 0 -2.5
      vertex 35 -1.76777 -1.76777
    endloop
  endfacet
  facet normal 2.05142e-16 -0.382683 -0.92388
    outer loop
      vertex 35 -1.76777 -1.76777
      vertex 1 0 -2.5
      vertex 35 0 -2.5
    endloop
  endfacet
  facet normal 2.05142e-16 0.382683 -0.92388
    outer loop
      vertex 1 1.76777 -1.76777
      vertex 35 1.76777 -1.76777
      vertex 1 0 -2.5
    endloop
  endfacet
  facet normal 2.05142e-16 0.382683 -0.92388
    outer loop
      vertex 1 0 -2.5
      vertex 35 1.76777 -1.76777
      vertex 35 0 -2.5
    endloop
  endfacet
  facet normal 8.49728e-17 0.92388 -0.382683
    outer loop
      vertex 1 2.5 2.22045e-16
      vertex 35 2.5 7.77156e-15
      vertex 1 1.76777 -1.76777
    endloop
  endfacet
  facet normal 8.49728e-17 0.92388 -0.382683
    outer loop
      vertex 1 1.76777 -1.76777
      vertex 35 2.5 7.77156e-15
      vertex 35 1.76777 -1.76777
    endloop
  endfacet
  facet normal -8.49728e-17 0.92388 0.382683
    outer loop
      vertex 1 1.76777 1.76777
      vertex 35 1.76777 1.76777
      vertex 1 2.5 2.22045e-16
    endloop
  endfacet
  facet normal -8.49728e-17 0.92388 0.382683
    outer loop
      vertex 1 2.5 2.22045e-16
      vertex 35 1.76777 1.76777
      vertex 35 2.5 7.77156e-15
    endloop
  endfacet
  facet normal -2.05142e-16 0.382683 0.92388
    outer loop
      vertex 1 1.76777 1.76777
      vertex 1 0 2.5
      vertex 35 0 2.5
    endloop
  endfacet
  facet normal -2.05142e-16 0.382683 0.92388
    outer loop
      vertex 35 1.76777 1.76777
      vertex 1 1.76777 1.76777
      vertex 35 0 2.5
    endloop
  endfacet
  facet normal 1 0 2.22045e-16
    outer loop
      vertex 35 1.76777 1.76777
      vertex 35 0 2.5
      vertex 35 -1.76777 1.76777
    endloop
  endfacet
  facet normal 1 0 2.22045e-16
    outer loop
      vertex 35 -1 7.77156e-15
      vertex 35 1.76777 1.76777
      vertex 35 -2.5 7.77156e-15
    endloop
  endfacet
  facet normal 1 0 2.22045e-16
    outer loop
      vertex 35 -2.5 7.77156e-15
      vertex 35 1.76777 1.76777
      vertex 35 -1.76777 1.76777
    endloop
  endfacet
  facet normal 1 0 2.22045e-16
    outer loop
      vertex 35 -1 7.77156e-15
      vertex 35 1 7.77156e-15
      vertex 35 1.76777 1.76777
    endloop
  endfacet
  facet normal 1 0 2.22045e-16
    outer loop
      vertex 35 2.5 7.77156e-15
      vertex 35 1.76777 1.76777
      vertex 35 1.76777 -1.76777
    endloop
  endfacet
  facet normal 1 0 2.22045e-16
    outer loop
      vertex 35 -1.76777 -1.76777
      vertex 35 -1 7.77156e-15
      vertex 35 -2.5 7.77156e-15
    endloop
  endfacet
  facet normal 1 0 2.22045e-16
    outer loop
      vertex 35 1 -1
      vertex 35 -1.76777 -1.76777
      vertex 35 0 -2.5
    endloop
  endfacet
  facet normal 1 0 2.22045e-16
    outer loop
      vertex 35 1.76777 -1.76777
      vertex 35 1 -1
      vertex 35 0 -2.5
    endloop
  endfacet
  facet normal 1 0 2.22045e-16
    outer loop
      vertex 35 1.76777 -1.76777
      vertex 35 1.76777 1.76777
      vertex 35 1 -1
    endloop
  endfacet
  facet normal 1 0 2.22045e-16
    outer loop
      vertex 35 1 7.77156e-15
      vertex 35 1 -1
      vertex 35 1.76777 1.76777
    endloop
  endfacet
  facet normal 1 0 2.22045e-16
    outer loop
      vertex 35 -1 -1
      vertex 35 -1 7.77156e-15
      vertex 35 -1.76777 -1.76777
    endloop
  endfacet
  facet normal 1 0 2.22045e-16
    outer loop
      vertex 35 1 -1
      vertex 35 -1 -1
      vertex 35 -1.76777 -1.76777
    endloop
  endfacet
  facet normal -1 0 0
    outer loop
      vertex 35 -1 7.77156e-15
      vertex 35 -1 1
      vertex 35 1 7.77156e-15
    endloop
  endfacet
  facet normal -1 0 0
    outer loop
      vertex 35 1 7.77156e-15
      vertex 35 -1 1
      vertex 35 1 1
    endloop
  endfacet
  facet normal 0 -1 0
    outer loop
      vertex 35 -1 1
      vertex 35 -1 7.77156e-15
      vertex 35 -1 -1
    endloop
  endfacet
  facet normal 0 -1 0
    outer loop
      vertex 39 -1 1
      vertex 35 -1 1
      vertex 39 -1 -1
    endloop
  endfacet
  facet normal 0 -1 0
    outer loop
      vertex 39 -1 -1
      vertex 35 -1 1
      vertex 35 -1 -1
    endloop
  endfacet
  facet normal 0 0 -1
    outer loop
      vertex 35 -1 -1
      vertex 35 1 -1
      vertex 39 -1 -1
    endloop
  endfacet
  facet normal 0 0 -1
    outer loop
      vertex 39 -1 -1
      vertex 35 1 -1
      vertex 39 1 -1
    endloop
  endfacet
  facet normal 0 1 0
    outer loop
      vertex 35 1 7.77156e-15
      vertex 35 1 1
      vertex 35 1 -1
    endloop
  endfacet
  facet normal 0 1 0
    outer loop
      vertex 35 1 -1
      vertex 35 1 1
      vertex 39 1 1
    endloop
  endfacet
  facet normal 0 1 0
    outer loop
      vertex 35 1 -1
      vertex 39 1 1
      vertex 39 1 -1
    endloop
  endfacet
  facet normal 0 0 1
    outer loop
      vertex 35 1 1
      vertex 35 -1 1
      vertex 39 -1 1
    endloop
  endfacet
  facet normal 0 0 1
    outer loop
      vertex 39 1 1
      vertex 35 1 1
      vertex 39 -1 1
    endloop
  endfacet
  facet normal 1 0 0
    outer loop
      vertex 39 -1 1
      vertex 39 -1 -1
      vertex 39 1 -1
    endloop
  endfacet
  facet normal 1 0 0
    outer loop
      vertex 39 1 1
      vertex 39 -1 1
      vertex 39 1 -1
    endloop
  endfacet
endsolid OpenSCAD_Model
