<?xml version="1.0" encoding="UTF-8" standalone="no"?>
<!-- Gnu Emacs Icon

   Copyright (C) 2008, 2009
   Free Software Foundation, Inc.

   This file is part of GNU Emacs.

   GNU Emacs is free software: you can redistribute it and/or modify
   it under the terms of the GNU General Public License as published by
   the Free Software Foundation; either version 3 of the License, or
   (at your option) any later version.

   GNU Emacs is distributed in the hope that it will be useful,
   but WITHOUT ANY WARRANTY; without even the implied warranty of
   MERCHANTABILITY or FITNESS FOR A PARTICULAR PURPOSE.  See the
   GNU General Public License for more details.

   You should have received a copy of the GNU General Public License
   along with GNU Emacs.  If not, see <http://www.gnu.org/licenses/>.

-->

<!-- Created with Inkscape (http://www.inkscape.org/) -->

<svg
   xmlns:dc="http://purl.org/dc/elements/1.1/"
   xmlns:cc="http://creativecommons.org/ns#"
   xmlns:rdf="http://www.w3.org/1999/02/22-rdf-syntax-ns#"
   xmlns:svg="http://www.w3.org/2000/svg"
   xmlns="http://www.w3.org/2000/svg"
   xmlns:xlink="http://www.w3.org/1999/xlink"
   xmlns:sodipodi="http://sodipodi.sourceforge.net/DTD/sodipodi-0.dtd"
   xmlns:inkscape="http://www.inkscape.org/namespaces/inkscape"
   version="1.0"
   width="162.09375"
   height="162.125"
   viewBox="0.171 0.201 1729 1729.3333"
   id="svg4768"
   xml:space="preserve"
   inkscape:version="0.48.4 r9939"
   sodipodi:docname="EmacsIcon.svg"><metadata
   id="metadata70"><rdf:RDF><cc:Work
       rdf:about=""><dc:format>image/svg+xml</dc:format><dc:type
         rdf:resource="http://purl.org/dc/dcmitype/StillImage" /><dc:title></dc:title></cc:Work></rdf:RDF></metadata><sodipodi:namedview
   pagecolor="#ffffff"
   bordercolor="#666666"
   borderopacity="1"
   objecttolerance="10"
   gridtolerance="10"
   guidetolerance="10"
   inkscape:pageopacity="0"
   inkscape:pageshadow="2"
   inkscape:window-width="1536"
   inkscape:window-height="803"
   id="namedview68"
   showgrid="false"
   fit-margin-top="0"
   fit-margin-left="0"
   fit-margin-right="0"
   fit-margin-bottom="0"
   inkscape:zoom="1.7383042"
   inkscape:cx="259.23941"
   inkscape:cy="82.207272"
   inkscape:window-x="-8"
   inkscape:window-y="-8"
   inkscape:window-maximized="1"
   inkscape:current-layer="svg4768" />
<defs
   id="defs4770"><linearGradient
   id="linearGradient3294"><stop
     id="stop3296"
     style="stop-color:#6376e6;stop-opacity:1"
     offset="0" /><stop
     id="stop3302"
     style="stop-color:#222989;stop-opacity:1"
     offset="0.50094414" /><stop
     id="stop3298"
     style="stop-color:#00003d;stop-opacity:1"
     offset="1" /></linearGradient><linearGradient
   id="linearGradient3284"><stop
     id="stop3286"
     style="stop-color:#000000;stop-opacity:1"
     offset="0" /><stop
     id="stop3292"
     style="stop-color:#000000;stop-opacity:0.49803922"
     offset="0.84845906" /><stop
     id="stop3288"
     style="stop-color:#000000;stop-opacity:0"
     offset="1" /></linearGradient><linearGradient
   id="linearGradient3274"><stop
     id="stop3276"
     style="stop-color:#000000;stop-opacity:1"
     offset="0" /><stop
     id="stop3278"
     style="stop-color:#000000;stop-opacity:0"
     offset="1" /></linearGradient><linearGradient
   id="linearGradient3262"><stop
     id="stop3264"
     style="stop-color:#000000;stop-opacity:1"
     offset="0" /><stop
     id="stop3266"
     style="stop-color:#000000;stop-opacity:0"
     offset="1" /></linearGradient><linearGradient
   id="linearGradient3242"><stop
     id="stop3244"
     style="stop-color:#282828;stop-opacity:1"
     offset="0" /><stop
     id="stop3252"
     style="stop-color:#808080;stop-opacity:1"
     offset="0.39253417" /><stop
     id="stop3246"
     style="stop-color:#d9d9d9;stop-opacity:1"
     offset="1" /></linearGradient><linearGradient
   id="linearGradient3202"><stop
     id="stop3204"
     style="stop-color:#2b2b2b;stop-opacity:1"
     offset="0" /><stop
     id="stop3250"
     style="stop-color:#828383;stop-opacity:1"
     offset="0.5" /><stop
     id="stop3206"
     style="stop-color:#dadbdb;stop-opacity:1"
     offset="1" /></linearGradient><linearGradient
   id="linearGradient4966"><stop
     id="stop4968"
     style="stop-color:#b6b3d8;stop-opacity:1"
     offset="0" /><stop
     id="stop4970"
     style="stop-color:#b6b3d8;stop-opacity:0"
     offset="1" /></linearGradient><linearGradient
   id="linearGradient4938"><stop
     id="stop4940"
     style="stop-color:#000000;stop-opacity:1"
     offset="0" /><stop
     id="stop4942"
     style="stop-color:#000000;stop-opacity:0"
     offset="1" /></linearGradient><linearGradient
   id="linearGradient4898"><stop
     id="stop4900"
     style="stop-color:#bab8db;stop-opacity:1"
     offset="0" /><stop
     id="stop4902"
     style="stop-color:#5955a9;stop-opacity:0.99159664"
     offset="1" /></linearGradient><linearGradient
   id="linearGradient4876"><stop
     id="stop4878"
     style="stop-color:#d3d2e8;stop-opacity:1"
     offset="0" /><stop
     id="stop4880"
     style="stop-color:#5955a9;stop-opacity:0.99159664"
     offset="1" /></linearGradient>
<radialGradient
   cx="20.951529"
   cy="-108.96888"
   r="266.76535"
   fx="20.951529"
   fy="-108.96888"
   id="radialGradient4892"
   xlink:href="#linearGradient4898"
   gradientUnits="userSpaceOnUse"
   gradientTransform="matrix(0.6817439,0,0,0.5905355,-3.8523706,-28.935273)" /><radialGradient
   cx="233.8876"
   cy="471.26172"
   r="170.49393"
   fx="233.8876"
   fy="471.26172"
   id="radialGradient4944"
   xlink:href="#linearGradient4938"
   gradientUnits="userSpaceOnUse"
   gradientTransform="matrix(2.6785988,0,0,0.51511511,-2281.0841,470.97178)" /><radialGradient
   cx="299.70135"
   cy="371.76376"
   r="76.696358"
   fx="299.70135"
   fy="371.76376"
   id="radialGradient4972"
   xlink:href="#linearGradient4966"
   gradientUnits="userSpaceOnUse"
   gradientTransform="matrix(1,0,0,0.9121621,0,32.654948)" /><radialGradient
   cx="289.44067"
   cy="390.45248"
   r="17.67668"
   fx="289.44067"
   fy="390.45248"
   id="radialGradient3210"
   xlink:href="#linearGradient3202"
   gradientUnits="userSpaceOnUse"
   gradientTransform="matrix(0.414705,0.3300575,-0.5059004,0.6356454,346.95314,49.479585)" /><radialGradient
   cx="283.50717"
   cy="382.14804"
   r="17.67668"
   fx="283.50717"
   fy="382.14804"
   id="radialGradient3238"
   xlink:href="#linearGradient3202"
   gradientUnits="userSpaceOnUse"
   gradientTransform="matrix(0.414705,0.3300575,-0.5059004,0.6356454,448.41009,-65.398074)" /><radialGradient
   cx="418.45551"
   cy="181.18982"
   r="63.068935"
   fx="418.45551"
   fy="181.18982"
   id="radialGradient3248"
   xlink:href="#linearGradient3242"
   gradientUnits="userSpaceOnUse"
   gradientTransform="matrix(-0.06556501,-0.05972176,1.6871024,-1.8521705,171.90774,540.51473)" /><radialGradient
   cx="354.51709"
   cy="357.33591"
   r="33.712105"
   fx="354.51709"
   fy="357.33591"
   id="radialGradient3268"
   xlink:href="#linearGradient3262"
   gradientUnits="userSpaceOnUse"
   gradientTransform="matrix(0.4055116,-0.03344012,0.1034174,4.3988695,177.23251,-1191.6649)" /><radialGradient
   cx="510.58469"
   cy="223.55537"
   r="132.28336"
   fx="510.58469"
   fy="223.55537"
   id="radialGradient3280"
   xlink:href="#linearGradient3274"
   gradientUnits="userSpaceOnUse"
   gradientTransform="matrix(-0.1339874,-0.1146812,0.3079048,-0.3597394,444.23592,395.03849)" /><radialGradient
   cx="284.4671"
   cy="-158.17821"
   r="110.2972"
   fx="284.4671"
   fy="-158.17821"
   id="radialGradient3290"
   xlink:href="#linearGradient3284"
   gradientUnits="userSpaceOnUse"
   gradientTransform="matrix(-1.2497569,1.3798305,-0.09628946,-0.07297448,674.3826,-70.590682)" /><radialGradient
   cx="425.51019"
   cy="356.62274"
   r="143.34167"
   fx="425.51019"
   fy="356.62274"
   id="radialGradient3300"
   xlink:href="#linearGradient3294"
   gradientUnits="userSpaceOnUse"
   gradientTransform="matrix(-0.1008165,-0.08087232,1.0745309,-1.3395252,13.843287,784.79288)" /><radialGradient
   inkscape:collect="always"
   xlink:href="#linearGradient4938"
   id="radialGradient3222"
   gradientUnits="userSpaceOnUse"
   gradientTransform="matrix(2.6785988,0,0,0.51511511,-2281.0841,470.97178)"
   cx="233.8876"
   cy="471.26172"
   fx="233.8876"
   fy="471.26172"
   r="170.49393" /><radialGradient
   inkscape:collect="always"
   xlink:href="#linearGradient4898"
   id="radialGradient3224"
   gradientUnits="userSpaceOnUse"
   gradientTransform="matrix(0.6817439,0,0,0.5905355,-3.8523706,-28.935273)"
   cx="20.951529"
   cy="-108.96888"
   fx="20.951529"
   fy="-108.96888"
   r="266.76535" /><radialGradient
   inkscape:collect="always"
   xlink:href="#linearGradient4966"
   id="radialGradient3226"
   gradientUnits="userSpaceOnUse"
   gradientTransform="matrix(1,0,0,0.9121621,0,32.654948)"
   cx="299.70135"
   cy="371.76376"
   fx="299.70135"
   fy="371.76376"
   r="76.696358" /><radialGradient
   inkscape:collect="always"
   xlink:href="#linearGradient3284"
   id="radialGradient3228"
   gradientUnits="userSpaceOnUse"
   gradientTransform="matrix(-1.2497569,1.3798305,-0.09628946,-0.07297448,674.3826,-70.590682)"
   cx="284.4671"
   cy="-158.17821"
   fx="284.4671"
   fy="-158.17821"
   r="110.2972" /><radialGradient
   inkscape:collect="always"
   xlink:href="#linearGradient3294"
   id="radialGradient3230"
   gradientUnits="userSpaceOnUse"
   gradientTransform="matrix(-0.1008165,-0.08087232,1.0745309,-1.3395252,13.843287,784.79288)"
   cx="425.51019"
   cy="356.62274"
   fx="425.51019"
   fy="356.62274"
   r="143.34167" /><radialGradient
   inkscape:collect="always"
   xlink:href="#linearGradient3202"
   id="radialGradient3232"
   gradientUnits="userSpaceOnUse"
   gradientTransform="matrix(0.414705,0.3300575,-0.5059004,0.6356454,346.95314,49.479585)"
   cx="289.44067"
   cy="390.45248"
   fx="289.44067"
   fy="390.45248"
   r="17.67668" /><radialGradient
   inkscape:collect="always"
   xlink:href="#linearGradient3202"
   id="radialGradient3234"
   gradientUnits="userSpaceOnUse"
   gradientTransform="matrix(0.414705,0.3300575,-0.5059004,0.6356454,448.41009,-65.398074)"
   cx="283.50717"
   cy="382.14804"
   fx="283.50717"
   fy="382.14804"
   r="17.67668" /><radialGradient
   inkscape:collect="always"
   xlink:href="#linearGradient3242"
   id="radialGradient3236"
   gradientUnits="userSpaceOnUse"
   gradientTransform="matrix(-0.06556501,-0.05972176,1.6871024,-1.8521705,171.90774,540.51473)"
   cx="418.45551"
   cy="181.18982"
   fx="418.45551"
   fy="181.18982"
   r="63.068935" /></defs>
<rect
   width="512"
   height="512"
   x="2509.3914"
   y="596.6568"
   id="rect4772"
   style="fill:none;display:none" />



<g
   id="g4788"
   style="display:none"
   transform="translate(2509.2204,596.45582)">
	<g
   id="g4790"
   style="display:inline">
	</g>
</g>


<g
   id="g4806"
   style="display:none"
   transform="translate(2509.2204,596.45582)">
	<g
   id="g4808"
   style="display:inline">
		<path
   d="m 349.098,256.651 c -0.265,-0.254 37.637,27.605 39.421,25.012 6.362,-9.252 82.046,-93.137 84.784,-116.236 0.242,-2.003 -0.516,-4.096 -0.516,-4.096 0,0 -1.19,-0.144 -6.325,-4.314 -2.692,-2.192 -5.483,-4.581 -5.483,-4.581 -16.054,0.998 -57.885,41.559 -111.062,103.568"
   id="path4810"
   style="fill:#050505;display:none"
   inkscape:connector-curvature="0" />
	</g>
</g>



<g
   id="g4796"
   style="stroke:none"
   transform="translate(2509.2204,596.45582)">

	<g
   id="g4800"
   style="stroke:none">

	</g>
</g><g
   id="g4774"
   transform="translate(2509.2204,596.45582)">

</g><g
   id="g3193"
   transform="matrix(10.666667,0,0,10.666667,0.171,-0.13233334)"><path
     id="path3195"
     d="m 161.92914,81.070862 c 0,44.681098 -36.17717,80.893698 -80.858271,80.893698 -44.681104,0 -80.89370364,-36.2126 -80.89370364,-80.893698 0,-44.6811 36.21259964,-80.85826359 80.89370364,-80.85826359 44.681101,0 80.858271,36.17716359 80.858271,80.85826359 z"
     style="fill:#83ff08;fill-opacity:1;fill-rule:evenodd;stroke:#000000;stroke-width:0.35433072px;stroke-linecap:butt;stroke-linejoin:miter;stroke-miterlimit:4;stroke-opacity:1;stroke-dasharray:none"
     inkscape:connector-curvature="0" /><path
     id="path3197"
     d="m 148.96064,81.248027 c 0,37.629923 -30.47245,68.102363 -68.102369,68.102363 -37.629923,0 -68.137798,-30.47244 -68.137798,-68.102363 0,-37.629919 30.507875,-68.137791 68.137798,-68.137791 37.629919,0 68.102369,30.507872 68.102369,68.137791 z"
     style="fill:#701db8;fill-opacity:1;fill-rule:evenodd;stroke:none"
     inkscape:connector-curvature="0" /></g><g
   id="g3208"
   transform="translate(2509.2204,596.45582)"><path
     inkscape:connector-curvature="0"
     style="fill:url(#radialGradient3222);fill-opacity:1;stroke:#7b0000;stroke-width:0;stroke-miterlimit:4;stroke-opacity:1;stroke-dasharray:none"
     id="path4912"
     d="m -1197.9082,713.72584 c 0.052,48.51082 -204.4288,87.84181 -456.6848,87.84181 -252.2562,0 -456.736,-39.33099 -456.6848,-87.84181 -0.052,-48.51082 204.4286,-87.84182 456.6848,-87.84182 252.256,0 456.7359,39.331 456.6848,87.84182 z" /><g
     transform="matrix(1.9937989,0,0,1.9937989,-2117.8183,-209.34362)"
     id="g3117"><path
       inkscape:connector-curvature="0"
       d="m 277.19656,7.985198 c 0,157.044512 -119.43492,284.354252 -266.76535,284.354252 -147.33043,0 -266.76535,-127.30974 -266.76535,-284.354252 0,-157.044518 119.43492,-284.354248 266.76535,-284.354248 147.33043,0 266.76535,127.30973 266.76535,284.354248 z"
       transform="matrix(0.8855031,0,0,0.8392166,227.80221,232.6491)"
       id="path4864"
       style="fill:url(#radialGradient3224);fill-opacity:1;stroke:#7b0000;stroke-width:0;stroke-miterlimit:4;stroke-opacity:1;stroke-dasharray:none" /><path
       inkscape:connector-curvature="0"
       d="m 376.39771,371.76376 c 0.0118,38.64521 -34.32975,69.97908 -76.69636,69.97908 -42.3666,0 -76.7082,-31.33387 -76.69635,-69.97908 -0.0118,-38.64521 34.32975,-69.97908 76.69635,-69.97908 42.36661,0 76.70821,31.33387 76.69636,69.97908 l 0,0 z"
       transform="matrix(1.4594595,0,0,1,-195.74111,-13.473684)"
       id="path4946"
       style="fill:url(#radialGradient3226);fill-opacity:1;stroke:#7b0000;stroke-width:0;stroke-miterlimit:4;stroke-opacity:1;stroke-dasharray:none" /><path
       inkscape:connector-curvature="0"
       d="m 120.52728,395.60181 c 0,0 21.0078,6.09989 48.97166,9.58704 11.32467,1.41221 54.41295,6.34818 87.44939,6.21863 0,0 40.23552,0.0457 62.44534,-3.10931 23.23898,-3.30118 36.40486,-7.51418 43.73209,-15.92171 0.19087,-2.00464 3.53663,-8.53911 -5.49654,-14.84065 -23.09426,-16.11057 -52.94998,-20.52042 -110.9411,-34.29249 -64.127,-16.1227 -83.29128,-31.56149 -92.8653,-42.73463 -9.07685,-11.19791 1.70382,-34.45383 53.37652,-45.86235 26.16241,-6.36659 123.60277,-7.5364 123.60277,-7.5364 -27.95505,-22.19469 -80.43759,-61.93067 -91.16526,-70.38102 -9.40866,-7.41134 -24.57035,-18.78483 -26.20016,-28.94842 -2.19861,-9.89378 13.37492,-14.65745 21.61972,-15.2071 26.56661,-1.83218 62.84376,1.28253 95.09012,7.69516 16.20882,3.22335 19.05466,2.74827 19.05466,2.74827 23.08547,1.09931 41.04083,-10.99307 40.12474,-36.46038 -0.18322,-25.833726 -26.01233,-46.548603 -54.59895,-47.453444 -26.92018,-0.852094 -93.25794,3.847576 -93.25794,3.847576 77.31798,15.939963 89.95772,20.007744 93.99081,29.314873 2.38183,5.49654 -3.9787,10.961515 -25.28408,9.893765 -23.19489,-1.16245 -70.72213,-6.77906 -70.72213,-6.77906 -45.25483,-6.962282 -76.76832,-13.558129 -90.50967,4.397231 -8.97739,11.730469 1.28253,26.016949 5.31332,34.444969 17.95537,31.33028 49.00385,52.82523 68.70674,67.97387 7.41341,5.69982 30.04774,18.32179 30.04774,18.32179 -70.35569,-19.23789 -126.42038,-8.42803 -161.964666,10.2602 -40.857604,24.18477 -33.868518,64.9968 30.963836,103.15172 38.29255,22.5358 57.35854,33.36185 120.05537,41.05922 36.6472,5.84342 42.10791,8.23438 41.82939,11.28471 -0.39214,4.29458 -43.37561,5.92204 -55.19029,6.73685 -30.05668,2.07287 -107.78947,2.59109 -108.17813,2.59109 z"
       id="path4839"
       style="fill:#ffffff;fill-opacity:1;fill-rule:evenodd;stroke:#000000;stroke-width:0;stroke-linecap:butt;stroke-linejoin:miter;stroke-miterlimit:4;stroke-opacity:1;stroke-dasharray:none" /><g
       id="g4820">

	<path
   inkscape:connector-curvature="0"
   d="m 279.476,404.243 c -0.007,-0.004 -7.446,-4.112 -16.804,-11.401 l 0,0 c -8.082,-6.285 -13.538,-12.214 -13.544,-12.22 l 0,0 -0.122,-0.133 3.646,-4.669 0.157,-0.205 0.169,0.197 c 0.017,0.01 5.4,6.295 13.725,12.78 l 0,0 c 7.913,6.157 16.594,10.586 16.612,10.595 l 0,0 0.229,0.117 -3.911,5.026 -0.157,-0.087 0,0 z m -16.542,-11.737 c 8.545,6.656 15.469,10.644 16.589,11.275 l 0,0 3.372,-4.334 c -1.423,-0.743 -9.253,-4.919 -16.453,-10.521 l 0,0 c -7.504,-5.845 -12.637,-11.533 -13.614,-12.645 l 0,0 -3.264,4.184 c 0.849,0.905 6.01,6.32 13.37,12.041 l 0,0 z"
   id="path4824"
   style="fill:#4d4d4d" />
</g><rect
       width="378.89471"
       height="389.88782"
       x="129.8893"
       y="112.05299"
       id="rect3282"
       style="fill:url(#radialGradient3228);fill-opacity:1;stroke:#4a4a4a;stroke-width:0;stroke-miterlimit:4;stroke-opacity:1;stroke-dasharray:none" /><path
       inkscape:connector-curvature="0"
       d="m 279.41935,402.42925 c 0,0 53.22674,-57.10351 105.32613,-119.98356 l 2.27572,0.70267 c 0,0 108.04858,-118.41295 81.61943,-127.99999 0,0 -13.21457,-26.17004 -116.85829,99.75708 l -0.19931,1.88973 c -47.81988,55.1486 -100.95309,122.38959 -100.95309,122.38959 -41.04082,58.99617 -65.40881,102.60205 -63.39341,106.81606 2.73952,5.7281 92.34185,-82.99773 92.18282,-83.57158 z"
       id="path3254"
       style="fill:url(#radialGradient3230);fill-opacity:1;fill-rule:evenodd;stroke:#000030;stroke-width:0.5;stroke-linecap:butt;stroke-linejoin:miter;stroke-miterlimit:4;stroke-opacity:1;stroke-dasharray:none" /><path
       inkscape:connector-curvature="0"
       d="m 248.88937,380.28407 c 11.63434,11.90918 30.5974,24.00156 30.5974,24.00156 l 3.75596,-4.76367 c -12.86808,-6.7251 -30.78061,-23.81833 -30.78061,-23.81833 l -3.57275,4.58044 z"
       id="path2430"
       style="fill:url(#radialGradient3232);fill-opacity:1;fill-rule:evenodd;stroke:#606060;stroke-width:0.5;stroke-linecap:butt;stroke-linejoin:miter;stroke-miterlimit:4;stroke-opacity:1;stroke-dasharray:none" /><path
       inkscape:connector-curvature="0"
       d="m 349.52184,256.42873 c 20.52041,13.1001 36.64359,28.94845 36.64359,28.94845 l 2.74826,-3.20632 C 377.9694,270.59048 352.22755,253.07064 352.22755,253.07064 l -2.70571,3.35809 z"
       id="path3236"
       style="fill:url(#radialGradient3234);fill-opacity:1;fill-rule:evenodd;stroke:#606060;stroke-width:0.5;stroke-linecap:butt;stroke-linejoin:miter;stroke-miterlimit:4;stroke-opacity:1;stroke-dasharray:none" /><path
       inkscape:connector-curvature="0"
       d="m 462.24667,151.81129 c 10.80986,0.91608 12.64205,10.44342 12.64205,10.44342 -49.28564,51.30103 -121.47351,125.87074 -121.47351,125.87074 l -3.66436,-3.11471 C 413.32748,208.79208 462.24667,151.81129 462.24667,151.81129"
       id="path3240"
       style="fill:url(#radialGradient3236);fill-opacity:1;fill-rule:evenodd;stroke:#4a4a4a;stroke-width:0.60000002;stroke-linecap:butt;stroke-linejoin:miter;stroke-miterlimit:4;stroke-opacity:1;stroke-dasharray:none" /></g></g></svg>