<?xml version="1.0" encoding="UTF-8" standalone="no"?>
<!-- Created with Inkscape (http://www.inkscape.org/) -->

<svg
   xmlns:dc="http://purl.org/dc/elements/1.1/"
   xmlns:cc="http://creativecommons.org/ns#"
   xmlns:rdf="http://www.w3.org/1999/02/22-rdf-syntax-ns#"
   xmlns:svg="http://www.w3.org/2000/svg"
   xmlns="http://www.w3.org/2000/svg"
   xmlns:sodipodi="http://sodipodi.sourceforge.net/DTD/sodipodi-0.dtd"
   xmlns:inkscape="http://www.inkscape.org/namespaces/inkscape"
   width="162.14316"
   height="162.14316"
   id="svg2"
   version="1.1"
   inkscape:version="0.48.4 r9939"
   sodipodi:docname="Новый документ 1">
  <defs
     id="defs4" />
  <sodipodi:namedview
     id="base"
     pagecolor="#ffffff"
     bordercolor="#666666"
     borderopacity="1.0"
     inkscape:pageopacity="0.0"
     inkscape:pageshadow="2"
     inkscape:zoom="1.979899"
     inkscape:cx="119.83762"
     inkscape:cy="56.594138"
     inkscape:document-units="px"
     inkscape:current-layer="layer1"
     showgrid="false"
     fit-margin-top="0"
     fit-margin-left="0"
     fit-margin-right="0"
     fit-margin-bottom="0"
     inkscape:window-width="1536"
     inkscape:window-height="803"
     inkscape:window-x="-8"
     inkscape:window-y="-8"
     inkscape:window-maximized="1" />
  <metadata
     id="metadata7">
    <rdf:RDF>
      <cc:Work
         rdf:about="">
        <dc:format>image/svg+xml</dc:format>
        <dc:type
           rdf:resource="http://purl.org/dc/dcmitype/StillImage" />
        <dc:title></dc:title>
      </cc:Work>
    </rdf:RDF>
  </metadata>
  <g
     inkscape:label="Layer 1"
     inkscape:groupmode="layer"
     id="layer1"
     transform="translate(-341.78296,-402.72328)">
    <path
       sodipodi:type="arc"
       style="fill:#ffc90f;fill-opacity:1;fill-rule:evenodd;stroke:#000000;stroke-width:0.99975598;stroke-linecap:butt;stroke-linejoin:miter;stroke-miterlimit:4;stroke-opacity:1;stroke-dasharray:none"
       id="path3001"
       sodipodi:cx="316.42856"
       sodipodi:cy="564.50507"
       sodipodi:rx="207.85715"
       sodipodi:ry="207.85715"
       d="m 524.28571,564.50507 c 0,114.79633 -93.06082,207.85714 -207.85715,207.85714 -114.79633,0 -207.85715,-93.06081 -207.85715,-207.85714 0,-114.79634 93.06082,-207.85715 207.85715,-207.85715 114.79633,0 207.85715,93.06081 207.85715,207.85715 z"
       transform="matrix(0.38909494,0,0,0.38909494,299.73639,264.14469)" />
    <path
       transform="matrix(0.32773612,0,0,0.32773612,318.92973,298.94881)"
       d="m 524.28571,564.50507 c 0,114.79633 -93.06082,207.85714 -207.85715,207.85714 -114.79633,0 -207.85715,-93.06081 -207.85715,-207.85714 0,-114.79634 93.06082,-207.85715 207.85715,-207.85715 114.79633,0 207.85715,93.06081 207.85715,207.85715 z"
       sodipodi:ry="207.85715"
       sodipodi:rx="207.85715"
       sodipodi:cy="564.50507"
       sodipodi:cx="316.42856"
       id="path3003"
       style="fill:#2a17b1;fill-opacity:1;fill-rule:evenodd;stroke-width:1.18693054;stroke-linejoin:miter;stroke-miterlimit:4;stroke-dasharray:none"
       sodipodi:type="arc" />
    <g
       id="g7"
       transform="matrix(0.12454148,0,0,0.12454148,381.44097,437.98309)">
      <title
         id="title9">Layer 1</title>
      <path
         id="path4854"
         d="m 79.672157,51.79158 c -36.736916,0 -66.602676,29.933777 -66.602676,66.6707 l 0,511.66376 c 0,36.80493 29.865761,66.80676 66.602676,66.80676 l 511.663723,0 c 36.80499,0 66.73877,-30.00183 66.73877,-66.80676 l 0,-511.66376 c 0,-36.736923 -29.93378,-66.6707 -66.73877,-66.6707 l -511.663723,0 z"
         inkscape:connector-curvature="0"
         style="fill:#ffffff;fill-rule:nonzero" />
      <path
         id="path4856"
         d="m 604.05774,643.7323 c -11.70142,0 -22.85852,-2.72125 -32.79108,-7.21137 -10.40881,-4.76214 -21.97418,-7.55145 -33.87964,-7.55145 -12.10956,0 -23.67492,2.78931 -33.87957,7.55145 -10.00061,4.49012 -21.29383,7.21137 -32.85917,7.21137 -11.70138,0 -22.99459,-2.72125 -32.92718,-7.21137 -10.27271,-4.76214 -21.77002,-7.55145 -33.87958,-7.55145 -11.97354,0 -23.53885,2.78931 -33.74356,7.55145 -10.00061,4.49012 -21.29382,7.21137 -32.99521,7.21137 -11.70138,0 -22.85852,-2.72125 -32.79111,-7.21137 -10.20468,-4.76214 -21.77002,-7.55145 -33.8796,-7.55145 -11.97352,0 -23.53885,2.78931 -33.87961,7.55145 -10.00061,4.49012 -21.15775,7.21137 -32.79109,7.21137 -11.70141,0 -22.85854,-2.72125 -32.79113,-7.21137 -10.20469,-4.76214 -21.77002,-7.55145 -33.8796,-7.55145 -11.97351,0 -23.53884,2.78931 -33.8796,7.55145 -10.000607,4.49012 -21.15775,7.21137 -32.859143,7.21137 l 0,-49.32275 c 11.701393,0 22.858536,-2.6532 32.859143,-7.21131 10.34076,-4.62616 21.90609,-7.4154 33.8796,-7.4154 12.10958,0 23.67491,2.78924 33.8796,7.4154 9.93259,4.55811 21.08973,7.21131 32.79113,7.21131 11.63334,0 22.79048,-2.6532 32.79109,-7.21131 10.34076,-4.62616 21.90609,-7.4154 33.87961,-7.4154 12.10958,0 23.67492,2.78924 33.8796,7.4154 9.93259,4.55811 21.08973,7.21131 32.79111,7.21131 11.70139,0 22.9946,-2.6532 32.99521,-7.21131 10.20471,-4.62616 21.77002,-7.4154 33.74356,-7.4154 12.10956,0 23.60687,2.78924 33.87958,7.4154 9.93259,4.55811 21.2258,7.21131 32.92718,7.21131 11.56534,0 22.85855,-2.6532 32.85916,-7.21131 10.20466,-4.62616 21.77002,-7.4154 33.87958,-7.4154 11.90546,0 23.47083,2.78924 33.87964,7.4154 9.93256,4.55811 21.08966,7.21131 32.79108,7.21131 l 0,49.32275 z"
         inkscape:connector-curvature="0"
         style="fill:#0000ff;fill-rule:nonzero" />
      <path
         id="path4858"
         d="m 388.53445,541.88934 c 5.03431,-1.02044 10.13666,-1.56469 15.30707,-1.56469 12.10956,0 23.60687,2.7893 33.87958,7.4154 9.93259,4.55811 21.2258,7.21131 32.92718,7.21131 11.56534,0 22.85856,-2.6532 32.85917,-7.21131 7.0072,-3.19745 14.55865,-5.71466 22.72247,-6.73511 -4.42206,-132.2529 -142.3216,-250.21926 -148.8526,-256.34207 -6.73511,-6.12283 -12.99399,-19.52499 -8.63999,-35.30829 l 32.99521,-108.9862 c 5.78266,-16.87177 2.92533,-39.45818 -5.23843,-46.26131 -4.62613,-3.673691 -14.49066,-6.326912 -21.08972,1.224556 L 286.21533,196.42621 c -19.52502,20.74956 -3.19748,42.92779 -3.53763,42.79172 -30.34198,-10.88501 -65.92238,-3.60569 -87.55635,5.30642 l -73.60991,37.34922 c -7.27935,3.0614 -10.47683,12.38171 -6.59904,18.64059 12.17761,19.52499 52.72429,19.66107 137.15117,10.47684 136.47088,-14.62674 136.60696,203.95797 136.47088,230.89834"
         inkscape:connector-curvature="0"
         style="fill:#0000ff;fill-rule:nonzero" />
    </g>
  </g>
</svg>
